M48
; DRILL file {KiCad 5.1.4+dfsg1-1} date Fri Apr 10 18:02:33 2020
; FORMAT={-:-/ absolute / inch / decimal}
; #@! TF.CreationDate,2020-04-10T18:02:33-04:00
; #@! TF.GenerationSoftware,Kicad,Pcbnew,5.1.4+dfsg1-1
; #@! TF.FileFunction,Plated,1,2,PTH
FMAT,2
INCH
T1C0.0315
T2C0.0350
T3C0.0394
T4C0.0400
T5C0.0450
%
G90
G05
T1
X6.0815Y-5.123
X4.4019Y-4.7585
X4.4019Y-4.9554
X5.1617Y-4.7614
X5.1617Y-4.9582
X4.4019Y-5.0908
X4.4019Y-5.2876
X5.1617Y-5.1023
X5.1617Y-5.2992
X6.0815Y-5.3198
X6.0815Y-4.753
X6.0815Y-4.9498
T2
X3.7817Y-5.2147
X4.5568Y-5.2146
X4.5568Y-4.8494
X3.7817Y-4.8495
X5.7883Y-5.2157
X5.7876Y-4.85
T3
X5.8929Y-4.9354
X5.8929Y-5.0354
X5.8929Y-5.1354
T4
X3.5378Y-4.7717
X3.5378Y-4.8717
X3.5378Y-4.9717
X3.5378Y-5.0717
X3.6378Y-4.7717
X3.6378Y-4.8717
X3.6378Y-4.9717
X3.6378Y-5.0717
T5
X5.3563Y-5.2157
X5.6933Y-5.2157
X3.8767Y-5.2147
X4.2137Y-5.2147
X4.6518Y-5.2146
X4.9888Y-5.2146
X4.6518Y-4.8494
X4.9888Y-4.8494
X3.8767Y-4.8495
X4.2137Y-4.8495
T5
G00X5.3556Y-4.8303
M15
G01X5.3556Y-4.8697
M16
G05
G00X5.6926Y-4.8303
M15
G01X5.6926Y-4.8697
M16
G05
T0
M30
