M48
; DRILL file {KiCad (5.1.5)-3} date 06/13/20 04:32:42
; FORMAT={-:-/ absolute / inch / decimal}
; #@! TF.CreationDate,2020-06-13T04:32:42-04:00
; #@! TF.GenerationSoftware,Kicad,Pcbnew,(5.1.5)-3
; #@! TF.FileFunction,Plated,1,2,PTH
FMAT,2
INCH
T1C0.0315
T2C0.0350
T3C0.0394
T4C0.0400
T5C0.0450
T6C0.0630
%
G90
G05
T1
X4.4019Y-4.7585
X5.1617Y-5.1023
X5.1617Y-5.2992
X6.0815Y-4.753
X6.0815Y-4.9498
X4.4019Y-5.0908
X4.4019Y-5.2876
X4.4019Y-4.9554
X6.0815Y-5.123
X6.0815Y-5.3198
X5.1617Y-4.7614
X5.1617Y-4.9582
T2
X5.7876Y-4.85
T3
X5.8929Y-4.9354
X5.8929Y-5.0354
X5.8929Y-5.1354
T4
X3.5378Y-4.7717
X3.5378Y-4.8717
X3.5378Y-4.9717
X3.5378Y-5.0717
X3.6378Y-4.7717
X3.6378Y-4.8717
X3.6378Y-4.9717
X3.6378Y-5.0717
T6
X4.5515Y-5.2146
X4.6507Y-5.2146
X4.9775Y-5.2146
X5.3676Y-5.2157
X5.6943Y-5.2157
X5.7935Y-5.2157
X4.5515Y-4.8494
X4.6507Y-4.8494
X4.9775Y-4.8494
X3.7764Y-4.8495
X3.8756Y-4.8495
X4.2024Y-4.8495
X3.7764Y-5.2147
X3.8756Y-5.2147
X4.2024Y-5.2147
T5
G00X5.3556Y-4.8303
M15
G01X5.3556Y-4.8697
M16
G05
G00X5.6926Y-4.8303
M15
G01X5.6926Y-4.8697
M16
G05
T0
M30
