G04 #@! TF.GenerationSoftware,KiCad,Pcbnew,5.1.4+dfsg1-1*
G04 #@! TF.CreationDate,2020-04-10T18:02:35-04:00*
G04 #@! TF.ProjectId,LilMix,4c696c4d-6978-42e6-9b69-6361645f7063,rev?*
G04 #@! TF.SameCoordinates,Original*
G04 #@! TF.FileFunction,Copper,L1,Top*
G04 #@! TF.FilePolarity,Positive*
%FSLAX46Y46*%
G04 Gerber Fmt 4.6, Leading zero omitted, Abs format (unit mm)*
G04 Created by KiCad (PCBNEW 5.1.4+dfsg1-1) date 2020-04-10 18:02:35*
%MOMM*%
%LPD*%
G04 APERTURE LIST*
%ADD10O,1.700000X1.700000*%
%ADD11R,1.700000X1.700000*%
%ADD12C,1.600000*%
%ADD13C,1.930400*%
%ADD14C,0.100000*%
%ADD15O,1.727200X1.727200*%
%ADD16R,1.727200X1.727200*%
%ADD17C,0.250000*%
%ADD18C,0.300000*%
%ADD19C,0.254000*%
G04 APERTURE END LIST*
D10*
X149680000Y-125360000D03*
X149680000Y-127900000D03*
D11*
X149680000Y-130440000D03*
D12*
X131107000Y-134599000D03*
X131107000Y-129599000D03*
D13*
X126715000Y-123175000D03*
X115742200Y-123175000D03*
X118155200Y-123175000D03*
D12*
X111807000Y-125866000D03*
X111807000Y-120866000D03*
D13*
X126715000Y-132450000D03*
X115742200Y-132450000D03*
X118155200Y-132450000D03*
X144608800Y-132480000D03*
X147021800Y-132480000D03*
X136049000Y-132480000D03*
D14*
G36*
X145122703Y-121227124D02*
G01*
X145169551Y-121234073D01*
X145215491Y-121245581D01*
X145260083Y-121261536D01*
X145302896Y-121281785D01*
X145343518Y-121306133D01*
X145381558Y-121334345D01*
X145416650Y-121366150D01*
X145448455Y-121401242D01*
X145476667Y-121439282D01*
X145501015Y-121479904D01*
X145521264Y-121522717D01*
X145537219Y-121567309D01*
X145548727Y-121613249D01*
X145555676Y-121660097D01*
X145558000Y-121707400D01*
X145558000Y-124672600D01*
X145555676Y-124719903D01*
X145548727Y-124766751D01*
X145537219Y-124812691D01*
X145521264Y-124857283D01*
X145501015Y-124900096D01*
X145476667Y-124940718D01*
X145448455Y-124978758D01*
X145416650Y-125013850D01*
X145381558Y-125045655D01*
X145343518Y-125073867D01*
X145302896Y-125098215D01*
X145260083Y-125118464D01*
X145215491Y-125134419D01*
X145169551Y-125145927D01*
X145122703Y-125152876D01*
X145075400Y-125155200D01*
X144110200Y-125155200D01*
X144062897Y-125152876D01*
X144016049Y-125145927D01*
X143970109Y-125134419D01*
X143925517Y-125118464D01*
X143882704Y-125098215D01*
X143842082Y-125073867D01*
X143804042Y-125045655D01*
X143768950Y-125013850D01*
X143737145Y-124978758D01*
X143708933Y-124940718D01*
X143684585Y-124900096D01*
X143664336Y-124857283D01*
X143648381Y-124812691D01*
X143636873Y-124766751D01*
X143629924Y-124719903D01*
X143627600Y-124672600D01*
X143627600Y-121707400D01*
X143629924Y-121660097D01*
X143636873Y-121613249D01*
X143648381Y-121567309D01*
X143664336Y-121522717D01*
X143684585Y-121479904D01*
X143708933Y-121439282D01*
X143737145Y-121401242D01*
X143768950Y-121366150D01*
X143804042Y-121334345D01*
X143842082Y-121306133D01*
X143882704Y-121281785D01*
X143925517Y-121261536D01*
X143970109Y-121245581D01*
X144016049Y-121234073D01*
X144062897Y-121227124D01*
X144110200Y-121224800D01*
X145075400Y-121224800D01*
X145122703Y-121227124D01*
X145122703Y-121227124D01*
G37*
D13*
X144592800Y-123190000D03*
X147005800Y-123190000D03*
D14*
G36*
X136562903Y-121227124D02*
G01*
X136609751Y-121234073D01*
X136655691Y-121245581D01*
X136700283Y-121261536D01*
X136743096Y-121281785D01*
X136783718Y-121306133D01*
X136821758Y-121334345D01*
X136856850Y-121366150D01*
X136888655Y-121401242D01*
X136916867Y-121439282D01*
X136941215Y-121479904D01*
X136961464Y-121522717D01*
X136977419Y-121567309D01*
X136988927Y-121613249D01*
X136995876Y-121660097D01*
X136998200Y-121707400D01*
X136998200Y-124672600D01*
X136995876Y-124719903D01*
X136988927Y-124766751D01*
X136977419Y-124812691D01*
X136961464Y-124857283D01*
X136941215Y-124900096D01*
X136916867Y-124940718D01*
X136888655Y-124978758D01*
X136856850Y-125013850D01*
X136821758Y-125045655D01*
X136783718Y-125073867D01*
X136743096Y-125098215D01*
X136700283Y-125118464D01*
X136655691Y-125134419D01*
X136609751Y-125145927D01*
X136562903Y-125152876D01*
X136515600Y-125155200D01*
X135550400Y-125155200D01*
X135503097Y-125152876D01*
X135456249Y-125145927D01*
X135410309Y-125134419D01*
X135365717Y-125118464D01*
X135322904Y-125098215D01*
X135282282Y-125073867D01*
X135244242Y-125045655D01*
X135209150Y-125013850D01*
X135177345Y-124978758D01*
X135149133Y-124940718D01*
X135124785Y-124900096D01*
X135104536Y-124857283D01*
X135088581Y-124812691D01*
X135077073Y-124766751D01*
X135070124Y-124719903D01*
X135067800Y-124672600D01*
X135067800Y-121707400D01*
X135070124Y-121660097D01*
X135077073Y-121613249D01*
X135088581Y-121567309D01*
X135104536Y-121522717D01*
X135124785Y-121479904D01*
X135149133Y-121439282D01*
X135177345Y-121401242D01*
X135209150Y-121366150D01*
X135244242Y-121334345D01*
X135282282Y-121306133D01*
X135322904Y-121281785D01*
X135365717Y-121261536D01*
X135410309Y-121245581D01*
X135456249Y-121234073D01*
X135503097Y-121227124D01*
X135550400Y-121224800D01*
X136515600Y-121224800D01*
X136562903Y-121227124D01*
X136562903Y-121227124D01*
G37*
D13*
X136033000Y-123190000D03*
D12*
X111807000Y-129306000D03*
X111807000Y-134306000D03*
X154469000Y-120726000D03*
X154469000Y-125726000D03*
D15*
X89860000Y-128820000D03*
X92400000Y-128820000D03*
X89860000Y-126280000D03*
X92400000Y-126280000D03*
X89860000Y-123740000D03*
X92400000Y-123740000D03*
X89860000Y-121200000D03*
D16*
X92400000Y-121200000D03*
D13*
X98468200Y-123178000D03*
X96055200Y-123178000D03*
X107028000Y-123178000D03*
X98468200Y-132453000D03*
X96055200Y-132453000D03*
X107028000Y-132453000D03*
D12*
X154469000Y-130124000D03*
X154469000Y-135124000D03*
X131107000Y-120939000D03*
X131107000Y-125939000D03*
D17*
X96055200Y-129604800D02*
X98468200Y-127191800D01*
X98468200Y-127191800D02*
X98468200Y-123178000D01*
X96055200Y-132453000D02*
X96055200Y-129604800D01*
D18*
X98468200Y-123178000D02*
X99833198Y-123178000D01*
X99833198Y-123178000D02*
X101351198Y-121660000D01*
X101351198Y-121660000D02*
X107601000Y-121660000D01*
X107601000Y-121660000D02*
X111807000Y-125866000D01*
X115742200Y-129022800D02*
X118155200Y-126609800D01*
X118155200Y-126609800D02*
X118155200Y-123175000D01*
X115742200Y-132450000D02*
X115742200Y-129022800D01*
X107028000Y-132453000D02*
X106062801Y-131487801D01*
X106062801Y-131487801D02*
X106062801Y-124143199D01*
X106062801Y-124143199D02*
X107028000Y-123178000D01*
X147030000Y-126360000D02*
X144605000Y-128785000D01*
X147030000Y-124582198D02*
X147030000Y-126360000D01*
X147021800Y-123209000D02*
X147021800Y-124573998D01*
X147021800Y-124573998D02*
X147030000Y-124582198D01*
X126715000Y-123175000D02*
X126715000Y-124539998D01*
X126715000Y-124539998D02*
X126715000Y-132450000D01*
X144605000Y-128785000D02*
X139744000Y-128785000D01*
X139744000Y-128785000D02*
X136049000Y-132480000D01*
X151830000Y-134840000D02*
X154469000Y-132201000D01*
X154469000Y-132201000D02*
X154469000Y-130124000D01*
X145603802Y-134840000D02*
X151830000Y-134840000D01*
X144608800Y-132480000D02*
X144608800Y-133844998D01*
X144608800Y-133844998D02*
X145603802Y-134840000D01*
X93930000Y-122910000D02*
X93930000Y-127290000D01*
X93930000Y-127290000D02*
X92400000Y-128820000D01*
X93930000Y-122910000D02*
X95974000Y-120866000D01*
X95974000Y-120866000D02*
X111807000Y-120866000D01*
X111807000Y-130833000D02*
X111807000Y-129306000D01*
X98468200Y-132453000D02*
X100875200Y-134860000D01*
X100875200Y-134860000D02*
X107780000Y-134860000D01*
X107780000Y-134860000D02*
X111807000Y-130833000D01*
D19*
G36*
X156196497Y-119305677D02*
G01*
X156360639Y-119355356D01*
X156511885Y-119436183D01*
X156644395Y-119545034D01*
X156753055Y-119677709D01*
X156833660Y-119829075D01*
X156883097Y-119993286D01*
X156900055Y-120170257D01*
X156855926Y-135306313D01*
X156838100Y-135482376D01*
X156788161Y-135645610D01*
X156707390Y-135795994D01*
X156598883Y-135927770D01*
X156466791Y-136035893D01*
X156316173Y-136116223D01*
X156152792Y-136165687D01*
X155976681Y-136183000D01*
X155439396Y-136183000D01*
X155583637Y-136038759D01*
X155740680Y-135803727D01*
X155848853Y-135542574D01*
X155904000Y-135265335D01*
X155904000Y-134982665D01*
X155848853Y-134705426D01*
X155740680Y-134444273D01*
X155583637Y-134209241D01*
X155383759Y-134009363D01*
X155148727Y-133852320D01*
X154887574Y-133744147D01*
X154610335Y-133689000D01*
X154327665Y-133689000D01*
X154050426Y-133744147D01*
X154025816Y-133754341D01*
X154996811Y-132783346D01*
X155026764Y-132758764D01*
X155124862Y-132639233D01*
X155197754Y-132502860D01*
X155202329Y-132487778D01*
X155242642Y-132354887D01*
X155250020Y-132279974D01*
X155254000Y-132239561D01*
X155254000Y-132239556D01*
X155257797Y-132201000D01*
X155254000Y-132162444D01*
X155254000Y-131325339D01*
X155383759Y-131238637D01*
X155583637Y-131038759D01*
X155740680Y-130803727D01*
X155848853Y-130542574D01*
X155904000Y-130265335D01*
X155904000Y-129982665D01*
X155848853Y-129705426D01*
X155740680Y-129444273D01*
X155583637Y-129209241D01*
X155383759Y-129009363D01*
X155148727Y-128852320D01*
X154887574Y-128744147D01*
X154610335Y-128689000D01*
X154327665Y-128689000D01*
X154050426Y-128744147D01*
X153789273Y-128852320D01*
X153554241Y-129009363D01*
X153354363Y-129209241D01*
X153197320Y-129444273D01*
X153089147Y-129705426D01*
X153034000Y-129982665D01*
X153034000Y-130265335D01*
X153089147Y-130542574D01*
X153197320Y-130803727D01*
X153354363Y-131038759D01*
X153554241Y-131238637D01*
X153684000Y-131325339D01*
X153684000Y-131875843D01*
X151504843Y-134055000D01*
X147306097Y-134055000D01*
X147488561Y-134018706D01*
X147779779Y-133898079D01*
X148041868Y-133722957D01*
X148264757Y-133500068D01*
X148439879Y-133237979D01*
X148560506Y-132946761D01*
X148622000Y-132637606D01*
X148622000Y-132322394D01*
X148560506Y-132013239D01*
X148482159Y-131824093D01*
X148585820Y-131879502D01*
X148705518Y-131915812D01*
X148830000Y-131928072D01*
X150530000Y-131928072D01*
X150654482Y-131915812D01*
X150774180Y-131879502D01*
X150884494Y-131820537D01*
X150981185Y-131741185D01*
X151060537Y-131644494D01*
X151119502Y-131534180D01*
X151155812Y-131414482D01*
X151168072Y-131290000D01*
X151168072Y-129590000D01*
X151155812Y-129465518D01*
X151119502Y-129345820D01*
X151060537Y-129235506D01*
X150981185Y-129138815D01*
X150884494Y-129059463D01*
X150774180Y-129000498D01*
X150705313Y-128979607D01*
X150735134Y-128955134D01*
X150920706Y-128729014D01*
X151058599Y-128471034D01*
X151143513Y-128191111D01*
X151172185Y-127900000D01*
X151143513Y-127608889D01*
X151058599Y-127328966D01*
X150920706Y-127070986D01*
X150735134Y-126844866D01*
X150509014Y-126659294D01*
X150454209Y-126630000D01*
X150509014Y-126600706D01*
X150735134Y-126415134D01*
X150920706Y-126189014D01*
X151058599Y-125931034D01*
X151143513Y-125651111D01*
X151150057Y-125584665D01*
X153034000Y-125584665D01*
X153034000Y-125867335D01*
X153089147Y-126144574D01*
X153197320Y-126405727D01*
X153354363Y-126640759D01*
X153554241Y-126840637D01*
X153789273Y-126997680D01*
X154050426Y-127105853D01*
X154327665Y-127161000D01*
X154610335Y-127161000D01*
X154887574Y-127105853D01*
X155148727Y-126997680D01*
X155383759Y-126840637D01*
X155583637Y-126640759D01*
X155740680Y-126405727D01*
X155848853Y-126144574D01*
X155904000Y-125867335D01*
X155904000Y-125584665D01*
X155848853Y-125307426D01*
X155740680Y-125046273D01*
X155583637Y-124811241D01*
X155383759Y-124611363D01*
X155148727Y-124454320D01*
X154887574Y-124346147D01*
X154610335Y-124291000D01*
X154327665Y-124291000D01*
X154050426Y-124346147D01*
X153789273Y-124454320D01*
X153554241Y-124611363D01*
X153354363Y-124811241D01*
X153197320Y-125046273D01*
X153089147Y-125307426D01*
X153034000Y-125584665D01*
X151150057Y-125584665D01*
X151172185Y-125360000D01*
X151143513Y-125068889D01*
X151058599Y-124788966D01*
X150920706Y-124530986D01*
X150735134Y-124304866D01*
X150509014Y-124119294D01*
X150251034Y-123981401D01*
X149971111Y-123896487D01*
X149752950Y-123875000D01*
X149607050Y-123875000D01*
X149388889Y-123896487D01*
X149108966Y-123981401D01*
X148850986Y-124119294D01*
X148624866Y-124304866D01*
X148439294Y-124530986D01*
X148301401Y-124788966D01*
X148216487Y-125068889D01*
X148187815Y-125360000D01*
X148216487Y-125651111D01*
X148301401Y-125931034D01*
X148439294Y-126189014D01*
X148624866Y-126415134D01*
X148850986Y-126600706D01*
X148905791Y-126630000D01*
X148850986Y-126659294D01*
X148624866Y-126844866D01*
X148439294Y-127070986D01*
X148301401Y-127328966D01*
X148216487Y-127608889D01*
X148187815Y-127900000D01*
X148216487Y-128191111D01*
X148301401Y-128471034D01*
X148439294Y-128729014D01*
X148624866Y-128955134D01*
X148654687Y-128979607D01*
X148585820Y-129000498D01*
X148475506Y-129059463D01*
X148378815Y-129138815D01*
X148299463Y-129235506D01*
X148240498Y-129345820D01*
X148204188Y-129465518D01*
X148191928Y-129590000D01*
X148191928Y-131290000D01*
X148202536Y-131397711D01*
X148041868Y-131237043D01*
X147779779Y-131061921D01*
X147488561Y-130941294D01*
X147179406Y-130879800D01*
X146864194Y-130879800D01*
X146555039Y-130941294D01*
X146263821Y-131061921D01*
X146001732Y-131237043D01*
X145815300Y-131423475D01*
X145628868Y-131237043D01*
X145366779Y-131061921D01*
X145075561Y-130941294D01*
X144766406Y-130879800D01*
X144451194Y-130879800D01*
X144142039Y-130941294D01*
X143850821Y-131061921D01*
X143588732Y-131237043D01*
X143365843Y-131459932D01*
X143190721Y-131722021D01*
X143070094Y-132013239D01*
X143008600Y-132322394D01*
X143008600Y-132637606D01*
X143070094Y-132946761D01*
X143190721Y-133237979D01*
X143365843Y-133500068D01*
X143588732Y-133722957D01*
X143823428Y-133879776D01*
X143835159Y-133998884D01*
X143880046Y-134146857D01*
X143880047Y-134146858D01*
X143952939Y-134283231D01*
X143976703Y-134312187D01*
X144026455Y-134372810D01*
X144026459Y-134372814D01*
X144051037Y-134402762D01*
X144080985Y-134427340D01*
X145021459Y-135367815D01*
X145046038Y-135397764D01*
X145075986Y-135422342D01*
X145075989Y-135422345D01*
X145100359Y-135442345D01*
X145165569Y-135495862D01*
X145301942Y-135568754D01*
X145415474Y-135603194D01*
X145449914Y-135613641D01*
X145464292Y-135615057D01*
X145565241Y-135625000D01*
X145565248Y-135625000D01*
X145603801Y-135628797D01*
X145642354Y-135625000D01*
X151791447Y-135625000D01*
X151830000Y-135628797D01*
X151868553Y-135625000D01*
X151868561Y-135625000D01*
X151983887Y-135613641D01*
X152131860Y-135568754D01*
X152268233Y-135495862D01*
X152387764Y-135397764D01*
X152412347Y-135367810D01*
X153099341Y-134680816D01*
X153089147Y-134705426D01*
X153034000Y-134982665D01*
X153034000Y-135265335D01*
X153089147Y-135542574D01*
X153197320Y-135803727D01*
X153354363Y-136038759D01*
X153498604Y-136183000D01*
X88786234Y-136183000D01*
X88609811Y-136165624D01*
X88446150Y-136115978D01*
X88295328Y-136035362D01*
X88163130Y-135926870D01*
X88054638Y-135794672D01*
X87974022Y-135643850D01*
X87924376Y-135480189D01*
X87907000Y-135303766D01*
X87907000Y-126280000D01*
X88354149Y-126280000D01*
X88383084Y-126573777D01*
X88468775Y-126856264D01*
X88607931Y-127116606D01*
X88795203Y-127344797D01*
X89023394Y-127532069D01*
X89056940Y-127550000D01*
X89023394Y-127567931D01*
X88795203Y-127755203D01*
X88607931Y-127983394D01*
X88468775Y-128243736D01*
X88383084Y-128526223D01*
X88354149Y-128820000D01*
X88383084Y-129113777D01*
X88468775Y-129396264D01*
X88607931Y-129656606D01*
X88795203Y-129884797D01*
X89023394Y-130072069D01*
X89283736Y-130211225D01*
X89566223Y-130296916D01*
X89786381Y-130318600D01*
X89933619Y-130318600D01*
X90153777Y-130296916D01*
X90436264Y-130211225D01*
X90696606Y-130072069D01*
X90924797Y-129884797D01*
X91112069Y-129656606D01*
X91130000Y-129623060D01*
X91147931Y-129656606D01*
X91335203Y-129884797D01*
X91563394Y-130072069D01*
X91823736Y-130211225D01*
X92106223Y-130296916D01*
X92326381Y-130318600D01*
X92473619Y-130318600D01*
X92693777Y-130296916D01*
X92976264Y-130211225D01*
X93236606Y-130072069D01*
X93464797Y-129884797D01*
X93652069Y-129656606D01*
X93791225Y-129396264D01*
X93876916Y-129113777D01*
X93905851Y-128820000D01*
X93876916Y-128526223D01*
X93859930Y-128470227D01*
X94457810Y-127872347D01*
X94487764Y-127847764D01*
X94585862Y-127728233D01*
X94658754Y-127591860D01*
X94666013Y-127567931D01*
X94703642Y-127443887D01*
X94713401Y-127344797D01*
X94715000Y-127328561D01*
X94715000Y-127328556D01*
X94718797Y-127290000D01*
X94715000Y-127251444D01*
X94715000Y-124052533D01*
X94812243Y-124198068D01*
X95035132Y-124420957D01*
X95297221Y-124596079D01*
X95588439Y-124716706D01*
X95897594Y-124778200D01*
X96212806Y-124778200D01*
X96521961Y-124716706D01*
X96813179Y-124596079D01*
X97075268Y-124420957D01*
X97261700Y-124234525D01*
X97448132Y-124420957D01*
X97708201Y-124594729D01*
X97708200Y-126876998D01*
X95544198Y-129041001D01*
X95515200Y-129064799D01*
X95491402Y-129093797D01*
X95491401Y-129093798D01*
X95420226Y-129180524D01*
X95349654Y-129312554D01*
X95306198Y-129455815D01*
X95291524Y-129604800D01*
X95295201Y-129642132D01*
X95295200Y-131036271D01*
X95035132Y-131210043D01*
X94812243Y-131432932D01*
X94637121Y-131695021D01*
X94516494Y-131986239D01*
X94455000Y-132295394D01*
X94455000Y-132610606D01*
X94516494Y-132919761D01*
X94637121Y-133210979D01*
X94812243Y-133473068D01*
X95035132Y-133695957D01*
X95297221Y-133871079D01*
X95588439Y-133991706D01*
X95897594Y-134053200D01*
X96212806Y-134053200D01*
X96521961Y-133991706D01*
X96813179Y-133871079D01*
X97075268Y-133695957D01*
X97261700Y-133509525D01*
X97448132Y-133695957D01*
X97710221Y-133871079D01*
X98001439Y-133991706D01*
X98310594Y-134053200D01*
X98625806Y-134053200D01*
X98903088Y-133998046D01*
X100292858Y-135387816D01*
X100317436Y-135417764D01*
X100347384Y-135442342D01*
X100347387Y-135442345D01*
X100376759Y-135466450D01*
X100436967Y-135515862D01*
X100573340Y-135588754D01*
X100721313Y-135633641D01*
X100836639Y-135645000D01*
X100836646Y-135645000D01*
X100875199Y-135648797D01*
X100913752Y-135645000D01*
X107741447Y-135645000D01*
X107780000Y-135648797D01*
X107818553Y-135645000D01*
X107818561Y-135645000D01*
X107933887Y-135633641D01*
X108081860Y-135588754D01*
X108218233Y-135515862D01*
X108337764Y-135417764D01*
X108362347Y-135387810D01*
X109585492Y-134164665D01*
X110372000Y-134164665D01*
X110372000Y-134447335D01*
X110427147Y-134724574D01*
X110535320Y-134985727D01*
X110692363Y-135220759D01*
X110892241Y-135420637D01*
X111127273Y-135577680D01*
X111388426Y-135685853D01*
X111665665Y-135741000D01*
X111948335Y-135741000D01*
X112225574Y-135685853D01*
X112486727Y-135577680D01*
X112721759Y-135420637D01*
X112921637Y-135220759D01*
X113078680Y-134985727D01*
X113186853Y-134724574D01*
X113239945Y-134457665D01*
X129672000Y-134457665D01*
X129672000Y-134740335D01*
X129727147Y-135017574D01*
X129835320Y-135278727D01*
X129992363Y-135513759D01*
X130192241Y-135713637D01*
X130427273Y-135870680D01*
X130688426Y-135978853D01*
X130965665Y-136034000D01*
X131248335Y-136034000D01*
X131525574Y-135978853D01*
X131786727Y-135870680D01*
X132021759Y-135713637D01*
X132221637Y-135513759D01*
X132378680Y-135278727D01*
X132486853Y-135017574D01*
X132542000Y-134740335D01*
X132542000Y-134457665D01*
X132486853Y-134180426D01*
X132378680Y-133919273D01*
X132221637Y-133684241D01*
X132127990Y-133590594D01*
X135118011Y-133590594D01*
X135209572Y-133851438D01*
X135493256Y-133988851D01*
X135798296Y-134068279D01*
X136112971Y-134086670D01*
X136425188Y-134043318D01*
X136722948Y-133939888D01*
X136888428Y-133851438D01*
X136979989Y-133590594D01*
X136049000Y-132659605D01*
X135118011Y-133590594D01*
X132127990Y-133590594D01*
X132021759Y-133484363D01*
X131786727Y-133327320D01*
X131525574Y-133219147D01*
X131248335Y-133164000D01*
X130965665Y-133164000D01*
X130688426Y-133219147D01*
X130427273Y-133327320D01*
X130192241Y-133484363D01*
X129992363Y-133684241D01*
X129835320Y-133919273D01*
X129727147Y-134180426D01*
X129672000Y-134457665D01*
X113239945Y-134457665D01*
X113242000Y-134447335D01*
X113242000Y-134164665D01*
X113186853Y-133887426D01*
X113078680Y-133626273D01*
X112921637Y-133391241D01*
X112721759Y-133191363D01*
X112486727Y-133034320D01*
X112225574Y-132926147D01*
X111948335Y-132871000D01*
X111665665Y-132871000D01*
X111388426Y-132926147D01*
X111127273Y-133034320D01*
X110892241Y-133191363D01*
X110692363Y-133391241D01*
X110535320Y-133626273D01*
X110427147Y-133887426D01*
X110372000Y-134164665D01*
X109585492Y-134164665D01*
X112334817Y-131415341D01*
X112364764Y-131390764D01*
X112462862Y-131271233D01*
X112535754Y-131134860D01*
X112580641Y-130986887D01*
X112592000Y-130871561D01*
X112592000Y-130871554D01*
X112595797Y-130833001D01*
X112592000Y-130794448D01*
X112592000Y-130507339D01*
X112721759Y-130420637D01*
X112921637Y-130220759D01*
X113078680Y-129985727D01*
X113186853Y-129724574D01*
X113242000Y-129447335D01*
X113242000Y-129164665D01*
X113186853Y-128887426D01*
X113078680Y-128626273D01*
X112921637Y-128391241D01*
X112721759Y-128191363D01*
X112486727Y-128034320D01*
X112225574Y-127926147D01*
X111948335Y-127871000D01*
X111665665Y-127871000D01*
X111388426Y-127926147D01*
X111127273Y-128034320D01*
X110892241Y-128191363D01*
X110692363Y-128391241D01*
X110535320Y-128626273D01*
X110427147Y-128887426D01*
X110372000Y-129164665D01*
X110372000Y-129447335D01*
X110427147Y-129724574D01*
X110535320Y-129985727D01*
X110692363Y-130220759D01*
X110892241Y-130420637D01*
X111022000Y-130507339D01*
X111022000Y-130507842D01*
X108542397Y-132987446D01*
X108616279Y-132703704D01*
X108634670Y-132389029D01*
X108591318Y-132076812D01*
X108487888Y-131779052D01*
X108399438Y-131613572D01*
X108138594Y-131522011D01*
X107207605Y-132453000D01*
X107221748Y-132467143D01*
X107042143Y-132646748D01*
X107028000Y-132632605D01*
X106097011Y-133563594D01*
X106188572Y-133824438D01*
X106472256Y-133961851D01*
X106777296Y-134041279D01*
X107091971Y-134059670D01*
X107404188Y-134016318D01*
X107571718Y-133958125D01*
X107454843Y-134075000D01*
X101967042Y-134075000D01*
X102276248Y-134013495D01*
X102570265Y-133891709D01*
X102834873Y-133714904D01*
X103059904Y-133489873D01*
X103236709Y-133225265D01*
X103358495Y-132931248D01*
X103420581Y-132619121D01*
X103420581Y-132516971D01*
X105421330Y-132516971D01*
X105464682Y-132829188D01*
X105568112Y-133126948D01*
X105656562Y-133292428D01*
X105917406Y-133383989D01*
X106848395Y-132453000D01*
X105917406Y-131522011D01*
X105656562Y-131613572D01*
X105519149Y-131897256D01*
X105439721Y-132202296D01*
X105421330Y-132516971D01*
X103420581Y-132516971D01*
X103420581Y-132300879D01*
X103358495Y-131988752D01*
X103236709Y-131694735D01*
X103059904Y-131430127D01*
X102972183Y-131342406D01*
X106097011Y-131342406D01*
X107028000Y-132273395D01*
X107958989Y-131342406D01*
X107867428Y-131081562D01*
X107583744Y-130944149D01*
X107278704Y-130864721D01*
X106964029Y-130846330D01*
X106651812Y-130889682D01*
X106354052Y-130993112D01*
X106188572Y-131081562D01*
X106097011Y-131342406D01*
X102972183Y-131342406D01*
X102834873Y-131205096D01*
X102570265Y-131028291D01*
X102276248Y-130906505D01*
X101964121Y-130844419D01*
X101645879Y-130844419D01*
X101333752Y-130906505D01*
X101039735Y-131028291D01*
X100775127Y-131205096D01*
X100550096Y-131430127D01*
X100373291Y-131694735D01*
X100251505Y-131988752D01*
X100189419Y-132300879D01*
X100189419Y-132619121D01*
X100251505Y-132931248D01*
X100373291Y-133225265D01*
X100418937Y-133293580D01*
X100013246Y-132887888D01*
X100068400Y-132610606D01*
X100068400Y-132295394D01*
X100006906Y-131986239D01*
X99886279Y-131695021D01*
X99711157Y-131432932D01*
X99488268Y-131210043D01*
X99226179Y-131034921D01*
X98934961Y-130914294D01*
X98625806Y-130852800D01*
X98310594Y-130852800D01*
X98001439Y-130914294D01*
X97710221Y-131034921D01*
X97448132Y-131210043D01*
X97261700Y-131396475D01*
X97075268Y-131210043D01*
X96815200Y-131036271D01*
X96815200Y-129919601D01*
X98979204Y-127755598D01*
X99008201Y-127731801D01*
X99103174Y-127616076D01*
X99173746Y-127484047D01*
X99217203Y-127340786D01*
X99228200Y-127229133D01*
X99228200Y-127229124D01*
X99231876Y-127191801D01*
X99228200Y-127154478D01*
X99228200Y-124594729D01*
X99488268Y-124420957D01*
X99711157Y-124198068D01*
X99867976Y-123963372D01*
X99871751Y-123963000D01*
X99871759Y-123963000D01*
X99987085Y-123951641D01*
X100135058Y-123906754D01*
X100271431Y-123833862D01*
X100339012Y-123778399D01*
X100423291Y-123981867D01*
X100600096Y-124246475D01*
X100825127Y-124471506D01*
X101089735Y-124648311D01*
X101383752Y-124770097D01*
X101695879Y-124832183D01*
X102014121Y-124832183D01*
X102326248Y-124770097D01*
X102620265Y-124648311D01*
X102884873Y-124471506D01*
X103067785Y-124288594D01*
X106097011Y-124288594D01*
X106188572Y-124549438D01*
X106472256Y-124686851D01*
X106777296Y-124766279D01*
X107091971Y-124784670D01*
X107404188Y-124741318D01*
X107701948Y-124637888D01*
X107867428Y-124549438D01*
X107958989Y-124288594D01*
X107028000Y-123357605D01*
X106097011Y-124288594D01*
X103067785Y-124288594D01*
X103109904Y-124246475D01*
X103286709Y-123981867D01*
X103408495Y-123687850D01*
X103470581Y-123375723D01*
X103470581Y-123057481D01*
X103408495Y-122745354D01*
X103286709Y-122451337D01*
X103282475Y-122445000D01*
X105605010Y-122445000D01*
X105519149Y-122622256D01*
X105439721Y-122927296D01*
X105421330Y-123241971D01*
X105464682Y-123554188D01*
X105568112Y-123851948D01*
X105656562Y-124017428D01*
X105917406Y-124108989D01*
X106848395Y-123178000D01*
X106834253Y-123163858D01*
X107013858Y-122984253D01*
X107028000Y-122998395D01*
X107042143Y-122984253D01*
X107221748Y-123163858D01*
X107207605Y-123178000D01*
X108138594Y-124108989D01*
X108399438Y-124017428D01*
X108536851Y-123733744D01*
X108542581Y-123711738D01*
X110402446Y-125571604D01*
X110372000Y-125724665D01*
X110372000Y-126007335D01*
X110427147Y-126284574D01*
X110535320Y-126545727D01*
X110692363Y-126780759D01*
X110892241Y-126980637D01*
X111127273Y-127137680D01*
X111388426Y-127245853D01*
X111665665Y-127301000D01*
X111948335Y-127301000D01*
X112225574Y-127245853D01*
X112486727Y-127137680D01*
X112721759Y-126980637D01*
X112921637Y-126780759D01*
X113078680Y-126545727D01*
X113186853Y-126284574D01*
X113242000Y-126007335D01*
X113242000Y-125724665D01*
X113186853Y-125447426D01*
X113078680Y-125186273D01*
X112921637Y-124951241D01*
X112721759Y-124751363D01*
X112486727Y-124594320D01*
X112225574Y-124486147D01*
X111948335Y-124431000D01*
X111665665Y-124431000D01*
X111512604Y-124461446D01*
X110068552Y-123017394D01*
X114142000Y-123017394D01*
X114142000Y-123332606D01*
X114203494Y-123641761D01*
X114324121Y-123932979D01*
X114499243Y-124195068D01*
X114722132Y-124417957D01*
X114984221Y-124593079D01*
X115275439Y-124713706D01*
X115584594Y-124775200D01*
X115899806Y-124775200D01*
X116208961Y-124713706D01*
X116500179Y-124593079D01*
X116762268Y-124417957D01*
X116948700Y-124231525D01*
X117135132Y-124417957D01*
X117370201Y-124575025D01*
X117370200Y-126284642D01*
X115214385Y-128440458D01*
X115184437Y-128465036D01*
X115159859Y-128494984D01*
X115159855Y-128494988D01*
X115141625Y-128517202D01*
X115086339Y-128584567D01*
X115064047Y-128626273D01*
X115013446Y-128720941D01*
X114968559Y-128868914D01*
X114953403Y-129022800D01*
X114957201Y-129061363D01*
X114957200Y-131049976D01*
X114722132Y-131207043D01*
X114499243Y-131429932D01*
X114324121Y-131692021D01*
X114203494Y-131983239D01*
X114142000Y-132292394D01*
X114142000Y-132607606D01*
X114203494Y-132916761D01*
X114324121Y-133207979D01*
X114499243Y-133470068D01*
X114722132Y-133692957D01*
X114984221Y-133868079D01*
X115275439Y-133988706D01*
X115584594Y-134050200D01*
X115899806Y-134050200D01*
X116208961Y-133988706D01*
X116500179Y-133868079D01*
X116762268Y-133692957D01*
X116948700Y-133506525D01*
X117135132Y-133692957D01*
X117397221Y-133868079D01*
X117688439Y-133988706D01*
X117997594Y-134050200D01*
X118312806Y-134050200D01*
X118621961Y-133988706D01*
X118913179Y-133868079D01*
X119175268Y-133692957D01*
X119398157Y-133470068D01*
X119573279Y-133207979D01*
X119693906Y-132916761D01*
X119755400Y-132607606D01*
X119755400Y-132300879D01*
X119914419Y-132300879D01*
X119914419Y-132619121D01*
X119976505Y-132931248D01*
X120098291Y-133225265D01*
X120275096Y-133489873D01*
X120500127Y-133714904D01*
X120764735Y-133891709D01*
X121058752Y-134013495D01*
X121370879Y-134075581D01*
X121689121Y-134075581D01*
X122001248Y-134013495D01*
X122295265Y-133891709D01*
X122559873Y-133714904D01*
X122714183Y-133560594D01*
X125784011Y-133560594D01*
X125875572Y-133821438D01*
X126159256Y-133958851D01*
X126464296Y-134038279D01*
X126778971Y-134056670D01*
X127091188Y-134013318D01*
X127388948Y-133909888D01*
X127554428Y-133821438D01*
X127645989Y-133560594D01*
X126715000Y-132629605D01*
X125784011Y-133560594D01*
X122714183Y-133560594D01*
X122784904Y-133489873D01*
X122961709Y-133225265D01*
X123083495Y-132931248D01*
X123145581Y-132619121D01*
X123145581Y-132513971D01*
X125108330Y-132513971D01*
X125151682Y-132826188D01*
X125255112Y-133123948D01*
X125343562Y-133289428D01*
X125604406Y-133380989D01*
X126535395Y-132450000D01*
X126894605Y-132450000D01*
X127825594Y-133380989D01*
X128086438Y-133289428D01*
X128223851Y-133005744D01*
X128303279Y-132700704D01*
X128312439Y-132543971D01*
X134442330Y-132543971D01*
X134485682Y-132856188D01*
X134589112Y-133153948D01*
X134677562Y-133319428D01*
X134938406Y-133410989D01*
X135869395Y-132480000D01*
X136228605Y-132480000D01*
X137159594Y-133410989D01*
X137420438Y-133319428D01*
X137557851Y-133035744D01*
X137637279Y-132730704D01*
X137655670Y-132416029D01*
X137643153Y-132325879D01*
X139646021Y-132325879D01*
X139646021Y-132644121D01*
X139708107Y-132956248D01*
X139829893Y-133250265D01*
X140006698Y-133514873D01*
X140231729Y-133739904D01*
X140496337Y-133916709D01*
X140790354Y-134038495D01*
X141102481Y-134100581D01*
X141420723Y-134100581D01*
X141732850Y-134038495D01*
X142026867Y-133916709D01*
X142291475Y-133739904D01*
X142516506Y-133514873D01*
X142693311Y-133250265D01*
X142815097Y-132956248D01*
X142877183Y-132644121D01*
X142877183Y-132325879D01*
X142815097Y-132013752D01*
X142693311Y-131719735D01*
X142516506Y-131455127D01*
X142291475Y-131230096D01*
X142026867Y-131053291D01*
X141732850Y-130931505D01*
X141420723Y-130869419D01*
X141102481Y-130869419D01*
X140790354Y-130931505D01*
X140496337Y-131053291D01*
X140231729Y-131230096D01*
X140006698Y-131455127D01*
X139829893Y-131719735D01*
X139708107Y-132013752D01*
X139646021Y-132325879D01*
X137643153Y-132325879D01*
X137612318Y-132103812D01*
X137508888Y-131806052D01*
X137420438Y-131640572D01*
X137159594Y-131549011D01*
X136228605Y-132480000D01*
X135869395Y-132480000D01*
X134938406Y-131549011D01*
X134677562Y-131640572D01*
X134540149Y-131924256D01*
X134460721Y-132229296D01*
X134442330Y-132543971D01*
X128312439Y-132543971D01*
X128321670Y-132386029D01*
X128278318Y-132073812D01*
X128174888Y-131776052D01*
X128086438Y-131610572D01*
X127825594Y-131519011D01*
X126894605Y-132450000D01*
X126535395Y-132450000D01*
X125604406Y-131519011D01*
X125343562Y-131610572D01*
X125206149Y-131894256D01*
X125126721Y-132199296D01*
X125108330Y-132513971D01*
X123145581Y-132513971D01*
X123145581Y-132300879D01*
X123083495Y-131988752D01*
X122961709Y-131694735D01*
X122784904Y-131430127D01*
X122694183Y-131339406D01*
X125784011Y-131339406D01*
X126715000Y-132270395D01*
X127615989Y-131369406D01*
X135118011Y-131369406D01*
X136049000Y-132300395D01*
X136979989Y-131369406D01*
X136888428Y-131108562D01*
X136604744Y-130971149D01*
X136299704Y-130891721D01*
X135985029Y-130873330D01*
X135672812Y-130916682D01*
X135375052Y-131020112D01*
X135209572Y-131108562D01*
X135118011Y-131369406D01*
X127615989Y-131369406D01*
X127645989Y-131339406D01*
X127554428Y-131078562D01*
X127270744Y-130941149D01*
X126965704Y-130861721D01*
X126651029Y-130843330D01*
X126338812Y-130886682D01*
X126041052Y-130990112D01*
X125875572Y-131078562D01*
X125784011Y-131339406D01*
X122694183Y-131339406D01*
X122559873Y-131205096D01*
X122295265Y-131028291D01*
X122001248Y-130906505D01*
X121689121Y-130844419D01*
X121370879Y-130844419D01*
X121058752Y-130906505D01*
X120764735Y-131028291D01*
X120500127Y-131205096D01*
X120275096Y-131430127D01*
X120098291Y-131694735D01*
X119976505Y-131988752D01*
X119914419Y-132300879D01*
X119755400Y-132300879D01*
X119755400Y-132292394D01*
X119693906Y-131983239D01*
X119573279Y-131692021D01*
X119398157Y-131429932D01*
X119175268Y-131207043D01*
X118913179Y-131031921D01*
X118621961Y-130911294D01*
X118312806Y-130849800D01*
X117997594Y-130849800D01*
X117688439Y-130911294D01*
X117397221Y-131031921D01*
X117135132Y-131207043D01*
X116948700Y-131393475D01*
X116762268Y-131207043D01*
X116527200Y-131049976D01*
X116527200Y-129457665D01*
X129672000Y-129457665D01*
X129672000Y-129740335D01*
X129727147Y-130017574D01*
X129835320Y-130278727D01*
X129992363Y-130513759D01*
X130192241Y-130713637D01*
X130427273Y-130870680D01*
X130688426Y-130978853D01*
X130965665Y-131034000D01*
X131248335Y-131034000D01*
X131525574Y-130978853D01*
X131786727Y-130870680D01*
X132021759Y-130713637D01*
X132221637Y-130513759D01*
X132378680Y-130278727D01*
X132486853Y-130017574D01*
X132542000Y-129740335D01*
X132542000Y-129457665D01*
X132486853Y-129180426D01*
X132378680Y-128919273D01*
X132221637Y-128684241D01*
X132021759Y-128484363D01*
X131786727Y-128327320D01*
X131525574Y-128219147D01*
X131248335Y-128164000D01*
X130965665Y-128164000D01*
X130688426Y-128219147D01*
X130427273Y-128327320D01*
X130192241Y-128484363D01*
X129992363Y-128684241D01*
X129835320Y-128919273D01*
X129727147Y-129180426D01*
X129672000Y-129457665D01*
X116527200Y-129457665D01*
X116527200Y-129347957D01*
X118683017Y-127192141D01*
X118712964Y-127167564D01*
X118811062Y-127048033D01*
X118883954Y-126911660D01*
X118928841Y-126763687D01*
X118940200Y-126648361D01*
X118940200Y-126648354D01*
X118943997Y-126609801D01*
X118940200Y-126571248D01*
X118940200Y-125797665D01*
X129672000Y-125797665D01*
X129672000Y-126080335D01*
X129727147Y-126357574D01*
X129835320Y-126618727D01*
X129992363Y-126853759D01*
X130192241Y-127053637D01*
X130427273Y-127210680D01*
X130688426Y-127318853D01*
X130965665Y-127374000D01*
X131248335Y-127374000D01*
X131525574Y-127318853D01*
X131786727Y-127210680D01*
X132021759Y-127053637D01*
X132221637Y-126853759D01*
X132378680Y-126618727D01*
X132486853Y-126357574D01*
X132542000Y-126080335D01*
X132542000Y-125797665D01*
X132486853Y-125520426D01*
X132378680Y-125259273D01*
X132221637Y-125024241D01*
X132021759Y-124824363D01*
X131786727Y-124667320D01*
X131525574Y-124559147D01*
X131248335Y-124504000D01*
X130965665Y-124504000D01*
X130688426Y-124559147D01*
X130427273Y-124667320D01*
X130192241Y-124824363D01*
X129992363Y-125024241D01*
X129835320Y-125259273D01*
X129727147Y-125520426D01*
X129672000Y-125797665D01*
X118940200Y-125797665D01*
X118940200Y-124575024D01*
X119175268Y-124417957D01*
X119398157Y-124195068D01*
X119573279Y-123932979D01*
X119693906Y-123641761D01*
X119755400Y-123332606D01*
X119755400Y-123025879D01*
X119889419Y-123025879D01*
X119889419Y-123344121D01*
X119951505Y-123656248D01*
X120073291Y-123950265D01*
X120250096Y-124214873D01*
X120475127Y-124439904D01*
X120739735Y-124616709D01*
X121033752Y-124738495D01*
X121345879Y-124800581D01*
X121664121Y-124800581D01*
X121976248Y-124738495D01*
X122270265Y-124616709D01*
X122534873Y-124439904D01*
X122689183Y-124285594D01*
X125784011Y-124285594D01*
X125875572Y-124546438D01*
X126159256Y-124683851D01*
X126464296Y-124763279D01*
X126778971Y-124781670D01*
X127091188Y-124738318D01*
X127388948Y-124634888D01*
X127554428Y-124546438D01*
X127645989Y-124285594D01*
X126715000Y-123354605D01*
X125784011Y-124285594D01*
X122689183Y-124285594D01*
X122759904Y-124214873D01*
X122936709Y-123950265D01*
X123058495Y-123656248D01*
X123120581Y-123344121D01*
X123120581Y-123238971D01*
X125108330Y-123238971D01*
X125151682Y-123551188D01*
X125255112Y-123848948D01*
X125343562Y-124014428D01*
X125604406Y-124105989D01*
X126535395Y-123175000D01*
X126894605Y-123175000D01*
X127825594Y-124105989D01*
X128086438Y-124014428D01*
X128223851Y-123730744D01*
X128303279Y-123425704D01*
X128321670Y-123111029D01*
X128278318Y-122798812D01*
X128174888Y-122501052D01*
X128086438Y-122335572D01*
X127825594Y-122244011D01*
X126894605Y-123175000D01*
X126535395Y-123175000D01*
X125604406Y-122244011D01*
X125343562Y-122335572D01*
X125206149Y-122619256D01*
X125126721Y-122924296D01*
X125108330Y-123238971D01*
X123120581Y-123238971D01*
X123120581Y-123025879D01*
X123058495Y-122713752D01*
X122936709Y-122419735D01*
X122759904Y-122155127D01*
X122669183Y-122064406D01*
X125784011Y-122064406D01*
X126715000Y-122995395D01*
X127645989Y-122064406D01*
X127554428Y-121803562D01*
X127270744Y-121666149D01*
X126965704Y-121586721D01*
X126651029Y-121568330D01*
X126338812Y-121611682D01*
X126041052Y-121715112D01*
X125875572Y-121803562D01*
X125784011Y-122064406D01*
X122669183Y-122064406D01*
X122534873Y-121930096D01*
X122270265Y-121753291D01*
X121976248Y-121631505D01*
X121664121Y-121569419D01*
X121345879Y-121569419D01*
X121033752Y-121631505D01*
X120739735Y-121753291D01*
X120475127Y-121930096D01*
X120250096Y-122155127D01*
X120073291Y-122419735D01*
X119951505Y-122713752D01*
X119889419Y-123025879D01*
X119755400Y-123025879D01*
X119755400Y-123017394D01*
X119693906Y-122708239D01*
X119573279Y-122417021D01*
X119398157Y-122154932D01*
X119175268Y-121932043D01*
X118913179Y-121756921D01*
X118621961Y-121636294D01*
X118312806Y-121574800D01*
X117997594Y-121574800D01*
X117688439Y-121636294D01*
X117397221Y-121756921D01*
X117135132Y-121932043D01*
X116948700Y-122118475D01*
X116762268Y-121932043D01*
X116500179Y-121756921D01*
X116208961Y-121636294D01*
X115899806Y-121574800D01*
X115584594Y-121574800D01*
X115275439Y-121636294D01*
X114984221Y-121756921D01*
X114722132Y-121932043D01*
X114499243Y-122154932D01*
X114324121Y-122417021D01*
X114203494Y-122708239D01*
X114142000Y-123017394D01*
X110068552Y-123017394D01*
X108702157Y-121651000D01*
X110605661Y-121651000D01*
X110692363Y-121780759D01*
X110892241Y-121980637D01*
X111127273Y-122137680D01*
X111388426Y-122245853D01*
X111665665Y-122301000D01*
X111948335Y-122301000D01*
X112225574Y-122245853D01*
X112486727Y-122137680D01*
X112721759Y-121980637D01*
X112921637Y-121780759D01*
X113078680Y-121545727D01*
X113186853Y-121284574D01*
X113242000Y-121007335D01*
X113242000Y-120797665D01*
X129672000Y-120797665D01*
X129672000Y-121080335D01*
X129727147Y-121357574D01*
X129835320Y-121618727D01*
X129992363Y-121853759D01*
X130192241Y-122053637D01*
X130427273Y-122210680D01*
X130688426Y-122318853D01*
X130965665Y-122374000D01*
X131248335Y-122374000D01*
X131525574Y-122318853D01*
X131786727Y-122210680D01*
X132021759Y-122053637D01*
X132221637Y-121853759D01*
X132319430Y-121707400D01*
X134429728Y-121707400D01*
X134429728Y-124672600D01*
X134451261Y-124891232D01*
X134515034Y-125101463D01*
X134618595Y-125295212D01*
X134757965Y-125465035D01*
X134927788Y-125604405D01*
X135121537Y-125707966D01*
X135331768Y-125771739D01*
X135550400Y-125793272D01*
X136515600Y-125793272D01*
X136734232Y-125771739D01*
X136944463Y-125707966D01*
X137138212Y-125604405D01*
X137308035Y-125465035D01*
X137447405Y-125295212D01*
X137550966Y-125101463D01*
X137614739Y-124891232D01*
X137636272Y-124672600D01*
X137636272Y-123044277D01*
X139624419Y-123044277D01*
X139624419Y-123362519D01*
X139686505Y-123674646D01*
X139808291Y-123968663D01*
X139985096Y-124233271D01*
X140210127Y-124458302D01*
X140474735Y-124635107D01*
X140768752Y-124756893D01*
X141080879Y-124818979D01*
X141399121Y-124818979D01*
X141711248Y-124756893D01*
X142005265Y-124635107D01*
X142269873Y-124458302D01*
X142494904Y-124233271D01*
X142671709Y-123968663D01*
X142793495Y-123674646D01*
X142855581Y-123362519D01*
X142855581Y-123044277D01*
X142793495Y-122732150D01*
X142671709Y-122438133D01*
X142494904Y-122173525D01*
X142269873Y-121948494D01*
X142005265Y-121771689D01*
X141850058Y-121707400D01*
X142989528Y-121707400D01*
X142989528Y-124672600D01*
X143011061Y-124891232D01*
X143074834Y-125101463D01*
X143178395Y-125295212D01*
X143317765Y-125465035D01*
X143487588Y-125604405D01*
X143681337Y-125707966D01*
X143891568Y-125771739D01*
X144110200Y-125793272D01*
X145075400Y-125793272D01*
X145294032Y-125771739D01*
X145504263Y-125707966D01*
X145698012Y-125604405D01*
X145867835Y-125465035D01*
X146007205Y-125295212D01*
X146110766Y-125101463D01*
X146174539Y-124891232D01*
X146196072Y-124672600D01*
X146196072Y-124575824D01*
X146450056Y-124698851D01*
X146755096Y-124778279D01*
X147069771Y-124796670D01*
X147381988Y-124753318D01*
X147679748Y-124649888D01*
X147845228Y-124561438D01*
X147936789Y-124300594D01*
X147005800Y-123369605D01*
X146991658Y-123383748D01*
X146812053Y-123204143D01*
X146826195Y-123190000D01*
X147185405Y-123190000D01*
X148116394Y-124120989D01*
X148377238Y-124029428D01*
X148514651Y-123745744D01*
X148594079Y-123440704D01*
X148612470Y-123126029D01*
X148569118Y-122813812D01*
X148465688Y-122516052D01*
X148377238Y-122350572D01*
X148116394Y-122259011D01*
X147185405Y-123190000D01*
X146826195Y-123190000D01*
X146812053Y-123175858D01*
X146991658Y-122996253D01*
X147005800Y-123010395D01*
X147936789Y-122079406D01*
X147845228Y-121818562D01*
X147561544Y-121681149D01*
X147256504Y-121601721D01*
X146941829Y-121583330D01*
X146629612Y-121626682D01*
X146331852Y-121730112D01*
X146196072Y-121802687D01*
X146196072Y-121707400D01*
X146174539Y-121488768D01*
X146110766Y-121278537D01*
X146007205Y-121084788D01*
X145867835Y-120914965D01*
X145698012Y-120775595D01*
X145504263Y-120672034D01*
X145294032Y-120608261D01*
X145075400Y-120586728D01*
X144110200Y-120586728D01*
X143891568Y-120608261D01*
X143681337Y-120672034D01*
X143487588Y-120775595D01*
X143317765Y-120914965D01*
X143178395Y-121084788D01*
X143074834Y-121278537D01*
X143011061Y-121488768D01*
X142989528Y-121707400D01*
X141850058Y-121707400D01*
X141711248Y-121649903D01*
X141399121Y-121587817D01*
X141080879Y-121587817D01*
X140768752Y-121649903D01*
X140474735Y-121771689D01*
X140210127Y-121948494D01*
X139985096Y-122173525D01*
X139808291Y-122438133D01*
X139686505Y-122732150D01*
X139624419Y-123044277D01*
X137636272Y-123044277D01*
X137636272Y-121707400D01*
X137614739Y-121488768D01*
X137550966Y-121278537D01*
X137447405Y-121084788D01*
X137308035Y-120914965D01*
X137138212Y-120775595D01*
X136944463Y-120672034D01*
X136734232Y-120608261D01*
X136515600Y-120586728D01*
X135550400Y-120586728D01*
X135331768Y-120608261D01*
X135121537Y-120672034D01*
X134927788Y-120775595D01*
X134757965Y-120914965D01*
X134618595Y-121084788D01*
X134515034Y-121278537D01*
X134451261Y-121488768D01*
X134429728Y-121707400D01*
X132319430Y-121707400D01*
X132378680Y-121618727D01*
X132486853Y-121357574D01*
X132542000Y-121080335D01*
X132542000Y-120797665D01*
X132499632Y-120584665D01*
X153034000Y-120584665D01*
X153034000Y-120867335D01*
X153089147Y-121144574D01*
X153197320Y-121405727D01*
X153354363Y-121640759D01*
X153554241Y-121840637D01*
X153789273Y-121997680D01*
X154050426Y-122105853D01*
X154327665Y-122161000D01*
X154610335Y-122161000D01*
X154887574Y-122105853D01*
X155148727Y-121997680D01*
X155383759Y-121840637D01*
X155583637Y-121640759D01*
X155740680Y-121405727D01*
X155848853Y-121144574D01*
X155904000Y-120867335D01*
X155904000Y-120584665D01*
X155848853Y-120307426D01*
X155740680Y-120046273D01*
X155583637Y-119811241D01*
X155383759Y-119611363D01*
X155148727Y-119454320D01*
X154887574Y-119346147D01*
X154610335Y-119291000D01*
X154327665Y-119291000D01*
X154050426Y-119346147D01*
X153789273Y-119454320D01*
X153554241Y-119611363D01*
X153354363Y-119811241D01*
X153197320Y-120046273D01*
X153089147Y-120307426D01*
X153034000Y-120584665D01*
X132499632Y-120584665D01*
X132486853Y-120520426D01*
X132378680Y-120259273D01*
X132221637Y-120024241D01*
X132021759Y-119824363D01*
X131786727Y-119667320D01*
X131525574Y-119559147D01*
X131248335Y-119504000D01*
X130965665Y-119504000D01*
X130688426Y-119559147D01*
X130427273Y-119667320D01*
X130192241Y-119824363D01*
X129992363Y-120024241D01*
X129835320Y-120259273D01*
X129727147Y-120520426D01*
X129672000Y-120797665D01*
X113242000Y-120797665D01*
X113242000Y-120724665D01*
X113186853Y-120447426D01*
X113078680Y-120186273D01*
X112921637Y-119951241D01*
X112721759Y-119751363D01*
X112486727Y-119594320D01*
X112225574Y-119486147D01*
X111948335Y-119431000D01*
X111665665Y-119431000D01*
X111388426Y-119486147D01*
X111127273Y-119594320D01*
X110892241Y-119751363D01*
X110692363Y-119951241D01*
X110605661Y-120081000D01*
X96012556Y-120081000D01*
X95974000Y-120077203D01*
X95935444Y-120081000D01*
X95935439Y-120081000D01*
X95895026Y-120084980D01*
X95820113Y-120092358D01*
X95672140Y-120137246D01*
X95535767Y-120210138D01*
X95416236Y-120308236D01*
X95391653Y-120338190D01*
X93901672Y-121828171D01*
X93901672Y-120336400D01*
X93889412Y-120211918D01*
X93853102Y-120092220D01*
X93794137Y-119981906D01*
X93714785Y-119885215D01*
X93618094Y-119805863D01*
X93507780Y-119746898D01*
X93388082Y-119710588D01*
X93263600Y-119698328D01*
X91536400Y-119698328D01*
X91411918Y-119710588D01*
X91292220Y-119746898D01*
X91181906Y-119805863D01*
X91085215Y-119885215D01*
X91005863Y-119981906D01*
X90946898Y-120092220D01*
X90927947Y-120154692D01*
X90748488Y-119993183D01*
X90495978Y-119843036D01*
X90219027Y-119745037D01*
X89987000Y-119865536D01*
X89987000Y-121073000D01*
X90007000Y-121073000D01*
X90007000Y-121327000D01*
X89987000Y-121327000D01*
X89987000Y-123613000D01*
X90007000Y-123613000D01*
X90007000Y-123867000D01*
X89987000Y-123867000D01*
X89987000Y-123887000D01*
X89733000Y-123887000D01*
X89733000Y-123867000D01*
X88526183Y-123867000D01*
X88405042Y-124099026D01*
X88450778Y-124249814D01*
X88577316Y-124514944D01*
X88753146Y-124750293D01*
X88971512Y-124946817D01*
X89067910Y-125004137D01*
X89023394Y-125027931D01*
X88795203Y-125215203D01*
X88607931Y-125443394D01*
X88468775Y-125703736D01*
X88383084Y-125986223D01*
X88354149Y-126280000D01*
X87907000Y-126280000D01*
X87907000Y-121559026D01*
X88405042Y-121559026D01*
X88450778Y-121709814D01*
X88577316Y-121974944D01*
X88753146Y-122210293D01*
X88971512Y-122406817D01*
X89077770Y-122470000D01*
X88971512Y-122533183D01*
X88753146Y-122729707D01*
X88577316Y-122965056D01*
X88450778Y-123230186D01*
X88405042Y-123380974D01*
X88526183Y-123613000D01*
X89733000Y-123613000D01*
X89733000Y-121327000D01*
X88526183Y-121327000D01*
X88405042Y-121559026D01*
X87907000Y-121559026D01*
X87907000Y-120840974D01*
X88405042Y-120840974D01*
X88526183Y-121073000D01*
X89733000Y-121073000D01*
X89733000Y-119865536D01*
X89500973Y-119745037D01*
X89224022Y-119843036D01*
X88971512Y-119993183D01*
X88753146Y-120189707D01*
X88577316Y-120425056D01*
X88450778Y-120690186D01*
X88405042Y-120840974D01*
X87907000Y-120840974D01*
X87907000Y-120264795D01*
X87924346Y-120088518D01*
X87973900Y-119924998D01*
X88054375Y-119774277D01*
X88162683Y-119642134D01*
X88294676Y-119533630D01*
X88445279Y-119452938D01*
X88608726Y-119403148D01*
X88784966Y-119385549D01*
X156019560Y-119288459D01*
X156196497Y-119305677D01*
X156196497Y-119305677D01*
G37*
X156196497Y-119305677D02*
X156360639Y-119355356D01*
X156511885Y-119436183D01*
X156644395Y-119545034D01*
X156753055Y-119677709D01*
X156833660Y-119829075D01*
X156883097Y-119993286D01*
X156900055Y-120170257D01*
X156855926Y-135306313D01*
X156838100Y-135482376D01*
X156788161Y-135645610D01*
X156707390Y-135795994D01*
X156598883Y-135927770D01*
X156466791Y-136035893D01*
X156316173Y-136116223D01*
X156152792Y-136165687D01*
X155976681Y-136183000D01*
X155439396Y-136183000D01*
X155583637Y-136038759D01*
X155740680Y-135803727D01*
X155848853Y-135542574D01*
X155904000Y-135265335D01*
X155904000Y-134982665D01*
X155848853Y-134705426D01*
X155740680Y-134444273D01*
X155583637Y-134209241D01*
X155383759Y-134009363D01*
X155148727Y-133852320D01*
X154887574Y-133744147D01*
X154610335Y-133689000D01*
X154327665Y-133689000D01*
X154050426Y-133744147D01*
X154025816Y-133754341D01*
X154996811Y-132783346D01*
X155026764Y-132758764D01*
X155124862Y-132639233D01*
X155197754Y-132502860D01*
X155202329Y-132487778D01*
X155242642Y-132354887D01*
X155250020Y-132279974D01*
X155254000Y-132239561D01*
X155254000Y-132239556D01*
X155257797Y-132201000D01*
X155254000Y-132162444D01*
X155254000Y-131325339D01*
X155383759Y-131238637D01*
X155583637Y-131038759D01*
X155740680Y-130803727D01*
X155848853Y-130542574D01*
X155904000Y-130265335D01*
X155904000Y-129982665D01*
X155848853Y-129705426D01*
X155740680Y-129444273D01*
X155583637Y-129209241D01*
X155383759Y-129009363D01*
X155148727Y-128852320D01*
X154887574Y-128744147D01*
X154610335Y-128689000D01*
X154327665Y-128689000D01*
X154050426Y-128744147D01*
X153789273Y-128852320D01*
X153554241Y-129009363D01*
X153354363Y-129209241D01*
X153197320Y-129444273D01*
X153089147Y-129705426D01*
X153034000Y-129982665D01*
X153034000Y-130265335D01*
X153089147Y-130542574D01*
X153197320Y-130803727D01*
X153354363Y-131038759D01*
X153554241Y-131238637D01*
X153684000Y-131325339D01*
X153684000Y-131875843D01*
X151504843Y-134055000D01*
X147306097Y-134055000D01*
X147488561Y-134018706D01*
X147779779Y-133898079D01*
X148041868Y-133722957D01*
X148264757Y-133500068D01*
X148439879Y-133237979D01*
X148560506Y-132946761D01*
X148622000Y-132637606D01*
X148622000Y-132322394D01*
X148560506Y-132013239D01*
X148482159Y-131824093D01*
X148585820Y-131879502D01*
X148705518Y-131915812D01*
X148830000Y-131928072D01*
X150530000Y-131928072D01*
X150654482Y-131915812D01*
X150774180Y-131879502D01*
X150884494Y-131820537D01*
X150981185Y-131741185D01*
X151060537Y-131644494D01*
X151119502Y-131534180D01*
X151155812Y-131414482D01*
X151168072Y-131290000D01*
X151168072Y-129590000D01*
X151155812Y-129465518D01*
X151119502Y-129345820D01*
X151060537Y-129235506D01*
X150981185Y-129138815D01*
X150884494Y-129059463D01*
X150774180Y-129000498D01*
X150705313Y-128979607D01*
X150735134Y-128955134D01*
X150920706Y-128729014D01*
X151058599Y-128471034D01*
X151143513Y-128191111D01*
X151172185Y-127900000D01*
X151143513Y-127608889D01*
X151058599Y-127328966D01*
X150920706Y-127070986D01*
X150735134Y-126844866D01*
X150509014Y-126659294D01*
X150454209Y-126630000D01*
X150509014Y-126600706D01*
X150735134Y-126415134D01*
X150920706Y-126189014D01*
X151058599Y-125931034D01*
X151143513Y-125651111D01*
X151150057Y-125584665D01*
X153034000Y-125584665D01*
X153034000Y-125867335D01*
X153089147Y-126144574D01*
X153197320Y-126405727D01*
X153354363Y-126640759D01*
X153554241Y-126840637D01*
X153789273Y-126997680D01*
X154050426Y-127105853D01*
X154327665Y-127161000D01*
X154610335Y-127161000D01*
X154887574Y-127105853D01*
X155148727Y-126997680D01*
X155383759Y-126840637D01*
X155583637Y-126640759D01*
X155740680Y-126405727D01*
X155848853Y-126144574D01*
X155904000Y-125867335D01*
X155904000Y-125584665D01*
X155848853Y-125307426D01*
X155740680Y-125046273D01*
X155583637Y-124811241D01*
X155383759Y-124611363D01*
X155148727Y-124454320D01*
X154887574Y-124346147D01*
X154610335Y-124291000D01*
X154327665Y-124291000D01*
X154050426Y-124346147D01*
X153789273Y-124454320D01*
X153554241Y-124611363D01*
X153354363Y-124811241D01*
X153197320Y-125046273D01*
X153089147Y-125307426D01*
X153034000Y-125584665D01*
X151150057Y-125584665D01*
X151172185Y-125360000D01*
X151143513Y-125068889D01*
X151058599Y-124788966D01*
X150920706Y-124530986D01*
X150735134Y-124304866D01*
X150509014Y-124119294D01*
X150251034Y-123981401D01*
X149971111Y-123896487D01*
X149752950Y-123875000D01*
X149607050Y-123875000D01*
X149388889Y-123896487D01*
X149108966Y-123981401D01*
X148850986Y-124119294D01*
X148624866Y-124304866D01*
X148439294Y-124530986D01*
X148301401Y-124788966D01*
X148216487Y-125068889D01*
X148187815Y-125360000D01*
X148216487Y-125651111D01*
X148301401Y-125931034D01*
X148439294Y-126189014D01*
X148624866Y-126415134D01*
X148850986Y-126600706D01*
X148905791Y-126630000D01*
X148850986Y-126659294D01*
X148624866Y-126844866D01*
X148439294Y-127070986D01*
X148301401Y-127328966D01*
X148216487Y-127608889D01*
X148187815Y-127900000D01*
X148216487Y-128191111D01*
X148301401Y-128471034D01*
X148439294Y-128729014D01*
X148624866Y-128955134D01*
X148654687Y-128979607D01*
X148585820Y-129000498D01*
X148475506Y-129059463D01*
X148378815Y-129138815D01*
X148299463Y-129235506D01*
X148240498Y-129345820D01*
X148204188Y-129465518D01*
X148191928Y-129590000D01*
X148191928Y-131290000D01*
X148202536Y-131397711D01*
X148041868Y-131237043D01*
X147779779Y-131061921D01*
X147488561Y-130941294D01*
X147179406Y-130879800D01*
X146864194Y-130879800D01*
X146555039Y-130941294D01*
X146263821Y-131061921D01*
X146001732Y-131237043D01*
X145815300Y-131423475D01*
X145628868Y-131237043D01*
X145366779Y-131061921D01*
X145075561Y-130941294D01*
X144766406Y-130879800D01*
X144451194Y-130879800D01*
X144142039Y-130941294D01*
X143850821Y-131061921D01*
X143588732Y-131237043D01*
X143365843Y-131459932D01*
X143190721Y-131722021D01*
X143070094Y-132013239D01*
X143008600Y-132322394D01*
X143008600Y-132637606D01*
X143070094Y-132946761D01*
X143190721Y-133237979D01*
X143365843Y-133500068D01*
X143588732Y-133722957D01*
X143823428Y-133879776D01*
X143835159Y-133998884D01*
X143880046Y-134146857D01*
X143880047Y-134146858D01*
X143952939Y-134283231D01*
X143976703Y-134312187D01*
X144026455Y-134372810D01*
X144026459Y-134372814D01*
X144051037Y-134402762D01*
X144080985Y-134427340D01*
X145021459Y-135367815D01*
X145046038Y-135397764D01*
X145075986Y-135422342D01*
X145075989Y-135422345D01*
X145100359Y-135442345D01*
X145165569Y-135495862D01*
X145301942Y-135568754D01*
X145415474Y-135603194D01*
X145449914Y-135613641D01*
X145464292Y-135615057D01*
X145565241Y-135625000D01*
X145565248Y-135625000D01*
X145603801Y-135628797D01*
X145642354Y-135625000D01*
X151791447Y-135625000D01*
X151830000Y-135628797D01*
X151868553Y-135625000D01*
X151868561Y-135625000D01*
X151983887Y-135613641D01*
X152131860Y-135568754D01*
X152268233Y-135495862D01*
X152387764Y-135397764D01*
X152412347Y-135367810D01*
X153099341Y-134680816D01*
X153089147Y-134705426D01*
X153034000Y-134982665D01*
X153034000Y-135265335D01*
X153089147Y-135542574D01*
X153197320Y-135803727D01*
X153354363Y-136038759D01*
X153498604Y-136183000D01*
X88786234Y-136183000D01*
X88609811Y-136165624D01*
X88446150Y-136115978D01*
X88295328Y-136035362D01*
X88163130Y-135926870D01*
X88054638Y-135794672D01*
X87974022Y-135643850D01*
X87924376Y-135480189D01*
X87907000Y-135303766D01*
X87907000Y-126280000D01*
X88354149Y-126280000D01*
X88383084Y-126573777D01*
X88468775Y-126856264D01*
X88607931Y-127116606D01*
X88795203Y-127344797D01*
X89023394Y-127532069D01*
X89056940Y-127550000D01*
X89023394Y-127567931D01*
X88795203Y-127755203D01*
X88607931Y-127983394D01*
X88468775Y-128243736D01*
X88383084Y-128526223D01*
X88354149Y-128820000D01*
X88383084Y-129113777D01*
X88468775Y-129396264D01*
X88607931Y-129656606D01*
X88795203Y-129884797D01*
X89023394Y-130072069D01*
X89283736Y-130211225D01*
X89566223Y-130296916D01*
X89786381Y-130318600D01*
X89933619Y-130318600D01*
X90153777Y-130296916D01*
X90436264Y-130211225D01*
X90696606Y-130072069D01*
X90924797Y-129884797D01*
X91112069Y-129656606D01*
X91130000Y-129623060D01*
X91147931Y-129656606D01*
X91335203Y-129884797D01*
X91563394Y-130072069D01*
X91823736Y-130211225D01*
X92106223Y-130296916D01*
X92326381Y-130318600D01*
X92473619Y-130318600D01*
X92693777Y-130296916D01*
X92976264Y-130211225D01*
X93236606Y-130072069D01*
X93464797Y-129884797D01*
X93652069Y-129656606D01*
X93791225Y-129396264D01*
X93876916Y-129113777D01*
X93905851Y-128820000D01*
X93876916Y-128526223D01*
X93859930Y-128470227D01*
X94457810Y-127872347D01*
X94487764Y-127847764D01*
X94585862Y-127728233D01*
X94658754Y-127591860D01*
X94666013Y-127567931D01*
X94703642Y-127443887D01*
X94713401Y-127344797D01*
X94715000Y-127328561D01*
X94715000Y-127328556D01*
X94718797Y-127290000D01*
X94715000Y-127251444D01*
X94715000Y-124052533D01*
X94812243Y-124198068D01*
X95035132Y-124420957D01*
X95297221Y-124596079D01*
X95588439Y-124716706D01*
X95897594Y-124778200D01*
X96212806Y-124778200D01*
X96521961Y-124716706D01*
X96813179Y-124596079D01*
X97075268Y-124420957D01*
X97261700Y-124234525D01*
X97448132Y-124420957D01*
X97708201Y-124594729D01*
X97708200Y-126876998D01*
X95544198Y-129041001D01*
X95515200Y-129064799D01*
X95491402Y-129093797D01*
X95491401Y-129093798D01*
X95420226Y-129180524D01*
X95349654Y-129312554D01*
X95306198Y-129455815D01*
X95291524Y-129604800D01*
X95295201Y-129642132D01*
X95295200Y-131036271D01*
X95035132Y-131210043D01*
X94812243Y-131432932D01*
X94637121Y-131695021D01*
X94516494Y-131986239D01*
X94455000Y-132295394D01*
X94455000Y-132610606D01*
X94516494Y-132919761D01*
X94637121Y-133210979D01*
X94812243Y-133473068D01*
X95035132Y-133695957D01*
X95297221Y-133871079D01*
X95588439Y-133991706D01*
X95897594Y-134053200D01*
X96212806Y-134053200D01*
X96521961Y-133991706D01*
X96813179Y-133871079D01*
X97075268Y-133695957D01*
X97261700Y-133509525D01*
X97448132Y-133695957D01*
X97710221Y-133871079D01*
X98001439Y-133991706D01*
X98310594Y-134053200D01*
X98625806Y-134053200D01*
X98903088Y-133998046D01*
X100292858Y-135387816D01*
X100317436Y-135417764D01*
X100347384Y-135442342D01*
X100347387Y-135442345D01*
X100376759Y-135466450D01*
X100436967Y-135515862D01*
X100573340Y-135588754D01*
X100721313Y-135633641D01*
X100836639Y-135645000D01*
X100836646Y-135645000D01*
X100875199Y-135648797D01*
X100913752Y-135645000D01*
X107741447Y-135645000D01*
X107780000Y-135648797D01*
X107818553Y-135645000D01*
X107818561Y-135645000D01*
X107933887Y-135633641D01*
X108081860Y-135588754D01*
X108218233Y-135515862D01*
X108337764Y-135417764D01*
X108362347Y-135387810D01*
X109585492Y-134164665D01*
X110372000Y-134164665D01*
X110372000Y-134447335D01*
X110427147Y-134724574D01*
X110535320Y-134985727D01*
X110692363Y-135220759D01*
X110892241Y-135420637D01*
X111127273Y-135577680D01*
X111388426Y-135685853D01*
X111665665Y-135741000D01*
X111948335Y-135741000D01*
X112225574Y-135685853D01*
X112486727Y-135577680D01*
X112721759Y-135420637D01*
X112921637Y-135220759D01*
X113078680Y-134985727D01*
X113186853Y-134724574D01*
X113239945Y-134457665D01*
X129672000Y-134457665D01*
X129672000Y-134740335D01*
X129727147Y-135017574D01*
X129835320Y-135278727D01*
X129992363Y-135513759D01*
X130192241Y-135713637D01*
X130427273Y-135870680D01*
X130688426Y-135978853D01*
X130965665Y-136034000D01*
X131248335Y-136034000D01*
X131525574Y-135978853D01*
X131786727Y-135870680D01*
X132021759Y-135713637D01*
X132221637Y-135513759D01*
X132378680Y-135278727D01*
X132486853Y-135017574D01*
X132542000Y-134740335D01*
X132542000Y-134457665D01*
X132486853Y-134180426D01*
X132378680Y-133919273D01*
X132221637Y-133684241D01*
X132127990Y-133590594D01*
X135118011Y-133590594D01*
X135209572Y-133851438D01*
X135493256Y-133988851D01*
X135798296Y-134068279D01*
X136112971Y-134086670D01*
X136425188Y-134043318D01*
X136722948Y-133939888D01*
X136888428Y-133851438D01*
X136979989Y-133590594D01*
X136049000Y-132659605D01*
X135118011Y-133590594D01*
X132127990Y-133590594D01*
X132021759Y-133484363D01*
X131786727Y-133327320D01*
X131525574Y-133219147D01*
X131248335Y-133164000D01*
X130965665Y-133164000D01*
X130688426Y-133219147D01*
X130427273Y-133327320D01*
X130192241Y-133484363D01*
X129992363Y-133684241D01*
X129835320Y-133919273D01*
X129727147Y-134180426D01*
X129672000Y-134457665D01*
X113239945Y-134457665D01*
X113242000Y-134447335D01*
X113242000Y-134164665D01*
X113186853Y-133887426D01*
X113078680Y-133626273D01*
X112921637Y-133391241D01*
X112721759Y-133191363D01*
X112486727Y-133034320D01*
X112225574Y-132926147D01*
X111948335Y-132871000D01*
X111665665Y-132871000D01*
X111388426Y-132926147D01*
X111127273Y-133034320D01*
X110892241Y-133191363D01*
X110692363Y-133391241D01*
X110535320Y-133626273D01*
X110427147Y-133887426D01*
X110372000Y-134164665D01*
X109585492Y-134164665D01*
X112334817Y-131415341D01*
X112364764Y-131390764D01*
X112462862Y-131271233D01*
X112535754Y-131134860D01*
X112580641Y-130986887D01*
X112592000Y-130871561D01*
X112592000Y-130871554D01*
X112595797Y-130833001D01*
X112592000Y-130794448D01*
X112592000Y-130507339D01*
X112721759Y-130420637D01*
X112921637Y-130220759D01*
X113078680Y-129985727D01*
X113186853Y-129724574D01*
X113242000Y-129447335D01*
X113242000Y-129164665D01*
X113186853Y-128887426D01*
X113078680Y-128626273D01*
X112921637Y-128391241D01*
X112721759Y-128191363D01*
X112486727Y-128034320D01*
X112225574Y-127926147D01*
X111948335Y-127871000D01*
X111665665Y-127871000D01*
X111388426Y-127926147D01*
X111127273Y-128034320D01*
X110892241Y-128191363D01*
X110692363Y-128391241D01*
X110535320Y-128626273D01*
X110427147Y-128887426D01*
X110372000Y-129164665D01*
X110372000Y-129447335D01*
X110427147Y-129724574D01*
X110535320Y-129985727D01*
X110692363Y-130220759D01*
X110892241Y-130420637D01*
X111022000Y-130507339D01*
X111022000Y-130507842D01*
X108542397Y-132987446D01*
X108616279Y-132703704D01*
X108634670Y-132389029D01*
X108591318Y-132076812D01*
X108487888Y-131779052D01*
X108399438Y-131613572D01*
X108138594Y-131522011D01*
X107207605Y-132453000D01*
X107221748Y-132467143D01*
X107042143Y-132646748D01*
X107028000Y-132632605D01*
X106097011Y-133563594D01*
X106188572Y-133824438D01*
X106472256Y-133961851D01*
X106777296Y-134041279D01*
X107091971Y-134059670D01*
X107404188Y-134016318D01*
X107571718Y-133958125D01*
X107454843Y-134075000D01*
X101967042Y-134075000D01*
X102276248Y-134013495D01*
X102570265Y-133891709D01*
X102834873Y-133714904D01*
X103059904Y-133489873D01*
X103236709Y-133225265D01*
X103358495Y-132931248D01*
X103420581Y-132619121D01*
X103420581Y-132516971D01*
X105421330Y-132516971D01*
X105464682Y-132829188D01*
X105568112Y-133126948D01*
X105656562Y-133292428D01*
X105917406Y-133383989D01*
X106848395Y-132453000D01*
X105917406Y-131522011D01*
X105656562Y-131613572D01*
X105519149Y-131897256D01*
X105439721Y-132202296D01*
X105421330Y-132516971D01*
X103420581Y-132516971D01*
X103420581Y-132300879D01*
X103358495Y-131988752D01*
X103236709Y-131694735D01*
X103059904Y-131430127D01*
X102972183Y-131342406D01*
X106097011Y-131342406D01*
X107028000Y-132273395D01*
X107958989Y-131342406D01*
X107867428Y-131081562D01*
X107583744Y-130944149D01*
X107278704Y-130864721D01*
X106964029Y-130846330D01*
X106651812Y-130889682D01*
X106354052Y-130993112D01*
X106188572Y-131081562D01*
X106097011Y-131342406D01*
X102972183Y-131342406D01*
X102834873Y-131205096D01*
X102570265Y-131028291D01*
X102276248Y-130906505D01*
X101964121Y-130844419D01*
X101645879Y-130844419D01*
X101333752Y-130906505D01*
X101039735Y-131028291D01*
X100775127Y-131205096D01*
X100550096Y-131430127D01*
X100373291Y-131694735D01*
X100251505Y-131988752D01*
X100189419Y-132300879D01*
X100189419Y-132619121D01*
X100251505Y-132931248D01*
X100373291Y-133225265D01*
X100418937Y-133293580D01*
X100013246Y-132887888D01*
X100068400Y-132610606D01*
X100068400Y-132295394D01*
X100006906Y-131986239D01*
X99886279Y-131695021D01*
X99711157Y-131432932D01*
X99488268Y-131210043D01*
X99226179Y-131034921D01*
X98934961Y-130914294D01*
X98625806Y-130852800D01*
X98310594Y-130852800D01*
X98001439Y-130914294D01*
X97710221Y-131034921D01*
X97448132Y-131210043D01*
X97261700Y-131396475D01*
X97075268Y-131210043D01*
X96815200Y-131036271D01*
X96815200Y-129919601D01*
X98979204Y-127755598D01*
X99008201Y-127731801D01*
X99103174Y-127616076D01*
X99173746Y-127484047D01*
X99217203Y-127340786D01*
X99228200Y-127229133D01*
X99228200Y-127229124D01*
X99231876Y-127191801D01*
X99228200Y-127154478D01*
X99228200Y-124594729D01*
X99488268Y-124420957D01*
X99711157Y-124198068D01*
X99867976Y-123963372D01*
X99871751Y-123963000D01*
X99871759Y-123963000D01*
X99987085Y-123951641D01*
X100135058Y-123906754D01*
X100271431Y-123833862D01*
X100339012Y-123778399D01*
X100423291Y-123981867D01*
X100600096Y-124246475D01*
X100825127Y-124471506D01*
X101089735Y-124648311D01*
X101383752Y-124770097D01*
X101695879Y-124832183D01*
X102014121Y-124832183D01*
X102326248Y-124770097D01*
X102620265Y-124648311D01*
X102884873Y-124471506D01*
X103067785Y-124288594D01*
X106097011Y-124288594D01*
X106188572Y-124549438D01*
X106472256Y-124686851D01*
X106777296Y-124766279D01*
X107091971Y-124784670D01*
X107404188Y-124741318D01*
X107701948Y-124637888D01*
X107867428Y-124549438D01*
X107958989Y-124288594D01*
X107028000Y-123357605D01*
X106097011Y-124288594D01*
X103067785Y-124288594D01*
X103109904Y-124246475D01*
X103286709Y-123981867D01*
X103408495Y-123687850D01*
X103470581Y-123375723D01*
X103470581Y-123057481D01*
X103408495Y-122745354D01*
X103286709Y-122451337D01*
X103282475Y-122445000D01*
X105605010Y-122445000D01*
X105519149Y-122622256D01*
X105439721Y-122927296D01*
X105421330Y-123241971D01*
X105464682Y-123554188D01*
X105568112Y-123851948D01*
X105656562Y-124017428D01*
X105917406Y-124108989D01*
X106848395Y-123178000D01*
X106834253Y-123163858D01*
X107013858Y-122984253D01*
X107028000Y-122998395D01*
X107042143Y-122984253D01*
X107221748Y-123163858D01*
X107207605Y-123178000D01*
X108138594Y-124108989D01*
X108399438Y-124017428D01*
X108536851Y-123733744D01*
X108542581Y-123711738D01*
X110402446Y-125571604D01*
X110372000Y-125724665D01*
X110372000Y-126007335D01*
X110427147Y-126284574D01*
X110535320Y-126545727D01*
X110692363Y-126780759D01*
X110892241Y-126980637D01*
X111127273Y-127137680D01*
X111388426Y-127245853D01*
X111665665Y-127301000D01*
X111948335Y-127301000D01*
X112225574Y-127245853D01*
X112486727Y-127137680D01*
X112721759Y-126980637D01*
X112921637Y-126780759D01*
X113078680Y-126545727D01*
X113186853Y-126284574D01*
X113242000Y-126007335D01*
X113242000Y-125724665D01*
X113186853Y-125447426D01*
X113078680Y-125186273D01*
X112921637Y-124951241D01*
X112721759Y-124751363D01*
X112486727Y-124594320D01*
X112225574Y-124486147D01*
X111948335Y-124431000D01*
X111665665Y-124431000D01*
X111512604Y-124461446D01*
X110068552Y-123017394D01*
X114142000Y-123017394D01*
X114142000Y-123332606D01*
X114203494Y-123641761D01*
X114324121Y-123932979D01*
X114499243Y-124195068D01*
X114722132Y-124417957D01*
X114984221Y-124593079D01*
X115275439Y-124713706D01*
X115584594Y-124775200D01*
X115899806Y-124775200D01*
X116208961Y-124713706D01*
X116500179Y-124593079D01*
X116762268Y-124417957D01*
X116948700Y-124231525D01*
X117135132Y-124417957D01*
X117370201Y-124575025D01*
X117370200Y-126284642D01*
X115214385Y-128440458D01*
X115184437Y-128465036D01*
X115159859Y-128494984D01*
X115159855Y-128494988D01*
X115141625Y-128517202D01*
X115086339Y-128584567D01*
X115064047Y-128626273D01*
X115013446Y-128720941D01*
X114968559Y-128868914D01*
X114953403Y-129022800D01*
X114957201Y-129061363D01*
X114957200Y-131049976D01*
X114722132Y-131207043D01*
X114499243Y-131429932D01*
X114324121Y-131692021D01*
X114203494Y-131983239D01*
X114142000Y-132292394D01*
X114142000Y-132607606D01*
X114203494Y-132916761D01*
X114324121Y-133207979D01*
X114499243Y-133470068D01*
X114722132Y-133692957D01*
X114984221Y-133868079D01*
X115275439Y-133988706D01*
X115584594Y-134050200D01*
X115899806Y-134050200D01*
X116208961Y-133988706D01*
X116500179Y-133868079D01*
X116762268Y-133692957D01*
X116948700Y-133506525D01*
X117135132Y-133692957D01*
X117397221Y-133868079D01*
X117688439Y-133988706D01*
X117997594Y-134050200D01*
X118312806Y-134050200D01*
X118621961Y-133988706D01*
X118913179Y-133868079D01*
X119175268Y-133692957D01*
X119398157Y-133470068D01*
X119573279Y-133207979D01*
X119693906Y-132916761D01*
X119755400Y-132607606D01*
X119755400Y-132300879D01*
X119914419Y-132300879D01*
X119914419Y-132619121D01*
X119976505Y-132931248D01*
X120098291Y-133225265D01*
X120275096Y-133489873D01*
X120500127Y-133714904D01*
X120764735Y-133891709D01*
X121058752Y-134013495D01*
X121370879Y-134075581D01*
X121689121Y-134075581D01*
X122001248Y-134013495D01*
X122295265Y-133891709D01*
X122559873Y-133714904D01*
X122714183Y-133560594D01*
X125784011Y-133560594D01*
X125875572Y-133821438D01*
X126159256Y-133958851D01*
X126464296Y-134038279D01*
X126778971Y-134056670D01*
X127091188Y-134013318D01*
X127388948Y-133909888D01*
X127554428Y-133821438D01*
X127645989Y-133560594D01*
X126715000Y-132629605D01*
X125784011Y-133560594D01*
X122714183Y-133560594D01*
X122784904Y-133489873D01*
X122961709Y-133225265D01*
X123083495Y-132931248D01*
X123145581Y-132619121D01*
X123145581Y-132513971D01*
X125108330Y-132513971D01*
X125151682Y-132826188D01*
X125255112Y-133123948D01*
X125343562Y-133289428D01*
X125604406Y-133380989D01*
X126535395Y-132450000D01*
X126894605Y-132450000D01*
X127825594Y-133380989D01*
X128086438Y-133289428D01*
X128223851Y-133005744D01*
X128303279Y-132700704D01*
X128312439Y-132543971D01*
X134442330Y-132543971D01*
X134485682Y-132856188D01*
X134589112Y-133153948D01*
X134677562Y-133319428D01*
X134938406Y-133410989D01*
X135869395Y-132480000D01*
X136228605Y-132480000D01*
X137159594Y-133410989D01*
X137420438Y-133319428D01*
X137557851Y-133035744D01*
X137637279Y-132730704D01*
X137655670Y-132416029D01*
X137643153Y-132325879D01*
X139646021Y-132325879D01*
X139646021Y-132644121D01*
X139708107Y-132956248D01*
X139829893Y-133250265D01*
X140006698Y-133514873D01*
X140231729Y-133739904D01*
X140496337Y-133916709D01*
X140790354Y-134038495D01*
X141102481Y-134100581D01*
X141420723Y-134100581D01*
X141732850Y-134038495D01*
X142026867Y-133916709D01*
X142291475Y-133739904D01*
X142516506Y-133514873D01*
X142693311Y-133250265D01*
X142815097Y-132956248D01*
X142877183Y-132644121D01*
X142877183Y-132325879D01*
X142815097Y-132013752D01*
X142693311Y-131719735D01*
X142516506Y-131455127D01*
X142291475Y-131230096D01*
X142026867Y-131053291D01*
X141732850Y-130931505D01*
X141420723Y-130869419D01*
X141102481Y-130869419D01*
X140790354Y-130931505D01*
X140496337Y-131053291D01*
X140231729Y-131230096D01*
X140006698Y-131455127D01*
X139829893Y-131719735D01*
X139708107Y-132013752D01*
X139646021Y-132325879D01*
X137643153Y-132325879D01*
X137612318Y-132103812D01*
X137508888Y-131806052D01*
X137420438Y-131640572D01*
X137159594Y-131549011D01*
X136228605Y-132480000D01*
X135869395Y-132480000D01*
X134938406Y-131549011D01*
X134677562Y-131640572D01*
X134540149Y-131924256D01*
X134460721Y-132229296D01*
X134442330Y-132543971D01*
X128312439Y-132543971D01*
X128321670Y-132386029D01*
X128278318Y-132073812D01*
X128174888Y-131776052D01*
X128086438Y-131610572D01*
X127825594Y-131519011D01*
X126894605Y-132450000D01*
X126535395Y-132450000D01*
X125604406Y-131519011D01*
X125343562Y-131610572D01*
X125206149Y-131894256D01*
X125126721Y-132199296D01*
X125108330Y-132513971D01*
X123145581Y-132513971D01*
X123145581Y-132300879D01*
X123083495Y-131988752D01*
X122961709Y-131694735D01*
X122784904Y-131430127D01*
X122694183Y-131339406D01*
X125784011Y-131339406D01*
X126715000Y-132270395D01*
X127615989Y-131369406D01*
X135118011Y-131369406D01*
X136049000Y-132300395D01*
X136979989Y-131369406D01*
X136888428Y-131108562D01*
X136604744Y-130971149D01*
X136299704Y-130891721D01*
X135985029Y-130873330D01*
X135672812Y-130916682D01*
X135375052Y-131020112D01*
X135209572Y-131108562D01*
X135118011Y-131369406D01*
X127615989Y-131369406D01*
X127645989Y-131339406D01*
X127554428Y-131078562D01*
X127270744Y-130941149D01*
X126965704Y-130861721D01*
X126651029Y-130843330D01*
X126338812Y-130886682D01*
X126041052Y-130990112D01*
X125875572Y-131078562D01*
X125784011Y-131339406D01*
X122694183Y-131339406D01*
X122559873Y-131205096D01*
X122295265Y-131028291D01*
X122001248Y-130906505D01*
X121689121Y-130844419D01*
X121370879Y-130844419D01*
X121058752Y-130906505D01*
X120764735Y-131028291D01*
X120500127Y-131205096D01*
X120275096Y-131430127D01*
X120098291Y-131694735D01*
X119976505Y-131988752D01*
X119914419Y-132300879D01*
X119755400Y-132300879D01*
X119755400Y-132292394D01*
X119693906Y-131983239D01*
X119573279Y-131692021D01*
X119398157Y-131429932D01*
X119175268Y-131207043D01*
X118913179Y-131031921D01*
X118621961Y-130911294D01*
X118312806Y-130849800D01*
X117997594Y-130849800D01*
X117688439Y-130911294D01*
X117397221Y-131031921D01*
X117135132Y-131207043D01*
X116948700Y-131393475D01*
X116762268Y-131207043D01*
X116527200Y-131049976D01*
X116527200Y-129457665D01*
X129672000Y-129457665D01*
X129672000Y-129740335D01*
X129727147Y-130017574D01*
X129835320Y-130278727D01*
X129992363Y-130513759D01*
X130192241Y-130713637D01*
X130427273Y-130870680D01*
X130688426Y-130978853D01*
X130965665Y-131034000D01*
X131248335Y-131034000D01*
X131525574Y-130978853D01*
X131786727Y-130870680D01*
X132021759Y-130713637D01*
X132221637Y-130513759D01*
X132378680Y-130278727D01*
X132486853Y-130017574D01*
X132542000Y-129740335D01*
X132542000Y-129457665D01*
X132486853Y-129180426D01*
X132378680Y-128919273D01*
X132221637Y-128684241D01*
X132021759Y-128484363D01*
X131786727Y-128327320D01*
X131525574Y-128219147D01*
X131248335Y-128164000D01*
X130965665Y-128164000D01*
X130688426Y-128219147D01*
X130427273Y-128327320D01*
X130192241Y-128484363D01*
X129992363Y-128684241D01*
X129835320Y-128919273D01*
X129727147Y-129180426D01*
X129672000Y-129457665D01*
X116527200Y-129457665D01*
X116527200Y-129347957D01*
X118683017Y-127192141D01*
X118712964Y-127167564D01*
X118811062Y-127048033D01*
X118883954Y-126911660D01*
X118928841Y-126763687D01*
X118940200Y-126648361D01*
X118940200Y-126648354D01*
X118943997Y-126609801D01*
X118940200Y-126571248D01*
X118940200Y-125797665D01*
X129672000Y-125797665D01*
X129672000Y-126080335D01*
X129727147Y-126357574D01*
X129835320Y-126618727D01*
X129992363Y-126853759D01*
X130192241Y-127053637D01*
X130427273Y-127210680D01*
X130688426Y-127318853D01*
X130965665Y-127374000D01*
X131248335Y-127374000D01*
X131525574Y-127318853D01*
X131786727Y-127210680D01*
X132021759Y-127053637D01*
X132221637Y-126853759D01*
X132378680Y-126618727D01*
X132486853Y-126357574D01*
X132542000Y-126080335D01*
X132542000Y-125797665D01*
X132486853Y-125520426D01*
X132378680Y-125259273D01*
X132221637Y-125024241D01*
X132021759Y-124824363D01*
X131786727Y-124667320D01*
X131525574Y-124559147D01*
X131248335Y-124504000D01*
X130965665Y-124504000D01*
X130688426Y-124559147D01*
X130427273Y-124667320D01*
X130192241Y-124824363D01*
X129992363Y-125024241D01*
X129835320Y-125259273D01*
X129727147Y-125520426D01*
X129672000Y-125797665D01*
X118940200Y-125797665D01*
X118940200Y-124575024D01*
X119175268Y-124417957D01*
X119398157Y-124195068D01*
X119573279Y-123932979D01*
X119693906Y-123641761D01*
X119755400Y-123332606D01*
X119755400Y-123025879D01*
X119889419Y-123025879D01*
X119889419Y-123344121D01*
X119951505Y-123656248D01*
X120073291Y-123950265D01*
X120250096Y-124214873D01*
X120475127Y-124439904D01*
X120739735Y-124616709D01*
X121033752Y-124738495D01*
X121345879Y-124800581D01*
X121664121Y-124800581D01*
X121976248Y-124738495D01*
X122270265Y-124616709D01*
X122534873Y-124439904D01*
X122689183Y-124285594D01*
X125784011Y-124285594D01*
X125875572Y-124546438D01*
X126159256Y-124683851D01*
X126464296Y-124763279D01*
X126778971Y-124781670D01*
X127091188Y-124738318D01*
X127388948Y-124634888D01*
X127554428Y-124546438D01*
X127645989Y-124285594D01*
X126715000Y-123354605D01*
X125784011Y-124285594D01*
X122689183Y-124285594D01*
X122759904Y-124214873D01*
X122936709Y-123950265D01*
X123058495Y-123656248D01*
X123120581Y-123344121D01*
X123120581Y-123238971D01*
X125108330Y-123238971D01*
X125151682Y-123551188D01*
X125255112Y-123848948D01*
X125343562Y-124014428D01*
X125604406Y-124105989D01*
X126535395Y-123175000D01*
X126894605Y-123175000D01*
X127825594Y-124105989D01*
X128086438Y-124014428D01*
X128223851Y-123730744D01*
X128303279Y-123425704D01*
X128321670Y-123111029D01*
X128278318Y-122798812D01*
X128174888Y-122501052D01*
X128086438Y-122335572D01*
X127825594Y-122244011D01*
X126894605Y-123175000D01*
X126535395Y-123175000D01*
X125604406Y-122244011D01*
X125343562Y-122335572D01*
X125206149Y-122619256D01*
X125126721Y-122924296D01*
X125108330Y-123238971D01*
X123120581Y-123238971D01*
X123120581Y-123025879D01*
X123058495Y-122713752D01*
X122936709Y-122419735D01*
X122759904Y-122155127D01*
X122669183Y-122064406D01*
X125784011Y-122064406D01*
X126715000Y-122995395D01*
X127645989Y-122064406D01*
X127554428Y-121803562D01*
X127270744Y-121666149D01*
X126965704Y-121586721D01*
X126651029Y-121568330D01*
X126338812Y-121611682D01*
X126041052Y-121715112D01*
X125875572Y-121803562D01*
X125784011Y-122064406D01*
X122669183Y-122064406D01*
X122534873Y-121930096D01*
X122270265Y-121753291D01*
X121976248Y-121631505D01*
X121664121Y-121569419D01*
X121345879Y-121569419D01*
X121033752Y-121631505D01*
X120739735Y-121753291D01*
X120475127Y-121930096D01*
X120250096Y-122155127D01*
X120073291Y-122419735D01*
X119951505Y-122713752D01*
X119889419Y-123025879D01*
X119755400Y-123025879D01*
X119755400Y-123017394D01*
X119693906Y-122708239D01*
X119573279Y-122417021D01*
X119398157Y-122154932D01*
X119175268Y-121932043D01*
X118913179Y-121756921D01*
X118621961Y-121636294D01*
X118312806Y-121574800D01*
X117997594Y-121574800D01*
X117688439Y-121636294D01*
X117397221Y-121756921D01*
X117135132Y-121932043D01*
X116948700Y-122118475D01*
X116762268Y-121932043D01*
X116500179Y-121756921D01*
X116208961Y-121636294D01*
X115899806Y-121574800D01*
X115584594Y-121574800D01*
X115275439Y-121636294D01*
X114984221Y-121756921D01*
X114722132Y-121932043D01*
X114499243Y-122154932D01*
X114324121Y-122417021D01*
X114203494Y-122708239D01*
X114142000Y-123017394D01*
X110068552Y-123017394D01*
X108702157Y-121651000D01*
X110605661Y-121651000D01*
X110692363Y-121780759D01*
X110892241Y-121980637D01*
X111127273Y-122137680D01*
X111388426Y-122245853D01*
X111665665Y-122301000D01*
X111948335Y-122301000D01*
X112225574Y-122245853D01*
X112486727Y-122137680D01*
X112721759Y-121980637D01*
X112921637Y-121780759D01*
X113078680Y-121545727D01*
X113186853Y-121284574D01*
X113242000Y-121007335D01*
X113242000Y-120797665D01*
X129672000Y-120797665D01*
X129672000Y-121080335D01*
X129727147Y-121357574D01*
X129835320Y-121618727D01*
X129992363Y-121853759D01*
X130192241Y-122053637D01*
X130427273Y-122210680D01*
X130688426Y-122318853D01*
X130965665Y-122374000D01*
X131248335Y-122374000D01*
X131525574Y-122318853D01*
X131786727Y-122210680D01*
X132021759Y-122053637D01*
X132221637Y-121853759D01*
X132319430Y-121707400D01*
X134429728Y-121707400D01*
X134429728Y-124672600D01*
X134451261Y-124891232D01*
X134515034Y-125101463D01*
X134618595Y-125295212D01*
X134757965Y-125465035D01*
X134927788Y-125604405D01*
X135121537Y-125707966D01*
X135331768Y-125771739D01*
X135550400Y-125793272D01*
X136515600Y-125793272D01*
X136734232Y-125771739D01*
X136944463Y-125707966D01*
X137138212Y-125604405D01*
X137308035Y-125465035D01*
X137447405Y-125295212D01*
X137550966Y-125101463D01*
X137614739Y-124891232D01*
X137636272Y-124672600D01*
X137636272Y-123044277D01*
X139624419Y-123044277D01*
X139624419Y-123362519D01*
X139686505Y-123674646D01*
X139808291Y-123968663D01*
X139985096Y-124233271D01*
X140210127Y-124458302D01*
X140474735Y-124635107D01*
X140768752Y-124756893D01*
X141080879Y-124818979D01*
X141399121Y-124818979D01*
X141711248Y-124756893D01*
X142005265Y-124635107D01*
X142269873Y-124458302D01*
X142494904Y-124233271D01*
X142671709Y-123968663D01*
X142793495Y-123674646D01*
X142855581Y-123362519D01*
X142855581Y-123044277D01*
X142793495Y-122732150D01*
X142671709Y-122438133D01*
X142494904Y-122173525D01*
X142269873Y-121948494D01*
X142005265Y-121771689D01*
X141850058Y-121707400D01*
X142989528Y-121707400D01*
X142989528Y-124672600D01*
X143011061Y-124891232D01*
X143074834Y-125101463D01*
X143178395Y-125295212D01*
X143317765Y-125465035D01*
X143487588Y-125604405D01*
X143681337Y-125707966D01*
X143891568Y-125771739D01*
X144110200Y-125793272D01*
X145075400Y-125793272D01*
X145294032Y-125771739D01*
X145504263Y-125707966D01*
X145698012Y-125604405D01*
X145867835Y-125465035D01*
X146007205Y-125295212D01*
X146110766Y-125101463D01*
X146174539Y-124891232D01*
X146196072Y-124672600D01*
X146196072Y-124575824D01*
X146450056Y-124698851D01*
X146755096Y-124778279D01*
X147069771Y-124796670D01*
X147381988Y-124753318D01*
X147679748Y-124649888D01*
X147845228Y-124561438D01*
X147936789Y-124300594D01*
X147005800Y-123369605D01*
X146991658Y-123383748D01*
X146812053Y-123204143D01*
X146826195Y-123190000D01*
X147185405Y-123190000D01*
X148116394Y-124120989D01*
X148377238Y-124029428D01*
X148514651Y-123745744D01*
X148594079Y-123440704D01*
X148612470Y-123126029D01*
X148569118Y-122813812D01*
X148465688Y-122516052D01*
X148377238Y-122350572D01*
X148116394Y-122259011D01*
X147185405Y-123190000D01*
X146826195Y-123190000D01*
X146812053Y-123175858D01*
X146991658Y-122996253D01*
X147005800Y-123010395D01*
X147936789Y-122079406D01*
X147845228Y-121818562D01*
X147561544Y-121681149D01*
X147256504Y-121601721D01*
X146941829Y-121583330D01*
X146629612Y-121626682D01*
X146331852Y-121730112D01*
X146196072Y-121802687D01*
X146196072Y-121707400D01*
X146174539Y-121488768D01*
X146110766Y-121278537D01*
X146007205Y-121084788D01*
X145867835Y-120914965D01*
X145698012Y-120775595D01*
X145504263Y-120672034D01*
X145294032Y-120608261D01*
X145075400Y-120586728D01*
X144110200Y-120586728D01*
X143891568Y-120608261D01*
X143681337Y-120672034D01*
X143487588Y-120775595D01*
X143317765Y-120914965D01*
X143178395Y-121084788D01*
X143074834Y-121278537D01*
X143011061Y-121488768D01*
X142989528Y-121707400D01*
X141850058Y-121707400D01*
X141711248Y-121649903D01*
X141399121Y-121587817D01*
X141080879Y-121587817D01*
X140768752Y-121649903D01*
X140474735Y-121771689D01*
X140210127Y-121948494D01*
X139985096Y-122173525D01*
X139808291Y-122438133D01*
X139686505Y-122732150D01*
X139624419Y-123044277D01*
X137636272Y-123044277D01*
X137636272Y-121707400D01*
X137614739Y-121488768D01*
X137550966Y-121278537D01*
X137447405Y-121084788D01*
X137308035Y-120914965D01*
X137138212Y-120775595D01*
X136944463Y-120672034D01*
X136734232Y-120608261D01*
X136515600Y-120586728D01*
X135550400Y-120586728D01*
X135331768Y-120608261D01*
X135121537Y-120672034D01*
X134927788Y-120775595D01*
X134757965Y-120914965D01*
X134618595Y-121084788D01*
X134515034Y-121278537D01*
X134451261Y-121488768D01*
X134429728Y-121707400D01*
X132319430Y-121707400D01*
X132378680Y-121618727D01*
X132486853Y-121357574D01*
X132542000Y-121080335D01*
X132542000Y-120797665D01*
X132499632Y-120584665D01*
X153034000Y-120584665D01*
X153034000Y-120867335D01*
X153089147Y-121144574D01*
X153197320Y-121405727D01*
X153354363Y-121640759D01*
X153554241Y-121840637D01*
X153789273Y-121997680D01*
X154050426Y-122105853D01*
X154327665Y-122161000D01*
X154610335Y-122161000D01*
X154887574Y-122105853D01*
X155148727Y-121997680D01*
X155383759Y-121840637D01*
X155583637Y-121640759D01*
X155740680Y-121405727D01*
X155848853Y-121144574D01*
X155904000Y-120867335D01*
X155904000Y-120584665D01*
X155848853Y-120307426D01*
X155740680Y-120046273D01*
X155583637Y-119811241D01*
X155383759Y-119611363D01*
X155148727Y-119454320D01*
X154887574Y-119346147D01*
X154610335Y-119291000D01*
X154327665Y-119291000D01*
X154050426Y-119346147D01*
X153789273Y-119454320D01*
X153554241Y-119611363D01*
X153354363Y-119811241D01*
X153197320Y-120046273D01*
X153089147Y-120307426D01*
X153034000Y-120584665D01*
X132499632Y-120584665D01*
X132486853Y-120520426D01*
X132378680Y-120259273D01*
X132221637Y-120024241D01*
X132021759Y-119824363D01*
X131786727Y-119667320D01*
X131525574Y-119559147D01*
X131248335Y-119504000D01*
X130965665Y-119504000D01*
X130688426Y-119559147D01*
X130427273Y-119667320D01*
X130192241Y-119824363D01*
X129992363Y-120024241D01*
X129835320Y-120259273D01*
X129727147Y-120520426D01*
X129672000Y-120797665D01*
X113242000Y-120797665D01*
X113242000Y-120724665D01*
X113186853Y-120447426D01*
X113078680Y-120186273D01*
X112921637Y-119951241D01*
X112721759Y-119751363D01*
X112486727Y-119594320D01*
X112225574Y-119486147D01*
X111948335Y-119431000D01*
X111665665Y-119431000D01*
X111388426Y-119486147D01*
X111127273Y-119594320D01*
X110892241Y-119751363D01*
X110692363Y-119951241D01*
X110605661Y-120081000D01*
X96012556Y-120081000D01*
X95974000Y-120077203D01*
X95935444Y-120081000D01*
X95935439Y-120081000D01*
X95895026Y-120084980D01*
X95820113Y-120092358D01*
X95672140Y-120137246D01*
X95535767Y-120210138D01*
X95416236Y-120308236D01*
X95391653Y-120338190D01*
X93901672Y-121828171D01*
X93901672Y-120336400D01*
X93889412Y-120211918D01*
X93853102Y-120092220D01*
X93794137Y-119981906D01*
X93714785Y-119885215D01*
X93618094Y-119805863D01*
X93507780Y-119746898D01*
X93388082Y-119710588D01*
X93263600Y-119698328D01*
X91536400Y-119698328D01*
X91411918Y-119710588D01*
X91292220Y-119746898D01*
X91181906Y-119805863D01*
X91085215Y-119885215D01*
X91005863Y-119981906D01*
X90946898Y-120092220D01*
X90927947Y-120154692D01*
X90748488Y-119993183D01*
X90495978Y-119843036D01*
X90219027Y-119745037D01*
X89987000Y-119865536D01*
X89987000Y-121073000D01*
X90007000Y-121073000D01*
X90007000Y-121327000D01*
X89987000Y-121327000D01*
X89987000Y-123613000D01*
X90007000Y-123613000D01*
X90007000Y-123867000D01*
X89987000Y-123867000D01*
X89987000Y-123887000D01*
X89733000Y-123887000D01*
X89733000Y-123867000D01*
X88526183Y-123867000D01*
X88405042Y-124099026D01*
X88450778Y-124249814D01*
X88577316Y-124514944D01*
X88753146Y-124750293D01*
X88971512Y-124946817D01*
X89067910Y-125004137D01*
X89023394Y-125027931D01*
X88795203Y-125215203D01*
X88607931Y-125443394D01*
X88468775Y-125703736D01*
X88383084Y-125986223D01*
X88354149Y-126280000D01*
X87907000Y-126280000D01*
X87907000Y-121559026D01*
X88405042Y-121559026D01*
X88450778Y-121709814D01*
X88577316Y-121974944D01*
X88753146Y-122210293D01*
X88971512Y-122406817D01*
X89077770Y-122470000D01*
X88971512Y-122533183D01*
X88753146Y-122729707D01*
X88577316Y-122965056D01*
X88450778Y-123230186D01*
X88405042Y-123380974D01*
X88526183Y-123613000D01*
X89733000Y-123613000D01*
X89733000Y-121327000D01*
X88526183Y-121327000D01*
X88405042Y-121559026D01*
X87907000Y-121559026D01*
X87907000Y-120840974D01*
X88405042Y-120840974D01*
X88526183Y-121073000D01*
X89733000Y-121073000D01*
X89733000Y-119865536D01*
X89500973Y-119745037D01*
X89224022Y-119843036D01*
X88971512Y-119993183D01*
X88753146Y-120189707D01*
X88577316Y-120425056D01*
X88450778Y-120690186D01*
X88405042Y-120840974D01*
X87907000Y-120840974D01*
X87907000Y-120264795D01*
X87924346Y-120088518D01*
X87973900Y-119924998D01*
X88054375Y-119774277D01*
X88162683Y-119642134D01*
X88294676Y-119533630D01*
X88445279Y-119452938D01*
X88608726Y-119403148D01*
X88784966Y-119385549D01*
X156019560Y-119288459D01*
X156196497Y-119305677D01*
M02*
