G04 #@! TF.GenerationSoftware,KiCad,Pcbnew,(5.1.5)-3*
G04 #@! TF.CreationDate,2020-06-13T04:32:44-04:00*
G04 #@! TF.ProjectId,LilMix,4c696c4d-6978-42e6-9b69-6361645f7063,rev?*
G04 #@! TF.SameCoordinates,Original*
G04 #@! TF.FileFunction,Soldermask,Top*
G04 #@! TF.FilePolarity,Negative*
%FSLAX46Y46*%
G04 Gerber Fmt 4.6, Leading zero omitted, Abs format (unit mm)*
G04 Created by KiCad (PCBNEW (5.1.5)-3) date 2020-06-13 04:32:44*
%MOMM*%
%LPD*%
G04 APERTURE LIST*
%ADD10C,0.100000*%
G04 APERTURE END LIST*
D10*
G36*
X154717228Y-134305703D02*
G01*
X154872100Y-134369853D01*
X155011481Y-134462985D01*
X155130015Y-134581519D01*
X155223147Y-134720900D01*
X155287297Y-134875772D01*
X155320000Y-135040184D01*
X155320000Y-135207816D01*
X155287297Y-135372228D01*
X155223147Y-135527100D01*
X155130015Y-135666481D01*
X155011481Y-135785015D01*
X154872100Y-135878147D01*
X154717228Y-135942297D01*
X154552816Y-135975000D01*
X154385184Y-135975000D01*
X154220772Y-135942297D01*
X154065900Y-135878147D01*
X153926519Y-135785015D01*
X153807985Y-135666481D01*
X153714853Y-135527100D01*
X153650703Y-135372228D01*
X153618000Y-135207816D01*
X153618000Y-135040184D01*
X153650703Y-134875772D01*
X153714853Y-134720900D01*
X153807985Y-134581519D01*
X153926519Y-134462985D01*
X154065900Y-134369853D01*
X154220772Y-134305703D01*
X154385184Y-134273000D01*
X154552816Y-134273000D01*
X154717228Y-134305703D01*
G37*
G36*
X131355228Y-133780703D02*
G01*
X131510100Y-133844853D01*
X131649481Y-133937985D01*
X131768015Y-134056519D01*
X131861147Y-134195900D01*
X131925297Y-134350772D01*
X131958000Y-134515184D01*
X131958000Y-134682816D01*
X131925297Y-134847228D01*
X131861147Y-135002100D01*
X131768015Y-135141481D01*
X131649481Y-135260015D01*
X131510100Y-135353147D01*
X131355228Y-135417297D01*
X131190816Y-135450000D01*
X131023184Y-135450000D01*
X130858772Y-135417297D01*
X130703900Y-135353147D01*
X130564519Y-135260015D01*
X130445985Y-135141481D01*
X130352853Y-135002100D01*
X130288703Y-134847228D01*
X130256000Y-134682816D01*
X130256000Y-134515184D01*
X130288703Y-134350772D01*
X130352853Y-134195900D01*
X130445985Y-134056519D01*
X130564519Y-133937985D01*
X130703900Y-133844853D01*
X130858772Y-133780703D01*
X131023184Y-133748000D01*
X131190816Y-133748000D01*
X131355228Y-133780703D01*
G37*
G36*
X112055228Y-133487703D02*
G01*
X112210100Y-133551853D01*
X112349481Y-133644985D01*
X112468015Y-133763519D01*
X112561147Y-133902900D01*
X112625297Y-134057772D01*
X112658000Y-134222184D01*
X112658000Y-134389816D01*
X112625297Y-134554228D01*
X112561147Y-134709100D01*
X112468015Y-134848481D01*
X112349481Y-134967015D01*
X112210100Y-135060147D01*
X112055228Y-135124297D01*
X111890816Y-135157000D01*
X111723184Y-135157000D01*
X111558772Y-135124297D01*
X111403900Y-135060147D01*
X111264519Y-134967015D01*
X111145985Y-134848481D01*
X111052853Y-134709100D01*
X110988703Y-134554228D01*
X110956000Y-134389816D01*
X110956000Y-134222184D01*
X110988703Y-134057772D01*
X111052853Y-133902900D01*
X111145985Y-133763519D01*
X111264519Y-133644985D01*
X111403900Y-133551853D01*
X111558772Y-133487703D01*
X111723184Y-133455000D01*
X111890816Y-133455000D01*
X112055228Y-133487703D01*
G37*
G36*
X144913395Y-131565546D02*
G01*
X145086466Y-131637234D01*
X145086467Y-131637235D01*
X145242227Y-131741310D01*
X145374690Y-131873773D01*
X145374691Y-131873775D01*
X145478766Y-132029534D01*
X145550454Y-132202605D01*
X145587000Y-132386333D01*
X145587000Y-132573667D01*
X145550454Y-132757395D01*
X145478766Y-132930466D01*
X145478765Y-132930467D01*
X145374690Y-133086227D01*
X145242227Y-133218690D01*
X145163818Y-133271081D01*
X145086466Y-133322766D01*
X144913395Y-133394454D01*
X144729667Y-133431000D01*
X144542333Y-133431000D01*
X144358605Y-133394454D01*
X144185534Y-133322766D01*
X144108182Y-133271081D01*
X144029773Y-133218690D01*
X143897310Y-133086227D01*
X143793235Y-132930467D01*
X143793234Y-132930466D01*
X143721546Y-132757395D01*
X143685000Y-132573667D01*
X143685000Y-132386333D01*
X143721546Y-132202605D01*
X143793234Y-132029534D01*
X143897309Y-131873775D01*
X143897310Y-131873773D01*
X144029773Y-131741310D01*
X144185533Y-131637235D01*
X144185534Y-131637234D01*
X144358605Y-131565546D01*
X144542333Y-131529000D01*
X144729667Y-131529000D01*
X144913395Y-131565546D01*
G37*
G36*
X147433395Y-131565546D02*
G01*
X147606466Y-131637234D01*
X147606467Y-131637235D01*
X147762227Y-131741310D01*
X147894690Y-131873773D01*
X147894691Y-131873775D01*
X147998766Y-132029534D01*
X148070454Y-132202605D01*
X148107000Y-132386333D01*
X148107000Y-132573667D01*
X148070454Y-132757395D01*
X147998766Y-132930466D01*
X147998765Y-132930467D01*
X147894690Y-133086227D01*
X147762227Y-133218690D01*
X147683818Y-133271081D01*
X147606466Y-133322766D01*
X147433395Y-133394454D01*
X147249667Y-133431000D01*
X147062333Y-133431000D01*
X146878605Y-133394454D01*
X146705534Y-133322766D01*
X146628182Y-133271081D01*
X146549773Y-133218690D01*
X146417310Y-133086227D01*
X146313235Y-132930467D01*
X146313234Y-132930466D01*
X146241546Y-132757395D01*
X146205000Y-132573667D01*
X146205000Y-132386333D01*
X146241546Y-132202605D01*
X146313234Y-132029534D01*
X146417309Y-131873775D01*
X146417310Y-131873773D01*
X146549773Y-131741310D01*
X146705533Y-131637235D01*
X146705534Y-131637234D01*
X146878605Y-131565546D01*
X147062333Y-131529000D01*
X147249667Y-131529000D01*
X147433395Y-131565546D01*
G37*
G36*
X136613395Y-131565546D02*
G01*
X136786466Y-131637234D01*
X136786467Y-131637235D01*
X136942227Y-131741310D01*
X137074690Y-131873773D01*
X137074691Y-131873775D01*
X137178766Y-132029534D01*
X137250454Y-132202605D01*
X137287000Y-132386333D01*
X137287000Y-132573667D01*
X137250454Y-132757395D01*
X137178766Y-132930466D01*
X137178765Y-132930467D01*
X137074690Y-133086227D01*
X136942227Y-133218690D01*
X136863818Y-133271081D01*
X136786466Y-133322766D01*
X136613395Y-133394454D01*
X136429667Y-133431000D01*
X136242333Y-133431000D01*
X136058605Y-133394454D01*
X135885534Y-133322766D01*
X135808182Y-133271081D01*
X135729773Y-133218690D01*
X135597310Y-133086227D01*
X135493235Y-132930467D01*
X135493234Y-132930466D01*
X135421546Y-132757395D01*
X135385000Y-132573667D01*
X135385000Y-132386333D01*
X135421546Y-132202605D01*
X135493234Y-132029534D01*
X135597309Y-131873775D01*
X135597310Y-131873773D01*
X135729773Y-131741310D01*
X135885533Y-131637235D01*
X135885534Y-131637234D01*
X136058605Y-131565546D01*
X136242333Y-131529000D01*
X136429667Y-131529000D01*
X136613395Y-131565546D01*
G37*
G36*
X107018395Y-131538546D02*
G01*
X107191466Y-131610234D01*
X107191467Y-131610235D01*
X107347227Y-131714310D01*
X107479690Y-131846773D01*
X107479691Y-131846775D01*
X107583766Y-132002534D01*
X107655454Y-132175605D01*
X107692000Y-132359333D01*
X107692000Y-132546667D01*
X107655454Y-132730395D01*
X107583766Y-132903466D01*
X107583765Y-132903467D01*
X107479690Y-133059227D01*
X107347227Y-133191690D01*
X107306818Y-133218690D01*
X107191466Y-133295766D01*
X107018395Y-133367454D01*
X106834667Y-133404000D01*
X106647333Y-133404000D01*
X106463605Y-133367454D01*
X106290534Y-133295766D01*
X106175182Y-133218690D01*
X106134773Y-133191690D01*
X106002310Y-133059227D01*
X105898235Y-132903467D01*
X105898234Y-132903466D01*
X105826546Y-132730395D01*
X105790000Y-132546667D01*
X105790000Y-132359333D01*
X105826546Y-132175605D01*
X105898234Y-132002534D01*
X106002309Y-131846775D01*
X106002310Y-131846773D01*
X106134773Y-131714310D01*
X106290533Y-131610235D01*
X106290534Y-131610234D01*
X106463605Y-131538546D01*
X106647333Y-131502000D01*
X106834667Y-131502000D01*
X107018395Y-131538546D01*
G37*
G36*
X98718395Y-131538546D02*
G01*
X98891466Y-131610234D01*
X98891467Y-131610235D01*
X99047227Y-131714310D01*
X99179690Y-131846773D01*
X99179691Y-131846775D01*
X99283766Y-132002534D01*
X99355454Y-132175605D01*
X99392000Y-132359333D01*
X99392000Y-132546667D01*
X99355454Y-132730395D01*
X99283766Y-132903466D01*
X99283765Y-132903467D01*
X99179690Y-133059227D01*
X99047227Y-133191690D01*
X99006818Y-133218690D01*
X98891466Y-133295766D01*
X98718395Y-133367454D01*
X98534667Y-133404000D01*
X98347333Y-133404000D01*
X98163605Y-133367454D01*
X97990534Y-133295766D01*
X97875182Y-133218690D01*
X97834773Y-133191690D01*
X97702310Y-133059227D01*
X97598235Y-132903467D01*
X97598234Y-132903466D01*
X97526546Y-132730395D01*
X97490000Y-132546667D01*
X97490000Y-132359333D01*
X97526546Y-132175605D01*
X97598234Y-132002534D01*
X97702309Y-131846775D01*
X97702310Y-131846773D01*
X97834773Y-131714310D01*
X97990533Y-131610235D01*
X97990534Y-131610234D01*
X98163605Y-131538546D01*
X98347333Y-131502000D01*
X98534667Y-131502000D01*
X98718395Y-131538546D01*
G37*
G36*
X96198395Y-131538546D02*
G01*
X96371466Y-131610234D01*
X96371467Y-131610235D01*
X96527227Y-131714310D01*
X96659690Y-131846773D01*
X96659691Y-131846775D01*
X96763766Y-132002534D01*
X96835454Y-132175605D01*
X96872000Y-132359333D01*
X96872000Y-132546667D01*
X96835454Y-132730395D01*
X96763766Y-132903466D01*
X96763765Y-132903467D01*
X96659690Y-133059227D01*
X96527227Y-133191690D01*
X96486818Y-133218690D01*
X96371466Y-133295766D01*
X96198395Y-133367454D01*
X96014667Y-133404000D01*
X95827333Y-133404000D01*
X95643605Y-133367454D01*
X95470534Y-133295766D01*
X95355182Y-133218690D01*
X95314773Y-133191690D01*
X95182310Y-133059227D01*
X95078235Y-132903467D01*
X95078234Y-132903466D01*
X95006546Y-132730395D01*
X94970000Y-132546667D01*
X94970000Y-132359333D01*
X95006546Y-132175605D01*
X95078234Y-132002534D01*
X95182309Y-131846775D01*
X95182310Y-131846773D01*
X95314773Y-131714310D01*
X95470533Y-131610235D01*
X95470534Y-131610234D01*
X95643605Y-131538546D01*
X95827333Y-131502000D01*
X96014667Y-131502000D01*
X96198395Y-131538546D01*
G37*
G36*
X115885395Y-131535546D02*
G01*
X116058466Y-131607234D01*
X116135818Y-131658919D01*
X116214227Y-131711310D01*
X116346690Y-131843773D01*
X116399081Y-131922182D01*
X116450766Y-131999534D01*
X116522454Y-132172605D01*
X116559000Y-132356333D01*
X116559000Y-132543667D01*
X116522454Y-132727395D01*
X116450766Y-132900466D01*
X116430720Y-132930467D01*
X116346690Y-133056227D01*
X116214227Y-133188690D01*
X116169327Y-133218691D01*
X116058466Y-133292766D01*
X115885395Y-133364454D01*
X115701667Y-133401000D01*
X115514333Y-133401000D01*
X115330605Y-133364454D01*
X115157534Y-133292766D01*
X115046673Y-133218691D01*
X115001773Y-133188690D01*
X114869310Y-133056227D01*
X114785280Y-132930467D01*
X114765234Y-132900466D01*
X114693546Y-132727395D01*
X114657000Y-132543667D01*
X114657000Y-132356333D01*
X114693546Y-132172605D01*
X114765234Y-131999534D01*
X114816919Y-131922182D01*
X114869310Y-131843773D01*
X115001773Y-131711310D01*
X115080182Y-131658919D01*
X115157534Y-131607234D01*
X115330605Y-131535546D01*
X115514333Y-131499000D01*
X115701667Y-131499000D01*
X115885395Y-131535546D01*
G37*
G36*
X126705395Y-131535546D02*
G01*
X126878466Y-131607234D01*
X126955818Y-131658919D01*
X127034227Y-131711310D01*
X127166690Y-131843773D01*
X127219081Y-131922182D01*
X127270766Y-131999534D01*
X127342454Y-132172605D01*
X127379000Y-132356333D01*
X127379000Y-132543667D01*
X127342454Y-132727395D01*
X127270766Y-132900466D01*
X127250720Y-132930467D01*
X127166690Y-133056227D01*
X127034227Y-133188690D01*
X126989327Y-133218691D01*
X126878466Y-133292766D01*
X126705395Y-133364454D01*
X126521667Y-133401000D01*
X126334333Y-133401000D01*
X126150605Y-133364454D01*
X125977534Y-133292766D01*
X125866673Y-133218691D01*
X125821773Y-133188690D01*
X125689310Y-133056227D01*
X125605280Y-132930467D01*
X125585234Y-132900466D01*
X125513546Y-132727395D01*
X125477000Y-132543667D01*
X125477000Y-132356333D01*
X125513546Y-132172605D01*
X125585234Y-131999534D01*
X125636919Y-131922182D01*
X125689310Y-131843773D01*
X125821773Y-131711310D01*
X125900182Y-131658919D01*
X125977534Y-131607234D01*
X126150605Y-131535546D01*
X126334333Y-131499000D01*
X126521667Y-131499000D01*
X126705395Y-131535546D01*
G37*
G36*
X118405395Y-131535546D02*
G01*
X118578466Y-131607234D01*
X118655818Y-131658919D01*
X118734227Y-131711310D01*
X118866690Y-131843773D01*
X118919081Y-131922182D01*
X118970766Y-131999534D01*
X119042454Y-132172605D01*
X119079000Y-132356333D01*
X119079000Y-132543667D01*
X119042454Y-132727395D01*
X118970766Y-132900466D01*
X118950720Y-132930467D01*
X118866690Y-133056227D01*
X118734227Y-133188690D01*
X118689327Y-133218691D01*
X118578466Y-133292766D01*
X118405395Y-133364454D01*
X118221667Y-133401000D01*
X118034333Y-133401000D01*
X117850605Y-133364454D01*
X117677534Y-133292766D01*
X117566673Y-133218691D01*
X117521773Y-133188690D01*
X117389310Y-133056227D01*
X117305280Y-132930467D01*
X117285234Y-132900466D01*
X117213546Y-132727395D01*
X117177000Y-132543667D01*
X117177000Y-132356333D01*
X117213546Y-132172605D01*
X117285234Y-131999534D01*
X117336919Y-131922182D01*
X117389310Y-131843773D01*
X117521773Y-131711310D01*
X117600182Y-131658919D01*
X117677534Y-131607234D01*
X117850605Y-131535546D01*
X118034333Y-131499000D01*
X118221667Y-131499000D01*
X118405395Y-131535546D01*
G37*
G36*
X150581000Y-131341000D02*
G01*
X148779000Y-131341000D01*
X148779000Y-129539000D01*
X150581000Y-129539000D01*
X150581000Y-131341000D01*
G37*
G36*
X154717228Y-129305703D02*
G01*
X154872100Y-129369853D01*
X155011481Y-129462985D01*
X155130015Y-129581519D01*
X155223147Y-129720900D01*
X155287297Y-129875772D01*
X155320000Y-130040184D01*
X155320000Y-130207816D01*
X155287297Y-130372228D01*
X155223147Y-130527100D01*
X155130015Y-130666481D01*
X155011481Y-130785015D01*
X154872100Y-130878147D01*
X154717228Y-130942297D01*
X154552816Y-130975000D01*
X154385184Y-130975000D01*
X154220772Y-130942297D01*
X154065900Y-130878147D01*
X153926519Y-130785015D01*
X153807985Y-130666481D01*
X153714853Y-130527100D01*
X153650703Y-130372228D01*
X153618000Y-130207816D01*
X153618000Y-130040184D01*
X153650703Y-129875772D01*
X153714853Y-129720900D01*
X153807985Y-129581519D01*
X153926519Y-129462985D01*
X154065900Y-129369853D01*
X154220772Y-129305703D01*
X154385184Y-129273000D01*
X154552816Y-129273000D01*
X154717228Y-129305703D01*
G37*
G36*
X131355228Y-128780703D02*
G01*
X131510100Y-128844853D01*
X131649481Y-128937985D01*
X131768015Y-129056519D01*
X131861147Y-129195900D01*
X131925297Y-129350772D01*
X131958000Y-129515184D01*
X131958000Y-129682816D01*
X131925297Y-129847228D01*
X131861147Y-130002100D01*
X131768015Y-130141481D01*
X131649481Y-130260015D01*
X131510100Y-130353147D01*
X131355228Y-130417297D01*
X131190816Y-130450000D01*
X131023184Y-130450000D01*
X130858772Y-130417297D01*
X130703900Y-130353147D01*
X130564519Y-130260015D01*
X130445985Y-130141481D01*
X130352853Y-130002100D01*
X130288703Y-129847228D01*
X130256000Y-129682816D01*
X130256000Y-129515184D01*
X130288703Y-129350772D01*
X130352853Y-129195900D01*
X130445985Y-129056519D01*
X130564519Y-128937985D01*
X130703900Y-128844853D01*
X130858772Y-128780703D01*
X131023184Y-128748000D01*
X131190816Y-128748000D01*
X131355228Y-128780703D01*
G37*
G36*
X112055228Y-128487703D02*
G01*
X112210100Y-128551853D01*
X112349481Y-128644985D01*
X112468015Y-128763519D01*
X112561147Y-128902900D01*
X112625297Y-129057772D01*
X112658000Y-129222184D01*
X112658000Y-129389816D01*
X112625297Y-129554228D01*
X112561147Y-129709100D01*
X112468015Y-129848481D01*
X112349481Y-129967015D01*
X112210100Y-130060147D01*
X112055228Y-130124297D01*
X111890816Y-130157000D01*
X111723184Y-130157000D01*
X111558772Y-130124297D01*
X111403900Y-130060147D01*
X111264519Y-129967015D01*
X111145985Y-129848481D01*
X111052853Y-129709100D01*
X110988703Y-129554228D01*
X110956000Y-129389816D01*
X110956000Y-129222184D01*
X110988703Y-129057772D01*
X111052853Y-128902900D01*
X111145985Y-128763519D01*
X111264519Y-128644985D01*
X111403900Y-128551853D01*
X111558772Y-128487703D01*
X111723184Y-128455000D01*
X111890816Y-128455000D01*
X112055228Y-128487703D01*
G37*
G36*
X92666778Y-127940547D02*
G01*
X92833224Y-128009491D01*
X92983022Y-128109583D01*
X93110417Y-128236978D01*
X93210509Y-128386776D01*
X93279453Y-128553222D01*
X93314600Y-128729918D01*
X93314600Y-128910082D01*
X93279453Y-129086778D01*
X93210509Y-129253224D01*
X93110417Y-129403022D01*
X92983022Y-129530417D01*
X92833224Y-129630509D01*
X92666778Y-129699453D01*
X92490082Y-129734600D01*
X92309918Y-129734600D01*
X92133222Y-129699453D01*
X91966776Y-129630509D01*
X91816978Y-129530417D01*
X91689583Y-129403022D01*
X91589491Y-129253224D01*
X91520547Y-129086778D01*
X91485400Y-128910082D01*
X91485400Y-128729918D01*
X91520547Y-128553222D01*
X91589491Y-128386776D01*
X91689583Y-128236978D01*
X91816978Y-128109583D01*
X91966776Y-128009491D01*
X92133222Y-127940547D01*
X92309918Y-127905400D01*
X92490082Y-127905400D01*
X92666778Y-127940547D01*
G37*
G36*
X90126778Y-127940547D02*
G01*
X90293224Y-128009491D01*
X90443022Y-128109583D01*
X90570417Y-128236978D01*
X90670509Y-128386776D01*
X90739453Y-128553222D01*
X90774600Y-128729918D01*
X90774600Y-128910082D01*
X90739453Y-129086778D01*
X90670509Y-129253224D01*
X90570417Y-129403022D01*
X90443022Y-129530417D01*
X90293224Y-129630509D01*
X90126778Y-129699453D01*
X89950082Y-129734600D01*
X89769918Y-129734600D01*
X89593222Y-129699453D01*
X89426776Y-129630509D01*
X89276978Y-129530417D01*
X89149583Y-129403022D01*
X89049491Y-129253224D01*
X88980547Y-129086778D01*
X88945400Y-128910082D01*
X88945400Y-128729918D01*
X88980547Y-128553222D01*
X89049491Y-128386776D01*
X89149583Y-128236978D01*
X89276978Y-128109583D01*
X89426776Y-128009491D01*
X89593222Y-127940547D01*
X89769918Y-127905400D01*
X89950082Y-127905400D01*
X90126778Y-127940547D01*
G37*
G36*
X149793512Y-127003927D02*
G01*
X149942812Y-127033624D01*
X150106784Y-127101544D01*
X150254354Y-127200147D01*
X150379853Y-127325646D01*
X150478456Y-127473216D01*
X150546376Y-127637188D01*
X150576073Y-127786488D01*
X150581000Y-127811258D01*
X150581000Y-127988742D01*
X150576073Y-128013512D01*
X150546376Y-128162812D01*
X150478456Y-128326784D01*
X150379853Y-128474354D01*
X150254354Y-128599853D01*
X150106784Y-128698456D01*
X149942812Y-128766376D01*
X149793512Y-128796073D01*
X149768742Y-128801000D01*
X149591258Y-128801000D01*
X149566488Y-128796073D01*
X149417188Y-128766376D01*
X149253216Y-128698456D01*
X149105646Y-128599853D01*
X148980147Y-128474354D01*
X148881544Y-128326784D01*
X148813624Y-128162812D01*
X148783927Y-128013512D01*
X148779000Y-127988742D01*
X148779000Y-127811258D01*
X148783927Y-127786488D01*
X148813624Y-127637188D01*
X148881544Y-127473216D01*
X148980147Y-127325646D01*
X149105646Y-127200147D01*
X149253216Y-127101544D01*
X149417188Y-127033624D01*
X149566488Y-127003927D01*
X149591258Y-126999000D01*
X149768742Y-126999000D01*
X149793512Y-127003927D01*
G37*
G36*
X92666778Y-125400547D02*
G01*
X92833224Y-125469491D01*
X92983022Y-125569583D01*
X93110417Y-125696978D01*
X93210509Y-125846776D01*
X93279453Y-126013222D01*
X93314600Y-126189918D01*
X93314600Y-126370082D01*
X93279453Y-126546778D01*
X93210509Y-126713224D01*
X93110417Y-126863022D01*
X92983022Y-126990417D01*
X92833224Y-127090509D01*
X92666778Y-127159453D01*
X92490082Y-127194600D01*
X92309918Y-127194600D01*
X92133222Y-127159453D01*
X91966776Y-127090509D01*
X91816978Y-126990417D01*
X91689583Y-126863022D01*
X91589491Y-126713224D01*
X91520547Y-126546778D01*
X91485400Y-126370082D01*
X91485400Y-126189918D01*
X91520547Y-126013222D01*
X91589491Y-125846776D01*
X91689583Y-125696978D01*
X91816978Y-125569583D01*
X91966776Y-125469491D01*
X92133222Y-125400547D01*
X92309918Y-125365400D01*
X92490082Y-125365400D01*
X92666778Y-125400547D01*
G37*
G36*
X90126778Y-125400547D02*
G01*
X90293224Y-125469491D01*
X90443022Y-125569583D01*
X90570417Y-125696978D01*
X90670509Y-125846776D01*
X90739453Y-126013222D01*
X90774600Y-126189918D01*
X90774600Y-126370082D01*
X90739453Y-126546778D01*
X90670509Y-126713224D01*
X90570417Y-126863022D01*
X90443022Y-126990417D01*
X90293224Y-127090509D01*
X90126778Y-127159453D01*
X89950082Y-127194600D01*
X89769918Y-127194600D01*
X89593222Y-127159453D01*
X89426776Y-127090509D01*
X89276978Y-126990417D01*
X89149583Y-126863022D01*
X89049491Y-126713224D01*
X88980547Y-126546778D01*
X88945400Y-126370082D01*
X88945400Y-126189918D01*
X88980547Y-126013222D01*
X89049491Y-125846776D01*
X89149583Y-125696978D01*
X89276978Y-125569583D01*
X89426776Y-125469491D01*
X89593222Y-125400547D01*
X89769918Y-125365400D01*
X89950082Y-125365400D01*
X90126778Y-125400547D01*
G37*
G36*
X131355228Y-125120703D02*
G01*
X131510100Y-125184853D01*
X131649481Y-125277985D01*
X131768015Y-125396519D01*
X131861147Y-125535900D01*
X131925297Y-125690772D01*
X131958000Y-125855184D01*
X131958000Y-126022816D01*
X131925297Y-126187228D01*
X131861147Y-126342100D01*
X131768015Y-126481481D01*
X131649481Y-126600015D01*
X131510100Y-126693147D01*
X131355228Y-126757297D01*
X131190816Y-126790000D01*
X131023184Y-126790000D01*
X130858772Y-126757297D01*
X130703900Y-126693147D01*
X130564519Y-126600015D01*
X130445985Y-126481481D01*
X130352853Y-126342100D01*
X130288703Y-126187228D01*
X130256000Y-126022816D01*
X130256000Y-125855184D01*
X130288703Y-125690772D01*
X130352853Y-125535900D01*
X130445985Y-125396519D01*
X130564519Y-125277985D01*
X130703900Y-125184853D01*
X130858772Y-125120703D01*
X131023184Y-125088000D01*
X131190816Y-125088000D01*
X131355228Y-125120703D01*
G37*
G36*
X112055228Y-125047703D02*
G01*
X112210100Y-125111853D01*
X112349481Y-125204985D01*
X112468015Y-125323519D01*
X112561147Y-125462900D01*
X112625297Y-125617772D01*
X112658000Y-125782184D01*
X112658000Y-125949816D01*
X112625297Y-126114228D01*
X112561147Y-126269100D01*
X112468015Y-126408481D01*
X112349481Y-126527015D01*
X112210100Y-126620147D01*
X112055228Y-126684297D01*
X111890816Y-126717000D01*
X111723184Y-126717000D01*
X111558772Y-126684297D01*
X111403900Y-126620147D01*
X111264519Y-126527015D01*
X111145985Y-126408481D01*
X111052853Y-126269100D01*
X110988703Y-126114228D01*
X110956000Y-125949816D01*
X110956000Y-125782184D01*
X110988703Y-125617772D01*
X111052853Y-125462900D01*
X111145985Y-125323519D01*
X111264519Y-125204985D01*
X111403900Y-125111853D01*
X111558772Y-125047703D01*
X111723184Y-125015000D01*
X111890816Y-125015000D01*
X112055228Y-125047703D01*
G37*
G36*
X154717228Y-124907703D02*
G01*
X154872100Y-124971853D01*
X155011481Y-125064985D01*
X155130015Y-125183519D01*
X155223147Y-125322900D01*
X155287297Y-125477772D01*
X155320000Y-125642184D01*
X155320000Y-125809816D01*
X155287297Y-125974228D01*
X155223147Y-126129100D01*
X155130015Y-126268481D01*
X155011481Y-126387015D01*
X154872100Y-126480147D01*
X154717228Y-126544297D01*
X154552816Y-126577000D01*
X154385184Y-126577000D01*
X154220772Y-126544297D01*
X154065900Y-126480147D01*
X153926519Y-126387015D01*
X153807985Y-126268481D01*
X153714853Y-126129100D01*
X153650703Y-125974228D01*
X153618000Y-125809816D01*
X153618000Y-125642184D01*
X153650703Y-125477772D01*
X153714853Y-125322900D01*
X153807985Y-125183519D01*
X153926519Y-125064985D01*
X154065900Y-124971853D01*
X154220772Y-124907703D01*
X154385184Y-124875000D01*
X154552816Y-124875000D01*
X154717228Y-124907703D01*
G37*
G36*
X149793512Y-124463927D02*
G01*
X149942812Y-124493624D01*
X150106784Y-124561544D01*
X150254354Y-124660147D01*
X150379853Y-124785646D01*
X150478456Y-124933216D01*
X150546376Y-125097188D01*
X150574908Y-125240631D01*
X150581000Y-125271258D01*
X150581000Y-125448742D01*
X150576073Y-125473512D01*
X150546376Y-125622812D01*
X150478456Y-125786784D01*
X150379853Y-125934354D01*
X150254354Y-126059853D01*
X150106784Y-126158456D01*
X149942812Y-126226376D01*
X149793512Y-126256073D01*
X149768742Y-126261000D01*
X149591258Y-126261000D01*
X149566488Y-126256073D01*
X149417188Y-126226376D01*
X149253216Y-126158456D01*
X149105646Y-126059853D01*
X148980147Y-125934354D01*
X148881544Y-125786784D01*
X148813624Y-125622812D01*
X148783927Y-125473512D01*
X148779000Y-125448742D01*
X148779000Y-125271258D01*
X148785092Y-125240631D01*
X148813624Y-125097188D01*
X148881544Y-124933216D01*
X148980147Y-124785646D01*
X149105646Y-124660147D01*
X149253216Y-124561544D01*
X149417188Y-124493624D01*
X149566488Y-124463927D01*
X149591258Y-124459000D01*
X149768742Y-124459000D01*
X149793512Y-124463927D01*
G37*
G36*
X145295626Y-121107685D02*
G01*
X145386237Y-121135172D01*
X145469736Y-121179803D01*
X145542929Y-121239871D01*
X145602997Y-121313064D01*
X145647628Y-121396563D01*
X145675115Y-121487174D01*
X145685000Y-121587540D01*
X145685000Y-122962540D01*
X145687402Y-122986926D01*
X145694515Y-123010375D01*
X145706066Y-123031986D01*
X145721611Y-123050928D01*
X145740553Y-123066473D01*
X145762164Y-123078024D01*
X145785613Y-123085137D01*
X145809999Y-123087539D01*
X145834385Y-123085137D01*
X145857834Y-123078024D01*
X145879445Y-123066473D01*
X145898387Y-123050928D01*
X145913932Y-123031986D01*
X145925483Y-123010375D01*
X145932596Y-122986926D01*
X145949766Y-122900605D01*
X145955572Y-122871417D01*
X146037905Y-122672649D01*
X146105308Y-122571773D01*
X146157432Y-122493764D01*
X146309564Y-122341632D01*
X146430918Y-122260546D01*
X146488449Y-122222105D01*
X146687217Y-122139772D01*
X146757554Y-122125781D01*
X146898226Y-122097800D01*
X147113374Y-122097800D01*
X147254046Y-122125781D01*
X147324383Y-122139772D01*
X147523151Y-122222105D01*
X147580682Y-122260546D01*
X147702036Y-122341632D01*
X147854168Y-122493764D01*
X147906292Y-122571773D01*
X147973695Y-122672649D01*
X148056028Y-122871417D01*
X148061834Y-122900605D01*
X148098000Y-123082426D01*
X148098000Y-123297574D01*
X148087967Y-123348014D01*
X148056028Y-123508583D01*
X147973695Y-123707351D01*
X147854167Y-123886237D01*
X147702037Y-124038367D01*
X147523151Y-124157895D01*
X147523150Y-124157896D01*
X147523149Y-124157896D01*
X147464933Y-124182010D01*
X147324383Y-124240228D01*
X147254046Y-124254219D01*
X147113374Y-124282200D01*
X146898226Y-124282200D01*
X146757554Y-124254219D01*
X146687217Y-124240228D01*
X146546667Y-124182010D01*
X146488451Y-124157896D01*
X146488450Y-124157896D01*
X146488449Y-124157895D01*
X146309563Y-124038367D01*
X146157433Y-123886237D01*
X146037905Y-123707351D01*
X145955572Y-123508583D01*
X145932596Y-123393074D01*
X145925483Y-123369625D01*
X145913932Y-123348014D01*
X145898387Y-123329072D01*
X145879445Y-123313527D01*
X145857834Y-123301976D01*
X145834385Y-123294863D01*
X145809999Y-123292461D01*
X145785613Y-123294863D01*
X145762164Y-123301976D01*
X145740553Y-123313527D01*
X145721611Y-123329072D01*
X145706066Y-123348014D01*
X145694515Y-123369625D01*
X145687402Y-123393074D01*
X145685000Y-123417460D01*
X145685000Y-124792460D01*
X145675115Y-124892826D01*
X145647628Y-124983437D01*
X145602997Y-125066936D01*
X145542929Y-125140129D01*
X145469736Y-125200197D01*
X145386237Y-125244828D01*
X145295626Y-125272315D01*
X145195260Y-125282200D01*
X143990340Y-125282200D01*
X143889974Y-125272315D01*
X143799363Y-125244828D01*
X143715864Y-125200197D01*
X143642671Y-125140129D01*
X143582603Y-125066936D01*
X143537972Y-124983437D01*
X143510485Y-124892826D01*
X143500600Y-124792460D01*
X143500600Y-121587540D01*
X143510485Y-121487174D01*
X143537972Y-121396563D01*
X143582603Y-121313064D01*
X143642671Y-121239871D01*
X143715864Y-121179803D01*
X143799363Y-121135172D01*
X143889974Y-121107685D01*
X143990340Y-121097800D01*
X145195260Y-121097800D01*
X145295626Y-121107685D01*
G37*
G36*
X136735826Y-121107685D02*
G01*
X136826437Y-121135172D01*
X136909936Y-121179803D01*
X136983129Y-121239871D01*
X137043197Y-121313064D01*
X137087828Y-121396563D01*
X137115315Y-121487174D01*
X137125200Y-121587540D01*
X137125200Y-124792460D01*
X137115315Y-124892826D01*
X137087828Y-124983437D01*
X137043197Y-125066936D01*
X136983129Y-125140129D01*
X136909936Y-125200197D01*
X136826437Y-125244828D01*
X136735826Y-125272315D01*
X136635460Y-125282200D01*
X135430540Y-125282200D01*
X135330174Y-125272315D01*
X135239563Y-125244828D01*
X135156064Y-125200197D01*
X135082871Y-125140129D01*
X135022803Y-125066936D01*
X134978172Y-124983437D01*
X134950685Y-124892826D01*
X134940800Y-124792460D01*
X134940800Y-121587540D01*
X134950685Y-121487174D01*
X134978172Y-121396563D01*
X135022803Y-121313064D01*
X135082871Y-121239871D01*
X135156064Y-121179803D01*
X135239563Y-121135172D01*
X135330174Y-121107685D01*
X135430540Y-121097800D01*
X136635460Y-121097800D01*
X136735826Y-121107685D01*
G37*
G36*
X90126778Y-122860547D02*
G01*
X90293224Y-122929491D01*
X90443022Y-123029583D01*
X90570417Y-123156978D01*
X90670509Y-123306776D01*
X90739453Y-123473222D01*
X90774600Y-123649918D01*
X90774600Y-123830082D01*
X90739453Y-124006778D01*
X90670509Y-124173224D01*
X90570417Y-124323022D01*
X90443022Y-124450417D01*
X90293224Y-124550509D01*
X90126778Y-124619453D01*
X89950082Y-124654600D01*
X89769918Y-124654600D01*
X89593222Y-124619453D01*
X89426776Y-124550509D01*
X89276978Y-124450417D01*
X89149583Y-124323022D01*
X89049491Y-124173224D01*
X88980547Y-124006778D01*
X88945400Y-123830082D01*
X88945400Y-123649918D01*
X88980547Y-123473222D01*
X89049491Y-123306776D01*
X89149583Y-123156978D01*
X89276978Y-123029583D01*
X89426776Y-122929491D01*
X89593222Y-122860547D01*
X89769918Y-122825400D01*
X89950082Y-122825400D01*
X90126778Y-122860547D01*
G37*
G36*
X92666778Y-122860547D02*
G01*
X92833224Y-122929491D01*
X92983022Y-123029583D01*
X93110417Y-123156978D01*
X93210509Y-123306776D01*
X93279453Y-123473222D01*
X93314600Y-123649918D01*
X93314600Y-123830082D01*
X93279453Y-124006778D01*
X93210509Y-124173224D01*
X93110417Y-124323022D01*
X92983022Y-124450417D01*
X92833224Y-124550509D01*
X92666778Y-124619453D01*
X92490082Y-124654600D01*
X92309918Y-124654600D01*
X92133222Y-124619453D01*
X91966776Y-124550509D01*
X91816978Y-124450417D01*
X91689583Y-124323022D01*
X91589491Y-124173224D01*
X91520547Y-124006778D01*
X91485400Y-123830082D01*
X91485400Y-123649918D01*
X91520547Y-123473222D01*
X91589491Y-123306776D01*
X91689583Y-123156978D01*
X91816978Y-123029583D01*
X91966776Y-122929491D01*
X92133222Y-122860547D01*
X92309918Y-122825400D01*
X92490082Y-122825400D01*
X92666778Y-122860547D01*
G37*
G36*
X98718395Y-122263546D02*
G01*
X98891466Y-122335234D01*
X98968818Y-122386919D01*
X99047227Y-122439310D01*
X99179690Y-122571773D01*
X99179691Y-122571775D01*
X99283766Y-122727534D01*
X99355454Y-122900605D01*
X99392000Y-123084333D01*
X99392000Y-123271667D01*
X99355454Y-123455395D01*
X99283766Y-123628466D01*
X99283765Y-123628467D01*
X99179690Y-123784227D01*
X99047227Y-123916690D01*
X98968818Y-123969081D01*
X98891466Y-124020766D01*
X98718395Y-124092454D01*
X98534667Y-124129000D01*
X98347333Y-124129000D01*
X98163605Y-124092454D01*
X97990534Y-124020766D01*
X97913182Y-123969081D01*
X97834773Y-123916690D01*
X97702310Y-123784227D01*
X97598235Y-123628467D01*
X97598234Y-123628466D01*
X97526546Y-123455395D01*
X97490000Y-123271667D01*
X97490000Y-123084333D01*
X97526546Y-122900605D01*
X97598234Y-122727534D01*
X97702309Y-122571775D01*
X97702310Y-122571773D01*
X97834773Y-122439310D01*
X97913182Y-122386919D01*
X97990534Y-122335234D01*
X98163605Y-122263546D01*
X98347333Y-122227000D01*
X98534667Y-122227000D01*
X98718395Y-122263546D01*
G37*
G36*
X96198395Y-122263546D02*
G01*
X96371466Y-122335234D01*
X96448818Y-122386919D01*
X96527227Y-122439310D01*
X96659690Y-122571773D01*
X96659691Y-122571775D01*
X96763766Y-122727534D01*
X96835454Y-122900605D01*
X96872000Y-123084333D01*
X96872000Y-123271667D01*
X96835454Y-123455395D01*
X96763766Y-123628466D01*
X96763765Y-123628467D01*
X96659690Y-123784227D01*
X96527227Y-123916690D01*
X96448818Y-123969081D01*
X96371466Y-124020766D01*
X96198395Y-124092454D01*
X96014667Y-124129000D01*
X95827333Y-124129000D01*
X95643605Y-124092454D01*
X95470534Y-124020766D01*
X95393182Y-123969081D01*
X95314773Y-123916690D01*
X95182310Y-123784227D01*
X95078235Y-123628467D01*
X95078234Y-123628466D01*
X95006546Y-123455395D01*
X94970000Y-123271667D01*
X94970000Y-123084333D01*
X95006546Y-122900605D01*
X95078234Y-122727534D01*
X95182309Y-122571775D01*
X95182310Y-122571773D01*
X95314773Y-122439310D01*
X95393182Y-122386919D01*
X95470534Y-122335234D01*
X95643605Y-122263546D01*
X95827333Y-122227000D01*
X96014667Y-122227000D01*
X96198395Y-122263546D01*
G37*
G36*
X107018395Y-122263546D02*
G01*
X107191466Y-122335234D01*
X107268818Y-122386919D01*
X107347227Y-122439310D01*
X107479690Y-122571773D01*
X107479691Y-122571775D01*
X107583766Y-122727534D01*
X107655454Y-122900605D01*
X107692000Y-123084333D01*
X107692000Y-123271667D01*
X107655454Y-123455395D01*
X107583766Y-123628466D01*
X107583765Y-123628467D01*
X107479690Y-123784227D01*
X107347227Y-123916690D01*
X107268818Y-123969081D01*
X107191466Y-124020766D01*
X107018395Y-124092454D01*
X106834667Y-124129000D01*
X106647333Y-124129000D01*
X106463605Y-124092454D01*
X106290534Y-124020766D01*
X106213182Y-123969081D01*
X106134773Y-123916690D01*
X106002310Y-123784227D01*
X105898235Y-123628467D01*
X105898234Y-123628466D01*
X105826546Y-123455395D01*
X105790000Y-123271667D01*
X105790000Y-123084333D01*
X105826546Y-122900605D01*
X105898234Y-122727534D01*
X106002309Y-122571775D01*
X106002310Y-122571773D01*
X106134773Y-122439310D01*
X106213182Y-122386919D01*
X106290534Y-122335234D01*
X106463605Y-122263546D01*
X106647333Y-122227000D01*
X106834667Y-122227000D01*
X107018395Y-122263546D01*
G37*
G36*
X115885395Y-122260546D02*
G01*
X116058466Y-122332234D01*
X116135818Y-122383919D01*
X116214227Y-122436310D01*
X116346690Y-122568773D01*
X116348696Y-122571775D01*
X116450766Y-122724534D01*
X116522454Y-122897605D01*
X116559000Y-123081333D01*
X116559000Y-123268667D01*
X116522454Y-123452395D01*
X116450766Y-123625466D01*
X116434426Y-123649920D01*
X116346690Y-123781227D01*
X116214227Y-123913690D01*
X116135818Y-123966081D01*
X116058466Y-124017766D01*
X115885395Y-124089454D01*
X115701667Y-124126000D01*
X115514333Y-124126000D01*
X115330605Y-124089454D01*
X115157534Y-124017766D01*
X115080182Y-123966081D01*
X115001773Y-123913690D01*
X114869310Y-123781227D01*
X114781574Y-123649920D01*
X114765234Y-123625466D01*
X114693546Y-123452395D01*
X114657000Y-123268667D01*
X114657000Y-123081333D01*
X114693546Y-122897605D01*
X114765234Y-122724534D01*
X114867304Y-122571775D01*
X114869310Y-122568773D01*
X115001773Y-122436310D01*
X115080182Y-122383919D01*
X115157534Y-122332234D01*
X115330605Y-122260546D01*
X115514333Y-122224000D01*
X115701667Y-122224000D01*
X115885395Y-122260546D01*
G37*
G36*
X126705395Y-122260546D02*
G01*
X126878466Y-122332234D01*
X126955818Y-122383919D01*
X127034227Y-122436310D01*
X127166690Y-122568773D01*
X127168696Y-122571775D01*
X127270766Y-122724534D01*
X127342454Y-122897605D01*
X127379000Y-123081333D01*
X127379000Y-123268667D01*
X127342454Y-123452395D01*
X127270766Y-123625466D01*
X127254426Y-123649920D01*
X127166690Y-123781227D01*
X127034227Y-123913690D01*
X126955818Y-123966081D01*
X126878466Y-124017766D01*
X126705395Y-124089454D01*
X126521667Y-124126000D01*
X126334333Y-124126000D01*
X126150605Y-124089454D01*
X125977534Y-124017766D01*
X125900182Y-123966081D01*
X125821773Y-123913690D01*
X125689310Y-123781227D01*
X125601574Y-123649920D01*
X125585234Y-123625466D01*
X125513546Y-123452395D01*
X125477000Y-123268667D01*
X125477000Y-123081333D01*
X125513546Y-122897605D01*
X125585234Y-122724534D01*
X125687304Y-122571775D01*
X125689310Y-122568773D01*
X125821773Y-122436310D01*
X125900182Y-122383919D01*
X125977534Y-122332234D01*
X126150605Y-122260546D01*
X126334333Y-122224000D01*
X126521667Y-122224000D01*
X126705395Y-122260546D01*
G37*
G36*
X118405395Y-122260546D02*
G01*
X118578466Y-122332234D01*
X118655818Y-122383919D01*
X118734227Y-122436310D01*
X118866690Y-122568773D01*
X118868696Y-122571775D01*
X118970766Y-122724534D01*
X119042454Y-122897605D01*
X119079000Y-123081333D01*
X119079000Y-123268667D01*
X119042454Y-123452395D01*
X118970766Y-123625466D01*
X118954426Y-123649920D01*
X118866690Y-123781227D01*
X118734227Y-123913690D01*
X118655818Y-123966081D01*
X118578466Y-124017766D01*
X118405395Y-124089454D01*
X118221667Y-124126000D01*
X118034333Y-124126000D01*
X117850605Y-124089454D01*
X117677534Y-124017766D01*
X117600182Y-123966081D01*
X117521773Y-123913690D01*
X117389310Y-123781227D01*
X117301574Y-123649920D01*
X117285234Y-123625466D01*
X117213546Y-123452395D01*
X117177000Y-123268667D01*
X117177000Y-123081333D01*
X117213546Y-122897605D01*
X117285234Y-122724534D01*
X117387304Y-122571775D01*
X117389310Y-122568773D01*
X117521773Y-122436310D01*
X117600182Y-122383919D01*
X117677534Y-122332234D01*
X117850605Y-122260546D01*
X118034333Y-122224000D01*
X118221667Y-122224000D01*
X118405395Y-122260546D01*
G37*
G36*
X90126778Y-120320547D02*
G01*
X90293224Y-120389491D01*
X90443022Y-120489583D01*
X90570417Y-120616978D01*
X90670509Y-120766776D01*
X90739453Y-120933222D01*
X90774600Y-121109918D01*
X90774600Y-121290082D01*
X90739453Y-121466778D01*
X90670509Y-121633224D01*
X90570417Y-121783022D01*
X90443022Y-121910417D01*
X90293224Y-122010509D01*
X90126778Y-122079453D01*
X89950082Y-122114600D01*
X89769918Y-122114600D01*
X89593222Y-122079453D01*
X89426776Y-122010509D01*
X89276978Y-121910417D01*
X89149583Y-121783022D01*
X89049491Y-121633224D01*
X88980547Y-121466778D01*
X88945400Y-121290082D01*
X88945400Y-121109918D01*
X88980547Y-120933222D01*
X89049491Y-120766776D01*
X89149583Y-120616978D01*
X89276978Y-120489583D01*
X89426776Y-120389491D01*
X89593222Y-120320547D01*
X89769918Y-120285400D01*
X89950082Y-120285400D01*
X90126778Y-120320547D01*
G37*
G36*
X93314600Y-122114600D02*
G01*
X91485400Y-122114600D01*
X91485400Y-120285400D01*
X93314600Y-120285400D01*
X93314600Y-122114600D01*
G37*
G36*
X131355228Y-120120703D02*
G01*
X131510100Y-120184853D01*
X131649481Y-120277985D01*
X131768015Y-120396519D01*
X131861147Y-120535900D01*
X131925297Y-120690772D01*
X131958000Y-120855184D01*
X131958000Y-121022816D01*
X131925297Y-121187228D01*
X131861147Y-121342100D01*
X131768015Y-121481481D01*
X131649481Y-121600015D01*
X131510100Y-121693147D01*
X131355228Y-121757297D01*
X131190816Y-121790000D01*
X131023184Y-121790000D01*
X130858772Y-121757297D01*
X130703900Y-121693147D01*
X130564519Y-121600015D01*
X130445985Y-121481481D01*
X130352853Y-121342100D01*
X130288703Y-121187228D01*
X130256000Y-121022816D01*
X130256000Y-120855184D01*
X130288703Y-120690772D01*
X130352853Y-120535900D01*
X130445985Y-120396519D01*
X130564519Y-120277985D01*
X130703900Y-120184853D01*
X130858772Y-120120703D01*
X131023184Y-120088000D01*
X131190816Y-120088000D01*
X131355228Y-120120703D01*
G37*
G36*
X112055228Y-120047703D02*
G01*
X112210100Y-120111853D01*
X112349481Y-120204985D01*
X112468015Y-120323519D01*
X112561147Y-120462900D01*
X112625297Y-120617772D01*
X112658000Y-120782184D01*
X112658000Y-120949816D01*
X112625297Y-121114228D01*
X112561147Y-121269100D01*
X112468015Y-121408481D01*
X112349481Y-121527015D01*
X112210100Y-121620147D01*
X112055228Y-121684297D01*
X111890816Y-121717000D01*
X111723184Y-121717000D01*
X111558772Y-121684297D01*
X111403900Y-121620147D01*
X111264519Y-121527015D01*
X111145985Y-121408481D01*
X111052853Y-121269100D01*
X110988703Y-121114228D01*
X110956000Y-120949816D01*
X110956000Y-120782184D01*
X110988703Y-120617772D01*
X111052853Y-120462900D01*
X111145985Y-120323519D01*
X111264519Y-120204985D01*
X111403900Y-120111853D01*
X111558772Y-120047703D01*
X111723184Y-120015000D01*
X111890816Y-120015000D01*
X112055228Y-120047703D01*
G37*
G36*
X154717228Y-119907703D02*
G01*
X154872100Y-119971853D01*
X155011481Y-120064985D01*
X155130015Y-120183519D01*
X155223147Y-120322900D01*
X155287297Y-120477772D01*
X155320000Y-120642184D01*
X155320000Y-120809816D01*
X155287297Y-120974228D01*
X155223147Y-121129100D01*
X155130015Y-121268481D01*
X155011481Y-121387015D01*
X154872100Y-121480147D01*
X154717228Y-121544297D01*
X154552816Y-121577000D01*
X154385184Y-121577000D01*
X154220772Y-121544297D01*
X154065900Y-121480147D01*
X153926519Y-121387015D01*
X153807985Y-121268481D01*
X153714853Y-121129100D01*
X153650703Y-120974228D01*
X153618000Y-120809816D01*
X153618000Y-120642184D01*
X153650703Y-120477772D01*
X153714853Y-120322900D01*
X153807985Y-120183519D01*
X153926519Y-120064985D01*
X154065900Y-119971853D01*
X154220772Y-119907703D01*
X154385184Y-119875000D01*
X154552816Y-119875000D01*
X154717228Y-119907703D01*
G37*
M02*
