M48
; DRILL file {KiCad 5.1.4+dfsg1-1} date Fri Apr 10 18:02:12 2020
; FORMAT={-:-/ absolute / inch / decimal}
; #@! TF.CreationDate,2020-04-10T18:02:12-04:00
; #@! TF.GenerationSoftware,Kicad,Pcbnew,5.1.4+dfsg1-1
; #@! TF.FileFunction,Plated,1,2,PTH
FMAT,2
INCH
T1C0.0118
T2C0.0197
T3C0.0350
T4C0.0394
T5C0.0400
T6C0.0433
T7C0.0450
%
G90
G05
T1
X4.3386Y-3.0413
X4.5069Y-3.4075
X4.5226Y-3.8189
X4.53Y-3.2584
X4.8406Y-3.6693
X5.0384Y-3.7392
X5.0581Y-3.6486
X5.1525Y-3.6762
X5.1565Y-3.1801
X5.1604Y-3.6004
X5.1949Y-3.3278
X5.2195Y-3.1811
X5.2411Y-3.2874
X5.2421Y-3.4843
X5.3572Y-3.6701
X5.3937Y-3.5925
X5.7136Y-3.6486
T3
X6.095Y-3.2992
T4
X3.4843Y-3.3976
X3.4843Y-3.4976
X3.4843Y-3.5976
X3.5419Y-3.8173
X3.5419Y-3.9157
X3.6404Y-3.8173
X3.6404Y-3.9157
X3.7388Y-3.8173
X3.7388Y-3.9157
X4.2161Y-3.8176
X4.2161Y-3.916
X4.3146Y-3.8176
X4.3146Y-3.916
X4.413Y-3.8176
X4.413Y-3.916
X4.8961Y-3.8156
X4.8961Y-3.914
X4.9946Y-3.8156
X4.9946Y-3.914
X5.093Y-3.8156
X5.093Y-3.914
X5.8451Y-3.8173
X5.8451Y-3.9157
X5.9435Y-3.8173
X5.9435Y-3.9157
X6.0419Y-3.8173
X6.0419Y-3.9157
T5
X5.4331Y-3.9291
X5.4331Y-4.0291
X5.4331Y-4.1291
X5.4331Y-4.2291
X5.5331Y-3.9291
X5.5331Y-4.0291
X5.5331Y-4.1291
X5.5331Y-4.2291
T2
G00X3.7402Y-3.2638
M15
G01X3.7402Y-3.3425
M16
G05
G00X4.0591Y-3.2638
M15
G01X4.0591Y-3.3425
M16
G05
G00X4.2953Y-3.2638
M15
G01X4.2953Y-3.3425
M16
G05
G00X4.6142Y-3.2638
M15
G01X4.6142Y-3.3425
M16
G05
T4
G00X3.8602Y-3.1181
M15
G01X3.8012Y-3.1181
M16
G05
G00X3.8425Y-3.4882
M15
G01X3.8189Y-3.4882
M16
G05
G00X4.4154Y-3.1181
M15
G01X4.3563Y-3.1181
M16
G05
G00X4.3976Y-3.4882
M15
G01X4.374Y-3.4882
M16
G05
T6
G00X3.4533Y-4.1972
M15
G01X3.4533Y-4.2247
M16
G05
G00X3.8274Y-4.1972
M15
G01X3.8274Y-4.2247
M16
G05
G00X4.1276Y-4.1975
M15
G01X4.1276Y-4.2251
M16
G05
G00X4.5016Y-4.1975
M15
G01X4.5016Y-4.2251
M16
G05
G00X4.8076Y-4.1955
M15
G01X4.8076Y-4.2231
M16
G05
G00X5.1816Y-4.1955
M15
G01X5.1816Y-4.2231
M16
G05
G00X5.7565Y-4.1972
M15
G01X5.7565Y-4.2247
M16
G05
G00X6.1305Y-4.1972
M15
G01X6.1305Y-4.2247
M16
G05
T7
G00X5.663Y-3.2795
M15
G01X5.663Y-3.3189
M16
G05
G00X6.0Y-3.2795
M15
G01X6.0Y-3.3189
M16
G05
T0
M30
