G04 #@! TF.GenerationSoftware,KiCad,Pcbnew,5.1.4+dfsg1-1*
G04 #@! TF.CreationDate,2020-04-10T18:02:15-04:00*
G04 #@! TF.ProjectId,LilMix,4c696c4d-6978-42e6-9b69-6361645f7063,rev?*
G04 #@! TF.SameCoordinates,Original*
G04 #@! TF.FileFunction,Copper,L1,Top*
G04 #@! TF.FilePolarity,Positive*
%FSLAX46Y46*%
G04 Gerber Fmt 4.6, Leading zero omitted, Abs format (unit mm)*
G04 Created by KiCad (PCBNEW 5.1.4+dfsg1-1) date 2020-04-10 18:02:15*
%MOMM*%
%LPD*%
G04 APERTURE LIST*
%ADD10O,2.100000X1.500000*%
%ADD11O,3.000000X1.500000*%
%ADD12O,1.000000X3.000000*%
%ADD13C,1.800000*%
%ADD14O,2.720000X3.240000*%
%ADD15R,1.800000X1.800000*%
%ADD16C,0.100000*%
%ADD17C,1.930400*%
%ADD18O,1.700000X1.700000*%
%ADD19R,1.700000X1.700000*%
%ADD20R,1.727200X1.727200*%
%ADD21O,1.727200X1.727200*%
%ADD22C,0.650000*%
%ADD23C,0.250000*%
%ADD24C,0.254000*%
G04 APERTURE END LIST*
D10*
X111400000Y-88600000D03*
D11*
X111400000Y-79200000D03*
D12*
X117200000Y-83900000D03*
X109100000Y-83900000D03*
D10*
X97300000Y-88600000D03*
D11*
X97300000Y-79200000D03*
D12*
X103100000Y-83900000D03*
X95000000Y-83900000D03*
D13*
X129362200Y-96915600D03*
X126862200Y-96915600D03*
X124362200Y-96915600D03*
D14*
X131612200Y-106915600D03*
X122112200Y-106915600D03*
D13*
X124362200Y-99415600D03*
X126862200Y-99415600D03*
D15*
X129362200Y-99415600D03*
D13*
X112090200Y-96966400D03*
X109590200Y-96966400D03*
X107090200Y-96966400D03*
D14*
X114340200Y-106966400D03*
X104840200Y-106966400D03*
D13*
X107090200Y-99466400D03*
X109590200Y-99466400D03*
D15*
X112090200Y-99466400D03*
D16*
G36*
X144370103Y-81837124D02*
G01*
X144416951Y-81844073D01*
X144462891Y-81855581D01*
X144507483Y-81871536D01*
X144550296Y-81891785D01*
X144590918Y-81916133D01*
X144628958Y-81944345D01*
X144664050Y-81976150D01*
X144695855Y-82011242D01*
X144724067Y-82049282D01*
X144748415Y-82089904D01*
X144768664Y-82132717D01*
X144784619Y-82177309D01*
X144796127Y-82223249D01*
X144803076Y-82270097D01*
X144805400Y-82317400D01*
X144805400Y-85282600D01*
X144803076Y-85329903D01*
X144796127Y-85376751D01*
X144784619Y-85422691D01*
X144768664Y-85467283D01*
X144748415Y-85510096D01*
X144724067Y-85550718D01*
X144695855Y-85588758D01*
X144664050Y-85623850D01*
X144628958Y-85655655D01*
X144590918Y-85683867D01*
X144550296Y-85708215D01*
X144507483Y-85728464D01*
X144462891Y-85744419D01*
X144416951Y-85755927D01*
X144370103Y-85762876D01*
X144322800Y-85765200D01*
X143357600Y-85765200D01*
X143310297Y-85762876D01*
X143263449Y-85755927D01*
X143217509Y-85744419D01*
X143172917Y-85728464D01*
X143130104Y-85708215D01*
X143089482Y-85683867D01*
X143051442Y-85655655D01*
X143016350Y-85623850D01*
X142984545Y-85588758D01*
X142956333Y-85550718D01*
X142931985Y-85510096D01*
X142911736Y-85467283D01*
X142895781Y-85422691D01*
X142884273Y-85376751D01*
X142877324Y-85329903D01*
X142875000Y-85282600D01*
X142875000Y-82317400D01*
X142877324Y-82270097D01*
X142884273Y-82223249D01*
X142895781Y-82177309D01*
X142911736Y-82132717D01*
X142931985Y-82089904D01*
X142956333Y-82049282D01*
X142984545Y-82011242D01*
X143016350Y-81976150D01*
X143051442Y-81944345D01*
X143089482Y-81916133D01*
X143130104Y-81891785D01*
X143172917Y-81871536D01*
X143217509Y-81855581D01*
X143263449Y-81844073D01*
X143310297Y-81837124D01*
X143357600Y-81834800D01*
X144322800Y-81834800D01*
X144370103Y-81837124D01*
X144370103Y-81837124D01*
G37*
D17*
X143840200Y-83800000D03*
X154813000Y-83800000D03*
D16*
G36*
X152929903Y-81837124D02*
G01*
X152976751Y-81844073D01*
X153022691Y-81855581D01*
X153067283Y-81871536D01*
X153110096Y-81891785D01*
X153150718Y-81916133D01*
X153188758Y-81944345D01*
X153223850Y-81976150D01*
X153255655Y-82011242D01*
X153283867Y-82049282D01*
X153308215Y-82089904D01*
X153328464Y-82132717D01*
X153344419Y-82177309D01*
X153355927Y-82223249D01*
X153362876Y-82270097D01*
X153365200Y-82317400D01*
X153365200Y-85282600D01*
X153362876Y-85329903D01*
X153355927Y-85376751D01*
X153344419Y-85422691D01*
X153328464Y-85467283D01*
X153308215Y-85510096D01*
X153283867Y-85550718D01*
X153255655Y-85588758D01*
X153223850Y-85623850D01*
X153188758Y-85655655D01*
X153150718Y-85683867D01*
X153110096Y-85708215D01*
X153067283Y-85728464D01*
X153022691Y-85744419D01*
X152976751Y-85755927D01*
X152929903Y-85762876D01*
X152882600Y-85765200D01*
X151917400Y-85765200D01*
X151870097Y-85762876D01*
X151823249Y-85755927D01*
X151777309Y-85744419D01*
X151732717Y-85728464D01*
X151689904Y-85708215D01*
X151649282Y-85683867D01*
X151611242Y-85655655D01*
X151576150Y-85623850D01*
X151544345Y-85588758D01*
X151516133Y-85550718D01*
X151491785Y-85510096D01*
X151471536Y-85467283D01*
X151455581Y-85422691D01*
X151444073Y-85376751D01*
X151437124Y-85329903D01*
X151434800Y-85282600D01*
X151434800Y-82317400D01*
X151437124Y-82270097D01*
X151444073Y-82223249D01*
X151455581Y-82177309D01*
X151471536Y-82132717D01*
X151491785Y-82089904D01*
X151516133Y-82049282D01*
X151544345Y-82011242D01*
X151576150Y-81976150D01*
X151611242Y-81944345D01*
X151649282Y-81916133D01*
X151689904Y-81891785D01*
X151732717Y-81871536D01*
X151777309Y-81855581D01*
X151823249Y-81844073D01*
X151870097Y-81837124D01*
X151917400Y-81834800D01*
X152882600Y-81834800D01*
X152929903Y-81837124D01*
X152929903Y-81837124D01*
G37*
D17*
X152400000Y-83800000D03*
D18*
X88500000Y-91380000D03*
X88500000Y-88840000D03*
D19*
X88500000Y-86300000D03*
D20*
X138000000Y-99800000D03*
D21*
X140540000Y-99800000D03*
X138000000Y-102340000D03*
X140540000Y-102340000D03*
X138000000Y-104880000D03*
X140540000Y-104880000D03*
X138000000Y-107420000D03*
X140540000Y-107420000D03*
D13*
X153465000Y-96958600D03*
X150965000Y-96958600D03*
X148465000Y-96958600D03*
D14*
X155715000Y-106958600D03*
X146215000Y-106958600D03*
D13*
X148465000Y-99458600D03*
X150965000Y-99458600D03*
D15*
X153465000Y-99458600D03*
D13*
X94965000Y-96958600D03*
X92465000Y-96958600D03*
X89965000Y-96958600D03*
D14*
X97215000Y-106958600D03*
X87715000Y-106958600D03*
D13*
X89965000Y-99458600D03*
X92465000Y-99458600D03*
D15*
X94965000Y-99458600D03*
D22*
X127975000Y-94975000D03*
X114875000Y-97000000D03*
X130874300Y-93375700D03*
X114475000Y-86550000D03*
X131075000Y-91450000D03*
X136071800Y-93221800D03*
X130975000Y-80775000D03*
X110200000Y-77250000D03*
X132575000Y-80800000D03*
X115062500Y-82762500D03*
X137000000Y-91250000D03*
X133125000Y-83500000D03*
X145125000Y-92675000D03*
X122950000Y-93200000D03*
X128475000Y-92675000D03*
X133150000Y-88500000D03*
X131950000Y-84525000D03*
D23*
X127975000Y-94975000D02*
X136100000Y-94975000D01*
X136100000Y-94975000D02*
X137975000Y-96850000D01*
X137975000Y-96850000D02*
X143250000Y-96850000D01*
X145858600Y-99458600D02*
X148465000Y-99458600D01*
X143250000Y-96850000D02*
X145858600Y-99458600D01*
X126975000Y-94646019D02*
X123528981Y-94646019D01*
X123528981Y-94646019D02*
X121175000Y-97000000D01*
X121175000Y-97000000D02*
X114875000Y-97000000D01*
X114875000Y-97000000D02*
X114875000Y-97000000D01*
X130874300Y-93835319D02*
X130834619Y-93875000D01*
X130874300Y-93375700D02*
X130874300Y-93835319D01*
X130834619Y-93875000D02*
X127775000Y-93875000D01*
X127775000Y-93875000D02*
X126975000Y-94646019D01*
X114934619Y-86550000D02*
X114984619Y-86500000D01*
X114475000Y-86550000D02*
X114934619Y-86550000D01*
X114984619Y-86500000D02*
X126125000Y-86500000D01*
X126125000Y-86500000D02*
X131075000Y-91450000D01*
X131075000Y-91450000D02*
X131075000Y-91450000D01*
X136318600Y-92975000D02*
X136071800Y-93221800D01*
X148465000Y-96958600D02*
X147565001Y-96058601D01*
X137500000Y-92975000D02*
X136318600Y-92975000D01*
X140583601Y-96058601D02*
X137500000Y-92975000D01*
X147565001Y-96058601D02*
X140583601Y-96058601D01*
X130975000Y-80775000D02*
X124525000Y-80775000D01*
X124525000Y-80775000D02*
X121000000Y-77250000D01*
X121000000Y-77250000D02*
X110200000Y-77250000D01*
X110200000Y-77250000D02*
X110200000Y-77250000D01*
X132575000Y-81259619D02*
X132034619Y-81800000D01*
X132575000Y-80800000D02*
X132575000Y-81259619D01*
X132034619Y-81800000D02*
X116025000Y-81800000D01*
X116025000Y-81800000D02*
X115062500Y-82762500D01*
X115062500Y-82762500D02*
X115025000Y-82800000D01*
X137000000Y-91250000D02*
X137000000Y-87375000D01*
X137000000Y-87375000D02*
X133125000Y-83500000D01*
X133125000Y-83500000D02*
X133100000Y-83475000D01*
X142875000Y-84765200D02*
X142875000Y-90425000D01*
X143840200Y-83800000D02*
X142875000Y-84765200D01*
X142875000Y-90425000D02*
X145125000Y-92675000D01*
X145125000Y-92675000D02*
X145125000Y-92675000D01*
X125587201Y-100640601D02*
X125590601Y-100640601D01*
X124362200Y-99415600D02*
X125587201Y-100640601D01*
X125590601Y-100640601D02*
X126000000Y-101050000D01*
X126000000Y-101050000D02*
X135175000Y-101050000D01*
X136425000Y-99800000D02*
X138000000Y-99800000D01*
X135175000Y-101050000D02*
X136425000Y-99800000D01*
X139351399Y-108608601D02*
X137033601Y-108608601D01*
X140540000Y-107420000D02*
X139351399Y-108608601D01*
X137033601Y-108608601D02*
X132875000Y-104450000D01*
X132875000Y-104450000D02*
X90550000Y-104450000D01*
X90550000Y-104450000D02*
X87450000Y-101350000D01*
X87450000Y-99473600D02*
X89965000Y-96958600D01*
X87450000Y-101350000D02*
X87450000Y-99473600D01*
X104965800Y-99090800D02*
X104965800Y-100565800D01*
X107090200Y-96966400D02*
X104965800Y-99090800D01*
X104965800Y-100565800D02*
X107600000Y-103200000D01*
X136320000Y-103200000D02*
X138000000Y-104880000D01*
X107600000Y-103200000D02*
X136320000Y-103200000D01*
X97300000Y-80200000D02*
X99390000Y-82290000D01*
X97300000Y-79200000D02*
X97300000Y-80200000D01*
X98600000Y-88600000D02*
X97300000Y-88600000D01*
X99390000Y-87810000D02*
X98600000Y-88600000D01*
X99390000Y-82290000D02*
X99390000Y-87810000D01*
X112090200Y-89290200D02*
X111400000Y-88600000D01*
X112090200Y-96966400D02*
X112090200Y-89290200D01*
X110100000Y-88600000D02*
X97300000Y-88600000D01*
X111400000Y-88600000D02*
X110100000Y-88600000D01*
X111400000Y-87600000D02*
X113225000Y-85775000D01*
X111400000Y-88600000D02*
X111400000Y-87600000D01*
X113225000Y-79275000D02*
X113150000Y-79200000D01*
X113150000Y-79200000D02*
X111400000Y-79200000D01*
X113225000Y-85775000D02*
X113225000Y-79275000D01*
X123409619Y-93200000D02*
X123934619Y-92675000D01*
X122950000Y-93200000D02*
X123409619Y-93200000D01*
X123934619Y-92675000D02*
X128475000Y-92675000D01*
X128475000Y-92675000D02*
X128475000Y-92675000D01*
X128475000Y-92675000D02*
X131750000Y-92675000D01*
X131750000Y-92675000D02*
X133150000Y-91275000D01*
X133150000Y-91275000D02*
X133150000Y-88500000D01*
X133150000Y-88500000D02*
X133150000Y-88500000D01*
X153465000Y-100608600D02*
X152823600Y-101250000D01*
X153465000Y-99458600D02*
X153465000Y-100608600D01*
X152823600Y-101250000D02*
X143900000Y-101250000D01*
X142450000Y-99800000D02*
X140540000Y-99800000D01*
X143900000Y-101250000D02*
X142450000Y-99800000D01*
X117890381Y-88600000D02*
X111400000Y-88600000D01*
X122950000Y-93200000D02*
X122490381Y-93200000D01*
X122490381Y-93200000D02*
X117890381Y-88600000D01*
X129362200Y-98265600D02*
X129362200Y-96915600D01*
X129362200Y-99415600D02*
X129362200Y-98265600D01*
X131950000Y-87300000D02*
X133150000Y-88500000D01*
X131950000Y-84525000D02*
X131950000Y-87300000D01*
X109963800Y-102340000D02*
X107090200Y-99466400D01*
X138000000Y-102340000D02*
X109963800Y-102340000D01*
X137136401Y-106556401D02*
X136706401Y-106556401D01*
X138000000Y-107420000D02*
X137136401Y-106556401D01*
X94156410Y-103650010D02*
X90864999Y-100358599D01*
X133800010Y-103650010D02*
X94156410Y-103650010D01*
X90864999Y-100358599D02*
X89965000Y-99458600D01*
X136706401Y-106556401D02*
X133800010Y-103650010D01*
D24*
G36*
X156364492Y-75726159D02*
G01*
X156540823Y-75743665D01*
X156704354Y-75793393D01*
X156855048Y-75874053D01*
X156987129Y-75982553D01*
X157095514Y-76114719D01*
X157176051Y-76265486D01*
X157205445Y-76362440D01*
X157213195Y-105379420D01*
X157132503Y-105281097D01*
X156828725Y-105031793D01*
X156482146Y-104846543D01*
X156106087Y-104732467D01*
X155715000Y-104693948D01*
X155323912Y-104732467D01*
X154947853Y-104846543D01*
X154601275Y-105031793D01*
X154297497Y-105281097D01*
X154048193Y-105584875D01*
X153862943Y-105931454D01*
X153748867Y-106307513D01*
X153720000Y-106600603D01*
X153720000Y-107316598D01*
X153748867Y-107609688D01*
X153862943Y-107985747D01*
X154048193Y-108332325D01*
X154297498Y-108636103D01*
X154601276Y-108885407D01*
X154947854Y-109070657D01*
X155323913Y-109184733D01*
X155715000Y-109223252D01*
X156106088Y-109184733D01*
X156482147Y-109070657D01*
X156828725Y-108885407D01*
X157132503Y-108636103D01*
X157214038Y-108536752D01*
X157214593Y-110616552D01*
X157175978Y-110743850D01*
X157095362Y-110894672D01*
X156986870Y-111026870D01*
X156854672Y-111135362D01*
X156703850Y-111215978D01*
X156540189Y-111265624D01*
X156363766Y-111283000D01*
X86676234Y-111283000D01*
X86499811Y-111265624D01*
X86336150Y-111215978D01*
X86185328Y-111135362D01*
X86053130Y-111026870D01*
X85944638Y-110894672D01*
X85864022Y-110743850D01*
X85814376Y-110580189D01*
X85797000Y-110403766D01*
X85797000Y-107768362D01*
X85862943Y-107985747D01*
X86048193Y-108332325D01*
X86297498Y-108636103D01*
X86601276Y-108885407D01*
X86947854Y-109070657D01*
X87323913Y-109184733D01*
X87715000Y-109223252D01*
X88106088Y-109184733D01*
X88482147Y-109070657D01*
X88828725Y-108885407D01*
X89132503Y-108636103D01*
X89381807Y-108332325D01*
X89567057Y-107985747D01*
X89681133Y-107609687D01*
X89710000Y-107316597D01*
X89710000Y-106600602D01*
X89681133Y-106307512D01*
X89567057Y-105931453D01*
X89381807Y-105584875D01*
X89132503Y-105281097D01*
X88828725Y-105031793D01*
X88482146Y-104846543D01*
X88106087Y-104732467D01*
X87715000Y-104693948D01*
X87323912Y-104732467D01*
X86947853Y-104846543D01*
X86601275Y-105031793D01*
X86297497Y-105281097D01*
X86048193Y-105584875D01*
X85862943Y-105931454D01*
X85797000Y-106148839D01*
X85797000Y-99473600D01*
X86686324Y-99473600D01*
X86690001Y-99510932D01*
X86690000Y-101312677D01*
X86686324Y-101350000D01*
X86690000Y-101387322D01*
X86690000Y-101387332D01*
X86700997Y-101498985D01*
X86728606Y-101590001D01*
X86744454Y-101642246D01*
X86815026Y-101774276D01*
X86836137Y-101799999D01*
X86909999Y-101890001D01*
X86939003Y-101913804D01*
X89986200Y-104961002D01*
X90009999Y-104990001D01*
X90038997Y-105013799D01*
X90125723Y-105084974D01*
X90257753Y-105155546D01*
X90401014Y-105199003D01*
X90512667Y-105210000D01*
X90512676Y-105210000D01*
X90549999Y-105213676D01*
X90587322Y-105210000D01*
X95884129Y-105210000D01*
X95797497Y-105281097D01*
X95548193Y-105584875D01*
X95362943Y-105931454D01*
X95248867Y-106307513D01*
X95220000Y-106600603D01*
X95220000Y-107316598D01*
X95248867Y-107609688D01*
X95362943Y-107985747D01*
X95548193Y-108332325D01*
X95797498Y-108636103D01*
X96101276Y-108885407D01*
X96447854Y-109070657D01*
X96823913Y-109184733D01*
X97215000Y-109223252D01*
X97606088Y-109184733D01*
X97982147Y-109070657D01*
X98328725Y-108885407D01*
X98632503Y-108636103D01*
X98881807Y-108332325D01*
X99067057Y-107985747D01*
X99181133Y-107609687D01*
X99210000Y-107316597D01*
X99210000Y-106600602D01*
X99181133Y-106307512D01*
X99067057Y-105931453D01*
X98881807Y-105584875D01*
X98632503Y-105281097D01*
X98545871Y-105210000D01*
X103518833Y-105210000D01*
X103422697Y-105288897D01*
X103173393Y-105592675D01*
X102988143Y-105939254D01*
X102874067Y-106315313D01*
X102845200Y-106608403D01*
X102845200Y-107324398D01*
X102874067Y-107617488D01*
X102988143Y-107993547D01*
X103173393Y-108340125D01*
X103422698Y-108643903D01*
X103726476Y-108893207D01*
X104073054Y-109078457D01*
X104449113Y-109192533D01*
X104840200Y-109231052D01*
X105231288Y-109192533D01*
X105607347Y-109078457D01*
X105953925Y-108893207D01*
X106257703Y-108643903D01*
X106507007Y-108340125D01*
X106692257Y-107993547D01*
X106806333Y-107617487D01*
X106835200Y-107324397D01*
X106835200Y-106608402D01*
X106806333Y-106315312D01*
X106692257Y-105939253D01*
X106507007Y-105592675D01*
X106257703Y-105288897D01*
X106161567Y-105210000D01*
X113018833Y-105210000D01*
X112922697Y-105288897D01*
X112673393Y-105592675D01*
X112488143Y-105939254D01*
X112374067Y-106315313D01*
X112345200Y-106608403D01*
X112345200Y-107324398D01*
X112374067Y-107617488D01*
X112488143Y-107993547D01*
X112673393Y-108340125D01*
X112922698Y-108643903D01*
X113226476Y-108893207D01*
X113573054Y-109078457D01*
X113949113Y-109192533D01*
X114340200Y-109231052D01*
X114731288Y-109192533D01*
X115107347Y-109078457D01*
X115453925Y-108893207D01*
X115757703Y-108643903D01*
X116007007Y-108340125D01*
X116192257Y-107993547D01*
X116306333Y-107617487D01*
X116335200Y-107324397D01*
X116335200Y-106608402D01*
X116306333Y-106315312D01*
X116192257Y-105939253D01*
X116007007Y-105592675D01*
X115757703Y-105288897D01*
X115661567Y-105210000D01*
X120728933Y-105210000D01*
X120694697Y-105238097D01*
X120445393Y-105541875D01*
X120260143Y-105888454D01*
X120146067Y-106264513D01*
X120117200Y-106557603D01*
X120117200Y-107273598D01*
X120146067Y-107566688D01*
X120260143Y-107942747D01*
X120445393Y-108289325D01*
X120694698Y-108593103D01*
X120998476Y-108842407D01*
X121345054Y-109027657D01*
X121721113Y-109141733D01*
X122112200Y-109180252D01*
X122503288Y-109141733D01*
X122879347Y-109027657D01*
X123225925Y-108842407D01*
X123529703Y-108593103D01*
X123779007Y-108289325D01*
X123964257Y-107942747D01*
X124078333Y-107566687D01*
X124107200Y-107273597D01*
X124107200Y-106557602D01*
X124078333Y-106264512D01*
X123964257Y-105888453D01*
X123779007Y-105541875D01*
X123529703Y-105238097D01*
X123495467Y-105210000D01*
X130228933Y-105210000D01*
X130194697Y-105238097D01*
X129945393Y-105541875D01*
X129760143Y-105888454D01*
X129646067Y-106264513D01*
X129617200Y-106557603D01*
X129617200Y-107273598D01*
X129646067Y-107566688D01*
X129760143Y-107942747D01*
X129945393Y-108289325D01*
X130194698Y-108593103D01*
X130498476Y-108842407D01*
X130845054Y-109027657D01*
X131221113Y-109141733D01*
X131612200Y-109180252D01*
X132003288Y-109141733D01*
X132379347Y-109027657D01*
X132725925Y-108842407D01*
X133029703Y-108593103D01*
X133279007Y-108289325D01*
X133464257Y-107942747D01*
X133578333Y-107566687D01*
X133607200Y-107273597D01*
X133607200Y-106557602D01*
X133578333Y-106264512D01*
X133562493Y-106212294D01*
X136469802Y-109119604D01*
X136493600Y-109148602D01*
X136522598Y-109172400D01*
X136609324Y-109243575D01*
X136741354Y-109314147D01*
X136884615Y-109357604D01*
X136996268Y-109368601D01*
X136996278Y-109368601D01*
X137033601Y-109372277D01*
X137070924Y-109368601D01*
X139314077Y-109368601D01*
X139351399Y-109372277D01*
X139388721Y-109368601D01*
X139388732Y-109368601D01*
X139500385Y-109357604D01*
X139643646Y-109314147D01*
X139775675Y-109243575D01*
X139891400Y-109148602D01*
X139915203Y-109119598D01*
X140163100Y-108871701D01*
X140246223Y-108896916D01*
X140466381Y-108918600D01*
X140613619Y-108918600D01*
X140833777Y-108896916D01*
X141116264Y-108811225D01*
X141376606Y-108672069D01*
X141604797Y-108484797D01*
X141792069Y-108256606D01*
X141931225Y-107996264D01*
X142016916Y-107713777D01*
X142045851Y-107420000D01*
X142016916Y-107126223D01*
X141931225Y-106843736D01*
X141801268Y-106600603D01*
X144220000Y-106600603D01*
X144220000Y-107316598D01*
X144248867Y-107609688D01*
X144362943Y-107985747D01*
X144548193Y-108332325D01*
X144797498Y-108636103D01*
X145101276Y-108885407D01*
X145447854Y-109070657D01*
X145823913Y-109184733D01*
X146215000Y-109223252D01*
X146606088Y-109184733D01*
X146982147Y-109070657D01*
X147328725Y-108885407D01*
X147632503Y-108636103D01*
X147881807Y-108332325D01*
X148067057Y-107985747D01*
X148181133Y-107609687D01*
X148210000Y-107316597D01*
X148210000Y-106600602D01*
X148181133Y-106307512D01*
X148067057Y-105931453D01*
X147881807Y-105584875D01*
X147632503Y-105281097D01*
X147328725Y-105031793D01*
X146982146Y-104846543D01*
X146606087Y-104732467D01*
X146215000Y-104693948D01*
X145823912Y-104732467D01*
X145447853Y-104846543D01*
X145101275Y-105031793D01*
X144797497Y-105281097D01*
X144548193Y-105584875D01*
X144362943Y-105931454D01*
X144248867Y-106307513D01*
X144220000Y-106600603D01*
X141801268Y-106600603D01*
X141792069Y-106583394D01*
X141604797Y-106355203D01*
X141376606Y-106167931D01*
X141343060Y-106150000D01*
X141376606Y-106132069D01*
X141604797Y-105944797D01*
X141792069Y-105716606D01*
X141931225Y-105456264D01*
X142016916Y-105173777D01*
X142045851Y-104880000D01*
X142016916Y-104586223D01*
X141931225Y-104303736D01*
X141792069Y-104043394D01*
X141604797Y-103815203D01*
X141376606Y-103627931D01*
X141332090Y-103604137D01*
X141428488Y-103546817D01*
X141646854Y-103350293D01*
X141822684Y-103114944D01*
X141949222Y-102849814D01*
X141994958Y-102699026D01*
X141873817Y-102467000D01*
X140667000Y-102467000D01*
X140667000Y-102487000D01*
X140413000Y-102487000D01*
X140413000Y-102467000D01*
X140393000Y-102467000D01*
X140393000Y-102213000D01*
X140413000Y-102213000D01*
X140413000Y-99927000D01*
X140667000Y-99927000D01*
X140667000Y-102213000D01*
X141873817Y-102213000D01*
X141994958Y-101980974D01*
X141949222Y-101830186D01*
X141822684Y-101565056D01*
X141646854Y-101329707D01*
X141428488Y-101133183D01*
X141322230Y-101070000D01*
X141428488Y-101006817D01*
X141646854Y-100810293D01*
X141822684Y-100574944D01*
X141949222Y-100309814D01*
X141994958Y-100159026D01*
X141873817Y-99927000D01*
X140667000Y-99927000D01*
X140413000Y-99927000D01*
X140393000Y-99927000D01*
X140393000Y-99673000D01*
X140413000Y-99673000D01*
X140413000Y-98465536D01*
X140667000Y-98465536D01*
X140667000Y-99673000D01*
X141873817Y-99673000D01*
X141994958Y-99440974D01*
X141949222Y-99290186D01*
X141822684Y-99025056D01*
X141646854Y-98789707D01*
X141428488Y-98593183D01*
X141175978Y-98443036D01*
X140899027Y-98345037D01*
X140667000Y-98465536D01*
X140413000Y-98465536D01*
X140180973Y-98345037D01*
X139904022Y-98443036D01*
X139651512Y-98593183D01*
X139472053Y-98754692D01*
X139453102Y-98692220D01*
X139394137Y-98581906D01*
X139314785Y-98485215D01*
X139218094Y-98405863D01*
X139107780Y-98346898D01*
X138988082Y-98310588D01*
X138863600Y-98298328D01*
X137136400Y-98298328D01*
X137011918Y-98310588D01*
X136892220Y-98346898D01*
X136781906Y-98405863D01*
X136685215Y-98485215D01*
X136605863Y-98581906D01*
X136546898Y-98692220D01*
X136510588Y-98811918D01*
X136498328Y-98936400D01*
X136498328Y-99040000D01*
X136462323Y-99040000D01*
X136425000Y-99036324D01*
X136387677Y-99040000D01*
X136387667Y-99040000D01*
X136276014Y-99050997D01*
X136144799Y-99090800D01*
X136132753Y-99094454D01*
X136000723Y-99165026D01*
X135980829Y-99181353D01*
X135884999Y-99259999D01*
X135861201Y-99288997D01*
X134860199Y-100290000D01*
X130900144Y-100290000D01*
X130897200Y-99701350D01*
X130738450Y-99542600D01*
X129489200Y-99542600D01*
X129489200Y-99562600D01*
X129235200Y-99562600D01*
X129235200Y-99542600D01*
X129215200Y-99542600D01*
X129215200Y-99288600D01*
X129235200Y-99288600D01*
X129235200Y-99268600D01*
X129489200Y-99268600D01*
X129489200Y-99288600D01*
X130738450Y-99288600D01*
X130897200Y-99129850D01*
X130900272Y-98515600D01*
X130888012Y-98391118D01*
X130851702Y-98271420D01*
X130792737Y-98161106D01*
X130713385Y-98064415D01*
X130616694Y-97985063D01*
X130523176Y-97935076D01*
X130542230Y-97916022D01*
X130426282Y-97800074D01*
X130680461Y-97716392D01*
X130811358Y-97443825D01*
X130886565Y-97150958D01*
X130903191Y-96849047D01*
X130860597Y-96549693D01*
X130760422Y-96264401D01*
X130680461Y-96114808D01*
X130426280Y-96031125D01*
X129541805Y-96915600D01*
X129555948Y-96929743D01*
X129376343Y-97109348D01*
X129362200Y-97095205D01*
X129348058Y-97109348D01*
X129168453Y-96929743D01*
X129182595Y-96915600D01*
X129168453Y-96901458D01*
X129348058Y-96721853D01*
X129362200Y-96735995D01*
X130246675Y-95851520D01*
X130208314Y-95735000D01*
X135785199Y-95735000D01*
X137411205Y-97361008D01*
X137434999Y-97390001D01*
X137463992Y-97413795D01*
X137463996Y-97413799D01*
X137531994Y-97469603D01*
X137550724Y-97484974D01*
X137682753Y-97555546D01*
X137826014Y-97599003D01*
X137937667Y-97610000D01*
X137937676Y-97610000D01*
X137974999Y-97613676D01*
X138012322Y-97610000D01*
X142935199Y-97610000D01*
X145294805Y-99969608D01*
X145318599Y-99998601D01*
X145347592Y-100022395D01*
X145347596Y-100022399D01*
X145401154Y-100066352D01*
X145434324Y-100093574D01*
X145566353Y-100164146D01*
X145709614Y-100207603D01*
X145821267Y-100218600D01*
X145821276Y-100218600D01*
X145858599Y-100222276D01*
X145895922Y-100218600D01*
X147126687Y-100218600D01*
X147272688Y-100437105D01*
X147486495Y-100650912D01*
X147737905Y-100818899D01*
X148017257Y-100934611D01*
X148313816Y-100993600D01*
X148616184Y-100993600D01*
X148912743Y-100934611D01*
X149192095Y-100818899D01*
X149443505Y-100650912D01*
X149657312Y-100437105D01*
X149715000Y-100350769D01*
X149772688Y-100437105D01*
X149986495Y-100650912D01*
X150237905Y-100818899D01*
X150517257Y-100934611D01*
X150813816Y-100993600D01*
X151116184Y-100993600D01*
X151412743Y-100934611D01*
X151692095Y-100818899D01*
X151943505Y-100650912D01*
X151981120Y-100613297D01*
X152034463Y-100713094D01*
X152113815Y-100809785D01*
X152210506Y-100889137D01*
X152320820Y-100948102D01*
X152440518Y-100984412D01*
X152565000Y-100996672D01*
X153179250Y-100993600D01*
X153338000Y-100834850D01*
X153338000Y-99585600D01*
X153592000Y-99585600D01*
X153592000Y-100834850D01*
X153750750Y-100993600D01*
X154365000Y-100996672D01*
X154489482Y-100984412D01*
X154609180Y-100948102D01*
X154719494Y-100889137D01*
X154816185Y-100809785D01*
X154895537Y-100713094D01*
X154954502Y-100602780D01*
X154990812Y-100483082D01*
X155003072Y-100358600D01*
X155000000Y-99744350D01*
X154841250Y-99585600D01*
X153592000Y-99585600D01*
X153338000Y-99585600D01*
X153318000Y-99585600D01*
X153318000Y-99331600D01*
X153338000Y-99331600D01*
X153338000Y-99311600D01*
X153592000Y-99311600D01*
X153592000Y-99331600D01*
X154841250Y-99331600D01*
X155000000Y-99172850D01*
X155003072Y-98558600D01*
X154990812Y-98434118D01*
X154954502Y-98314420D01*
X154895537Y-98204106D01*
X154816185Y-98107415D01*
X154719494Y-98028063D01*
X154625976Y-97978076D01*
X154645030Y-97959022D01*
X154529082Y-97843074D01*
X154783261Y-97759392D01*
X154914158Y-97486825D01*
X154989365Y-97193958D01*
X155005991Y-96892047D01*
X154963397Y-96592693D01*
X154863222Y-96307401D01*
X154783261Y-96157808D01*
X154529080Y-96074125D01*
X153644605Y-96958600D01*
X153658748Y-96972743D01*
X153479143Y-97152348D01*
X153465000Y-97138205D01*
X153450858Y-97152348D01*
X153271253Y-96972743D01*
X153285395Y-96958600D01*
X152400920Y-96074125D01*
X152252738Y-96122910D01*
X152157312Y-95980095D01*
X152071737Y-95894520D01*
X152580525Y-95894520D01*
X153465000Y-96778995D01*
X154349475Y-95894520D01*
X154265792Y-95640339D01*
X153993225Y-95509442D01*
X153700358Y-95434235D01*
X153398447Y-95417609D01*
X153099093Y-95460203D01*
X152813801Y-95560378D01*
X152664208Y-95640339D01*
X152580525Y-95894520D01*
X152071737Y-95894520D01*
X151943505Y-95766288D01*
X151692095Y-95598301D01*
X151412743Y-95482589D01*
X151116184Y-95423600D01*
X150813816Y-95423600D01*
X150517257Y-95482589D01*
X150237905Y-95598301D01*
X149986495Y-95766288D01*
X149772688Y-95980095D01*
X149715000Y-96066431D01*
X149657312Y-95980095D01*
X149443505Y-95766288D01*
X149192095Y-95598301D01*
X148912743Y-95482589D01*
X148616184Y-95423600D01*
X148313816Y-95423600D01*
X148052565Y-95475566D01*
X147989277Y-95423627D01*
X147857248Y-95353055D01*
X147713987Y-95309598D01*
X147602334Y-95298601D01*
X147602323Y-95298601D01*
X147565001Y-95294925D01*
X147527679Y-95298601D01*
X140898403Y-95298601D01*
X138063804Y-92464003D01*
X138040001Y-92434999D01*
X137924276Y-92340026D01*
X137792247Y-92269454D01*
X137648986Y-92225997D01*
X137537333Y-92215000D01*
X137537322Y-92215000D01*
X137500000Y-92211324D01*
X137462678Y-92215000D01*
X136355923Y-92215000D01*
X136318600Y-92211324D01*
X136281277Y-92215000D01*
X136281267Y-92215000D01*
X136169614Y-92225997D01*
X136051585Y-92261800D01*
X135977248Y-92261800D01*
X135791778Y-92298692D01*
X135617069Y-92371059D01*
X135459836Y-92476119D01*
X135326119Y-92609836D01*
X135221059Y-92767069D01*
X135148692Y-92941778D01*
X135111800Y-93127248D01*
X135111800Y-93316352D01*
X135148692Y-93501822D01*
X135221059Y-93676531D01*
X135326119Y-93833764D01*
X135459836Y-93967481D01*
X135617069Y-94072541D01*
X135791778Y-94144908D01*
X135977248Y-94181800D01*
X136166352Y-94181800D01*
X136351822Y-94144908D01*
X136526531Y-94072541D01*
X136683764Y-93967481D01*
X136817481Y-93833764D01*
X136883473Y-93735000D01*
X137185199Y-93735000D01*
X139540198Y-96090000D01*
X138289803Y-96090000D01*
X136663803Y-94464002D01*
X136640001Y-94434999D01*
X136524276Y-94340026D01*
X136392247Y-94269454D01*
X136248986Y-94225997D01*
X136137333Y-94215000D01*
X136137322Y-94215000D01*
X136100000Y-94211324D01*
X136062678Y-94215000D01*
X131533111Y-94215000D01*
X131579846Y-94127566D01*
X131623303Y-93984305D01*
X131623489Y-93982413D01*
X131725041Y-93830431D01*
X131797408Y-93655722D01*
X131834300Y-93470252D01*
X131834300Y-93281148D01*
X131797408Y-93095678D01*
X131725041Y-92920969D01*
X131619981Y-92763736D01*
X131486264Y-92630019D01*
X131329031Y-92524959D01*
X131154322Y-92452592D01*
X130968852Y-92415700D01*
X130779748Y-92415700D01*
X130594278Y-92452592D01*
X130419569Y-92524959D01*
X130262336Y-92630019D01*
X130128619Y-92763736D01*
X130023559Y-92920969D01*
X129951192Y-93095678D01*
X129947349Y-93115000D01*
X127819354Y-93115000D01*
X127789085Y-93111454D01*
X127744702Y-93115000D01*
X127737667Y-93115000D01*
X127707443Y-93117977D01*
X127639853Y-93123377D01*
X127633052Y-93125304D01*
X127626014Y-93125997D01*
X127561083Y-93145693D01*
X127495816Y-93164184D01*
X127489521Y-93167401D01*
X127482753Y-93169454D01*
X127422910Y-93201441D01*
X127362507Y-93232309D01*
X127356959Y-93236693D01*
X127350724Y-93240026D01*
X127298292Y-93283056D01*
X127274482Y-93301872D01*
X127269421Y-93306749D01*
X127234999Y-93334999D01*
X127215662Y-93358562D01*
X126668379Y-93886019D01*
X123566304Y-93886019D01*
X123528981Y-93882343D01*
X123491658Y-93886019D01*
X123491648Y-93886019D01*
X123379995Y-93897016D01*
X123236734Y-93940473D01*
X123104705Y-94011045D01*
X122988980Y-94106018D01*
X122965182Y-94135016D01*
X120860199Y-96240000D01*
X115465534Y-96240000D01*
X115329731Y-96149259D01*
X115155022Y-96076892D01*
X114969552Y-96040000D01*
X114780448Y-96040000D01*
X114594978Y-96076892D01*
X114420269Y-96149259D01*
X114263036Y-96254319D01*
X114129319Y-96388036D01*
X114024259Y-96545269D01*
X113951892Y-96719978D01*
X113915000Y-96905448D01*
X113915000Y-97094552D01*
X113951892Y-97280022D01*
X114024259Y-97454731D01*
X114129319Y-97611964D01*
X114263036Y-97745681D01*
X114420269Y-97850741D01*
X114594978Y-97923108D01*
X114780448Y-97960000D01*
X114969552Y-97960000D01*
X115155022Y-97923108D01*
X115329731Y-97850741D01*
X115465534Y-97760000D01*
X121137678Y-97760000D01*
X121175000Y-97763676D01*
X121212322Y-97760000D01*
X121212333Y-97760000D01*
X121323986Y-97749003D01*
X121467247Y-97705546D01*
X121599276Y-97634974D01*
X121715001Y-97540001D01*
X121738804Y-97510997D01*
X122959902Y-96289900D01*
X122886189Y-96467857D01*
X122827200Y-96764416D01*
X122827200Y-97066784D01*
X122886189Y-97363343D01*
X123001901Y-97642695D01*
X123169888Y-97894105D01*
X123383695Y-98107912D01*
X123470031Y-98165600D01*
X123383695Y-98223288D01*
X123169888Y-98437095D01*
X123001901Y-98688505D01*
X122886189Y-98967857D01*
X122827200Y-99264416D01*
X122827200Y-99566784D01*
X122886189Y-99863343D01*
X123001901Y-100142695D01*
X123169888Y-100394105D01*
X123383695Y-100607912D01*
X123635105Y-100775899D01*
X123914457Y-100891611D01*
X124211016Y-100950600D01*
X124513384Y-100950600D01*
X124771130Y-100899331D01*
X125023401Y-101151603D01*
X125047200Y-101180602D01*
X125076198Y-101204400D01*
X125095165Y-101219966D01*
X125436196Y-101560997D01*
X125451791Y-101580000D01*
X110278602Y-101580000D01*
X109700002Y-101001400D01*
X109741384Y-101001400D01*
X110037943Y-100942411D01*
X110317295Y-100826699D01*
X110568705Y-100658712D01*
X110606320Y-100621097D01*
X110659663Y-100720894D01*
X110739015Y-100817585D01*
X110835706Y-100896937D01*
X110946020Y-100955902D01*
X111065718Y-100992212D01*
X111190200Y-101004472D01*
X111804450Y-101001400D01*
X111963200Y-100842650D01*
X111963200Y-99593400D01*
X112217200Y-99593400D01*
X112217200Y-100842650D01*
X112375950Y-101001400D01*
X112990200Y-101004472D01*
X113114682Y-100992212D01*
X113234380Y-100955902D01*
X113344694Y-100896937D01*
X113441385Y-100817585D01*
X113520737Y-100720894D01*
X113579702Y-100610580D01*
X113616012Y-100490882D01*
X113628272Y-100366400D01*
X113625200Y-99752150D01*
X113466450Y-99593400D01*
X112217200Y-99593400D01*
X111963200Y-99593400D01*
X111943200Y-99593400D01*
X111943200Y-99339400D01*
X111963200Y-99339400D01*
X111963200Y-99319400D01*
X112217200Y-99319400D01*
X112217200Y-99339400D01*
X113466450Y-99339400D01*
X113625200Y-99180650D01*
X113628272Y-98566400D01*
X113616012Y-98441918D01*
X113579702Y-98322220D01*
X113520737Y-98211906D01*
X113441385Y-98115215D01*
X113344694Y-98035863D01*
X113251176Y-97985876D01*
X113270230Y-97966822D01*
X113154282Y-97850874D01*
X113408461Y-97767192D01*
X113539358Y-97494625D01*
X113614565Y-97201758D01*
X113631191Y-96899847D01*
X113588597Y-96600493D01*
X113488422Y-96315201D01*
X113408461Y-96165608D01*
X113154280Y-96081925D01*
X112269805Y-96966400D01*
X112283948Y-96980543D01*
X112104343Y-97160148D01*
X112090200Y-97146005D01*
X112076058Y-97160148D01*
X111896453Y-96980543D01*
X111910595Y-96966400D01*
X111026120Y-96081925D01*
X110877938Y-96130710D01*
X110782512Y-95987895D01*
X110696937Y-95902320D01*
X111205725Y-95902320D01*
X112090200Y-96786795D01*
X112974675Y-95902320D01*
X112890992Y-95648139D01*
X112618425Y-95517242D01*
X112325558Y-95442035D01*
X112023647Y-95425409D01*
X111724293Y-95468003D01*
X111439001Y-95568178D01*
X111289408Y-95648139D01*
X111205725Y-95902320D01*
X110696937Y-95902320D01*
X110568705Y-95774088D01*
X110317295Y-95606101D01*
X110037943Y-95490389D01*
X109741384Y-95431400D01*
X109439016Y-95431400D01*
X109142457Y-95490389D01*
X108863105Y-95606101D01*
X108611695Y-95774088D01*
X108397888Y-95987895D01*
X108340200Y-96074231D01*
X108282512Y-95987895D01*
X108068705Y-95774088D01*
X107817295Y-95606101D01*
X107537943Y-95490389D01*
X107241384Y-95431400D01*
X106939016Y-95431400D01*
X106642457Y-95490389D01*
X106363105Y-95606101D01*
X106111695Y-95774088D01*
X105897888Y-95987895D01*
X105729901Y-96239305D01*
X105614189Y-96518657D01*
X105555200Y-96815216D01*
X105555200Y-97117584D01*
X105606469Y-97375330D01*
X104454803Y-98526996D01*
X104425799Y-98550799D01*
X104391016Y-98593183D01*
X104330826Y-98666524D01*
X104280405Y-98760854D01*
X104260254Y-98798554D01*
X104216797Y-98941815D01*
X104205800Y-99053468D01*
X104205800Y-99053478D01*
X104202124Y-99090800D01*
X104205800Y-99128123D01*
X104205801Y-100528468D01*
X104202124Y-100565800D01*
X104205801Y-100603133D01*
X104206535Y-100610580D01*
X104216798Y-100714785D01*
X104260254Y-100858046D01*
X104330826Y-100990076D01*
X104402001Y-101076802D01*
X104425800Y-101105801D01*
X104454798Y-101129599D01*
X106215208Y-102890010D01*
X94471212Y-102890010D01*
X92574801Y-100993600D01*
X92616184Y-100993600D01*
X92912743Y-100934611D01*
X93192095Y-100818899D01*
X93443505Y-100650912D01*
X93481120Y-100613297D01*
X93534463Y-100713094D01*
X93613815Y-100809785D01*
X93710506Y-100889137D01*
X93820820Y-100948102D01*
X93940518Y-100984412D01*
X94065000Y-100996672D01*
X94679250Y-100993600D01*
X94838000Y-100834850D01*
X94838000Y-99585600D01*
X95092000Y-99585600D01*
X95092000Y-100834850D01*
X95250750Y-100993600D01*
X95865000Y-100996672D01*
X95989482Y-100984412D01*
X96109180Y-100948102D01*
X96219494Y-100889137D01*
X96316185Y-100809785D01*
X96395537Y-100713094D01*
X96454502Y-100602780D01*
X96490812Y-100483082D01*
X96503072Y-100358600D01*
X96500000Y-99744350D01*
X96341250Y-99585600D01*
X95092000Y-99585600D01*
X94838000Y-99585600D01*
X94818000Y-99585600D01*
X94818000Y-99331600D01*
X94838000Y-99331600D01*
X94838000Y-99311600D01*
X95092000Y-99311600D01*
X95092000Y-99331600D01*
X96341250Y-99331600D01*
X96500000Y-99172850D01*
X96503072Y-98558600D01*
X96490812Y-98434118D01*
X96454502Y-98314420D01*
X96395537Y-98204106D01*
X96316185Y-98107415D01*
X96219494Y-98028063D01*
X96125976Y-97978076D01*
X96145030Y-97959022D01*
X96029082Y-97843074D01*
X96283261Y-97759392D01*
X96414158Y-97486825D01*
X96489365Y-97193958D01*
X96505991Y-96892047D01*
X96463397Y-96592693D01*
X96363222Y-96307401D01*
X96283261Y-96157808D01*
X96029080Y-96074125D01*
X95144605Y-96958600D01*
X95158748Y-96972743D01*
X94979143Y-97152348D01*
X94965000Y-97138205D01*
X94950858Y-97152348D01*
X94771253Y-96972743D01*
X94785395Y-96958600D01*
X93900920Y-96074125D01*
X93752738Y-96122910D01*
X93657312Y-95980095D01*
X93571737Y-95894520D01*
X94080525Y-95894520D01*
X94965000Y-96778995D01*
X95849475Y-95894520D01*
X95765792Y-95640339D01*
X95493225Y-95509442D01*
X95200358Y-95434235D01*
X94898447Y-95417609D01*
X94599093Y-95460203D01*
X94313801Y-95560378D01*
X94164208Y-95640339D01*
X94080525Y-95894520D01*
X93571737Y-95894520D01*
X93443505Y-95766288D01*
X93192095Y-95598301D01*
X92912743Y-95482589D01*
X92616184Y-95423600D01*
X92313816Y-95423600D01*
X92017257Y-95482589D01*
X91737905Y-95598301D01*
X91486495Y-95766288D01*
X91272688Y-95980095D01*
X91215000Y-96066431D01*
X91157312Y-95980095D01*
X90943505Y-95766288D01*
X90692095Y-95598301D01*
X90412743Y-95482589D01*
X90116184Y-95423600D01*
X89813816Y-95423600D01*
X89517257Y-95482589D01*
X89237905Y-95598301D01*
X88986495Y-95766288D01*
X88772688Y-95980095D01*
X88604701Y-96231505D01*
X88488989Y-96510857D01*
X88430000Y-96807416D01*
X88430000Y-97109784D01*
X88481269Y-97367530D01*
X86938998Y-98909801D01*
X86910000Y-98933599D01*
X86886202Y-98962597D01*
X86886201Y-98962598D01*
X86815026Y-99049324D01*
X86744454Y-99181354D01*
X86714180Y-99281158D01*
X86705549Y-99309613D01*
X86700998Y-99324615D01*
X86686324Y-99473600D01*
X85797000Y-99473600D01*
X85797000Y-91380000D01*
X87007815Y-91380000D01*
X87036487Y-91671111D01*
X87121401Y-91951034D01*
X87259294Y-92209014D01*
X87444866Y-92435134D01*
X87670986Y-92620706D01*
X87928966Y-92758599D01*
X88208889Y-92843513D01*
X88427050Y-92865000D01*
X88572950Y-92865000D01*
X88791111Y-92843513D01*
X89071034Y-92758599D01*
X89329014Y-92620706D01*
X89555134Y-92435134D01*
X89740706Y-92209014D01*
X89878599Y-91951034D01*
X89963513Y-91671111D01*
X89992185Y-91380000D01*
X89963513Y-91088889D01*
X89878599Y-90808966D01*
X89740706Y-90550986D01*
X89555134Y-90324866D01*
X89329014Y-90139294D01*
X89264477Y-90104799D01*
X89381355Y-90035178D01*
X89597588Y-89840269D01*
X89771641Y-89606920D01*
X89896825Y-89344099D01*
X89941476Y-89196890D01*
X89820155Y-88967000D01*
X88627000Y-88967000D01*
X88627000Y-88987000D01*
X88373000Y-88987000D01*
X88373000Y-88967000D01*
X87179845Y-88967000D01*
X87058524Y-89196890D01*
X87103175Y-89344099D01*
X87228359Y-89606920D01*
X87402412Y-89840269D01*
X87618645Y-90035178D01*
X87735523Y-90104799D01*
X87670986Y-90139294D01*
X87444866Y-90324866D01*
X87259294Y-90550986D01*
X87121401Y-90808966D01*
X87036487Y-91088889D01*
X87007815Y-91380000D01*
X85797000Y-91380000D01*
X85797000Y-88941185D01*
X95657682Y-88941185D01*
X95671827Y-89012684D01*
X95777858Y-89263868D01*
X95930855Y-89489540D01*
X96124939Y-89681028D01*
X96352651Y-89830972D01*
X96605240Y-89933611D01*
X96873000Y-89985000D01*
X97173000Y-89985000D01*
X97173000Y-88727000D01*
X97427000Y-88727000D01*
X97427000Y-89985000D01*
X97727000Y-89985000D01*
X97994760Y-89933611D01*
X98247349Y-89830972D01*
X98475061Y-89681028D01*
X98669145Y-89489540D01*
X98822142Y-89263868D01*
X98928173Y-89012684D01*
X98942318Y-88941185D01*
X109757682Y-88941185D01*
X109771827Y-89012684D01*
X109877858Y-89263868D01*
X110030855Y-89489540D01*
X110224939Y-89681028D01*
X110452651Y-89830972D01*
X110705240Y-89933611D01*
X110973000Y-89985000D01*
X111273000Y-89985000D01*
X111273000Y-88727000D01*
X111527000Y-88727000D01*
X111527000Y-89985000D01*
X111827000Y-89985000D01*
X112094760Y-89933611D01*
X112347349Y-89830972D01*
X112575061Y-89681028D01*
X112769145Y-89489540D01*
X112922142Y-89263868D01*
X113028173Y-89012684D01*
X113042318Y-88941185D01*
X112919656Y-88727000D01*
X111527000Y-88727000D01*
X111273000Y-88727000D01*
X109880344Y-88727000D01*
X109757682Y-88941185D01*
X98942318Y-88941185D01*
X98819656Y-88727000D01*
X97427000Y-88727000D01*
X97173000Y-88727000D01*
X95780344Y-88727000D01*
X95657682Y-88941185D01*
X85797000Y-88941185D01*
X85797000Y-85450000D01*
X87011928Y-85450000D01*
X87011928Y-87150000D01*
X87024188Y-87274482D01*
X87060498Y-87394180D01*
X87119463Y-87504494D01*
X87198815Y-87601185D01*
X87295506Y-87680537D01*
X87405820Y-87739502D01*
X87486466Y-87763966D01*
X87402412Y-87839731D01*
X87228359Y-88073080D01*
X87103175Y-88335901D01*
X87058524Y-88483110D01*
X87179845Y-88713000D01*
X88373000Y-88713000D01*
X88373000Y-88693000D01*
X88627000Y-88693000D01*
X88627000Y-88713000D01*
X89820155Y-88713000D01*
X89941476Y-88483110D01*
X89896825Y-88335901D01*
X89860109Y-88258815D01*
X95657682Y-88258815D01*
X95780344Y-88473000D01*
X97173000Y-88473000D01*
X97173000Y-87215000D01*
X97427000Y-87215000D01*
X97427000Y-88473000D01*
X98819656Y-88473000D01*
X98942318Y-88258815D01*
X109757682Y-88258815D01*
X109880344Y-88473000D01*
X111273000Y-88473000D01*
X111273000Y-87215000D01*
X111527000Y-87215000D01*
X111527000Y-88473000D01*
X112919656Y-88473000D01*
X113042318Y-88258815D01*
X113028173Y-88187316D01*
X112922142Y-87936132D01*
X112769145Y-87710460D01*
X112575061Y-87518972D01*
X112347349Y-87369028D01*
X112094760Y-87266389D01*
X111827000Y-87215000D01*
X111527000Y-87215000D01*
X111273000Y-87215000D01*
X110973000Y-87215000D01*
X110705240Y-87266389D01*
X110452651Y-87369028D01*
X110224939Y-87518972D01*
X110030855Y-87710460D01*
X109877858Y-87936132D01*
X109771827Y-88187316D01*
X109757682Y-88258815D01*
X98942318Y-88258815D01*
X98928173Y-88187316D01*
X98822142Y-87936132D01*
X98669145Y-87710460D01*
X98475061Y-87518972D01*
X98247349Y-87369028D01*
X97994760Y-87266389D01*
X97727000Y-87215000D01*
X97427000Y-87215000D01*
X97173000Y-87215000D01*
X96873000Y-87215000D01*
X96605240Y-87266389D01*
X96352651Y-87369028D01*
X96124939Y-87518972D01*
X95930855Y-87710460D01*
X95777858Y-87936132D01*
X95671827Y-88187316D01*
X95657682Y-88258815D01*
X89860109Y-88258815D01*
X89771641Y-88073080D01*
X89597588Y-87839731D01*
X89513534Y-87763966D01*
X89594180Y-87739502D01*
X89704494Y-87680537D01*
X89801185Y-87601185D01*
X89880537Y-87504494D01*
X89939502Y-87394180D01*
X89975812Y-87274482D01*
X89988072Y-87150000D01*
X89988072Y-85450000D01*
X89975812Y-85325518D01*
X89939502Y-85205820D01*
X89880537Y-85095506D01*
X89801185Y-84998815D01*
X89748712Y-84955751D01*
X93865000Y-84955751D01*
X93881423Y-85122498D01*
X93946324Y-85336446D01*
X94051716Y-85533623D01*
X94193551Y-85706449D01*
X94366377Y-85848284D01*
X94563553Y-85953676D01*
X94777501Y-86018577D01*
X95000000Y-86040491D01*
X95222498Y-86018577D01*
X95436446Y-85953676D01*
X95633623Y-85848284D01*
X95806449Y-85706449D01*
X95948284Y-85533623D01*
X96053676Y-85336447D01*
X96118577Y-85122499D01*
X96135000Y-84955752D01*
X96135000Y-84095232D01*
X96189903Y-84371248D01*
X96311689Y-84665265D01*
X96488494Y-84929873D01*
X96713525Y-85154904D01*
X96978133Y-85331709D01*
X97272150Y-85453495D01*
X97584277Y-85515581D01*
X97902519Y-85515581D01*
X98214646Y-85453495D01*
X98508663Y-85331709D01*
X98773271Y-85154904D01*
X98972424Y-84955751D01*
X101965000Y-84955751D01*
X101981423Y-85122498D01*
X102046324Y-85336446D01*
X102151716Y-85533623D01*
X102293551Y-85706449D01*
X102466377Y-85848284D01*
X102663553Y-85953676D01*
X102877501Y-86018577D01*
X103100000Y-86040491D01*
X103322498Y-86018577D01*
X103536446Y-85953676D01*
X103733623Y-85848284D01*
X103906449Y-85706449D01*
X104048284Y-85533623D01*
X104153676Y-85336447D01*
X104218577Y-85122499D01*
X104235000Y-84955752D01*
X104235000Y-84955751D01*
X107965000Y-84955751D01*
X107981423Y-85122498D01*
X108046324Y-85336446D01*
X108151716Y-85533623D01*
X108293551Y-85706449D01*
X108466377Y-85848284D01*
X108663553Y-85953676D01*
X108877501Y-86018577D01*
X109100000Y-86040491D01*
X109322498Y-86018577D01*
X109536446Y-85953676D01*
X109733623Y-85848284D01*
X109906449Y-85706449D01*
X110048284Y-85533623D01*
X110153676Y-85336447D01*
X110218577Y-85122499D01*
X110235000Y-84955752D01*
X110235000Y-84313409D01*
X110246505Y-84371248D01*
X110368291Y-84665265D01*
X110545096Y-84929873D01*
X110770127Y-85154904D01*
X111034735Y-85331709D01*
X111328752Y-85453495D01*
X111640879Y-85515581D01*
X111959121Y-85515581D01*
X112271248Y-85453495D01*
X112565265Y-85331709D01*
X112829873Y-85154904D01*
X113054904Y-84929873D01*
X113231709Y-84665265D01*
X113353495Y-84371248D01*
X113415581Y-84059121D01*
X113415581Y-83740879D01*
X113353495Y-83428752D01*
X113231709Y-83134735D01*
X113054904Y-82870127D01*
X112829873Y-82645096D01*
X112565265Y-82468291D01*
X112271248Y-82346505D01*
X111959121Y-82284419D01*
X111640879Y-82284419D01*
X111328752Y-82346505D01*
X111034735Y-82468291D01*
X110770127Y-82645096D01*
X110545096Y-82870127D01*
X110368291Y-83134735D01*
X110246505Y-83428752D01*
X110235000Y-83486591D01*
X110235000Y-82844248D01*
X110218577Y-82677501D01*
X110153676Y-82463553D01*
X110048284Y-82266377D01*
X109906449Y-82093551D01*
X109733623Y-81951716D01*
X109536447Y-81846324D01*
X109322499Y-81781423D01*
X109100000Y-81759509D01*
X108877502Y-81781423D01*
X108663554Y-81846324D01*
X108466378Y-81951716D01*
X108293552Y-82093551D01*
X108151717Y-82266377D01*
X108046325Y-82463553D01*
X107981424Y-82677501D01*
X107965001Y-82844248D01*
X107965000Y-84955751D01*
X104235000Y-84955751D01*
X104235000Y-82844248D01*
X104218577Y-82677501D01*
X104153676Y-82463553D01*
X104048284Y-82266377D01*
X103906449Y-82093551D01*
X103733623Y-81951716D01*
X103536447Y-81846324D01*
X103322499Y-81781423D01*
X103100000Y-81759509D01*
X102877502Y-81781423D01*
X102663554Y-81846324D01*
X102466378Y-81951716D01*
X102293552Y-82093551D01*
X102151717Y-82266377D01*
X102046325Y-82463553D01*
X101981424Y-82677501D01*
X101965001Y-82844248D01*
X101965000Y-84955751D01*
X98972424Y-84955751D01*
X98998302Y-84929873D01*
X99175107Y-84665265D01*
X99296893Y-84371248D01*
X99358979Y-84059121D01*
X99358979Y-83740879D01*
X99296893Y-83428752D01*
X99175107Y-83134735D01*
X98998302Y-82870127D01*
X98773271Y-82645096D01*
X98508663Y-82468291D01*
X98214646Y-82346505D01*
X97902519Y-82284419D01*
X97584277Y-82284419D01*
X97272150Y-82346505D01*
X96978133Y-82468291D01*
X96713525Y-82645096D01*
X96488494Y-82870127D01*
X96311689Y-83134735D01*
X96189903Y-83428752D01*
X96135000Y-83704768D01*
X96135000Y-82844248D01*
X96118577Y-82677501D01*
X96053676Y-82463553D01*
X95948284Y-82266377D01*
X95806449Y-82093551D01*
X95633623Y-81951716D01*
X95436447Y-81846324D01*
X95222499Y-81781423D01*
X95000000Y-81759509D01*
X94777502Y-81781423D01*
X94563554Y-81846324D01*
X94366378Y-81951716D01*
X94193552Y-82093551D01*
X94051717Y-82266377D01*
X93946325Y-82463553D01*
X93881424Y-82677501D01*
X93865001Y-82844248D01*
X93865000Y-84955751D01*
X89748712Y-84955751D01*
X89704494Y-84919463D01*
X89594180Y-84860498D01*
X89474482Y-84824188D01*
X89350000Y-84811928D01*
X87650000Y-84811928D01*
X87525518Y-84824188D01*
X87405820Y-84860498D01*
X87295506Y-84919463D01*
X87198815Y-84998815D01*
X87119463Y-85095506D01*
X87060498Y-85205820D01*
X87024188Y-85325518D01*
X87011928Y-85450000D01*
X85797000Y-85450000D01*
X85797000Y-79541185D01*
X95207682Y-79541185D01*
X95221827Y-79612684D01*
X95327858Y-79863868D01*
X95480855Y-80089540D01*
X95674939Y-80281028D01*
X95902651Y-80430972D01*
X96155240Y-80533611D01*
X96423000Y-80585000D01*
X97173000Y-80585000D01*
X97173000Y-79327000D01*
X97427000Y-79327000D01*
X97427000Y-80585000D01*
X98177000Y-80585000D01*
X98444760Y-80533611D01*
X98697349Y-80430972D01*
X98925061Y-80281028D01*
X99119145Y-80089540D01*
X99272142Y-79863868D01*
X99378173Y-79612684D01*
X99392318Y-79541185D01*
X109307682Y-79541185D01*
X109321827Y-79612684D01*
X109427858Y-79863868D01*
X109580855Y-80089540D01*
X109774939Y-80281028D01*
X110002651Y-80430972D01*
X110255240Y-80533611D01*
X110523000Y-80585000D01*
X111273000Y-80585000D01*
X111273000Y-79327000D01*
X111527000Y-79327000D01*
X111527000Y-80585000D01*
X112277000Y-80585000D01*
X112544760Y-80533611D01*
X112797349Y-80430972D01*
X113025061Y-80281028D01*
X113219145Y-80089540D01*
X113372142Y-79863868D01*
X113478173Y-79612684D01*
X113492318Y-79541185D01*
X113369656Y-79327000D01*
X111527000Y-79327000D01*
X111273000Y-79327000D01*
X109430344Y-79327000D01*
X109307682Y-79541185D01*
X99392318Y-79541185D01*
X99269656Y-79327000D01*
X97427000Y-79327000D01*
X97173000Y-79327000D01*
X95330344Y-79327000D01*
X95207682Y-79541185D01*
X85797000Y-79541185D01*
X85797000Y-78858815D01*
X95207682Y-78858815D01*
X95330344Y-79073000D01*
X97173000Y-79073000D01*
X97173000Y-77815000D01*
X97427000Y-77815000D01*
X97427000Y-79073000D01*
X99269656Y-79073000D01*
X99392318Y-78858815D01*
X99378173Y-78787316D01*
X99272142Y-78536132D01*
X99119145Y-78310460D01*
X98925061Y-78118972D01*
X98697349Y-77969028D01*
X98444760Y-77866389D01*
X98177000Y-77815000D01*
X97427000Y-77815000D01*
X97173000Y-77815000D01*
X96423000Y-77815000D01*
X96155240Y-77866389D01*
X95902651Y-77969028D01*
X95674939Y-78118972D01*
X95480855Y-78310460D01*
X95327858Y-78536132D01*
X95221827Y-78787316D01*
X95207682Y-78858815D01*
X85797000Y-78858815D01*
X85797000Y-77155448D01*
X109240000Y-77155448D01*
X109240000Y-77344552D01*
X109276892Y-77530022D01*
X109349259Y-77704731D01*
X109454319Y-77861964D01*
X109588036Y-77995681D01*
X109745269Y-78100741D01*
X109780478Y-78115325D01*
X109774939Y-78118972D01*
X109580855Y-78310460D01*
X109427858Y-78536132D01*
X109321827Y-78787316D01*
X109307682Y-78858815D01*
X109430344Y-79073000D01*
X111273000Y-79073000D01*
X111273000Y-79053000D01*
X111527000Y-79053000D01*
X111527000Y-79073000D01*
X113369656Y-79073000D01*
X113492318Y-78858815D01*
X113478173Y-78787316D01*
X113372142Y-78536132D01*
X113219145Y-78310460D01*
X113025061Y-78118972D01*
X112859571Y-78010000D01*
X120685199Y-78010000D01*
X123715198Y-81040000D01*
X116062333Y-81040000D01*
X116025000Y-81036323D01*
X115987667Y-81040000D01*
X115876014Y-81050997D01*
X115732753Y-81094454D01*
X115600724Y-81165026D01*
X115484999Y-81259999D01*
X115461201Y-81288997D01*
X114942671Y-81807528D01*
X114782478Y-81839392D01*
X114607769Y-81911759D01*
X114450536Y-82016819D01*
X114316819Y-82150536D01*
X114211759Y-82307769D01*
X114139392Y-82482478D01*
X114102500Y-82667948D01*
X114102500Y-82857052D01*
X114139392Y-83042522D01*
X114211759Y-83217231D01*
X114316819Y-83374464D01*
X114450536Y-83508181D01*
X114607769Y-83613241D01*
X114782478Y-83685608D01*
X114967948Y-83722500D01*
X115157052Y-83722500D01*
X115342522Y-83685608D01*
X115517231Y-83613241D01*
X115674464Y-83508181D01*
X115808181Y-83374464D01*
X115913241Y-83217231D01*
X115985608Y-83042522D01*
X116017472Y-82882329D01*
X116066033Y-82833768D01*
X116065001Y-82844248D01*
X116065000Y-84955751D01*
X116081423Y-85122498D01*
X116146324Y-85336446D01*
X116251716Y-85533623D01*
X116393551Y-85706449D01*
X116434433Y-85740000D01*
X115021944Y-85740000D01*
X114985303Y-85736391D01*
X114929731Y-85699259D01*
X114755022Y-85626892D01*
X114569552Y-85590000D01*
X114380448Y-85590000D01*
X114194978Y-85626892D01*
X114020269Y-85699259D01*
X113863036Y-85804319D01*
X113729319Y-85938036D01*
X113624259Y-86095269D01*
X113551892Y-86269978D01*
X113515000Y-86455448D01*
X113515000Y-86644552D01*
X113551892Y-86830022D01*
X113624259Y-87004731D01*
X113729319Y-87161964D01*
X113863036Y-87295681D01*
X114020269Y-87400741D01*
X114194978Y-87473108D01*
X114380448Y-87510000D01*
X114569552Y-87510000D01*
X114755022Y-87473108D01*
X114929731Y-87400741D01*
X115081713Y-87299189D01*
X115083605Y-87299003D01*
X115212183Y-87260000D01*
X125810199Y-87260000D01*
X130120028Y-91569830D01*
X130151892Y-91730022D01*
X130224259Y-91904731D01*
X130329319Y-92061964D01*
X130463036Y-92195681D01*
X130620269Y-92300741D01*
X130794978Y-92373108D01*
X130980448Y-92410000D01*
X131169552Y-92410000D01*
X131355022Y-92373108D01*
X131529731Y-92300741D01*
X131686964Y-92195681D01*
X131820681Y-92061964D01*
X131925741Y-91904731D01*
X131998108Y-91730022D01*
X132035000Y-91544552D01*
X132035000Y-91355448D01*
X131998108Y-91169978D01*
X131925741Y-90995269D01*
X131820681Y-90838036D01*
X131686964Y-90704319D01*
X131529731Y-90599259D01*
X131355022Y-90526892D01*
X131194830Y-90495028D01*
X126688804Y-85989003D01*
X126665001Y-85959999D01*
X126549276Y-85865026D01*
X126417247Y-85794454D01*
X126273986Y-85750997D01*
X126162333Y-85740000D01*
X126162322Y-85740000D01*
X126125000Y-85736324D01*
X126087678Y-85740000D01*
X117965567Y-85740000D01*
X118006449Y-85706449D01*
X118148284Y-85533623D01*
X118253676Y-85336447D01*
X118318577Y-85122499D01*
X118335000Y-84955752D01*
X118335000Y-83405448D01*
X132165000Y-83405448D01*
X132165000Y-83594552D01*
X132201892Y-83780022D01*
X132274259Y-83954731D01*
X132379319Y-84111964D01*
X132513036Y-84245681D01*
X132670269Y-84350741D01*
X132844978Y-84423108D01*
X133005171Y-84454972D01*
X136240001Y-87689803D01*
X136240000Y-90659466D01*
X136149259Y-90795269D01*
X136076892Y-90969978D01*
X136040000Y-91155448D01*
X136040000Y-91344552D01*
X136076892Y-91530022D01*
X136149259Y-91704731D01*
X136254319Y-91861964D01*
X136388036Y-91995681D01*
X136545269Y-92100741D01*
X136719978Y-92173108D01*
X136905448Y-92210000D01*
X137094552Y-92210000D01*
X137280022Y-92173108D01*
X137454731Y-92100741D01*
X137611964Y-91995681D01*
X137745681Y-91861964D01*
X137850741Y-91704731D01*
X137923108Y-91530022D01*
X137960000Y-91344552D01*
X137960000Y-91155448D01*
X137923108Y-90969978D01*
X137850741Y-90795269D01*
X137760000Y-90659466D01*
X137760000Y-87412333D01*
X137763677Y-87375000D01*
X137749003Y-87226014D01*
X137705546Y-87082753D01*
X137634974Y-86950724D01*
X137563799Y-86863997D01*
X137540001Y-86834999D01*
X137511003Y-86811201D01*
X135465002Y-84765200D01*
X142111324Y-84765200D01*
X142115000Y-84802523D01*
X142115001Y-90387668D01*
X142111324Y-90425000D01*
X142125998Y-90573985D01*
X142169454Y-90717246D01*
X142240026Y-90849276D01*
X142289861Y-90909999D01*
X142335000Y-90965001D01*
X142363998Y-90988799D01*
X144170028Y-92794830D01*
X144201892Y-92955022D01*
X144274259Y-93129731D01*
X144379319Y-93286964D01*
X144513036Y-93420681D01*
X144670269Y-93525741D01*
X144844978Y-93598108D01*
X145030448Y-93635000D01*
X145219552Y-93635000D01*
X145405022Y-93598108D01*
X145579731Y-93525741D01*
X145736964Y-93420681D01*
X145870681Y-93286964D01*
X145975741Y-93129731D01*
X146048108Y-92955022D01*
X146085000Y-92769552D01*
X146085000Y-92580448D01*
X146048108Y-92394978D01*
X145975741Y-92220269D01*
X145870681Y-92063036D01*
X145736964Y-91929319D01*
X145579731Y-91824259D01*
X145405022Y-91751892D01*
X145244830Y-91720028D01*
X143635000Y-90110199D01*
X143635000Y-86403272D01*
X144322800Y-86403272D01*
X144541432Y-86381739D01*
X144751663Y-86317966D01*
X144945412Y-86214405D01*
X145115235Y-86075035D01*
X145254605Y-85905212D01*
X145358166Y-85711463D01*
X145421939Y-85501232D01*
X145443472Y-85282600D01*
X145443472Y-83640879D01*
X147384419Y-83640879D01*
X147384419Y-83959121D01*
X147446505Y-84271248D01*
X147568291Y-84565265D01*
X147745096Y-84829873D01*
X147970127Y-85054904D01*
X148234735Y-85231709D01*
X148528752Y-85353495D01*
X148840879Y-85415581D01*
X149159121Y-85415581D01*
X149471248Y-85353495D01*
X149765265Y-85231709D01*
X150029873Y-85054904D01*
X150254904Y-84829873D01*
X150431709Y-84565265D01*
X150553495Y-84271248D01*
X150615581Y-83959121D01*
X150615581Y-83640879D01*
X150553495Y-83328752D01*
X150431709Y-83034735D01*
X150254904Y-82770127D01*
X150029873Y-82545096D01*
X149765265Y-82368291D01*
X149642404Y-82317400D01*
X150796728Y-82317400D01*
X150796728Y-85282600D01*
X150818261Y-85501232D01*
X150882034Y-85711463D01*
X150985595Y-85905212D01*
X151124965Y-86075035D01*
X151294788Y-86214405D01*
X151488537Y-86317966D01*
X151698768Y-86381739D01*
X151917400Y-86403272D01*
X152882600Y-86403272D01*
X153101232Y-86381739D01*
X153311463Y-86317966D01*
X153505212Y-86214405D01*
X153675035Y-86075035D01*
X153814405Y-85905212D01*
X153917966Y-85711463D01*
X153981739Y-85501232D01*
X154003272Y-85282600D01*
X154003272Y-85185824D01*
X154257256Y-85308851D01*
X154562296Y-85388279D01*
X154876971Y-85406670D01*
X155189188Y-85363318D01*
X155486948Y-85259888D01*
X155652428Y-85171438D01*
X155743989Y-84910594D01*
X154813000Y-83979605D01*
X154798858Y-83993748D01*
X154619253Y-83814143D01*
X154633395Y-83800000D01*
X154992605Y-83800000D01*
X155923594Y-84730989D01*
X156184438Y-84639428D01*
X156321851Y-84355744D01*
X156401279Y-84050704D01*
X156419670Y-83736029D01*
X156376318Y-83423812D01*
X156272888Y-83126052D01*
X156184438Y-82960572D01*
X155923594Y-82869011D01*
X154992605Y-83800000D01*
X154633395Y-83800000D01*
X154619253Y-83785858D01*
X154798858Y-83606253D01*
X154813000Y-83620395D01*
X155743989Y-82689406D01*
X155652428Y-82428562D01*
X155368744Y-82291149D01*
X155063704Y-82211721D01*
X154749029Y-82193330D01*
X154436812Y-82236682D01*
X154139052Y-82340112D01*
X154003272Y-82412687D01*
X154003272Y-82317400D01*
X153981739Y-82098768D01*
X153917966Y-81888537D01*
X153814405Y-81694788D01*
X153675035Y-81524965D01*
X153505212Y-81385595D01*
X153311463Y-81282034D01*
X153101232Y-81218261D01*
X152882600Y-81196728D01*
X151917400Y-81196728D01*
X151698768Y-81218261D01*
X151488537Y-81282034D01*
X151294788Y-81385595D01*
X151124965Y-81524965D01*
X150985595Y-81694788D01*
X150882034Y-81888537D01*
X150818261Y-82098768D01*
X150796728Y-82317400D01*
X149642404Y-82317400D01*
X149471248Y-82246505D01*
X149159121Y-82184419D01*
X148840879Y-82184419D01*
X148528752Y-82246505D01*
X148234735Y-82368291D01*
X147970127Y-82545096D01*
X147745096Y-82770127D01*
X147568291Y-83034735D01*
X147446505Y-83328752D01*
X147384419Y-83640879D01*
X145443472Y-83640879D01*
X145443472Y-82317400D01*
X145421939Y-82098768D01*
X145358166Y-81888537D01*
X145254605Y-81694788D01*
X145115235Y-81524965D01*
X144945412Y-81385595D01*
X144751663Y-81282034D01*
X144541432Y-81218261D01*
X144322800Y-81196728D01*
X143357600Y-81196728D01*
X143138968Y-81218261D01*
X142928737Y-81282034D01*
X142734988Y-81385595D01*
X142565165Y-81524965D01*
X142425795Y-81694788D01*
X142322234Y-81888537D01*
X142258461Y-82098768D01*
X142236928Y-82317400D01*
X142236928Y-84346720D01*
X142176378Y-84460000D01*
X142169454Y-84472954D01*
X142125997Y-84616215D01*
X142115000Y-84727868D01*
X142115000Y-84727878D01*
X142111324Y-84765200D01*
X135465002Y-84765200D01*
X134079972Y-83380171D01*
X134048108Y-83219978D01*
X133975741Y-83045269D01*
X133870681Y-82888036D01*
X133736964Y-82754319D01*
X133579731Y-82649259D01*
X133405022Y-82576892D01*
X133219552Y-82540000D01*
X133030448Y-82540000D01*
X132844978Y-82576892D01*
X132670269Y-82649259D01*
X132513036Y-82754319D01*
X132379319Y-82888036D01*
X132274259Y-83045269D01*
X132201892Y-83219978D01*
X132165000Y-83405448D01*
X118335000Y-83405448D01*
X118335000Y-82844248D01*
X118318577Y-82677501D01*
X118282933Y-82560000D01*
X131997297Y-82560000D01*
X132034619Y-82563676D01*
X132071941Y-82560000D01*
X132071952Y-82560000D01*
X132183605Y-82549003D01*
X132326866Y-82505546D01*
X132458895Y-82434974D01*
X132574620Y-82340001D01*
X132598422Y-82310998D01*
X133086002Y-81823419D01*
X133115001Y-81799620D01*
X133147919Y-81759509D01*
X133209974Y-81683896D01*
X133280546Y-81551866D01*
X133302180Y-81480546D01*
X133324003Y-81408605D01*
X133324189Y-81406713D01*
X133425741Y-81254731D01*
X133498108Y-81080022D01*
X133535000Y-80894552D01*
X133535000Y-80705448D01*
X133498108Y-80519978D01*
X133425741Y-80345269D01*
X133320681Y-80188036D01*
X133186964Y-80054319D01*
X133029731Y-79949259D01*
X132855022Y-79876892D01*
X132669552Y-79840000D01*
X132480448Y-79840000D01*
X132294978Y-79876892D01*
X132120269Y-79949259D01*
X131963036Y-80054319D01*
X131829319Y-80188036D01*
X131783352Y-80256830D01*
X131720681Y-80163036D01*
X131586964Y-80029319D01*
X131429731Y-79924259D01*
X131255022Y-79851892D01*
X131069552Y-79815000D01*
X130880448Y-79815000D01*
X130694978Y-79851892D01*
X130520269Y-79924259D01*
X130384466Y-80015000D01*
X124839802Y-80015000D01*
X121563804Y-76739003D01*
X121540001Y-76709999D01*
X121424276Y-76615026D01*
X121292247Y-76544454D01*
X121148986Y-76500997D01*
X121037333Y-76490000D01*
X121037322Y-76490000D01*
X121000000Y-76486324D01*
X120962678Y-76490000D01*
X110790534Y-76490000D01*
X110654731Y-76399259D01*
X110480022Y-76326892D01*
X110294552Y-76290000D01*
X110105448Y-76290000D01*
X109919978Y-76326892D01*
X109745269Y-76399259D01*
X109588036Y-76504319D01*
X109454319Y-76638036D01*
X109349259Y-76795269D01*
X109276892Y-76969978D01*
X109240000Y-77155448D01*
X85797000Y-77155448D01*
X85797000Y-76547082D01*
X85814395Y-76370556D01*
X85864093Y-76206818D01*
X85944790Y-76055940D01*
X86053390Y-75923710D01*
X86185710Y-75815221D01*
X86336658Y-75734649D01*
X86500432Y-75685090D01*
X86676971Y-75667843D01*
X156364492Y-75726159D01*
X156364492Y-75726159D01*
G37*
X156364492Y-75726159D02*
X156540823Y-75743665D01*
X156704354Y-75793393D01*
X156855048Y-75874053D01*
X156987129Y-75982553D01*
X157095514Y-76114719D01*
X157176051Y-76265486D01*
X157205445Y-76362440D01*
X157213195Y-105379420D01*
X157132503Y-105281097D01*
X156828725Y-105031793D01*
X156482146Y-104846543D01*
X156106087Y-104732467D01*
X155715000Y-104693948D01*
X155323912Y-104732467D01*
X154947853Y-104846543D01*
X154601275Y-105031793D01*
X154297497Y-105281097D01*
X154048193Y-105584875D01*
X153862943Y-105931454D01*
X153748867Y-106307513D01*
X153720000Y-106600603D01*
X153720000Y-107316598D01*
X153748867Y-107609688D01*
X153862943Y-107985747D01*
X154048193Y-108332325D01*
X154297498Y-108636103D01*
X154601276Y-108885407D01*
X154947854Y-109070657D01*
X155323913Y-109184733D01*
X155715000Y-109223252D01*
X156106088Y-109184733D01*
X156482147Y-109070657D01*
X156828725Y-108885407D01*
X157132503Y-108636103D01*
X157214038Y-108536752D01*
X157214593Y-110616552D01*
X157175978Y-110743850D01*
X157095362Y-110894672D01*
X156986870Y-111026870D01*
X156854672Y-111135362D01*
X156703850Y-111215978D01*
X156540189Y-111265624D01*
X156363766Y-111283000D01*
X86676234Y-111283000D01*
X86499811Y-111265624D01*
X86336150Y-111215978D01*
X86185328Y-111135362D01*
X86053130Y-111026870D01*
X85944638Y-110894672D01*
X85864022Y-110743850D01*
X85814376Y-110580189D01*
X85797000Y-110403766D01*
X85797000Y-107768362D01*
X85862943Y-107985747D01*
X86048193Y-108332325D01*
X86297498Y-108636103D01*
X86601276Y-108885407D01*
X86947854Y-109070657D01*
X87323913Y-109184733D01*
X87715000Y-109223252D01*
X88106088Y-109184733D01*
X88482147Y-109070657D01*
X88828725Y-108885407D01*
X89132503Y-108636103D01*
X89381807Y-108332325D01*
X89567057Y-107985747D01*
X89681133Y-107609687D01*
X89710000Y-107316597D01*
X89710000Y-106600602D01*
X89681133Y-106307512D01*
X89567057Y-105931453D01*
X89381807Y-105584875D01*
X89132503Y-105281097D01*
X88828725Y-105031793D01*
X88482146Y-104846543D01*
X88106087Y-104732467D01*
X87715000Y-104693948D01*
X87323912Y-104732467D01*
X86947853Y-104846543D01*
X86601275Y-105031793D01*
X86297497Y-105281097D01*
X86048193Y-105584875D01*
X85862943Y-105931454D01*
X85797000Y-106148839D01*
X85797000Y-99473600D01*
X86686324Y-99473600D01*
X86690001Y-99510932D01*
X86690000Y-101312677D01*
X86686324Y-101350000D01*
X86690000Y-101387322D01*
X86690000Y-101387332D01*
X86700997Y-101498985D01*
X86728606Y-101590001D01*
X86744454Y-101642246D01*
X86815026Y-101774276D01*
X86836137Y-101799999D01*
X86909999Y-101890001D01*
X86939003Y-101913804D01*
X89986200Y-104961002D01*
X90009999Y-104990001D01*
X90038997Y-105013799D01*
X90125723Y-105084974D01*
X90257753Y-105155546D01*
X90401014Y-105199003D01*
X90512667Y-105210000D01*
X90512676Y-105210000D01*
X90549999Y-105213676D01*
X90587322Y-105210000D01*
X95884129Y-105210000D01*
X95797497Y-105281097D01*
X95548193Y-105584875D01*
X95362943Y-105931454D01*
X95248867Y-106307513D01*
X95220000Y-106600603D01*
X95220000Y-107316598D01*
X95248867Y-107609688D01*
X95362943Y-107985747D01*
X95548193Y-108332325D01*
X95797498Y-108636103D01*
X96101276Y-108885407D01*
X96447854Y-109070657D01*
X96823913Y-109184733D01*
X97215000Y-109223252D01*
X97606088Y-109184733D01*
X97982147Y-109070657D01*
X98328725Y-108885407D01*
X98632503Y-108636103D01*
X98881807Y-108332325D01*
X99067057Y-107985747D01*
X99181133Y-107609687D01*
X99210000Y-107316597D01*
X99210000Y-106600602D01*
X99181133Y-106307512D01*
X99067057Y-105931453D01*
X98881807Y-105584875D01*
X98632503Y-105281097D01*
X98545871Y-105210000D01*
X103518833Y-105210000D01*
X103422697Y-105288897D01*
X103173393Y-105592675D01*
X102988143Y-105939254D01*
X102874067Y-106315313D01*
X102845200Y-106608403D01*
X102845200Y-107324398D01*
X102874067Y-107617488D01*
X102988143Y-107993547D01*
X103173393Y-108340125D01*
X103422698Y-108643903D01*
X103726476Y-108893207D01*
X104073054Y-109078457D01*
X104449113Y-109192533D01*
X104840200Y-109231052D01*
X105231288Y-109192533D01*
X105607347Y-109078457D01*
X105953925Y-108893207D01*
X106257703Y-108643903D01*
X106507007Y-108340125D01*
X106692257Y-107993547D01*
X106806333Y-107617487D01*
X106835200Y-107324397D01*
X106835200Y-106608402D01*
X106806333Y-106315312D01*
X106692257Y-105939253D01*
X106507007Y-105592675D01*
X106257703Y-105288897D01*
X106161567Y-105210000D01*
X113018833Y-105210000D01*
X112922697Y-105288897D01*
X112673393Y-105592675D01*
X112488143Y-105939254D01*
X112374067Y-106315313D01*
X112345200Y-106608403D01*
X112345200Y-107324398D01*
X112374067Y-107617488D01*
X112488143Y-107993547D01*
X112673393Y-108340125D01*
X112922698Y-108643903D01*
X113226476Y-108893207D01*
X113573054Y-109078457D01*
X113949113Y-109192533D01*
X114340200Y-109231052D01*
X114731288Y-109192533D01*
X115107347Y-109078457D01*
X115453925Y-108893207D01*
X115757703Y-108643903D01*
X116007007Y-108340125D01*
X116192257Y-107993547D01*
X116306333Y-107617487D01*
X116335200Y-107324397D01*
X116335200Y-106608402D01*
X116306333Y-106315312D01*
X116192257Y-105939253D01*
X116007007Y-105592675D01*
X115757703Y-105288897D01*
X115661567Y-105210000D01*
X120728933Y-105210000D01*
X120694697Y-105238097D01*
X120445393Y-105541875D01*
X120260143Y-105888454D01*
X120146067Y-106264513D01*
X120117200Y-106557603D01*
X120117200Y-107273598D01*
X120146067Y-107566688D01*
X120260143Y-107942747D01*
X120445393Y-108289325D01*
X120694698Y-108593103D01*
X120998476Y-108842407D01*
X121345054Y-109027657D01*
X121721113Y-109141733D01*
X122112200Y-109180252D01*
X122503288Y-109141733D01*
X122879347Y-109027657D01*
X123225925Y-108842407D01*
X123529703Y-108593103D01*
X123779007Y-108289325D01*
X123964257Y-107942747D01*
X124078333Y-107566687D01*
X124107200Y-107273597D01*
X124107200Y-106557602D01*
X124078333Y-106264512D01*
X123964257Y-105888453D01*
X123779007Y-105541875D01*
X123529703Y-105238097D01*
X123495467Y-105210000D01*
X130228933Y-105210000D01*
X130194697Y-105238097D01*
X129945393Y-105541875D01*
X129760143Y-105888454D01*
X129646067Y-106264513D01*
X129617200Y-106557603D01*
X129617200Y-107273598D01*
X129646067Y-107566688D01*
X129760143Y-107942747D01*
X129945393Y-108289325D01*
X130194698Y-108593103D01*
X130498476Y-108842407D01*
X130845054Y-109027657D01*
X131221113Y-109141733D01*
X131612200Y-109180252D01*
X132003288Y-109141733D01*
X132379347Y-109027657D01*
X132725925Y-108842407D01*
X133029703Y-108593103D01*
X133279007Y-108289325D01*
X133464257Y-107942747D01*
X133578333Y-107566687D01*
X133607200Y-107273597D01*
X133607200Y-106557602D01*
X133578333Y-106264512D01*
X133562493Y-106212294D01*
X136469802Y-109119604D01*
X136493600Y-109148602D01*
X136522598Y-109172400D01*
X136609324Y-109243575D01*
X136741354Y-109314147D01*
X136884615Y-109357604D01*
X136996268Y-109368601D01*
X136996278Y-109368601D01*
X137033601Y-109372277D01*
X137070924Y-109368601D01*
X139314077Y-109368601D01*
X139351399Y-109372277D01*
X139388721Y-109368601D01*
X139388732Y-109368601D01*
X139500385Y-109357604D01*
X139643646Y-109314147D01*
X139775675Y-109243575D01*
X139891400Y-109148602D01*
X139915203Y-109119598D01*
X140163100Y-108871701D01*
X140246223Y-108896916D01*
X140466381Y-108918600D01*
X140613619Y-108918600D01*
X140833777Y-108896916D01*
X141116264Y-108811225D01*
X141376606Y-108672069D01*
X141604797Y-108484797D01*
X141792069Y-108256606D01*
X141931225Y-107996264D01*
X142016916Y-107713777D01*
X142045851Y-107420000D01*
X142016916Y-107126223D01*
X141931225Y-106843736D01*
X141801268Y-106600603D01*
X144220000Y-106600603D01*
X144220000Y-107316598D01*
X144248867Y-107609688D01*
X144362943Y-107985747D01*
X144548193Y-108332325D01*
X144797498Y-108636103D01*
X145101276Y-108885407D01*
X145447854Y-109070657D01*
X145823913Y-109184733D01*
X146215000Y-109223252D01*
X146606088Y-109184733D01*
X146982147Y-109070657D01*
X147328725Y-108885407D01*
X147632503Y-108636103D01*
X147881807Y-108332325D01*
X148067057Y-107985747D01*
X148181133Y-107609687D01*
X148210000Y-107316597D01*
X148210000Y-106600602D01*
X148181133Y-106307512D01*
X148067057Y-105931453D01*
X147881807Y-105584875D01*
X147632503Y-105281097D01*
X147328725Y-105031793D01*
X146982146Y-104846543D01*
X146606087Y-104732467D01*
X146215000Y-104693948D01*
X145823912Y-104732467D01*
X145447853Y-104846543D01*
X145101275Y-105031793D01*
X144797497Y-105281097D01*
X144548193Y-105584875D01*
X144362943Y-105931454D01*
X144248867Y-106307513D01*
X144220000Y-106600603D01*
X141801268Y-106600603D01*
X141792069Y-106583394D01*
X141604797Y-106355203D01*
X141376606Y-106167931D01*
X141343060Y-106150000D01*
X141376606Y-106132069D01*
X141604797Y-105944797D01*
X141792069Y-105716606D01*
X141931225Y-105456264D01*
X142016916Y-105173777D01*
X142045851Y-104880000D01*
X142016916Y-104586223D01*
X141931225Y-104303736D01*
X141792069Y-104043394D01*
X141604797Y-103815203D01*
X141376606Y-103627931D01*
X141332090Y-103604137D01*
X141428488Y-103546817D01*
X141646854Y-103350293D01*
X141822684Y-103114944D01*
X141949222Y-102849814D01*
X141994958Y-102699026D01*
X141873817Y-102467000D01*
X140667000Y-102467000D01*
X140667000Y-102487000D01*
X140413000Y-102487000D01*
X140413000Y-102467000D01*
X140393000Y-102467000D01*
X140393000Y-102213000D01*
X140413000Y-102213000D01*
X140413000Y-99927000D01*
X140667000Y-99927000D01*
X140667000Y-102213000D01*
X141873817Y-102213000D01*
X141994958Y-101980974D01*
X141949222Y-101830186D01*
X141822684Y-101565056D01*
X141646854Y-101329707D01*
X141428488Y-101133183D01*
X141322230Y-101070000D01*
X141428488Y-101006817D01*
X141646854Y-100810293D01*
X141822684Y-100574944D01*
X141949222Y-100309814D01*
X141994958Y-100159026D01*
X141873817Y-99927000D01*
X140667000Y-99927000D01*
X140413000Y-99927000D01*
X140393000Y-99927000D01*
X140393000Y-99673000D01*
X140413000Y-99673000D01*
X140413000Y-98465536D01*
X140667000Y-98465536D01*
X140667000Y-99673000D01*
X141873817Y-99673000D01*
X141994958Y-99440974D01*
X141949222Y-99290186D01*
X141822684Y-99025056D01*
X141646854Y-98789707D01*
X141428488Y-98593183D01*
X141175978Y-98443036D01*
X140899027Y-98345037D01*
X140667000Y-98465536D01*
X140413000Y-98465536D01*
X140180973Y-98345037D01*
X139904022Y-98443036D01*
X139651512Y-98593183D01*
X139472053Y-98754692D01*
X139453102Y-98692220D01*
X139394137Y-98581906D01*
X139314785Y-98485215D01*
X139218094Y-98405863D01*
X139107780Y-98346898D01*
X138988082Y-98310588D01*
X138863600Y-98298328D01*
X137136400Y-98298328D01*
X137011918Y-98310588D01*
X136892220Y-98346898D01*
X136781906Y-98405863D01*
X136685215Y-98485215D01*
X136605863Y-98581906D01*
X136546898Y-98692220D01*
X136510588Y-98811918D01*
X136498328Y-98936400D01*
X136498328Y-99040000D01*
X136462323Y-99040000D01*
X136425000Y-99036324D01*
X136387677Y-99040000D01*
X136387667Y-99040000D01*
X136276014Y-99050997D01*
X136144799Y-99090800D01*
X136132753Y-99094454D01*
X136000723Y-99165026D01*
X135980829Y-99181353D01*
X135884999Y-99259999D01*
X135861201Y-99288997D01*
X134860199Y-100290000D01*
X130900144Y-100290000D01*
X130897200Y-99701350D01*
X130738450Y-99542600D01*
X129489200Y-99542600D01*
X129489200Y-99562600D01*
X129235200Y-99562600D01*
X129235200Y-99542600D01*
X129215200Y-99542600D01*
X129215200Y-99288600D01*
X129235200Y-99288600D01*
X129235200Y-99268600D01*
X129489200Y-99268600D01*
X129489200Y-99288600D01*
X130738450Y-99288600D01*
X130897200Y-99129850D01*
X130900272Y-98515600D01*
X130888012Y-98391118D01*
X130851702Y-98271420D01*
X130792737Y-98161106D01*
X130713385Y-98064415D01*
X130616694Y-97985063D01*
X130523176Y-97935076D01*
X130542230Y-97916022D01*
X130426282Y-97800074D01*
X130680461Y-97716392D01*
X130811358Y-97443825D01*
X130886565Y-97150958D01*
X130903191Y-96849047D01*
X130860597Y-96549693D01*
X130760422Y-96264401D01*
X130680461Y-96114808D01*
X130426280Y-96031125D01*
X129541805Y-96915600D01*
X129555948Y-96929743D01*
X129376343Y-97109348D01*
X129362200Y-97095205D01*
X129348058Y-97109348D01*
X129168453Y-96929743D01*
X129182595Y-96915600D01*
X129168453Y-96901458D01*
X129348058Y-96721853D01*
X129362200Y-96735995D01*
X130246675Y-95851520D01*
X130208314Y-95735000D01*
X135785199Y-95735000D01*
X137411205Y-97361008D01*
X137434999Y-97390001D01*
X137463992Y-97413795D01*
X137463996Y-97413799D01*
X137531994Y-97469603D01*
X137550724Y-97484974D01*
X137682753Y-97555546D01*
X137826014Y-97599003D01*
X137937667Y-97610000D01*
X137937676Y-97610000D01*
X137974999Y-97613676D01*
X138012322Y-97610000D01*
X142935199Y-97610000D01*
X145294805Y-99969608D01*
X145318599Y-99998601D01*
X145347592Y-100022395D01*
X145347596Y-100022399D01*
X145401154Y-100066352D01*
X145434324Y-100093574D01*
X145566353Y-100164146D01*
X145709614Y-100207603D01*
X145821267Y-100218600D01*
X145821276Y-100218600D01*
X145858599Y-100222276D01*
X145895922Y-100218600D01*
X147126687Y-100218600D01*
X147272688Y-100437105D01*
X147486495Y-100650912D01*
X147737905Y-100818899D01*
X148017257Y-100934611D01*
X148313816Y-100993600D01*
X148616184Y-100993600D01*
X148912743Y-100934611D01*
X149192095Y-100818899D01*
X149443505Y-100650912D01*
X149657312Y-100437105D01*
X149715000Y-100350769D01*
X149772688Y-100437105D01*
X149986495Y-100650912D01*
X150237905Y-100818899D01*
X150517257Y-100934611D01*
X150813816Y-100993600D01*
X151116184Y-100993600D01*
X151412743Y-100934611D01*
X151692095Y-100818899D01*
X151943505Y-100650912D01*
X151981120Y-100613297D01*
X152034463Y-100713094D01*
X152113815Y-100809785D01*
X152210506Y-100889137D01*
X152320820Y-100948102D01*
X152440518Y-100984412D01*
X152565000Y-100996672D01*
X153179250Y-100993600D01*
X153338000Y-100834850D01*
X153338000Y-99585600D01*
X153592000Y-99585600D01*
X153592000Y-100834850D01*
X153750750Y-100993600D01*
X154365000Y-100996672D01*
X154489482Y-100984412D01*
X154609180Y-100948102D01*
X154719494Y-100889137D01*
X154816185Y-100809785D01*
X154895537Y-100713094D01*
X154954502Y-100602780D01*
X154990812Y-100483082D01*
X155003072Y-100358600D01*
X155000000Y-99744350D01*
X154841250Y-99585600D01*
X153592000Y-99585600D01*
X153338000Y-99585600D01*
X153318000Y-99585600D01*
X153318000Y-99331600D01*
X153338000Y-99331600D01*
X153338000Y-99311600D01*
X153592000Y-99311600D01*
X153592000Y-99331600D01*
X154841250Y-99331600D01*
X155000000Y-99172850D01*
X155003072Y-98558600D01*
X154990812Y-98434118D01*
X154954502Y-98314420D01*
X154895537Y-98204106D01*
X154816185Y-98107415D01*
X154719494Y-98028063D01*
X154625976Y-97978076D01*
X154645030Y-97959022D01*
X154529082Y-97843074D01*
X154783261Y-97759392D01*
X154914158Y-97486825D01*
X154989365Y-97193958D01*
X155005991Y-96892047D01*
X154963397Y-96592693D01*
X154863222Y-96307401D01*
X154783261Y-96157808D01*
X154529080Y-96074125D01*
X153644605Y-96958600D01*
X153658748Y-96972743D01*
X153479143Y-97152348D01*
X153465000Y-97138205D01*
X153450858Y-97152348D01*
X153271253Y-96972743D01*
X153285395Y-96958600D01*
X152400920Y-96074125D01*
X152252738Y-96122910D01*
X152157312Y-95980095D01*
X152071737Y-95894520D01*
X152580525Y-95894520D01*
X153465000Y-96778995D01*
X154349475Y-95894520D01*
X154265792Y-95640339D01*
X153993225Y-95509442D01*
X153700358Y-95434235D01*
X153398447Y-95417609D01*
X153099093Y-95460203D01*
X152813801Y-95560378D01*
X152664208Y-95640339D01*
X152580525Y-95894520D01*
X152071737Y-95894520D01*
X151943505Y-95766288D01*
X151692095Y-95598301D01*
X151412743Y-95482589D01*
X151116184Y-95423600D01*
X150813816Y-95423600D01*
X150517257Y-95482589D01*
X150237905Y-95598301D01*
X149986495Y-95766288D01*
X149772688Y-95980095D01*
X149715000Y-96066431D01*
X149657312Y-95980095D01*
X149443505Y-95766288D01*
X149192095Y-95598301D01*
X148912743Y-95482589D01*
X148616184Y-95423600D01*
X148313816Y-95423600D01*
X148052565Y-95475566D01*
X147989277Y-95423627D01*
X147857248Y-95353055D01*
X147713987Y-95309598D01*
X147602334Y-95298601D01*
X147602323Y-95298601D01*
X147565001Y-95294925D01*
X147527679Y-95298601D01*
X140898403Y-95298601D01*
X138063804Y-92464003D01*
X138040001Y-92434999D01*
X137924276Y-92340026D01*
X137792247Y-92269454D01*
X137648986Y-92225997D01*
X137537333Y-92215000D01*
X137537322Y-92215000D01*
X137500000Y-92211324D01*
X137462678Y-92215000D01*
X136355923Y-92215000D01*
X136318600Y-92211324D01*
X136281277Y-92215000D01*
X136281267Y-92215000D01*
X136169614Y-92225997D01*
X136051585Y-92261800D01*
X135977248Y-92261800D01*
X135791778Y-92298692D01*
X135617069Y-92371059D01*
X135459836Y-92476119D01*
X135326119Y-92609836D01*
X135221059Y-92767069D01*
X135148692Y-92941778D01*
X135111800Y-93127248D01*
X135111800Y-93316352D01*
X135148692Y-93501822D01*
X135221059Y-93676531D01*
X135326119Y-93833764D01*
X135459836Y-93967481D01*
X135617069Y-94072541D01*
X135791778Y-94144908D01*
X135977248Y-94181800D01*
X136166352Y-94181800D01*
X136351822Y-94144908D01*
X136526531Y-94072541D01*
X136683764Y-93967481D01*
X136817481Y-93833764D01*
X136883473Y-93735000D01*
X137185199Y-93735000D01*
X139540198Y-96090000D01*
X138289803Y-96090000D01*
X136663803Y-94464002D01*
X136640001Y-94434999D01*
X136524276Y-94340026D01*
X136392247Y-94269454D01*
X136248986Y-94225997D01*
X136137333Y-94215000D01*
X136137322Y-94215000D01*
X136100000Y-94211324D01*
X136062678Y-94215000D01*
X131533111Y-94215000D01*
X131579846Y-94127566D01*
X131623303Y-93984305D01*
X131623489Y-93982413D01*
X131725041Y-93830431D01*
X131797408Y-93655722D01*
X131834300Y-93470252D01*
X131834300Y-93281148D01*
X131797408Y-93095678D01*
X131725041Y-92920969D01*
X131619981Y-92763736D01*
X131486264Y-92630019D01*
X131329031Y-92524959D01*
X131154322Y-92452592D01*
X130968852Y-92415700D01*
X130779748Y-92415700D01*
X130594278Y-92452592D01*
X130419569Y-92524959D01*
X130262336Y-92630019D01*
X130128619Y-92763736D01*
X130023559Y-92920969D01*
X129951192Y-93095678D01*
X129947349Y-93115000D01*
X127819354Y-93115000D01*
X127789085Y-93111454D01*
X127744702Y-93115000D01*
X127737667Y-93115000D01*
X127707443Y-93117977D01*
X127639853Y-93123377D01*
X127633052Y-93125304D01*
X127626014Y-93125997D01*
X127561083Y-93145693D01*
X127495816Y-93164184D01*
X127489521Y-93167401D01*
X127482753Y-93169454D01*
X127422910Y-93201441D01*
X127362507Y-93232309D01*
X127356959Y-93236693D01*
X127350724Y-93240026D01*
X127298292Y-93283056D01*
X127274482Y-93301872D01*
X127269421Y-93306749D01*
X127234999Y-93334999D01*
X127215662Y-93358562D01*
X126668379Y-93886019D01*
X123566304Y-93886019D01*
X123528981Y-93882343D01*
X123491658Y-93886019D01*
X123491648Y-93886019D01*
X123379995Y-93897016D01*
X123236734Y-93940473D01*
X123104705Y-94011045D01*
X122988980Y-94106018D01*
X122965182Y-94135016D01*
X120860199Y-96240000D01*
X115465534Y-96240000D01*
X115329731Y-96149259D01*
X115155022Y-96076892D01*
X114969552Y-96040000D01*
X114780448Y-96040000D01*
X114594978Y-96076892D01*
X114420269Y-96149259D01*
X114263036Y-96254319D01*
X114129319Y-96388036D01*
X114024259Y-96545269D01*
X113951892Y-96719978D01*
X113915000Y-96905448D01*
X113915000Y-97094552D01*
X113951892Y-97280022D01*
X114024259Y-97454731D01*
X114129319Y-97611964D01*
X114263036Y-97745681D01*
X114420269Y-97850741D01*
X114594978Y-97923108D01*
X114780448Y-97960000D01*
X114969552Y-97960000D01*
X115155022Y-97923108D01*
X115329731Y-97850741D01*
X115465534Y-97760000D01*
X121137678Y-97760000D01*
X121175000Y-97763676D01*
X121212322Y-97760000D01*
X121212333Y-97760000D01*
X121323986Y-97749003D01*
X121467247Y-97705546D01*
X121599276Y-97634974D01*
X121715001Y-97540001D01*
X121738804Y-97510997D01*
X122959902Y-96289900D01*
X122886189Y-96467857D01*
X122827200Y-96764416D01*
X122827200Y-97066784D01*
X122886189Y-97363343D01*
X123001901Y-97642695D01*
X123169888Y-97894105D01*
X123383695Y-98107912D01*
X123470031Y-98165600D01*
X123383695Y-98223288D01*
X123169888Y-98437095D01*
X123001901Y-98688505D01*
X122886189Y-98967857D01*
X122827200Y-99264416D01*
X122827200Y-99566784D01*
X122886189Y-99863343D01*
X123001901Y-100142695D01*
X123169888Y-100394105D01*
X123383695Y-100607912D01*
X123635105Y-100775899D01*
X123914457Y-100891611D01*
X124211016Y-100950600D01*
X124513384Y-100950600D01*
X124771130Y-100899331D01*
X125023401Y-101151603D01*
X125047200Y-101180602D01*
X125076198Y-101204400D01*
X125095165Y-101219966D01*
X125436196Y-101560997D01*
X125451791Y-101580000D01*
X110278602Y-101580000D01*
X109700002Y-101001400D01*
X109741384Y-101001400D01*
X110037943Y-100942411D01*
X110317295Y-100826699D01*
X110568705Y-100658712D01*
X110606320Y-100621097D01*
X110659663Y-100720894D01*
X110739015Y-100817585D01*
X110835706Y-100896937D01*
X110946020Y-100955902D01*
X111065718Y-100992212D01*
X111190200Y-101004472D01*
X111804450Y-101001400D01*
X111963200Y-100842650D01*
X111963200Y-99593400D01*
X112217200Y-99593400D01*
X112217200Y-100842650D01*
X112375950Y-101001400D01*
X112990200Y-101004472D01*
X113114682Y-100992212D01*
X113234380Y-100955902D01*
X113344694Y-100896937D01*
X113441385Y-100817585D01*
X113520737Y-100720894D01*
X113579702Y-100610580D01*
X113616012Y-100490882D01*
X113628272Y-100366400D01*
X113625200Y-99752150D01*
X113466450Y-99593400D01*
X112217200Y-99593400D01*
X111963200Y-99593400D01*
X111943200Y-99593400D01*
X111943200Y-99339400D01*
X111963200Y-99339400D01*
X111963200Y-99319400D01*
X112217200Y-99319400D01*
X112217200Y-99339400D01*
X113466450Y-99339400D01*
X113625200Y-99180650D01*
X113628272Y-98566400D01*
X113616012Y-98441918D01*
X113579702Y-98322220D01*
X113520737Y-98211906D01*
X113441385Y-98115215D01*
X113344694Y-98035863D01*
X113251176Y-97985876D01*
X113270230Y-97966822D01*
X113154282Y-97850874D01*
X113408461Y-97767192D01*
X113539358Y-97494625D01*
X113614565Y-97201758D01*
X113631191Y-96899847D01*
X113588597Y-96600493D01*
X113488422Y-96315201D01*
X113408461Y-96165608D01*
X113154280Y-96081925D01*
X112269805Y-96966400D01*
X112283948Y-96980543D01*
X112104343Y-97160148D01*
X112090200Y-97146005D01*
X112076058Y-97160148D01*
X111896453Y-96980543D01*
X111910595Y-96966400D01*
X111026120Y-96081925D01*
X110877938Y-96130710D01*
X110782512Y-95987895D01*
X110696937Y-95902320D01*
X111205725Y-95902320D01*
X112090200Y-96786795D01*
X112974675Y-95902320D01*
X112890992Y-95648139D01*
X112618425Y-95517242D01*
X112325558Y-95442035D01*
X112023647Y-95425409D01*
X111724293Y-95468003D01*
X111439001Y-95568178D01*
X111289408Y-95648139D01*
X111205725Y-95902320D01*
X110696937Y-95902320D01*
X110568705Y-95774088D01*
X110317295Y-95606101D01*
X110037943Y-95490389D01*
X109741384Y-95431400D01*
X109439016Y-95431400D01*
X109142457Y-95490389D01*
X108863105Y-95606101D01*
X108611695Y-95774088D01*
X108397888Y-95987895D01*
X108340200Y-96074231D01*
X108282512Y-95987895D01*
X108068705Y-95774088D01*
X107817295Y-95606101D01*
X107537943Y-95490389D01*
X107241384Y-95431400D01*
X106939016Y-95431400D01*
X106642457Y-95490389D01*
X106363105Y-95606101D01*
X106111695Y-95774088D01*
X105897888Y-95987895D01*
X105729901Y-96239305D01*
X105614189Y-96518657D01*
X105555200Y-96815216D01*
X105555200Y-97117584D01*
X105606469Y-97375330D01*
X104454803Y-98526996D01*
X104425799Y-98550799D01*
X104391016Y-98593183D01*
X104330826Y-98666524D01*
X104280405Y-98760854D01*
X104260254Y-98798554D01*
X104216797Y-98941815D01*
X104205800Y-99053468D01*
X104205800Y-99053478D01*
X104202124Y-99090800D01*
X104205800Y-99128123D01*
X104205801Y-100528468D01*
X104202124Y-100565800D01*
X104205801Y-100603133D01*
X104206535Y-100610580D01*
X104216798Y-100714785D01*
X104260254Y-100858046D01*
X104330826Y-100990076D01*
X104402001Y-101076802D01*
X104425800Y-101105801D01*
X104454798Y-101129599D01*
X106215208Y-102890010D01*
X94471212Y-102890010D01*
X92574801Y-100993600D01*
X92616184Y-100993600D01*
X92912743Y-100934611D01*
X93192095Y-100818899D01*
X93443505Y-100650912D01*
X93481120Y-100613297D01*
X93534463Y-100713094D01*
X93613815Y-100809785D01*
X93710506Y-100889137D01*
X93820820Y-100948102D01*
X93940518Y-100984412D01*
X94065000Y-100996672D01*
X94679250Y-100993600D01*
X94838000Y-100834850D01*
X94838000Y-99585600D01*
X95092000Y-99585600D01*
X95092000Y-100834850D01*
X95250750Y-100993600D01*
X95865000Y-100996672D01*
X95989482Y-100984412D01*
X96109180Y-100948102D01*
X96219494Y-100889137D01*
X96316185Y-100809785D01*
X96395537Y-100713094D01*
X96454502Y-100602780D01*
X96490812Y-100483082D01*
X96503072Y-100358600D01*
X96500000Y-99744350D01*
X96341250Y-99585600D01*
X95092000Y-99585600D01*
X94838000Y-99585600D01*
X94818000Y-99585600D01*
X94818000Y-99331600D01*
X94838000Y-99331600D01*
X94838000Y-99311600D01*
X95092000Y-99311600D01*
X95092000Y-99331600D01*
X96341250Y-99331600D01*
X96500000Y-99172850D01*
X96503072Y-98558600D01*
X96490812Y-98434118D01*
X96454502Y-98314420D01*
X96395537Y-98204106D01*
X96316185Y-98107415D01*
X96219494Y-98028063D01*
X96125976Y-97978076D01*
X96145030Y-97959022D01*
X96029082Y-97843074D01*
X96283261Y-97759392D01*
X96414158Y-97486825D01*
X96489365Y-97193958D01*
X96505991Y-96892047D01*
X96463397Y-96592693D01*
X96363222Y-96307401D01*
X96283261Y-96157808D01*
X96029080Y-96074125D01*
X95144605Y-96958600D01*
X95158748Y-96972743D01*
X94979143Y-97152348D01*
X94965000Y-97138205D01*
X94950858Y-97152348D01*
X94771253Y-96972743D01*
X94785395Y-96958600D01*
X93900920Y-96074125D01*
X93752738Y-96122910D01*
X93657312Y-95980095D01*
X93571737Y-95894520D01*
X94080525Y-95894520D01*
X94965000Y-96778995D01*
X95849475Y-95894520D01*
X95765792Y-95640339D01*
X95493225Y-95509442D01*
X95200358Y-95434235D01*
X94898447Y-95417609D01*
X94599093Y-95460203D01*
X94313801Y-95560378D01*
X94164208Y-95640339D01*
X94080525Y-95894520D01*
X93571737Y-95894520D01*
X93443505Y-95766288D01*
X93192095Y-95598301D01*
X92912743Y-95482589D01*
X92616184Y-95423600D01*
X92313816Y-95423600D01*
X92017257Y-95482589D01*
X91737905Y-95598301D01*
X91486495Y-95766288D01*
X91272688Y-95980095D01*
X91215000Y-96066431D01*
X91157312Y-95980095D01*
X90943505Y-95766288D01*
X90692095Y-95598301D01*
X90412743Y-95482589D01*
X90116184Y-95423600D01*
X89813816Y-95423600D01*
X89517257Y-95482589D01*
X89237905Y-95598301D01*
X88986495Y-95766288D01*
X88772688Y-95980095D01*
X88604701Y-96231505D01*
X88488989Y-96510857D01*
X88430000Y-96807416D01*
X88430000Y-97109784D01*
X88481269Y-97367530D01*
X86938998Y-98909801D01*
X86910000Y-98933599D01*
X86886202Y-98962597D01*
X86886201Y-98962598D01*
X86815026Y-99049324D01*
X86744454Y-99181354D01*
X86714180Y-99281158D01*
X86705549Y-99309613D01*
X86700998Y-99324615D01*
X86686324Y-99473600D01*
X85797000Y-99473600D01*
X85797000Y-91380000D01*
X87007815Y-91380000D01*
X87036487Y-91671111D01*
X87121401Y-91951034D01*
X87259294Y-92209014D01*
X87444866Y-92435134D01*
X87670986Y-92620706D01*
X87928966Y-92758599D01*
X88208889Y-92843513D01*
X88427050Y-92865000D01*
X88572950Y-92865000D01*
X88791111Y-92843513D01*
X89071034Y-92758599D01*
X89329014Y-92620706D01*
X89555134Y-92435134D01*
X89740706Y-92209014D01*
X89878599Y-91951034D01*
X89963513Y-91671111D01*
X89992185Y-91380000D01*
X89963513Y-91088889D01*
X89878599Y-90808966D01*
X89740706Y-90550986D01*
X89555134Y-90324866D01*
X89329014Y-90139294D01*
X89264477Y-90104799D01*
X89381355Y-90035178D01*
X89597588Y-89840269D01*
X89771641Y-89606920D01*
X89896825Y-89344099D01*
X89941476Y-89196890D01*
X89820155Y-88967000D01*
X88627000Y-88967000D01*
X88627000Y-88987000D01*
X88373000Y-88987000D01*
X88373000Y-88967000D01*
X87179845Y-88967000D01*
X87058524Y-89196890D01*
X87103175Y-89344099D01*
X87228359Y-89606920D01*
X87402412Y-89840269D01*
X87618645Y-90035178D01*
X87735523Y-90104799D01*
X87670986Y-90139294D01*
X87444866Y-90324866D01*
X87259294Y-90550986D01*
X87121401Y-90808966D01*
X87036487Y-91088889D01*
X87007815Y-91380000D01*
X85797000Y-91380000D01*
X85797000Y-88941185D01*
X95657682Y-88941185D01*
X95671827Y-89012684D01*
X95777858Y-89263868D01*
X95930855Y-89489540D01*
X96124939Y-89681028D01*
X96352651Y-89830972D01*
X96605240Y-89933611D01*
X96873000Y-89985000D01*
X97173000Y-89985000D01*
X97173000Y-88727000D01*
X97427000Y-88727000D01*
X97427000Y-89985000D01*
X97727000Y-89985000D01*
X97994760Y-89933611D01*
X98247349Y-89830972D01*
X98475061Y-89681028D01*
X98669145Y-89489540D01*
X98822142Y-89263868D01*
X98928173Y-89012684D01*
X98942318Y-88941185D01*
X109757682Y-88941185D01*
X109771827Y-89012684D01*
X109877858Y-89263868D01*
X110030855Y-89489540D01*
X110224939Y-89681028D01*
X110452651Y-89830972D01*
X110705240Y-89933611D01*
X110973000Y-89985000D01*
X111273000Y-89985000D01*
X111273000Y-88727000D01*
X111527000Y-88727000D01*
X111527000Y-89985000D01*
X111827000Y-89985000D01*
X112094760Y-89933611D01*
X112347349Y-89830972D01*
X112575061Y-89681028D01*
X112769145Y-89489540D01*
X112922142Y-89263868D01*
X113028173Y-89012684D01*
X113042318Y-88941185D01*
X112919656Y-88727000D01*
X111527000Y-88727000D01*
X111273000Y-88727000D01*
X109880344Y-88727000D01*
X109757682Y-88941185D01*
X98942318Y-88941185D01*
X98819656Y-88727000D01*
X97427000Y-88727000D01*
X97173000Y-88727000D01*
X95780344Y-88727000D01*
X95657682Y-88941185D01*
X85797000Y-88941185D01*
X85797000Y-85450000D01*
X87011928Y-85450000D01*
X87011928Y-87150000D01*
X87024188Y-87274482D01*
X87060498Y-87394180D01*
X87119463Y-87504494D01*
X87198815Y-87601185D01*
X87295506Y-87680537D01*
X87405820Y-87739502D01*
X87486466Y-87763966D01*
X87402412Y-87839731D01*
X87228359Y-88073080D01*
X87103175Y-88335901D01*
X87058524Y-88483110D01*
X87179845Y-88713000D01*
X88373000Y-88713000D01*
X88373000Y-88693000D01*
X88627000Y-88693000D01*
X88627000Y-88713000D01*
X89820155Y-88713000D01*
X89941476Y-88483110D01*
X89896825Y-88335901D01*
X89860109Y-88258815D01*
X95657682Y-88258815D01*
X95780344Y-88473000D01*
X97173000Y-88473000D01*
X97173000Y-87215000D01*
X97427000Y-87215000D01*
X97427000Y-88473000D01*
X98819656Y-88473000D01*
X98942318Y-88258815D01*
X109757682Y-88258815D01*
X109880344Y-88473000D01*
X111273000Y-88473000D01*
X111273000Y-87215000D01*
X111527000Y-87215000D01*
X111527000Y-88473000D01*
X112919656Y-88473000D01*
X113042318Y-88258815D01*
X113028173Y-88187316D01*
X112922142Y-87936132D01*
X112769145Y-87710460D01*
X112575061Y-87518972D01*
X112347349Y-87369028D01*
X112094760Y-87266389D01*
X111827000Y-87215000D01*
X111527000Y-87215000D01*
X111273000Y-87215000D01*
X110973000Y-87215000D01*
X110705240Y-87266389D01*
X110452651Y-87369028D01*
X110224939Y-87518972D01*
X110030855Y-87710460D01*
X109877858Y-87936132D01*
X109771827Y-88187316D01*
X109757682Y-88258815D01*
X98942318Y-88258815D01*
X98928173Y-88187316D01*
X98822142Y-87936132D01*
X98669145Y-87710460D01*
X98475061Y-87518972D01*
X98247349Y-87369028D01*
X97994760Y-87266389D01*
X97727000Y-87215000D01*
X97427000Y-87215000D01*
X97173000Y-87215000D01*
X96873000Y-87215000D01*
X96605240Y-87266389D01*
X96352651Y-87369028D01*
X96124939Y-87518972D01*
X95930855Y-87710460D01*
X95777858Y-87936132D01*
X95671827Y-88187316D01*
X95657682Y-88258815D01*
X89860109Y-88258815D01*
X89771641Y-88073080D01*
X89597588Y-87839731D01*
X89513534Y-87763966D01*
X89594180Y-87739502D01*
X89704494Y-87680537D01*
X89801185Y-87601185D01*
X89880537Y-87504494D01*
X89939502Y-87394180D01*
X89975812Y-87274482D01*
X89988072Y-87150000D01*
X89988072Y-85450000D01*
X89975812Y-85325518D01*
X89939502Y-85205820D01*
X89880537Y-85095506D01*
X89801185Y-84998815D01*
X89748712Y-84955751D01*
X93865000Y-84955751D01*
X93881423Y-85122498D01*
X93946324Y-85336446D01*
X94051716Y-85533623D01*
X94193551Y-85706449D01*
X94366377Y-85848284D01*
X94563553Y-85953676D01*
X94777501Y-86018577D01*
X95000000Y-86040491D01*
X95222498Y-86018577D01*
X95436446Y-85953676D01*
X95633623Y-85848284D01*
X95806449Y-85706449D01*
X95948284Y-85533623D01*
X96053676Y-85336447D01*
X96118577Y-85122499D01*
X96135000Y-84955752D01*
X96135000Y-84095232D01*
X96189903Y-84371248D01*
X96311689Y-84665265D01*
X96488494Y-84929873D01*
X96713525Y-85154904D01*
X96978133Y-85331709D01*
X97272150Y-85453495D01*
X97584277Y-85515581D01*
X97902519Y-85515581D01*
X98214646Y-85453495D01*
X98508663Y-85331709D01*
X98773271Y-85154904D01*
X98972424Y-84955751D01*
X101965000Y-84955751D01*
X101981423Y-85122498D01*
X102046324Y-85336446D01*
X102151716Y-85533623D01*
X102293551Y-85706449D01*
X102466377Y-85848284D01*
X102663553Y-85953676D01*
X102877501Y-86018577D01*
X103100000Y-86040491D01*
X103322498Y-86018577D01*
X103536446Y-85953676D01*
X103733623Y-85848284D01*
X103906449Y-85706449D01*
X104048284Y-85533623D01*
X104153676Y-85336447D01*
X104218577Y-85122499D01*
X104235000Y-84955752D01*
X104235000Y-84955751D01*
X107965000Y-84955751D01*
X107981423Y-85122498D01*
X108046324Y-85336446D01*
X108151716Y-85533623D01*
X108293551Y-85706449D01*
X108466377Y-85848284D01*
X108663553Y-85953676D01*
X108877501Y-86018577D01*
X109100000Y-86040491D01*
X109322498Y-86018577D01*
X109536446Y-85953676D01*
X109733623Y-85848284D01*
X109906449Y-85706449D01*
X110048284Y-85533623D01*
X110153676Y-85336447D01*
X110218577Y-85122499D01*
X110235000Y-84955752D01*
X110235000Y-84313409D01*
X110246505Y-84371248D01*
X110368291Y-84665265D01*
X110545096Y-84929873D01*
X110770127Y-85154904D01*
X111034735Y-85331709D01*
X111328752Y-85453495D01*
X111640879Y-85515581D01*
X111959121Y-85515581D01*
X112271248Y-85453495D01*
X112565265Y-85331709D01*
X112829873Y-85154904D01*
X113054904Y-84929873D01*
X113231709Y-84665265D01*
X113353495Y-84371248D01*
X113415581Y-84059121D01*
X113415581Y-83740879D01*
X113353495Y-83428752D01*
X113231709Y-83134735D01*
X113054904Y-82870127D01*
X112829873Y-82645096D01*
X112565265Y-82468291D01*
X112271248Y-82346505D01*
X111959121Y-82284419D01*
X111640879Y-82284419D01*
X111328752Y-82346505D01*
X111034735Y-82468291D01*
X110770127Y-82645096D01*
X110545096Y-82870127D01*
X110368291Y-83134735D01*
X110246505Y-83428752D01*
X110235000Y-83486591D01*
X110235000Y-82844248D01*
X110218577Y-82677501D01*
X110153676Y-82463553D01*
X110048284Y-82266377D01*
X109906449Y-82093551D01*
X109733623Y-81951716D01*
X109536447Y-81846324D01*
X109322499Y-81781423D01*
X109100000Y-81759509D01*
X108877502Y-81781423D01*
X108663554Y-81846324D01*
X108466378Y-81951716D01*
X108293552Y-82093551D01*
X108151717Y-82266377D01*
X108046325Y-82463553D01*
X107981424Y-82677501D01*
X107965001Y-82844248D01*
X107965000Y-84955751D01*
X104235000Y-84955751D01*
X104235000Y-82844248D01*
X104218577Y-82677501D01*
X104153676Y-82463553D01*
X104048284Y-82266377D01*
X103906449Y-82093551D01*
X103733623Y-81951716D01*
X103536447Y-81846324D01*
X103322499Y-81781423D01*
X103100000Y-81759509D01*
X102877502Y-81781423D01*
X102663554Y-81846324D01*
X102466378Y-81951716D01*
X102293552Y-82093551D01*
X102151717Y-82266377D01*
X102046325Y-82463553D01*
X101981424Y-82677501D01*
X101965001Y-82844248D01*
X101965000Y-84955751D01*
X98972424Y-84955751D01*
X98998302Y-84929873D01*
X99175107Y-84665265D01*
X99296893Y-84371248D01*
X99358979Y-84059121D01*
X99358979Y-83740879D01*
X99296893Y-83428752D01*
X99175107Y-83134735D01*
X98998302Y-82870127D01*
X98773271Y-82645096D01*
X98508663Y-82468291D01*
X98214646Y-82346505D01*
X97902519Y-82284419D01*
X97584277Y-82284419D01*
X97272150Y-82346505D01*
X96978133Y-82468291D01*
X96713525Y-82645096D01*
X96488494Y-82870127D01*
X96311689Y-83134735D01*
X96189903Y-83428752D01*
X96135000Y-83704768D01*
X96135000Y-82844248D01*
X96118577Y-82677501D01*
X96053676Y-82463553D01*
X95948284Y-82266377D01*
X95806449Y-82093551D01*
X95633623Y-81951716D01*
X95436447Y-81846324D01*
X95222499Y-81781423D01*
X95000000Y-81759509D01*
X94777502Y-81781423D01*
X94563554Y-81846324D01*
X94366378Y-81951716D01*
X94193552Y-82093551D01*
X94051717Y-82266377D01*
X93946325Y-82463553D01*
X93881424Y-82677501D01*
X93865001Y-82844248D01*
X93865000Y-84955751D01*
X89748712Y-84955751D01*
X89704494Y-84919463D01*
X89594180Y-84860498D01*
X89474482Y-84824188D01*
X89350000Y-84811928D01*
X87650000Y-84811928D01*
X87525518Y-84824188D01*
X87405820Y-84860498D01*
X87295506Y-84919463D01*
X87198815Y-84998815D01*
X87119463Y-85095506D01*
X87060498Y-85205820D01*
X87024188Y-85325518D01*
X87011928Y-85450000D01*
X85797000Y-85450000D01*
X85797000Y-79541185D01*
X95207682Y-79541185D01*
X95221827Y-79612684D01*
X95327858Y-79863868D01*
X95480855Y-80089540D01*
X95674939Y-80281028D01*
X95902651Y-80430972D01*
X96155240Y-80533611D01*
X96423000Y-80585000D01*
X97173000Y-80585000D01*
X97173000Y-79327000D01*
X97427000Y-79327000D01*
X97427000Y-80585000D01*
X98177000Y-80585000D01*
X98444760Y-80533611D01*
X98697349Y-80430972D01*
X98925061Y-80281028D01*
X99119145Y-80089540D01*
X99272142Y-79863868D01*
X99378173Y-79612684D01*
X99392318Y-79541185D01*
X109307682Y-79541185D01*
X109321827Y-79612684D01*
X109427858Y-79863868D01*
X109580855Y-80089540D01*
X109774939Y-80281028D01*
X110002651Y-80430972D01*
X110255240Y-80533611D01*
X110523000Y-80585000D01*
X111273000Y-80585000D01*
X111273000Y-79327000D01*
X111527000Y-79327000D01*
X111527000Y-80585000D01*
X112277000Y-80585000D01*
X112544760Y-80533611D01*
X112797349Y-80430972D01*
X113025061Y-80281028D01*
X113219145Y-80089540D01*
X113372142Y-79863868D01*
X113478173Y-79612684D01*
X113492318Y-79541185D01*
X113369656Y-79327000D01*
X111527000Y-79327000D01*
X111273000Y-79327000D01*
X109430344Y-79327000D01*
X109307682Y-79541185D01*
X99392318Y-79541185D01*
X99269656Y-79327000D01*
X97427000Y-79327000D01*
X97173000Y-79327000D01*
X95330344Y-79327000D01*
X95207682Y-79541185D01*
X85797000Y-79541185D01*
X85797000Y-78858815D01*
X95207682Y-78858815D01*
X95330344Y-79073000D01*
X97173000Y-79073000D01*
X97173000Y-77815000D01*
X97427000Y-77815000D01*
X97427000Y-79073000D01*
X99269656Y-79073000D01*
X99392318Y-78858815D01*
X99378173Y-78787316D01*
X99272142Y-78536132D01*
X99119145Y-78310460D01*
X98925061Y-78118972D01*
X98697349Y-77969028D01*
X98444760Y-77866389D01*
X98177000Y-77815000D01*
X97427000Y-77815000D01*
X97173000Y-77815000D01*
X96423000Y-77815000D01*
X96155240Y-77866389D01*
X95902651Y-77969028D01*
X95674939Y-78118972D01*
X95480855Y-78310460D01*
X95327858Y-78536132D01*
X95221827Y-78787316D01*
X95207682Y-78858815D01*
X85797000Y-78858815D01*
X85797000Y-77155448D01*
X109240000Y-77155448D01*
X109240000Y-77344552D01*
X109276892Y-77530022D01*
X109349259Y-77704731D01*
X109454319Y-77861964D01*
X109588036Y-77995681D01*
X109745269Y-78100741D01*
X109780478Y-78115325D01*
X109774939Y-78118972D01*
X109580855Y-78310460D01*
X109427858Y-78536132D01*
X109321827Y-78787316D01*
X109307682Y-78858815D01*
X109430344Y-79073000D01*
X111273000Y-79073000D01*
X111273000Y-79053000D01*
X111527000Y-79053000D01*
X111527000Y-79073000D01*
X113369656Y-79073000D01*
X113492318Y-78858815D01*
X113478173Y-78787316D01*
X113372142Y-78536132D01*
X113219145Y-78310460D01*
X113025061Y-78118972D01*
X112859571Y-78010000D01*
X120685199Y-78010000D01*
X123715198Y-81040000D01*
X116062333Y-81040000D01*
X116025000Y-81036323D01*
X115987667Y-81040000D01*
X115876014Y-81050997D01*
X115732753Y-81094454D01*
X115600724Y-81165026D01*
X115484999Y-81259999D01*
X115461201Y-81288997D01*
X114942671Y-81807528D01*
X114782478Y-81839392D01*
X114607769Y-81911759D01*
X114450536Y-82016819D01*
X114316819Y-82150536D01*
X114211759Y-82307769D01*
X114139392Y-82482478D01*
X114102500Y-82667948D01*
X114102500Y-82857052D01*
X114139392Y-83042522D01*
X114211759Y-83217231D01*
X114316819Y-83374464D01*
X114450536Y-83508181D01*
X114607769Y-83613241D01*
X114782478Y-83685608D01*
X114967948Y-83722500D01*
X115157052Y-83722500D01*
X115342522Y-83685608D01*
X115517231Y-83613241D01*
X115674464Y-83508181D01*
X115808181Y-83374464D01*
X115913241Y-83217231D01*
X115985608Y-83042522D01*
X116017472Y-82882329D01*
X116066033Y-82833768D01*
X116065001Y-82844248D01*
X116065000Y-84955751D01*
X116081423Y-85122498D01*
X116146324Y-85336446D01*
X116251716Y-85533623D01*
X116393551Y-85706449D01*
X116434433Y-85740000D01*
X115021944Y-85740000D01*
X114985303Y-85736391D01*
X114929731Y-85699259D01*
X114755022Y-85626892D01*
X114569552Y-85590000D01*
X114380448Y-85590000D01*
X114194978Y-85626892D01*
X114020269Y-85699259D01*
X113863036Y-85804319D01*
X113729319Y-85938036D01*
X113624259Y-86095269D01*
X113551892Y-86269978D01*
X113515000Y-86455448D01*
X113515000Y-86644552D01*
X113551892Y-86830022D01*
X113624259Y-87004731D01*
X113729319Y-87161964D01*
X113863036Y-87295681D01*
X114020269Y-87400741D01*
X114194978Y-87473108D01*
X114380448Y-87510000D01*
X114569552Y-87510000D01*
X114755022Y-87473108D01*
X114929731Y-87400741D01*
X115081713Y-87299189D01*
X115083605Y-87299003D01*
X115212183Y-87260000D01*
X125810199Y-87260000D01*
X130120028Y-91569830D01*
X130151892Y-91730022D01*
X130224259Y-91904731D01*
X130329319Y-92061964D01*
X130463036Y-92195681D01*
X130620269Y-92300741D01*
X130794978Y-92373108D01*
X130980448Y-92410000D01*
X131169552Y-92410000D01*
X131355022Y-92373108D01*
X131529731Y-92300741D01*
X131686964Y-92195681D01*
X131820681Y-92061964D01*
X131925741Y-91904731D01*
X131998108Y-91730022D01*
X132035000Y-91544552D01*
X132035000Y-91355448D01*
X131998108Y-91169978D01*
X131925741Y-90995269D01*
X131820681Y-90838036D01*
X131686964Y-90704319D01*
X131529731Y-90599259D01*
X131355022Y-90526892D01*
X131194830Y-90495028D01*
X126688804Y-85989003D01*
X126665001Y-85959999D01*
X126549276Y-85865026D01*
X126417247Y-85794454D01*
X126273986Y-85750997D01*
X126162333Y-85740000D01*
X126162322Y-85740000D01*
X126125000Y-85736324D01*
X126087678Y-85740000D01*
X117965567Y-85740000D01*
X118006449Y-85706449D01*
X118148284Y-85533623D01*
X118253676Y-85336447D01*
X118318577Y-85122499D01*
X118335000Y-84955752D01*
X118335000Y-83405448D01*
X132165000Y-83405448D01*
X132165000Y-83594552D01*
X132201892Y-83780022D01*
X132274259Y-83954731D01*
X132379319Y-84111964D01*
X132513036Y-84245681D01*
X132670269Y-84350741D01*
X132844978Y-84423108D01*
X133005171Y-84454972D01*
X136240001Y-87689803D01*
X136240000Y-90659466D01*
X136149259Y-90795269D01*
X136076892Y-90969978D01*
X136040000Y-91155448D01*
X136040000Y-91344552D01*
X136076892Y-91530022D01*
X136149259Y-91704731D01*
X136254319Y-91861964D01*
X136388036Y-91995681D01*
X136545269Y-92100741D01*
X136719978Y-92173108D01*
X136905448Y-92210000D01*
X137094552Y-92210000D01*
X137280022Y-92173108D01*
X137454731Y-92100741D01*
X137611964Y-91995681D01*
X137745681Y-91861964D01*
X137850741Y-91704731D01*
X137923108Y-91530022D01*
X137960000Y-91344552D01*
X137960000Y-91155448D01*
X137923108Y-90969978D01*
X137850741Y-90795269D01*
X137760000Y-90659466D01*
X137760000Y-87412333D01*
X137763677Y-87375000D01*
X137749003Y-87226014D01*
X137705546Y-87082753D01*
X137634974Y-86950724D01*
X137563799Y-86863997D01*
X137540001Y-86834999D01*
X137511003Y-86811201D01*
X135465002Y-84765200D01*
X142111324Y-84765200D01*
X142115000Y-84802523D01*
X142115001Y-90387668D01*
X142111324Y-90425000D01*
X142125998Y-90573985D01*
X142169454Y-90717246D01*
X142240026Y-90849276D01*
X142289861Y-90909999D01*
X142335000Y-90965001D01*
X142363998Y-90988799D01*
X144170028Y-92794830D01*
X144201892Y-92955022D01*
X144274259Y-93129731D01*
X144379319Y-93286964D01*
X144513036Y-93420681D01*
X144670269Y-93525741D01*
X144844978Y-93598108D01*
X145030448Y-93635000D01*
X145219552Y-93635000D01*
X145405022Y-93598108D01*
X145579731Y-93525741D01*
X145736964Y-93420681D01*
X145870681Y-93286964D01*
X145975741Y-93129731D01*
X146048108Y-92955022D01*
X146085000Y-92769552D01*
X146085000Y-92580448D01*
X146048108Y-92394978D01*
X145975741Y-92220269D01*
X145870681Y-92063036D01*
X145736964Y-91929319D01*
X145579731Y-91824259D01*
X145405022Y-91751892D01*
X145244830Y-91720028D01*
X143635000Y-90110199D01*
X143635000Y-86403272D01*
X144322800Y-86403272D01*
X144541432Y-86381739D01*
X144751663Y-86317966D01*
X144945412Y-86214405D01*
X145115235Y-86075035D01*
X145254605Y-85905212D01*
X145358166Y-85711463D01*
X145421939Y-85501232D01*
X145443472Y-85282600D01*
X145443472Y-83640879D01*
X147384419Y-83640879D01*
X147384419Y-83959121D01*
X147446505Y-84271248D01*
X147568291Y-84565265D01*
X147745096Y-84829873D01*
X147970127Y-85054904D01*
X148234735Y-85231709D01*
X148528752Y-85353495D01*
X148840879Y-85415581D01*
X149159121Y-85415581D01*
X149471248Y-85353495D01*
X149765265Y-85231709D01*
X150029873Y-85054904D01*
X150254904Y-84829873D01*
X150431709Y-84565265D01*
X150553495Y-84271248D01*
X150615581Y-83959121D01*
X150615581Y-83640879D01*
X150553495Y-83328752D01*
X150431709Y-83034735D01*
X150254904Y-82770127D01*
X150029873Y-82545096D01*
X149765265Y-82368291D01*
X149642404Y-82317400D01*
X150796728Y-82317400D01*
X150796728Y-85282600D01*
X150818261Y-85501232D01*
X150882034Y-85711463D01*
X150985595Y-85905212D01*
X151124965Y-86075035D01*
X151294788Y-86214405D01*
X151488537Y-86317966D01*
X151698768Y-86381739D01*
X151917400Y-86403272D01*
X152882600Y-86403272D01*
X153101232Y-86381739D01*
X153311463Y-86317966D01*
X153505212Y-86214405D01*
X153675035Y-86075035D01*
X153814405Y-85905212D01*
X153917966Y-85711463D01*
X153981739Y-85501232D01*
X154003272Y-85282600D01*
X154003272Y-85185824D01*
X154257256Y-85308851D01*
X154562296Y-85388279D01*
X154876971Y-85406670D01*
X155189188Y-85363318D01*
X155486948Y-85259888D01*
X155652428Y-85171438D01*
X155743989Y-84910594D01*
X154813000Y-83979605D01*
X154798858Y-83993748D01*
X154619253Y-83814143D01*
X154633395Y-83800000D01*
X154992605Y-83800000D01*
X155923594Y-84730989D01*
X156184438Y-84639428D01*
X156321851Y-84355744D01*
X156401279Y-84050704D01*
X156419670Y-83736029D01*
X156376318Y-83423812D01*
X156272888Y-83126052D01*
X156184438Y-82960572D01*
X155923594Y-82869011D01*
X154992605Y-83800000D01*
X154633395Y-83800000D01*
X154619253Y-83785858D01*
X154798858Y-83606253D01*
X154813000Y-83620395D01*
X155743989Y-82689406D01*
X155652428Y-82428562D01*
X155368744Y-82291149D01*
X155063704Y-82211721D01*
X154749029Y-82193330D01*
X154436812Y-82236682D01*
X154139052Y-82340112D01*
X154003272Y-82412687D01*
X154003272Y-82317400D01*
X153981739Y-82098768D01*
X153917966Y-81888537D01*
X153814405Y-81694788D01*
X153675035Y-81524965D01*
X153505212Y-81385595D01*
X153311463Y-81282034D01*
X153101232Y-81218261D01*
X152882600Y-81196728D01*
X151917400Y-81196728D01*
X151698768Y-81218261D01*
X151488537Y-81282034D01*
X151294788Y-81385595D01*
X151124965Y-81524965D01*
X150985595Y-81694788D01*
X150882034Y-81888537D01*
X150818261Y-82098768D01*
X150796728Y-82317400D01*
X149642404Y-82317400D01*
X149471248Y-82246505D01*
X149159121Y-82184419D01*
X148840879Y-82184419D01*
X148528752Y-82246505D01*
X148234735Y-82368291D01*
X147970127Y-82545096D01*
X147745096Y-82770127D01*
X147568291Y-83034735D01*
X147446505Y-83328752D01*
X147384419Y-83640879D01*
X145443472Y-83640879D01*
X145443472Y-82317400D01*
X145421939Y-82098768D01*
X145358166Y-81888537D01*
X145254605Y-81694788D01*
X145115235Y-81524965D01*
X144945412Y-81385595D01*
X144751663Y-81282034D01*
X144541432Y-81218261D01*
X144322800Y-81196728D01*
X143357600Y-81196728D01*
X143138968Y-81218261D01*
X142928737Y-81282034D01*
X142734988Y-81385595D01*
X142565165Y-81524965D01*
X142425795Y-81694788D01*
X142322234Y-81888537D01*
X142258461Y-82098768D01*
X142236928Y-82317400D01*
X142236928Y-84346720D01*
X142176378Y-84460000D01*
X142169454Y-84472954D01*
X142125997Y-84616215D01*
X142115000Y-84727868D01*
X142115000Y-84727878D01*
X142111324Y-84765200D01*
X135465002Y-84765200D01*
X134079972Y-83380171D01*
X134048108Y-83219978D01*
X133975741Y-83045269D01*
X133870681Y-82888036D01*
X133736964Y-82754319D01*
X133579731Y-82649259D01*
X133405022Y-82576892D01*
X133219552Y-82540000D01*
X133030448Y-82540000D01*
X132844978Y-82576892D01*
X132670269Y-82649259D01*
X132513036Y-82754319D01*
X132379319Y-82888036D01*
X132274259Y-83045269D01*
X132201892Y-83219978D01*
X132165000Y-83405448D01*
X118335000Y-83405448D01*
X118335000Y-82844248D01*
X118318577Y-82677501D01*
X118282933Y-82560000D01*
X131997297Y-82560000D01*
X132034619Y-82563676D01*
X132071941Y-82560000D01*
X132071952Y-82560000D01*
X132183605Y-82549003D01*
X132326866Y-82505546D01*
X132458895Y-82434974D01*
X132574620Y-82340001D01*
X132598422Y-82310998D01*
X133086002Y-81823419D01*
X133115001Y-81799620D01*
X133147919Y-81759509D01*
X133209974Y-81683896D01*
X133280546Y-81551866D01*
X133302180Y-81480546D01*
X133324003Y-81408605D01*
X133324189Y-81406713D01*
X133425741Y-81254731D01*
X133498108Y-81080022D01*
X133535000Y-80894552D01*
X133535000Y-80705448D01*
X133498108Y-80519978D01*
X133425741Y-80345269D01*
X133320681Y-80188036D01*
X133186964Y-80054319D01*
X133029731Y-79949259D01*
X132855022Y-79876892D01*
X132669552Y-79840000D01*
X132480448Y-79840000D01*
X132294978Y-79876892D01*
X132120269Y-79949259D01*
X131963036Y-80054319D01*
X131829319Y-80188036D01*
X131783352Y-80256830D01*
X131720681Y-80163036D01*
X131586964Y-80029319D01*
X131429731Y-79924259D01*
X131255022Y-79851892D01*
X131069552Y-79815000D01*
X130880448Y-79815000D01*
X130694978Y-79851892D01*
X130520269Y-79924259D01*
X130384466Y-80015000D01*
X124839802Y-80015000D01*
X121563804Y-76739003D01*
X121540001Y-76709999D01*
X121424276Y-76615026D01*
X121292247Y-76544454D01*
X121148986Y-76500997D01*
X121037333Y-76490000D01*
X121037322Y-76490000D01*
X121000000Y-76486324D01*
X120962678Y-76490000D01*
X110790534Y-76490000D01*
X110654731Y-76399259D01*
X110480022Y-76326892D01*
X110294552Y-76290000D01*
X110105448Y-76290000D01*
X109919978Y-76326892D01*
X109745269Y-76399259D01*
X109588036Y-76504319D01*
X109454319Y-76638036D01*
X109349259Y-76795269D01*
X109276892Y-76969978D01*
X109240000Y-77155448D01*
X85797000Y-77155448D01*
X85797000Y-76547082D01*
X85814395Y-76370556D01*
X85864093Y-76206818D01*
X85944790Y-76055940D01*
X86053390Y-75923710D01*
X86185710Y-75815221D01*
X86336658Y-75734649D01*
X86500432Y-75685090D01*
X86676971Y-75667843D01*
X156364492Y-75726159D01*
M02*
