G04 #@! TF.GenerationSoftware,KiCad,Pcbnew,5.1.4+dfsg1-1*
G04 #@! TF.CreationDate,2020-04-10T18:02:15-04:00*
G04 #@! TF.ProjectId,LilMix,4c696c4d-6978-42e6-9b69-6361645f7063,rev?*
G04 #@! TF.SameCoordinates,Original*
G04 #@! TF.FileFunction,Soldermask,Bot*
G04 #@! TF.FilePolarity,Negative*
%FSLAX46Y46*%
G04 Gerber Fmt 4.6, Leading zero omitted, Abs format (unit mm)*
G04 Created by KiCad (PCBNEW 5.1.4+dfsg1-1) date 2020-04-10 18:02:15*
%MOMM*%
%LPD*%
G04 APERTURE LIST*
%ADD10C,0.100000*%
G04 APERTURE END LIST*
D10*
G36*
X105116803Y-105315816D02*
G01*
X105382778Y-105396499D01*
X105382780Y-105396500D01*
X105627900Y-105527519D01*
X105842756Y-105703844D01*
X106019081Y-105918699D01*
X106145931Y-106156019D01*
X106150101Y-106163821D01*
X106230784Y-106429796D01*
X106251200Y-106637084D01*
X106251200Y-107295715D01*
X106230784Y-107503003D01*
X106201574Y-107599294D01*
X106150100Y-107768982D01*
X106019081Y-108014101D01*
X105842756Y-108228956D01*
X105627901Y-108405281D01*
X105397374Y-108528500D01*
X105382779Y-108536301D01*
X105116804Y-108616984D01*
X104840200Y-108644227D01*
X104563597Y-108616984D01*
X104297622Y-108536301D01*
X104283027Y-108528500D01*
X104052500Y-108405281D01*
X103837644Y-108228956D01*
X103661319Y-108014101D01*
X103530300Y-107768981D01*
X103527934Y-107761182D01*
X103449616Y-107503004D01*
X103429200Y-107295716D01*
X103429200Y-106637085D01*
X103449616Y-106429797D01*
X103530299Y-106163822D01*
X103661320Y-105918699D01*
X103667722Y-105910898D01*
X103837644Y-105703844D01*
X104052499Y-105527519D01*
X104297619Y-105396500D01*
X104297621Y-105396499D01*
X104563596Y-105315816D01*
X104840200Y-105288573D01*
X105116803Y-105315816D01*
X105116803Y-105315816D01*
G37*
G36*
X114616803Y-105315816D02*
G01*
X114882778Y-105396499D01*
X114882780Y-105396500D01*
X115127900Y-105527519D01*
X115342756Y-105703844D01*
X115519081Y-105918699D01*
X115645931Y-106156019D01*
X115650101Y-106163821D01*
X115730784Y-106429796D01*
X115751200Y-106637084D01*
X115751200Y-107295715D01*
X115730784Y-107503003D01*
X115701574Y-107599294D01*
X115650100Y-107768982D01*
X115519081Y-108014101D01*
X115342756Y-108228956D01*
X115127901Y-108405281D01*
X114897374Y-108528500D01*
X114882779Y-108536301D01*
X114616804Y-108616984D01*
X114340200Y-108644227D01*
X114063597Y-108616984D01*
X113797622Y-108536301D01*
X113783027Y-108528500D01*
X113552500Y-108405281D01*
X113337644Y-108228956D01*
X113161319Y-108014101D01*
X113030300Y-107768981D01*
X113027934Y-107761182D01*
X112949616Y-107503004D01*
X112929200Y-107295716D01*
X112929200Y-106637085D01*
X112949616Y-106429797D01*
X113030299Y-106163822D01*
X113161320Y-105918699D01*
X113167722Y-105910898D01*
X113337644Y-105703844D01*
X113552499Y-105527519D01*
X113797619Y-105396500D01*
X113797621Y-105396499D01*
X114063596Y-105315816D01*
X114340200Y-105288573D01*
X114616803Y-105315816D01*
X114616803Y-105315816D01*
G37*
G36*
X87991603Y-105308016D02*
G01*
X88257578Y-105388699D01*
X88257580Y-105388700D01*
X88502700Y-105519719D01*
X88717556Y-105696044D01*
X88893881Y-105910899D01*
X89001917Y-106113021D01*
X89024901Y-106156021D01*
X89105584Y-106421996D01*
X89126000Y-106629284D01*
X89126000Y-107287915D01*
X89105584Y-107495203D01*
X89074008Y-107599294D01*
X89024900Y-107761182D01*
X88893881Y-108006301D01*
X88717556Y-108221156D01*
X88502701Y-108397481D01*
X88257581Y-108528500D01*
X88257579Y-108528501D01*
X87991604Y-108609184D01*
X87715000Y-108636427D01*
X87438397Y-108609184D01*
X87172422Y-108528501D01*
X87172420Y-108528500D01*
X86927300Y-108397481D01*
X86712444Y-108221156D01*
X86536119Y-108006301D01*
X86405100Y-107761181D01*
X86392055Y-107718179D01*
X86324416Y-107495204D01*
X86304000Y-107287916D01*
X86304000Y-106629285D01*
X86306591Y-106602983D01*
X86324416Y-106421999D01*
X86324416Y-106421997D01*
X86405099Y-106156022D01*
X86428083Y-106113022D01*
X86536119Y-105910900D01*
X86712444Y-105696044D01*
X86927299Y-105519719D01*
X87172419Y-105388700D01*
X87172421Y-105388699D01*
X87438396Y-105308016D01*
X87715000Y-105280773D01*
X87991603Y-105308016D01*
X87991603Y-105308016D01*
G37*
G36*
X155991603Y-105308016D02*
G01*
X156257578Y-105388699D01*
X156257580Y-105388700D01*
X156502700Y-105519719D01*
X156717556Y-105696044D01*
X156893881Y-105910899D01*
X157001917Y-106113021D01*
X157024901Y-106156021D01*
X157105584Y-106421996D01*
X157126000Y-106629284D01*
X157126000Y-107287915D01*
X157105584Y-107495203D01*
X157074008Y-107599294D01*
X157024900Y-107761182D01*
X156893881Y-108006301D01*
X156717556Y-108221156D01*
X156502701Y-108397481D01*
X156257581Y-108528500D01*
X156257579Y-108528501D01*
X155991604Y-108609184D01*
X155715000Y-108636427D01*
X155438397Y-108609184D01*
X155172422Y-108528501D01*
X155172420Y-108528500D01*
X154927300Y-108397481D01*
X154712444Y-108221156D01*
X154536119Y-108006301D01*
X154405100Y-107761181D01*
X154392055Y-107718179D01*
X154324416Y-107495204D01*
X154304000Y-107287916D01*
X154304000Y-106629285D01*
X154306591Y-106602983D01*
X154324416Y-106421999D01*
X154324416Y-106421997D01*
X154405099Y-106156022D01*
X154428083Y-106113022D01*
X154536119Y-105910900D01*
X154712444Y-105696044D01*
X154927299Y-105519719D01*
X155172419Y-105388700D01*
X155172421Y-105388699D01*
X155438396Y-105308016D01*
X155715000Y-105280773D01*
X155991603Y-105308016D01*
X155991603Y-105308016D01*
G37*
G36*
X146491603Y-105308016D02*
G01*
X146757578Y-105388699D01*
X146757580Y-105388700D01*
X147002700Y-105519719D01*
X147217556Y-105696044D01*
X147393881Y-105910899D01*
X147501917Y-106113021D01*
X147524901Y-106156021D01*
X147605584Y-106421996D01*
X147626000Y-106629284D01*
X147626000Y-107287915D01*
X147605584Y-107495203D01*
X147574008Y-107599294D01*
X147524900Y-107761182D01*
X147393881Y-108006301D01*
X147217556Y-108221156D01*
X147002701Y-108397481D01*
X146757581Y-108528500D01*
X146757579Y-108528501D01*
X146491604Y-108609184D01*
X146215000Y-108636427D01*
X145938397Y-108609184D01*
X145672422Y-108528501D01*
X145672420Y-108528500D01*
X145427300Y-108397481D01*
X145212444Y-108221156D01*
X145036119Y-108006301D01*
X144905100Y-107761181D01*
X144892055Y-107718179D01*
X144824416Y-107495204D01*
X144804000Y-107287916D01*
X144804000Y-106629285D01*
X144806591Y-106602983D01*
X144824416Y-106421999D01*
X144824416Y-106421997D01*
X144905099Y-106156022D01*
X144928083Y-106113022D01*
X145036119Y-105910900D01*
X145212444Y-105696044D01*
X145427299Y-105519719D01*
X145672419Y-105388700D01*
X145672421Y-105388699D01*
X145938396Y-105308016D01*
X146215000Y-105280773D01*
X146491603Y-105308016D01*
X146491603Y-105308016D01*
G37*
G36*
X97491603Y-105308016D02*
G01*
X97757578Y-105388699D01*
X97757580Y-105388700D01*
X98002700Y-105519719D01*
X98217556Y-105696044D01*
X98393881Y-105910899D01*
X98501917Y-106113021D01*
X98524901Y-106156021D01*
X98605584Y-106421996D01*
X98626000Y-106629284D01*
X98626000Y-107287915D01*
X98605584Y-107495203D01*
X98574008Y-107599294D01*
X98524900Y-107761182D01*
X98393881Y-108006301D01*
X98217556Y-108221156D01*
X98002701Y-108397481D01*
X97757581Y-108528500D01*
X97757579Y-108528501D01*
X97491604Y-108609184D01*
X97215000Y-108636427D01*
X96938397Y-108609184D01*
X96672422Y-108528501D01*
X96672420Y-108528500D01*
X96427300Y-108397481D01*
X96212444Y-108221156D01*
X96036119Y-108006301D01*
X95905100Y-107761181D01*
X95892055Y-107718179D01*
X95824416Y-107495204D01*
X95804000Y-107287916D01*
X95804000Y-106629285D01*
X95806591Y-106602983D01*
X95824416Y-106421999D01*
X95824416Y-106421997D01*
X95905099Y-106156022D01*
X95928083Y-106113022D01*
X96036119Y-105910900D01*
X96212444Y-105696044D01*
X96427299Y-105519719D01*
X96672419Y-105388700D01*
X96672421Y-105388699D01*
X96938396Y-105308016D01*
X97215000Y-105280773D01*
X97491603Y-105308016D01*
X97491603Y-105308016D01*
G37*
G36*
X122388803Y-105265016D02*
G01*
X122654778Y-105345699D01*
X122654780Y-105345700D01*
X122899900Y-105476719D01*
X123114756Y-105653044D01*
X123291081Y-105867899D01*
X123422100Y-106113019D01*
X123422101Y-106113021D01*
X123502784Y-106378996D01*
X123523200Y-106586284D01*
X123523200Y-107244915D01*
X123502784Y-107452203D01*
X123458164Y-107599294D01*
X123422100Y-107718182D01*
X123291081Y-107963301D01*
X123114756Y-108178156D01*
X122899901Y-108354481D01*
X122654781Y-108485500D01*
X122654779Y-108485501D01*
X122388804Y-108566184D01*
X122112200Y-108593427D01*
X121835597Y-108566184D01*
X121569622Y-108485501D01*
X121569620Y-108485500D01*
X121324500Y-108354481D01*
X121109644Y-108178156D01*
X120933319Y-107963301D01*
X120802300Y-107718181D01*
X120802299Y-107718179D01*
X120721616Y-107452204D01*
X120701200Y-107244916D01*
X120701200Y-106586285D01*
X120721616Y-106378997D01*
X120802299Y-106113022D01*
X120906166Y-105918700D01*
X120933319Y-105867900D01*
X121109644Y-105653044D01*
X121324499Y-105476719D01*
X121569619Y-105345700D01*
X121569621Y-105345699D01*
X121835596Y-105265016D01*
X122112200Y-105237773D01*
X122388803Y-105265016D01*
X122388803Y-105265016D01*
G37*
G36*
X131888803Y-105265016D02*
G01*
X132154778Y-105345699D01*
X132154780Y-105345700D01*
X132399900Y-105476719D01*
X132614756Y-105653044D01*
X132791081Y-105867899D01*
X132922100Y-106113019D01*
X132922101Y-106113021D01*
X133002784Y-106378996D01*
X133023200Y-106586284D01*
X133023200Y-107244915D01*
X133002784Y-107452203D01*
X132958164Y-107599294D01*
X132922100Y-107718182D01*
X132791081Y-107963301D01*
X132614756Y-108178156D01*
X132399901Y-108354481D01*
X132154781Y-108485500D01*
X132154779Y-108485501D01*
X131888804Y-108566184D01*
X131612200Y-108593427D01*
X131335597Y-108566184D01*
X131069622Y-108485501D01*
X131069620Y-108485500D01*
X130824500Y-108354481D01*
X130609644Y-108178156D01*
X130433319Y-107963301D01*
X130302300Y-107718181D01*
X130302299Y-107718179D01*
X130221616Y-107452204D01*
X130201200Y-107244916D01*
X130201200Y-106586285D01*
X130221616Y-106378997D01*
X130302299Y-106113022D01*
X130406166Y-105918700D01*
X130433319Y-105867900D01*
X130609644Y-105653044D01*
X130824499Y-105476719D01*
X131069619Y-105345700D01*
X131069621Y-105345699D01*
X131335596Y-105265016D01*
X131612200Y-105237773D01*
X131888803Y-105265016D01*
X131888803Y-105265016D01*
G37*
G36*
X138179294Y-106518633D02*
G01*
X138351695Y-106570931D01*
X138510583Y-106655858D01*
X138649849Y-106770151D01*
X138764142Y-106909417D01*
X138849069Y-107068305D01*
X138901367Y-107240706D01*
X138919025Y-107420000D01*
X138901367Y-107599294D01*
X138849069Y-107771695D01*
X138764142Y-107930583D01*
X138649849Y-108069849D01*
X138510583Y-108184142D01*
X138351695Y-108269069D01*
X138179294Y-108321367D01*
X138044931Y-108334600D01*
X137955069Y-108334600D01*
X137820706Y-108321367D01*
X137648305Y-108269069D01*
X137489417Y-108184142D01*
X137350151Y-108069849D01*
X137235858Y-107930583D01*
X137150931Y-107771695D01*
X137098633Y-107599294D01*
X137080975Y-107420000D01*
X137098633Y-107240706D01*
X137150931Y-107068305D01*
X137235858Y-106909417D01*
X137350151Y-106770151D01*
X137489417Y-106655858D01*
X137648305Y-106570931D01*
X137820706Y-106518633D01*
X137955069Y-106505400D01*
X138044931Y-106505400D01*
X138179294Y-106518633D01*
X138179294Y-106518633D01*
G37*
G36*
X140719294Y-106518633D02*
G01*
X140891695Y-106570931D01*
X141050583Y-106655858D01*
X141189849Y-106770151D01*
X141304142Y-106909417D01*
X141389069Y-107068305D01*
X141441367Y-107240706D01*
X141459025Y-107420000D01*
X141441367Y-107599294D01*
X141389069Y-107771695D01*
X141304142Y-107930583D01*
X141189849Y-108069849D01*
X141050583Y-108184142D01*
X140891695Y-108269069D01*
X140719294Y-108321367D01*
X140584931Y-108334600D01*
X140495069Y-108334600D01*
X140360706Y-108321367D01*
X140188305Y-108269069D01*
X140029417Y-108184142D01*
X139890151Y-108069849D01*
X139775858Y-107930583D01*
X139690931Y-107771695D01*
X139638633Y-107599294D01*
X139620975Y-107420000D01*
X139638633Y-107240706D01*
X139690931Y-107068305D01*
X139775858Y-106909417D01*
X139890151Y-106770151D01*
X140029417Y-106655858D01*
X140188305Y-106570931D01*
X140360706Y-106518633D01*
X140495069Y-106505400D01*
X140584931Y-106505400D01*
X140719294Y-106518633D01*
X140719294Y-106518633D01*
G37*
G36*
X91848674Y-105593465D02*
G01*
X91886367Y-105604899D01*
X91921103Y-105623466D01*
X91951548Y-105648452D01*
X91976534Y-105678897D01*
X91995101Y-105713633D01*
X92006535Y-105751326D01*
X92011000Y-105796661D01*
X92011000Y-106883339D01*
X92006535Y-106928674D01*
X91995101Y-106966367D01*
X91976534Y-107001103D01*
X91951548Y-107031548D01*
X91921103Y-107056534D01*
X91886367Y-107075101D01*
X91848674Y-107086535D01*
X91803339Y-107091000D01*
X90966661Y-107091000D01*
X90921326Y-107086535D01*
X90883633Y-107075101D01*
X90848897Y-107056534D01*
X90818452Y-107031548D01*
X90793466Y-107001103D01*
X90774899Y-106966367D01*
X90763465Y-106928674D01*
X90759000Y-106883339D01*
X90759000Y-105796661D01*
X90763465Y-105751326D01*
X90774899Y-105713633D01*
X90793466Y-105678897D01*
X90818452Y-105648452D01*
X90848897Y-105623466D01*
X90883633Y-105604899D01*
X90921326Y-105593465D01*
X90966661Y-105589000D01*
X91803339Y-105589000D01*
X91848674Y-105593465D01*
X91848674Y-105593465D01*
G37*
G36*
X93898674Y-105593465D02*
G01*
X93936367Y-105604899D01*
X93971103Y-105623466D01*
X94001548Y-105648452D01*
X94026534Y-105678897D01*
X94045101Y-105713633D01*
X94056535Y-105751326D01*
X94061000Y-105796661D01*
X94061000Y-106883339D01*
X94056535Y-106928674D01*
X94045101Y-106966367D01*
X94026534Y-107001103D01*
X94001548Y-107031548D01*
X93971103Y-107056534D01*
X93936367Y-107075101D01*
X93898674Y-107086535D01*
X93853339Y-107091000D01*
X93016661Y-107091000D01*
X92971326Y-107086535D01*
X92933633Y-107075101D01*
X92898897Y-107056534D01*
X92868452Y-107031548D01*
X92843466Y-107001103D01*
X92824899Y-106966367D01*
X92813465Y-106928674D01*
X92809000Y-106883339D01*
X92809000Y-105796661D01*
X92813465Y-105751326D01*
X92824899Y-105713633D01*
X92843466Y-105678897D01*
X92868452Y-105648452D01*
X92898897Y-105623466D01*
X92933633Y-105604899D01*
X92971326Y-105593465D01*
X93016661Y-105589000D01*
X93853339Y-105589000D01*
X93898674Y-105593465D01*
X93898674Y-105593465D01*
G37*
G36*
X109013674Y-105273465D02*
G01*
X109051367Y-105284899D01*
X109086103Y-105303466D01*
X109116548Y-105328452D01*
X109141534Y-105358897D01*
X109160101Y-105393633D01*
X109171535Y-105431326D01*
X109176000Y-105476661D01*
X109176000Y-106563339D01*
X109171535Y-106608674D01*
X109160101Y-106646367D01*
X109141534Y-106681103D01*
X109116548Y-106711548D01*
X109086103Y-106736534D01*
X109051367Y-106755101D01*
X109013674Y-106766535D01*
X108968339Y-106771000D01*
X108131661Y-106771000D01*
X108086326Y-106766535D01*
X108048633Y-106755101D01*
X108013897Y-106736534D01*
X107983452Y-106711548D01*
X107958466Y-106681103D01*
X107939899Y-106646367D01*
X107928465Y-106608674D01*
X107924000Y-106563339D01*
X107924000Y-105476661D01*
X107928465Y-105431326D01*
X107939899Y-105393633D01*
X107958466Y-105358897D01*
X107983452Y-105328452D01*
X108013897Y-105303466D01*
X108048633Y-105284899D01*
X108086326Y-105273465D01*
X108131661Y-105269000D01*
X108968339Y-105269000D01*
X109013674Y-105273465D01*
X109013674Y-105273465D01*
G37*
G36*
X111063674Y-105273465D02*
G01*
X111101367Y-105284899D01*
X111136103Y-105303466D01*
X111166548Y-105328452D01*
X111191534Y-105358897D01*
X111210101Y-105393633D01*
X111221535Y-105431326D01*
X111226000Y-105476661D01*
X111226000Y-106563339D01*
X111221535Y-106608674D01*
X111210101Y-106646367D01*
X111191534Y-106681103D01*
X111166548Y-106711548D01*
X111136103Y-106736534D01*
X111101367Y-106755101D01*
X111063674Y-106766535D01*
X111018339Y-106771000D01*
X110181661Y-106771000D01*
X110136326Y-106766535D01*
X110098633Y-106755101D01*
X110063897Y-106736534D01*
X110033452Y-106711548D01*
X110008466Y-106681103D01*
X109989899Y-106646367D01*
X109978465Y-106608674D01*
X109974000Y-106563339D01*
X109974000Y-105476661D01*
X109978465Y-105431326D01*
X109989899Y-105393633D01*
X110008466Y-105358897D01*
X110033452Y-105328452D01*
X110063897Y-105303466D01*
X110098633Y-105284899D01*
X110136326Y-105273465D01*
X110181661Y-105269000D01*
X111018339Y-105269000D01*
X111063674Y-105273465D01*
X111063674Y-105273465D01*
G37*
G36*
X138179294Y-103978633D02*
G01*
X138351695Y-104030931D01*
X138510583Y-104115858D01*
X138649849Y-104230151D01*
X138764142Y-104369417D01*
X138849069Y-104528305D01*
X138901367Y-104700706D01*
X138919025Y-104880000D01*
X138901367Y-105059294D01*
X138849069Y-105231695D01*
X138764142Y-105390583D01*
X138649849Y-105529849D01*
X138510583Y-105644142D01*
X138351695Y-105729069D01*
X138179294Y-105781367D01*
X138044931Y-105794600D01*
X137955069Y-105794600D01*
X137820706Y-105781367D01*
X137648305Y-105729069D01*
X137489417Y-105644142D01*
X137350151Y-105529849D01*
X137235858Y-105390583D01*
X137150931Y-105231695D01*
X137098633Y-105059294D01*
X137080975Y-104880000D01*
X137098633Y-104700706D01*
X137150931Y-104528305D01*
X137235858Y-104369417D01*
X137350151Y-104230151D01*
X137489417Y-104115858D01*
X137648305Y-104030931D01*
X137820706Y-103978633D01*
X137955069Y-103965400D01*
X138044931Y-103965400D01*
X138179294Y-103978633D01*
X138179294Y-103978633D01*
G37*
G36*
X140719294Y-103978633D02*
G01*
X140891695Y-104030931D01*
X141050583Y-104115858D01*
X141189849Y-104230151D01*
X141304142Y-104369417D01*
X141389069Y-104528305D01*
X141441367Y-104700706D01*
X141459025Y-104880000D01*
X141441367Y-105059294D01*
X141389069Y-105231695D01*
X141304142Y-105390583D01*
X141189849Y-105529849D01*
X141050583Y-105644142D01*
X140891695Y-105729069D01*
X140719294Y-105781367D01*
X140584931Y-105794600D01*
X140495069Y-105794600D01*
X140360706Y-105781367D01*
X140188305Y-105729069D01*
X140029417Y-105644142D01*
X139890151Y-105529849D01*
X139775858Y-105390583D01*
X139690931Y-105231695D01*
X139638633Y-105059294D01*
X139620975Y-104880000D01*
X139638633Y-104700706D01*
X139690931Y-104528305D01*
X139775858Y-104369417D01*
X139890151Y-104230151D01*
X140029417Y-104115858D01*
X140188305Y-104030931D01*
X140360706Y-103978633D01*
X140495069Y-103965400D01*
X140584931Y-103965400D01*
X140719294Y-103978633D01*
X140719294Y-103978633D01*
G37*
G36*
X92033674Y-102743465D02*
G01*
X92071367Y-102754899D01*
X92106103Y-102773466D01*
X92136548Y-102798452D01*
X92161534Y-102828897D01*
X92180101Y-102863633D01*
X92191535Y-102901326D01*
X92196000Y-102946661D01*
X92196000Y-104033339D01*
X92191535Y-104078674D01*
X92180101Y-104116367D01*
X92161534Y-104151103D01*
X92136548Y-104181548D01*
X92106103Y-104206534D01*
X92071367Y-104225101D01*
X92033674Y-104236535D01*
X91988339Y-104241000D01*
X91151661Y-104241000D01*
X91106326Y-104236535D01*
X91068633Y-104225101D01*
X91033897Y-104206534D01*
X91003452Y-104181548D01*
X90978466Y-104151103D01*
X90959899Y-104116367D01*
X90948465Y-104078674D01*
X90944000Y-104033339D01*
X90944000Y-102946661D01*
X90948465Y-102901326D01*
X90959899Y-102863633D01*
X90978466Y-102828897D01*
X91003452Y-102798452D01*
X91033897Y-102773466D01*
X91068633Y-102754899D01*
X91106326Y-102743465D01*
X91151661Y-102739000D01*
X91988339Y-102739000D01*
X92033674Y-102743465D01*
X92033674Y-102743465D01*
G37*
G36*
X94083674Y-102743465D02*
G01*
X94121367Y-102754899D01*
X94156103Y-102773466D01*
X94186548Y-102798452D01*
X94211534Y-102828897D01*
X94230101Y-102863633D01*
X94241535Y-102901326D01*
X94246000Y-102946661D01*
X94246000Y-104033339D01*
X94241535Y-104078674D01*
X94230101Y-104116367D01*
X94211534Y-104151103D01*
X94186548Y-104181548D01*
X94156103Y-104206534D01*
X94121367Y-104225101D01*
X94083674Y-104236535D01*
X94038339Y-104241000D01*
X93201661Y-104241000D01*
X93156326Y-104236535D01*
X93118633Y-104225101D01*
X93083897Y-104206534D01*
X93053452Y-104181548D01*
X93028466Y-104151103D01*
X93009899Y-104116367D01*
X92998465Y-104078674D01*
X92994000Y-104033339D01*
X92994000Y-102946661D01*
X92998465Y-102901326D01*
X93009899Y-102863633D01*
X93028466Y-102828897D01*
X93053452Y-102798452D01*
X93083897Y-102773466D01*
X93118633Y-102754899D01*
X93156326Y-102743465D01*
X93201661Y-102739000D01*
X94038339Y-102739000D01*
X94083674Y-102743465D01*
X94083674Y-102743465D01*
G37*
G36*
X108953674Y-102703465D02*
G01*
X108991367Y-102714899D01*
X109026103Y-102733466D01*
X109056548Y-102758452D01*
X109081534Y-102788897D01*
X109100101Y-102823633D01*
X109111535Y-102861326D01*
X109116000Y-102906661D01*
X109116000Y-103993339D01*
X109111535Y-104038674D01*
X109100101Y-104076367D01*
X109081534Y-104111103D01*
X109056548Y-104141548D01*
X109026103Y-104166534D01*
X108991367Y-104185101D01*
X108953674Y-104196535D01*
X108908339Y-104201000D01*
X108071661Y-104201000D01*
X108026326Y-104196535D01*
X107988633Y-104185101D01*
X107953897Y-104166534D01*
X107923452Y-104141548D01*
X107898466Y-104111103D01*
X107879899Y-104076367D01*
X107868465Y-104038674D01*
X107864000Y-103993339D01*
X107864000Y-102906661D01*
X107868465Y-102861326D01*
X107879899Y-102823633D01*
X107898466Y-102788897D01*
X107923452Y-102758452D01*
X107953897Y-102733466D01*
X107988633Y-102714899D01*
X108026326Y-102703465D01*
X108071661Y-102699000D01*
X108908339Y-102699000D01*
X108953674Y-102703465D01*
X108953674Y-102703465D01*
G37*
G36*
X111003674Y-102703465D02*
G01*
X111041367Y-102714899D01*
X111076103Y-102733466D01*
X111106548Y-102758452D01*
X111131534Y-102788897D01*
X111150101Y-102823633D01*
X111161535Y-102861326D01*
X111166000Y-102906661D01*
X111166000Y-103993339D01*
X111161535Y-104038674D01*
X111150101Y-104076367D01*
X111131534Y-104111103D01*
X111106548Y-104141548D01*
X111076103Y-104166534D01*
X111041367Y-104185101D01*
X111003674Y-104196535D01*
X110958339Y-104201000D01*
X110121661Y-104201000D01*
X110076326Y-104196535D01*
X110038633Y-104185101D01*
X110003897Y-104166534D01*
X109973452Y-104141548D01*
X109948466Y-104111103D01*
X109929899Y-104076367D01*
X109918465Y-104038674D01*
X109914000Y-103993339D01*
X109914000Y-102906661D01*
X109918465Y-102861326D01*
X109929899Y-102823633D01*
X109948466Y-102788897D01*
X109973452Y-102758452D01*
X110003897Y-102733466D01*
X110038633Y-102714899D01*
X110076326Y-102703465D01*
X110121661Y-102699000D01*
X110958339Y-102699000D01*
X111003674Y-102703465D01*
X111003674Y-102703465D01*
G37*
G36*
X151328674Y-102512065D02*
G01*
X151366367Y-102523499D01*
X151401103Y-102542066D01*
X151431548Y-102567052D01*
X151456534Y-102597497D01*
X151475101Y-102632233D01*
X151486535Y-102669926D01*
X151491000Y-102715261D01*
X151491000Y-103801939D01*
X151486535Y-103847274D01*
X151475101Y-103884967D01*
X151456534Y-103919703D01*
X151431548Y-103950148D01*
X151401103Y-103975134D01*
X151366367Y-103993701D01*
X151328674Y-104005135D01*
X151283339Y-104009600D01*
X150446661Y-104009600D01*
X150401326Y-104005135D01*
X150363633Y-103993701D01*
X150328897Y-103975134D01*
X150298452Y-103950148D01*
X150273466Y-103919703D01*
X150254899Y-103884967D01*
X150243465Y-103847274D01*
X150239000Y-103801939D01*
X150239000Y-102715261D01*
X150243465Y-102669926D01*
X150254899Y-102632233D01*
X150273466Y-102597497D01*
X150298452Y-102567052D01*
X150328897Y-102542066D01*
X150363633Y-102523499D01*
X150401326Y-102512065D01*
X150446661Y-102507600D01*
X151283339Y-102507600D01*
X151328674Y-102512065D01*
X151328674Y-102512065D01*
G37*
G36*
X149278674Y-102512065D02*
G01*
X149316367Y-102523499D01*
X149351103Y-102542066D01*
X149381548Y-102567052D01*
X149406534Y-102597497D01*
X149425101Y-102632233D01*
X149436535Y-102669926D01*
X149441000Y-102715261D01*
X149441000Y-103801939D01*
X149436535Y-103847274D01*
X149425101Y-103884967D01*
X149406534Y-103919703D01*
X149381548Y-103950148D01*
X149351103Y-103975134D01*
X149316367Y-103993701D01*
X149278674Y-104005135D01*
X149233339Y-104009600D01*
X148396661Y-104009600D01*
X148351326Y-104005135D01*
X148313633Y-103993701D01*
X148278897Y-103975134D01*
X148248452Y-103950148D01*
X148223466Y-103919703D01*
X148204899Y-103884967D01*
X148193465Y-103847274D01*
X148189000Y-103801939D01*
X148189000Y-102715261D01*
X148193465Y-102669926D01*
X148204899Y-102632233D01*
X148223466Y-102597497D01*
X148248452Y-102567052D01*
X148278897Y-102542066D01*
X148313633Y-102523499D01*
X148351326Y-102512065D01*
X148396661Y-102507600D01*
X149233339Y-102507600D01*
X149278674Y-102512065D01*
X149278674Y-102512065D01*
G37*
G36*
X127663674Y-101853465D02*
G01*
X127701367Y-101864899D01*
X127736103Y-101883466D01*
X127766548Y-101908452D01*
X127791534Y-101938897D01*
X127810101Y-101973633D01*
X127821535Y-102011326D01*
X127826000Y-102056661D01*
X127826000Y-103143339D01*
X127821535Y-103188674D01*
X127810101Y-103226367D01*
X127791534Y-103261103D01*
X127766548Y-103291548D01*
X127736103Y-103316534D01*
X127701367Y-103335101D01*
X127663674Y-103346535D01*
X127618339Y-103351000D01*
X126781661Y-103351000D01*
X126736326Y-103346535D01*
X126698633Y-103335101D01*
X126663897Y-103316534D01*
X126633452Y-103291548D01*
X126608466Y-103261103D01*
X126589899Y-103226367D01*
X126578465Y-103188674D01*
X126574000Y-103143339D01*
X126574000Y-102056661D01*
X126578465Y-102011326D01*
X126589899Y-101973633D01*
X126608466Y-101938897D01*
X126633452Y-101908452D01*
X126663897Y-101883466D01*
X126698633Y-101864899D01*
X126736326Y-101853465D01*
X126781661Y-101849000D01*
X127618339Y-101849000D01*
X127663674Y-101853465D01*
X127663674Y-101853465D01*
G37*
G36*
X129713674Y-101853465D02*
G01*
X129751367Y-101864899D01*
X129786103Y-101883466D01*
X129816548Y-101908452D01*
X129841534Y-101938897D01*
X129860101Y-101973633D01*
X129871535Y-102011326D01*
X129876000Y-102056661D01*
X129876000Y-103143339D01*
X129871535Y-103188674D01*
X129860101Y-103226367D01*
X129841534Y-103261103D01*
X129816548Y-103291548D01*
X129786103Y-103316534D01*
X129751367Y-103335101D01*
X129713674Y-103346535D01*
X129668339Y-103351000D01*
X128831661Y-103351000D01*
X128786326Y-103346535D01*
X128748633Y-103335101D01*
X128713897Y-103316534D01*
X128683452Y-103291548D01*
X128658466Y-103261103D01*
X128639899Y-103226367D01*
X128628465Y-103188674D01*
X128624000Y-103143339D01*
X128624000Y-102056661D01*
X128628465Y-102011326D01*
X128639899Y-101973633D01*
X128658466Y-101938897D01*
X128683452Y-101908452D01*
X128713897Y-101883466D01*
X128748633Y-101864899D01*
X128786326Y-101853465D01*
X128831661Y-101849000D01*
X129668339Y-101849000D01*
X129713674Y-101853465D01*
X129713674Y-101853465D01*
G37*
G36*
X123063674Y-101853465D02*
G01*
X123101367Y-101864899D01*
X123136103Y-101883466D01*
X123166548Y-101908452D01*
X123191534Y-101938897D01*
X123210101Y-101973633D01*
X123221535Y-102011326D01*
X123226000Y-102056661D01*
X123226000Y-103143339D01*
X123221535Y-103188674D01*
X123210101Y-103226367D01*
X123191534Y-103261103D01*
X123166548Y-103291548D01*
X123136103Y-103316534D01*
X123101367Y-103335101D01*
X123063674Y-103346535D01*
X123018339Y-103351000D01*
X122181661Y-103351000D01*
X122136326Y-103346535D01*
X122098633Y-103335101D01*
X122063897Y-103316534D01*
X122033452Y-103291548D01*
X122008466Y-103261103D01*
X121989899Y-103226367D01*
X121978465Y-103188674D01*
X121974000Y-103143339D01*
X121974000Y-102056661D01*
X121978465Y-102011326D01*
X121989899Y-101973633D01*
X122008466Y-101938897D01*
X122033452Y-101908452D01*
X122063897Y-101883466D01*
X122098633Y-101864899D01*
X122136326Y-101853465D01*
X122181661Y-101849000D01*
X123018339Y-101849000D01*
X123063674Y-101853465D01*
X123063674Y-101853465D01*
G37*
G36*
X125113674Y-101853465D02*
G01*
X125151367Y-101864899D01*
X125186103Y-101883466D01*
X125216548Y-101908452D01*
X125241534Y-101938897D01*
X125260101Y-101973633D01*
X125271535Y-102011326D01*
X125276000Y-102056661D01*
X125276000Y-103143339D01*
X125271535Y-103188674D01*
X125260101Y-103226367D01*
X125241534Y-103261103D01*
X125216548Y-103291548D01*
X125186103Y-103316534D01*
X125151367Y-103335101D01*
X125113674Y-103346535D01*
X125068339Y-103351000D01*
X124231661Y-103351000D01*
X124186326Y-103346535D01*
X124148633Y-103335101D01*
X124113897Y-103316534D01*
X124083452Y-103291548D01*
X124058466Y-103261103D01*
X124039899Y-103226367D01*
X124028465Y-103188674D01*
X124024000Y-103143339D01*
X124024000Y-102056661D01*
X124028465Y-102011326D01*
X124039899Y-101973633D01*
X124058466Y-101938897D01*
X124083452Y-101908452D01*
X124113897Y-101883466D01*
X124148633Y-101864899D01*
X124186326Y-101853465D01*
X124231661Y-101849000D01*
X125068339Y-101849000D01*
X125113674Y-101853465D01*
X125113674Y-101853465D01*
G37*
G36*
X140719294Y-101438633D02*
G01*
X140891695Y-101490931D01*
X141050583Y-101575858D01*
X141189849Y-101690151D01*
X141304142Y-101829417D01*
X141389069Y-101988305D01*
X141441367Y-102160706D01*
X141459025Y-102340000D01*
X141441367Y-102519294D01*
X141389069Y-102691695D01*
X141304142Y-102850583D01*
X141189849Y-102989849D01*
X141050583Y-103104142D01*
X140891695Y-103189069D01*
X140719294Y-103241367D01*
X140584931Y-103254600D01*
X140495069Y-103254600D01*
X140360706Y-103241367D01*
X140188305Y-103189069D01*
X140029417Y-103104142D01*
X139890151Y-102989849D01*
X139775858Y-102850583D01*
X139690931Y-102691695D01*
X139638633Y-102519294D01*
X139620975Y-102340000D01*
X139638633Y-102160706D01*
X139690931Y-101988305D01*
X139775858Y-101829417D01*
X139890151Y-101690151D01*
X140029417Y-101575858D01*
X140188305Y-101490931D01*
X140360706Y-101438633D01*
X140495069Y-101425400D01*
X140584931Y-101425400D01*
X140719294Y-101438633D01*
X140719294Y-101438633D01*
G37*
G36*
X138179294Y-101438633D02*
G01*
X138351695Y-101490931D01*
X138510583Y-101575858D01*
X138649849Y-101690151D01*
X138764142Y-101829417D01*
X138849069Y-101988305D01*
X138901367Y-102160706D01*
X138919025Y-102340000D01*
X138901367Y-102519294D01*
X138849069Y-102691695D01*
X138764142Y-102850583D01*
X138649849Y-102989849D01*
X138510583Y-103104142D01*
X138351695Y-103189069D01*
X138179294Y-103241367D01*
X138044931Y-103254600D01*
X137955069Y-103254600D01*
X137820706Y-103241367D01*
X137648305Y-103189069D01*
X137489417Y-103104142D01*
X137350151Y-102989849D01*
X137235858Y-102850583D01*
X137150931Y-102691695D01*
X137098633Y-102519294D01*
X137080975Y-102340000D01*
X137098633Y-102160706D01*
X137150931Y-101988305D01*
X137235858Y-101829417D01*
X137350151Y-101690151D01*
X137489417Y-101575858D01*
X137648305Y-101490931D01*
X137820706Y-101438633D01*
X137955069Y-101425400D01*
X138044931Y-101425400D01*
X138179294Y-101438633D01*
X138179294Y-101438633D01*
G37*
G36*
X138914600Y-100714600D02*
G01*
X137085400Y-100714600D01*
X137085400Y-98885400D01*
X138914600Y-98885400D01*
X138914600Y-100714600D01*
X138914600Y-100714600D01*
G37*
G36*
X140719294Y-98898633D02*
G01*
X140891695Y-98950931D01*
X141050583Y-99035858D01*
X141189849Y-99150151D01*
X141304142Y-99289417D01*
X141389069Y-99448305D01*
X141441367Y-99620706D01*
X141459025Y-99800000D01*
X141441367Y-99979294D01*
X141389069Y-100151695D01*
X141304142Y-100310583D01*
X141189849Y-100449849D01*
X141050583Y-100564142D01*
X140891695Y-100649069D01*
X140719294Y-100701367D01*
X140584931Y-100714600D01*
X140495069Y-100714600D01*
X140360706Y-100701367D01*
X140188305Y-100649069D01*
X140029417Y-100564142D01*
X139890151Y-100449849D01*
X139775858Y-100310583D01*
X139690931Y-100151695D01*
X139638633Y-99979294D01*
X139620975Y-99800000D01*
X139638633Y-99620706D01*
X139690931Y-99448305D01*
X139775858Y-99289417D01*
X139890151Y-99150151D01*
X140029417Y-99035858D01*
X140188305Y-98950931D01*
X140360706Y-98898633D01*
X140495069Y-98885400D01*
X140584931Y-98885400D01*
X140719294Y-98898633D01*
X140719294Y-98898633D01*
G37*
G36*
X119923674Y-98953465D02*
G01*
X119961367Y-98964899D01*
X119996103Y-98983466D01*
X120026548Y-99008452D01*
X120051534Y-99038897D01*
X120070101Y-99073633D01*
X120081535Y-99111326D01*
X120086000Y-99156661D01*
X120086000Y-100243339D01*
X120081535Y-100288674D01*
X120070101Y-100326367D01*
X120051534Y-100361103D01*
X120026548Y-100391548D01*
X119996103Y-100416534D01*
X119961367Y-100435101D01*
X119923674Y-100446535D01*
X119878339Y-100451000D01*
X119041661Y-100451000D01*
X118996326Y-100446535D01*
X118958633Y-100435101D01*
X118923897Y-100416534D01*
X118893452Y-100391548D01*
X118868466Y-100361103D01*
X118849899Y-100326367D01*
X118838465Y-100288674D01*
X118834000Y-100243339D01*
X118834000Y-99156661D01*
X118838465Y-99111326D01*
X118849899Y-99073633D01*
X118868466Y-99038897D01*
X118893452Y-99008452D01*
X118923897Y-98983466D01*
X118958633Y-98964899D01*
X118996326Y-98953465D01*
X119041661Y-98949000D01*
X119878339Y-98949000D01*
X119923674Y-98953465D01*
X119923674Y-98953465D01*
G37*
G36*
X117873674Y-98953465D02*
G01*
X117911367Y-98964899D01*
X117946103Y-98983466D01*
X117976548Y-99008452D01*
X118001534Y-99038897D01*
X118020101Y-99073633D01*
X118031535Y-99111326D01*
X118036000Y-99156661D01*
X118036000Y-100243339D01*
X118031535Y-100288674D01*
X118020101Y-100326367D01*
X118001534Y-100361103D01*
X117976548Y-100391548D01*
X117946103Y-100416534D01*
X117911367Y-100435101D01*
X117873674Y-100446535D01*
X117828339Y-100451000D01*
X116991661Y-100451000D01*
X116946326Y-100446535D01*
X116908633Y-100435101D01*
X116873897Y-100416534D01*
X116843452Y-100391548D01*
X116818466Y-100361103D01*
X116799899Y-100326367D01*
X116788465Y-100288674D01*
X116784000Y-100243339D01*
X116784000Y-99156661D01*
X116788465Y-99111326D01*
X116799899Y-99073633D01*
X116818466Y-99038897D01*
X116843452Y-99008452D01*
X116873897Y-98983466D01*
X116908633Y-98964899D01*
X116946326Y-98953465D01*
X116991661Y-98949000D01*
X117828339Y-98949000D01*
X117873674Y-98953465D01*
X117873674Y-98953465D01*
G37*
G36*
X113041200Y-100417400D02*
G01*
X111139200Y-100417400D01*
X111139200Y-98515400D01*
X113041200Y-98515400D01*
X113041200Y-100417400D01*
X113041200Y-100417400D01*
G37*
G36*
X109867595Y-98551946D02*
G01*
X110040666Y-98623634D01*
X110040667Y-98623635D01*
X110196427Y-98727710D01*
X110328890Y-98860173D01*
X110328891Y-98860175D01*
X110432966Y-99015934D01*
X110504654Y-99189005D01*
X110541200Y-99372733D01*
X110541200Y-99560067D01*
X110504654Y-99743795D01*
X110432966Y-99916866D01*
X110391253Y-99979294D01*
X110328890Y-100072627D01*
X110196427Y-100205090D01*
X110156265Y-100231925D01*
X110040666Y-100309166D01*
X109867595Y-100380854D01*
X109683867Y-100417400D01*
X109496533Y-100417400D01*
X109312805Y-100380854D01*
X109139734Y-100309166D01*
X109024135Y-100231925D01*
X108983973Y-100205090D01*
X108851510Y-100072627D01*
X108789147Y-99979294D01*
X108747434Y-99916866D01*
X108675746Y-99743795D01*
X108639200Y-99560067D01*
X108639200Y-99372733D01*
X108675746Y-99189005D01*
X108747434Y-99015934D01*
X108851509Y-98860175D01*
X108851510Y-98860173D01*
X108983973Y-98727710D01*
X109139733Y-98623635D01*
X109139734Y-98623634D01*
X109312805Y-98551946D01*
X109496533Y-98515400D01*
X109683867Y-98515400D01*
X109867595Y-98551946D01*
X109867595Y-98551946D01*
G37*
G36*
X107367595Y-98551946D02*
G01*
X107540666Y-98623634D01*
X107540667Y-98623635D01*
X107696427Y-98727710D01*
X107828890Y-98860173D01*
X107828891Y-98860175D01*
X107932966Y-99015934D01*
X108004654Y-99189005D01*
X108041200Y-99372733D01*
X108041200Y-99560067D01*
X108004654Y-99743795D01*
X107932966Y-99916866D01*
X107891253Y-99979294D01*
X107828890Y-100072627D01*
X107696427Y-100205090D01*
X107656265Y-100231925D01*
X107540666Y-100309166D01*
X107367595Y-100380854D01*
X107183867Y-100417400D01*
X106996533Y-100417400D01*
X106812805Y-100380854D01*
X106639734Y-100309166D01*
X106524135Y-100231925D01*
X106483973Y-100205090D01*
X106351510Y-100072627D01*
X106289147Y-99979294D01*
X106247434Y-99916866D01*
X106175746Y-99743795D01*
X106139200Y-99560067D01*
X106139200Y-99372733D01*
X106175746Y-99189005D01*
X106247434Y-99015934D01*
X106351509Y-98860175D01*
X106351510Y-98860173D01*
X106483973Y-98727710D01*
X106639733Y-98623635D01*
X106639734Y-98623634D01*
X106812805Y-98551946D01*
X106996533Y-98515400D01*
X107183867Y-98515400D01*
X107367595Y-98551946D01*
X107367595Y-98551946D01*
G37*
G36*
X92742395Y-98544146D02*
G01*
X92915466Y-98615834D01*
X92927141Y-98623635D01*
X93071227Y-98719910D01*
X93203690Y-98852373D01*
X93208903Y-98860175D01*
X93307766Y-99008134D01*
X93379454Y-99181205D01*
X93416000Y-99364933D01*
X93416000Y-99552267D01*
X93379454Y-99735995D01*
X93307766Y-99909066D01*
X93260842Y-99979293D01*
X93203690Y-100064827D01*
X93071227Y-100197290D01*
X93019392Y-100231925D01*
X92915466Y-100301366D01*
X92742395Y-100373054D01*
X92558667Y-100409600D01*
X92371333Y-100409600D01*
X92187605Y-100373054D01*
X92014534Y-100301366D01*
X91910608Y-100231925D01*
X91858773Y-100197290D01*
X91726310Y-100064827D01*
X91669158Y-99979293D01*
X91622234Y-99909066D01*
X91550546Y-99735995D01*
X91514000Y-99552267D01*
X91514000Y-99364933D01*
X91550546Y-99181205D01*
X91622234Y-99008134D01*
X91721097Y-98860175D01*
X91726310Y-98852373D01*
X91858773Y-98719910D01*
X92002859Y-98623635D01*
X92014534Y-98615834D01*
X92187605Y-98544146D01*
X92371333Y-98507600D01*
X92558667Y-98507600D01*
X92742395Y-98544146D01*
X92742395Y-98544146D01*
G37*
G36*
X148742395Y-98544146D02*
G01*
X148915466Y-98615834D01*
X148927141Y-98623635D01*
X149071227Y-98719910D01*
X149203690Y-98852373D01*
X149208903Y-98860175D01*
X149307766Y-99008134D01*
X149379454Y-99181205D01*
X149416000Y-99364933D01*
X149416000Y-99552267D01*
X149379454Y-99735995D01*
X149307766Y-99909066D01*
X149260842Y-99979293D01*
X149203690Y-100064827D01*
X149071227Y-100197290D01*
X149019392Y-100231925D01*
X148915466Y-100301366D01*
X148742395Y-100373054D01*
X148558667Y-100409600D01*
X148371333Y-100409600D01*
X148187605Y-100373054D01*
X148014534Y-100301366D01*
X147910608Y-100231925D01*
X147858773Y-100197290D01*
X147726310Y-100064827D01*
X147669158Y-99979293D01*
X147622234Y-99909066D01*
X147550546Y-99735995D01*
X147514000Y-99552267D01*
X147514000Y-99364933D01*
X147550546Y-99181205D01*
X147622234Y-99008134D01*
X147721097Y-98860175D01*
X147726310Y-98852373D01*
X147858773Y-98719910D01*
X148002859Y-98623635D01*
X148014534Y-98615834D01*
X148187605Y-98544146D01*
X148371333Y-98507600D01*
X148558667Y-98507600D01*
X148742395Y-98544146D01*
X148742395Y-98544146D01*
G37*
G36*
X154416000Y-100409600D02*
G01*
X152514000Y-100409600D01*
X152514000Y-98507600D01*
X154416000Y-98507600D01*
X154416000Y-100409600D01*
X154416000Y-100409600D01*
G37*
G36*
X90242395Y-98544146D02*
G01*
X90415466Y-98615834D01*
X90427141Y-98623635D01*
X90571227Y-98719910D01*
X90703690Y-98852373D01*
X90708903Y-98860175D01*
X90807766Y-99008134D01*
X90879454Y-99181205D01*
X90916000Y-99364933D01*
X90916000Y-99552267D01*
X90879454Y-99735995D01*
X90807766Y-99909066D01*
X90760842Y-99979293D01*
X90703690Y-100064827D01*
X90571227Y-100197290D01*
X90519392Y-100231925D01*
X90415466Y-100301366D01*
X90242395Y-100373054D01*
X90058667Y-100409600D01*
X89871333Y-100409600D01*
X89687605Y-100373054D01*
X89514534Y-100301366D01*
X89410608Y-100231925D01*
X89358773Y-100197290D01*
X89226310Y-100064827D01*
X89169158Y-99979293D01*
X89122234Y-99909066D01*
X89050546Y-99735995D01*
X89014000Y-99552267D01*
X89014000Y-99364933D01*
X89050546Y-99181205D01*
X89122234Y-99008134D01*
X89221097Y-98860175D01*
X89226310Y-98852373D01*
X89358773Y-98719910D01*
X89502859Y-98623635D01*
X89514534Y-98615834D01*
X89687605Y-98544146D01*
X89871333Y-98507600D01*
X90058667Y-98507600D01*
X90242395Y-98544146D01*
X90242395Y-98544146D01*
G37*
G36*
X95916000Y-100409600D02*
G01*
X94014000Y-100409600D01*
X94014000Y-98507600D01*
X95916000Y-98507600D01*
X95916000Y-100409600D01*
X95916000Y-100409600D01*
G37*
G36*
X151242395Y-98544146D02*
G01*
X151415466Y-98615834D01*
X151427141Y-98623635D01*
X151571227Y-98719910D01*
X151703690Y-98852373D01*
X151708903Y-98860175D01*
X151807766Y-99008134D01*
X151879454Y-99181205D01*
X151916000Y-99364933D01*
X151916000Y-99552267D01*
X151879454Y-99735995D01*
X151807766Y-99909066D01*
X151760842Y-99979293D01*
X151703690Y-100064827D01*
X151571227Y-100197290D01*
X151519392Y-100231925D01*
X151415466Y-100301366D01*
X151242395Y-100373054D01*
X151058667Y-100409600D01*
X150871333Y-100409600D01*
X150687605Y-100373054D01*
X150514534Y-100301366D01*
X150410608Y-100231925D01*
X150358773Y-100197290D01*
X150226310Y-100064827D01*
X150169158Y-99979293D01*
X150122234Y-99909066D01*
X150050546Y-99735995D01*
X150014000Y-99552267D01*
X150014000Y-99364933D01*
X150050546Y-99181205D01*
X150122234Y-99008134D01*
X150221097Y-98860175D01*
X150226310Y-98852373D01*
X150358773Y-98719910D01*
X150502859Y-98623635D01*
X150514534Y-98615834D01*
X150687605Y-98544146D01*
X150871333Y-98507600D01*
X151058667Y-98507600D01*
X151242395Y-98544146D01*
X151242395Y-98544146D01*
G37*
G36*
X130313200Y-100366600D02*
G01*
X128411200Y-100366600D01*
X128411200Y-98464600D01*
X130313200Y-98464600D01*
X130313200Y-100366600D01*
X130313200Y-100366600D01*
G37*
G36*
X124639595Y-98501146D02*
G01*
X124812666Y-98572834D01*
X124812667Y-98572835D01*
X124968427Y-98676910D01*
X125100890Y-98809373D01*
X125129623Y-98852375D01*
X125204966Y-98965134D01*
X125276654Y-99138205D01*
X125313200Y-99321933D01*
X125313200Y-99509267D01*
X125276654Y-99692995D01*
X125204966Y-99866066D01*
X125171022Y-99916866D01*
X125100890Y-100021827D01*
X124968427Y-100154290D01*
X124904073Y-100197290D01*
X124812666Y-100258366D01*
X124639595Y-100330054D01*
X124455867Y-100366600D01*
X124268533Y-100366600D01*
X124084805Y-100330054D01*
X123911734Y-100258366D01*
X123820327Y-100197290D01*
X123755973Y-100154290D01*
X123623510Y-100021827D01*
X123553378Y-99916866D01*
X123519434Y-99866066D01*
X123447746Y-99692995D01*
X123411200Y-99509267D01*
X123411200Y-99321933D01*
X123447746Y-99138205D01*
X123519434Y-98965134D01*
X123594777Y-98852375D01*
X123623510Y-98809373D01*
X123755973Y-98676910D01*
X123911733Y-98572835D01*
X123911734Y-98572834D01*
X124084805Y-98501146D01*
X124268533Y-98464600D01*
X124455867Y-98464600D01*
X124639595Y-98501146D01*
X124639595Y-98501146D01*
G37*
G36*
X127139595Y-98501146D02*
G01*
X127312666Y-98572834D01*
X127312667Y-98572835D01*
X127468427Y-98676910D01*
X127600890Y-98809373D01*
X127629623Y-98852375D01*
X127704966Y-98965134D01*
X127776654Y-99138205D01*
X127813200Y-99321933D01*
X127813200Y-99509267D01*
X127776654Y-99692995D01*
X127704966Y-99866066D01*
X127671022Y-99916866D01*
X127600890Y-100021827D01*
X127468427Y-100154290D01*
X127404073Y-100197290D01*
X127312666Y-100258366D01*
X127139595Y-100330054D01*
X126955867Y-100366600D01*
X126768533Y-100366600D01*
X126584805Y-100330054D01*
X126411734Y-100258366D01*
X126320327Y-100197290D01*
X126255973Y-100154290D01*
X126123510Y-100021827D01*
X126053378Y-99916866D01*
X126019434Y-99866066D01*
X125947746Y-99692995D01*
X125911200Y-99509267D01*
X125911200Y-99321933D01*
X125947746Y-99138205D01*
X126019434Y-98965134D01*
X126094777Y-98852375D01*
X126123510Y-98809373D01*
X126255973Y-98676910D01*
X126411733Y-98572835D01*
X126411734Y-98572834D01*
X126584805Y-98501146D01*
X126768533Y-98464600D01*
X126955867Y-98464600D01*
X127139595Y-98501146D01*
X127139595Y-98501146D01*
G37*
G36*
X133122274Y-96738465D02*
G01*
X133159967Y-96749899D01*
X133194703Y-96768466D01*
X133225148Y-96793452D01*
X133250134Y-96823897D01*
X133268701Y-96858633D01*
X133280135Y-96896326D01*
X133284600Y-96941661D01*
X133284600Y-98028339D01*
X133280135Y-98073674D01*
X133268701Y-98111367D01*
X133250134Y-98146103D01*
X133225148Y-98176548D01*
X133194703Y-98201534D01*
X133159967Y-98220101D01*
X133122274Y-98231535D01*
X133076939Y-98236000D01*
X132240261Y-98236000D01*
X132194926Y-98231535D01*
X132157233Y-98220101D01*
X132122497Y-98201534D01*
X132092052Y-98176548D01*
X132067066Y-98146103D01*
X132048499Y-98111367D01*
X132037065Y-98073674D01*
X132032600Y-98028339D01*
X132032600Y-96941661D01*
X132037065Y-96896326D01*
X132048499Y-96858633D01*
X132067066Y-96823897D01*
X132092052Y-96793452D01*
X132122497Y-96768466D01*
X132157233Y-96749899D01*
X132194926Y-96738465D01*
X132240261Y-96734000D01*
X133076939Y-96734000D01*
X133122274Y-96738465D01*
X133122274Y-96738465D01*
G37*
G36*
X135172274Y-96738465D02*
G01*
X135209967Y-96749899D01*
X135244703Y-96768466D01*
X135275148Y-96793452D01*
X135300134Y-96823897D01*
X135318701Y-96858633D01*
X135330135Y-96896326D01*
X135334600Y-96941661D01*
X135334600Y-98028339D01*
X135330135Y-98073674D01*
X135318701Y-98111367D01*
X135300134Y-98146103D01*
X135275148Y-98176548D01*
X135244703Y-98201534D01*
X135209967Y-98220101D01*
X135172274Y-98231535D01*
X135126939Y-98236000D01*
X134290261Y-98236000D01*
X134244926Y-98231535D01*
X134207233Y-98220101D01*
X134172497Y-98201534D01*
X134142052Y-98176548D01*
X134117066Y-98146103D01*
X134098499Y-98111367D01*
X134087065Y-98073674D01*
X134082600Y-98028339D01*
X134082600Y-96941661D01*
X134087065Y-96896326D01*
X134098499Y-96858633D01*
X134117066Y-96823897D01*
X134142052Y-96793452D01*
X134172497Y-96768466D01*
X134207233Y-96749899D01*
X134244926Y-96738465D01*
X134290261Y-96734000D01*
X135126939Y-96734000D01*
X135172274Y-96738465D01*
X135172274Y-96738465D01*
G37*
G36*
X109867595Y-96051946D02*
G01*
X110040666Y-96123634D01*
X110040667Y-96123635D01*
X110196427Y-96227710D01*
X110328890Y-96360173D01*
X110343257Y-96381675D01*
X110432966Y-96515934D01*
X110504654Y-96689005D01*
X110541200Y-96872733D01*
X110541200Y-97060067D01*
X110504654Y-97243795D01*
X110432966Y-97416866D01*
X110406190Y-97456939D01*
X110328890Y-97572627D01*
X110196427Y-97705090D01*
X110118018Y-97757481D01*
X110040666Y-97809166D01*
X109867595Y-97880854D01*
X109683867Y-97917400D01*
X109496533Y-97917400D01*
X109312805Y-97880854D01*
X109139734Y-97809166D01*
X109062382Y-97757481D01*
X108983973Y-97705090D01*
X108851510Y-97572627D01*
X108774210Y-97456939D01*
X108747434Y-97416866D01*
X108675746Y-97243795D01*
X108639200Y-97060067D01*
X108639200Y-96872733D01*
X108675746Y-96689005D01*
X108747434Y-96515934D01*
X108837143Y-96381675D01*
X108851510Y-96360173D01*
X108983973Y-96227710D01*
X109139733Y-96123635D01*
X109139734Y-96123634D01*
X109312805Y-96051946D01*
X109496533Y-96015400D01*
X109683867Y-96015400D01*
X109867595Y-96051946D01*
X109867595Y-96051946D01*
G37*
G36*
X112367595Y-96051946D02*
G01*
X112540666Y-96123634D01*
X112540667Y-96123635D01*
X112696427Y-96227710D01*
X112828890Y-96360173D01*
X112843257Y-96381675D01*
X112932966Y-96515934D01*
X113004654Y-96689005D01*
X113041200Y-96872733D01*
X113041200Y-97060067D01*
X113004654Y-97243795D01*
X112932966Y-97416866D01*
X112906190Y-97456939D01*
X112828890Y-97572627D01*
X112696427Y-97705090D01*
X112618018Y-97757481D01*
X112540666Y-97809166D01*
X112367595Y-97880854D01*
X112183867Y-97917400D01*
X111996533Y-97917400D01*
X111812805Y-97880854D01*
X111639734Y-97809166D01*
X111562382Y-97757481D01*
X111483973Y-97705090D01*
X111351510Y-97572627D01*
X111274210Y-97456939D01*
X111247434Y-97416866D01*
X111175746Y-97243795D01*
X111139200Y-97060067D01*
X111139200Y-96872733D01*
X111175746Y-96689005D01*
X111247434Y-96515934D01*
X111337143Y-96381675D01*
X111351510Y-96360173D01*
X111483973Y-96227710D01*
X111639733Y-96123635D01*
X111639734Y-96123634D01*
X111812805Y-96051946D01*
X111996533Y-96015400D01*
X112183867Y-96015400D01*
X112367595Y-96051946D01*
X112367595Y-96051946D01*
G37*
G36*
X107367595Y-96051946D02*
G01*
X107540666Y-96123634D01*
X107540667Y-96123635D01*
X107696427Y-96227710D01*
X107828890Y-96360173D01*
X107843257Y-96381675D01*
X107932966Y-96515934D01*
X108004654Y-96689005D01*
X108041200Y-96872733D01*
X108041200Y-97060067D01*
X108004654Y-97243795D01*
X107932966Y-97416866D01*
X107906190Y-97456939D01*
X107828890Y-97572627D01*
X107696427Y-97705090D01*
X107618018Y-97757481D01*
X107540666Y-97809166D01*
X107367595Y-97880854D01*
X107183867Y-97917400D01*
X106996533Y-97917400D01*
X106812805Y-97880854D01*
X106639734Y-97809166D01*
X106562382Y-97757481D01*
X106483973Y-97705090D01*
X106351510Y-97572627D01*
X106274210Y-97456939D01*
X106247434Y-97416866D01*
X106175746Y-97243795D01*
X106139200Y-97060067D01*
X106139200Y-96872733D01*
X106175746Y-96689005D01*
X106247434Y-96515934D01*
X106337143Y-96381675D01*
X106351510Y-96360173D01*
X106483973Y-96227710D01*
X106639733Y-96123635D01*
X106639734Y-96123634D01*
X106812805Y-96051946D01*
X106996533Y-96015400D01*
X107183867Y-96015400D01*
X107367595Y-96051946D01*
X107367595Y-96051946D01*
G37*
G36*
X151242395Y-96044146D02*
G01*
X151415466Y-96115834D01*
X151427141Y-96123635D01*
X151571227Y-96219910D01*
X151703690Y-96352373D01*
X151708903Y-96360175D01*
X151807766Y-96508134D01*
X151879454Y-96681205D01*
X151916000Y-96864933D01*
X151916000Y-97052267D01*
X151879454Y-97235995D01*
X151807766Y-97409066D01*
X151783405Y-97445525D01*
X151703690Y-97564827D01*
X151571227Y-97697290D01*
X151492818Y-97749681D01*
X151415466Y-97801366D01*
X151242395Y-97873054D01*
X151058667Y-97909600D01*
X150871333Y-97909600D01*
X150687605Y-97873054D01*
X150514534Y-97801366D01*
X150437182Y-97749681D01*
X150358773Y-97697290D01*
X150226310Y-97564827D01*
X150146595Y-97445525D01*
X150122234Y-97409066D01*
X150050546Y-97235995D01*
X150014000Y-97052267D01*
X150014000Y-96864933D01*
X150050546Y-96681205D01*
X150122234Y-96508134D01*
X150221097Y-96360175D01*
X150226310Y-96352373D01*
X150358773Y-96219910D01*
X150502859Y-96123635D01*
X150514534Y-96115834D01*
X150687605Y-96044146D01*
X150871333Y-96007600D01*
X151058667Y-96007600D01*
X151242395Y-96044146D01*
X151242395Y-96044146D01*
G37*
G36*
X95242395Y-96044146D02*
G01*
X95415466Y-96115834D01*
X95427141Y-96123635D01*
X95571227Y-96219910D01*
X95703690Y-96352373D01*
X95708903Y-96360175D01*
X95807766Y-96508134D01*
X95879454Y-96681205D01*
X95916000Y-96864933D01*
X95916000Y-97052267D01*
X95879454Y-97235995D01*
X95807766Y-97409066D01*
X95783405Y-97445525D01*
X95703690Y-97564827D01*
X95571227Y-97697290D01*
X95492818Y-97749681D01*
X95415466Y-97801366D01*
X95242395Y-97873054D01*
X95058667Y-97909600D01*
X94871333Y-97909600D01*
X94687605Y-97873054D01*
X94514534Y-97801366D01*
X94437182Y-97749681D01*
X94358773Y-97697290D01*
X94226310Y-97564827D01*
X94146595Y-97445525D01*
X94122234Y-97409066D01*
X94050546Y-97235995D01*
X94014000Y-97052267D01*
X94014000Y-96864933D01*
X94050546Y-96681205D01*
X94122234Y-96508134D01*
X94221097Y-96360175D01*
X94226310Y-96352373D01*
X94358773Y-96219910D01*
X94502859Y-96123635D01*
X94514534Y-96115834D01*
X94687605Y-96044146D01*
X94871333Y-96007600D01*
X95058667Y-96007600D01*
X95242395Y-96044146D01*
X95242395Y-96044146D01*
G37*
G36*
X92742395Y-96044146D02*
G01*
X92915466Y-96115834D01*
X92927141Y-96123635D01*
X93071227Y-96219910D01*
X93203690Y-96352373D01*
X93208903Y-96360175D01*
X93307766Y-96508134D01*
X93379454Y-96681205D01*
X93416000Y-96864933D01*
X93416000Y-97052267D01*
X93379454Y-97235995D01*
X93307766Y-97409066D01*
X93283405Y-97445525D01*
X93203690Y-97564827D01*
X93071227Y-97697290D01*
X92992818Y-97749681D01*
X92915466Y-97801366D01*
X92742395Y-97873054D01*
X92558667Y-97909600D01*
X92371333Y-97909600D01*
X92187605Y-97873054D01*
X92014534Y-97801366D01*
X91937182Y-97749681D01*
X91858773Y-97697290D01*
X91726310Y-97564827D01*
X91646595Y-97445525D01*
X91622234Y-97409066D01*
X91550546Y-97235995D01*
X91514000Y-97052267D01*
X91514000Y-96864933D01*
X91550546Y-96681205D01*
X91622234Y-96508134D01*
X91721097Y-96360175D01*
X91726310Y-96352373D01*
X91858773Y-96219910D01*
X92002859Y-96123635D01*
X92014534Y-96115834D01*
X92187605Y-96044146D01*
X92371333Y-96007600D01*
X92558667Y-96007600D01*
X92742395Y-96044146D01*
X92742395Y-96044146D01*
G37*
G36*
X90242395Y-96044146D02*
G01*
X90415466Y-96115834D01*
X90427141Y-96123635D01*
X90571227Y-96219910D01*
X90703690Y-96352373D01*
X90708903Y-96360175D01*
X90807766Y-96508134D01*
X90879454Y-96681205D01*
X90916000Y-96864933D01*
X90916000Y-97052267D01*
X90879454Y-97235995D01*
X90807766Y-97409066D01*
X90783405Y-97445525D01*
X90703690Y-97564827D01*
X90571227Y-97697290D01*
X90492818Y-97749681D01*
X90415466Y-97801366D01*
X90242395Y-97873054D01*
X90058667Y-97909600D01*
X89871333Y-97909600D01*
X89687605Y-97873054D01*
X89514534Y-97801366D01*
X89437182Y-97749681D01*
X89358773Y-97697290D01*
X89226310Y-97564827D01*
X89146595Y-97445525D01*
X89122234Y-97409066D01*
X89050546Y-97235995D01*
X89014000Y-97052267D01*
X89014000Y-96864933D01*
X89050546Y-96681205D01*
X89122234Y-96508134D01*
X89221097Y-96360175D01*
X89226310Y-96352373D01*
X89358773Y-96219910D01*
X89502859Y-96123635D01*
X89514534Y-96115834D01*
X89687605Y-96044146D01*
X89871333Y-96007600D01*
X90058667Y-96007600D01*
X90242395Y-96044146D01*
X90242395Y-96044146D01*
G37*
G36*
X148742395Y-96044146D02*
G01*
X148915466Y-96115834D01*
X148927141Y-96123635D01*
X149071227Y-96219910D01*
X149203690Y-96352373D01*
X149208903Y-96360175D01*
X149307766Y-96508134D01*
X149379454Y-96681205D01*
X149416000Y-96864933D01*
X149416000Y-97052267D01*
X149379454Y-97235995D01*
X149307766Y-97409066D01*
X149283405Y-97445525D01*
X149203690Y-97564827D01*
X149071227Y-97697290D01*
X148992818Y-97749681D01*
X148915466Y-97801366D01*
X148742395Y-97873054D01*
X148558667Y-97909600D01*
X148371333Y-97909600D01*
X148187605Y-97873054D01*
X148014534Y-97801366D01*
X147937182Y-97749681D01*
X147858773Y-97697290D01*
X147726310Y-97564827D01*
X147646595Y-97445525D01*
X147622234Y-97409066D01*
X147550546Y-97235995D01*
X147514000Y-97052267D01*
X147514000Y-96864933D01*
X147550546Y-96681205D01*
X147622234Y-96508134D01*
X147721097Y-96360175D01*
X147726310Y-96352373D01*
X147858773Y-96219910D01*
X148002859Y-96123635D01*
X148014534Y-96115834D01*
X148187605Y-96044146D01*
X148371333Y-96007600D01*
X148558667Y-96007600D01*
X148742395Y-96044146D01*
X148742395Y-96044146D01*
G37*
G36*
X153742395Y-96044146D02*
G01*
X153915466Y-96115834D01*
X153927141Y-96123635D01*
X154071227Y-96219910D01*
X154203690Y-96352373D01*
X154208903Y-96360175D01*
X154307766Y-96508134D01*
X154379454Y-96681205D01*
X154416000Y-96864933D01*
X154416000Y-97052267D01*
X154379454Y-97235995D01*
X154307766Y-97409066D01*
X154283405Y-97445525D01*
X154203690Y-97564827D01*
X154071227Y-97697290D01*
X153992818Y-97749681D01*
X153915466Y-97801366D01*
X153742395Y-97873054D01*
X153558667Y-97909600D01*
X153371333Y-97909600D01*
X153187605Y-97873054D01*
X153014534Y-97801366D01*
X152937182Y-97749681D01*
X152858773Y-97697290D01*
X152726310Y-97564827D01*
X152646595Y-97445525D01*
X152622234Y-97409066D01*
X152550546Y-97235995D01*
X152514000Y-97052267D01*
X152514000Y-96864933D01*
X152550546Y-96681205D01*
X152622234Y-96508134D01*
X152721097Y-96360175D01*
X152726310Y-96352373D01*
X152858773Y-96219910D01*
X153002859Y-96123635D01*
X153014534Y-96115834D01*
X153187605Y-96044146D01*
X153371333Y-96007600D01*
X153558667Y-96007600D01*
X153742395Y-96044146D01*
X153742395Y-96044146D01*
G37*
G36*
X127139595Y-96001146D02*
G01*
X127312666Y-96072834D01*
X127312667Y-96072835D01*
X127468427Y-96176910D01*
X127600890Y-96309373D01*
X127629623Y-96352375D01*
X127704966Y-96465134D01*
X127776654Y-96638205D01*
X127813200Y-96821933D01*
X127813200Y-97009267D01*
X127776654Y-97192995D01*
X127704966Y-97366066D01*
X127671022Y-97416866D01*
X127600890Y-97521827D01*
X127468427Y-97654290D01*
X127460824Y-97659370D01*
X127312666Y-97758366D01*
X127139595Y-97830054D01*
X126955867Y-97866600D01*
X126768533Y-97866600D01*
X126584805Y-97830054D01*
X126411734Y-97758366D01*
X126263576Y-97659370D01*
X126255973Y-97654290D01*
X126123510Y-97521827D01*
X126053378Y-97416866D01*
X126019434Y-97366066D01*
X125947746Y-97192995D01*
X125911200Y-97009267D01*
X125911200Y-96821933D01*
X125947746Y-96638205D01*
X126019434Y-96465134D01*
X126094777Y-96352375D01*
X126123510Y-96309373D01*
X126255973Y-96176910D01*
X126411733Y-96072835D01*
X126411734Y-96072834D01*
X126584805Y-96001146D01*
X126768533Y-95964600D01*
X126955867Y-95964600D01*
X127139595Y-96001146D01*
X127139595Y-96001146D01*
G37*
G36*
X124639595Y-96001146D02*
G01*
X124812666Y-96072834D01*
X124812667Y-96072835D01*
X124968427Y-96176910D01*
X125100890Y-96309373D01*
X125129623Y-96352375D01*
X125204966Y-96465134D01*
X125276654Y-96638205D01*
X125313200Y-96821933D01*
X125313200Y-97009267D01*
X125276654Y-97192995D01*
X125204966Y-97366066D01*
X125171022Y-97416866D01*
X125100890Y-97521827D01*
X124968427Y-97654290D01*
X124960824Y-97659370D01*
X124812666Y-97758366D01*
X124639595Y-97830054D01*
X124455867Y-97866600D01*
X124268533Y-97866600D01*
X124084805Y-97830054D01*
X123911734Y-97758366D01*
X123763576Y-97659370D01*
X123755973Y-97654290D01*
X123623510Y-97521827D01*
X123553378Y-97416866D01*
X123519434Y-97366066D01*
X123447746Y-97192995D01*
X123411200Y-97009267D01*
X123411200Y-96821933D01*
X123447746Y-96638205D01*
X123519434Y-96465134D01*
X123594777Y-96352375D01*
X123623510Y-96309373D01*
X123755973Y-96176910D01*
X123911733Y-96072835D01*
X123911734Y-96072834D01*
X124084805Y-96001146D01*
X124268533Y-95964600D01*
X124455867Y-95964600D01*
X124639595Y-96001146D01*
X124639595Y-96001146D01*
G37*
G36*
X129639595Y-96001146D02*
G01*
X129812666Y-96072834D01*
X129812667Y-96072835D01*
X129968427Y-96176910D01*
X130100890Y-96309373D01*
X130129623Y-96352375D01*
X130204966Y-96465134D01*
X130276654Y-96638205D01*
X130313200Y-96821933D01*
X130313200Y-97009267D01*
X130276654Y-97192995D01*
X130204966Y-97366066D01*
X130171022Y-97416866D01*
X130100890Y-97521827D01*
X129968427Y-97654290D01*
X129960824Y-97659370D01*
X129812666Y-97758366D01*
X129639595Y-97830054D01*
X129455867Y-97866600D01*
X129268533Y-97866600D01*
X129084805Y-97830054D01*
X128911734Y-97758366D01*
X128763576Y-97659370D01*
X128755973Y-97654290D01*
X128623510Y-97521827D01*
X128553378Y-97416866D01*
X128519434Y-97366066D01*
X128447746Y-97192995D01*
X128411200Y-97009267D01*
X128411200Y-96821933D01*
X128447746Y-96638205D01*
X128519434Y-96465134D01*
X128594777Y-96352375D01*
X128623510Y-96309373D01*
X128755973Y-96176910D01*
X128911733Y-96072835D01*
X128911734Y-96072834D01*
X129084805Y-96001146D01*
X129268533Y-95964600D01*
X129455867Y-95964600D01*
X129639595Y-96001146D01*
X129639595Y-96001146D01*
G37*
G36*
X117925674Y-96167065D02*
G01*
X117963367Y-96178499D01*
X117998103Y-96197066D01*
X118028548Y-96222052D01*
X118053534Y-96252497D01*
X118072101Y-96287233D01*
X118083535Y-96324926D01*
X118088000Y-96370261D01*
X118088000Y-97456939D01*
X118083535Y-97502274D01*
X118072101Y-97539967D01*
X118053534Y-97574703D01*
X118028548Y-97605148D01*
X117998103Y-97630134D01*
X117963367Y-97648701D01*
X117925674Y-97660135D01*
X117880339Y-97664600D01*
X117043661Y-97664600D01*
X116998326Y-97660135D01*
X116960633Y-97648701D01*
X116925897Y-97630134D01*
X116895452Y-97605148D01*
X116870466Y-97574703D01*
X116851899Y-97539967D01*
X116840465Y-97502274D01*
X116836000Y-97456939D01*
X116836000Y-96370261D01*
X116840465Y-96324926D01*
X116851899Y-96287233D01*
X116870466Y-96252497D01*
X116895452Y-96222052D01*
X116925897Y-96197066D01*
X116960633Y-96178499D01*
X116998326Y-96167065D01*
X117043661Y-96162600D01*
X117880339Y-96162600D01*
X117925674Y-96167065D01*
X117925674Y-96167065D01*
G37*
G36*
X119975674Y-96167065D02*
G01*
X120013367Y-96178499D01*
X120048103Y-96197066D01*
X120078548Y-96222052D01*
X120103534Y-96252497D01*
X120122101Y-96287233D01*
X120133535Y-96324926D01*
X120138000Y-96370261D01*
X120138000Y-97456939D01*
X120133535Y-97502274D01*
X120122101Y-97539967D01*
X120103534Y-97574703D01*
X120078548Y-97605148D01*
X120048103Y-97630134D01*
X120013367Y-97648701D01*
X119975674Y-97660135D01*
X119930339Y-97664600D01*
X119093661Y-97664600D01*
X119048326Y-97660135D01*
X119010633Y-97648701D01*
X118975897Y-97630134D01*
X118945452Y-97605148D01*
X118920466Y-97574703D01*
X118901899Y-97539967D01*
X118890465Y-97502274D01*
X118886000Y-97456939D01*
X118886000Y-96370261D01*
X118890465Y-96324926D01*
X118901899Y-96287233D01*
X118920466Y-96252497D01*
X118945452Y-96222052D01*
X118975897Y-96197066D01*
X119010633Y-96178499D01*
X119048326Y-96167065D01*
X119093661Y-96162600D01*
X119930339Y-96162600D01*
X119975674Y-96167065D01*
X119975674Y-96167065D01*
G37*
G36*
X135172274Y-93838465D02*
G01*
X135209967Y-93849899D01*
X135244703Y-93868466D01*
X135275148Y-93893452D01*
X135300134Y-93923897D01*
X135318701Y-93958633D01*
X135330135Y-93996326D01*
X135334600Y-94041661D01*
X135334600Y-95128339D01*
X135330135Y-95173674D01*
X135318701Y-95211367D01*
X135300134Y-95246103D01*
X135275148Y-95276548D01*
X135244703Y-95301534D01*
X135209967Y-95320101D01*
X135172274Y-95331535D01*
X135126939Y-95336000D01*
X134290261Y-95336000D01*
X134244926Y-95331535D01*
X134207233Y-95320101D01*
X134172497Y-95301534D01*
X134142052Y-95276548D01*
X134117066Y-95246103D01*
X134098499Y-95211367D01*
X134087065Y-95173674D01*
X134082600Y-95128339D01*
X134082600Y-94041661D01*
X134087065Y-93996326D01*
X134098499Y-93958633D01*
X134117066Y-93923897D01*
X134142052Y-93893452D01*
X134172497Y-93868466D01*
X134207233Y-93849899D01*
X134244926Y-93838465D01*
X134290261Y-93834000D01*
X135126939Y-93834000D01*
X135172274Y-93838465D01*
X135172274Y-93838465D01*
G37*
G36*
X133122274Y-93838465D02*
G01*
X133159967Y-93849899D01*
X133194703Y-93868466D01*
X133225148Y-93893452D01*
X133250134Y-93923897D01*
X133268701Y-93958633D01*
X133280135Y-93996326D01*
X133284600Y-94041661D01*
X133284600Y-95128339D01*
X133280135Y-95173674D01*
X133268701Y-95211367D01*
X133250134Y-95246103D01*
X133225148Y-95276548D01*
X133194703Y-95301534D01*
X133159967Y-95320101D01*
X133122274Y-95331535D01*
X133076939Y-95336000D01*
X132240261Y-95336000D01*
X132194926Y-95331535D01*
X132157233Y-95320101D01*
X132122497Y-95301534D01*
X132092052Y-95276548D01*
X132067066Y-95246103D01*
X132048499Y-95211367D01*
X132037065Y-95173674D01*
X132032600Y-95128339D01*
X132032600Y-94041661D01*
X132037065Y-93996326D01*
X132048499Y-93958633D01*
X132067066Y-93923897D01*
X132092052Y-93893452D01*
X132122497Y-93868466D01*
X132157233Y-93849899D01*
X132194926Y-93838465D01*
X132240261Y-93834000D01*
X133076939Y-93834000D01*
X133122274Y-93838465D01*
X133122274Y-93838465D01*
G37*
G36*
X119913674Y-92753465D02*
G01*
X119951367Y-92764899D01*
X119986103Y-92783466D01*
X120016548Y-92808452D01*
X120041534Y-92838897D01*
X120060101Y-92873633D01*
X120071535Y-92911326D01*
X120076000Y-92956661D01*
X120076000Y-94043339D01*
X120071535Y-94088674D01*
X120060101Y-94126367D01*
X120041534Y-94161103D01*
X120016548Y-94191548D01*
X119986103Y-94216534D01*
X119951367Y-94235101D01*
X119913674Y-94246535D01*
X119868339Y-94251000D01*
X119031661Y-94251000D01*
X118986326Y-94246535D01*
X118948633Y-94235101D01*
X118913897Y-94216534D01*
X118883452Y-94191548D01*
X118858466Y-94161103D01*
X118839899Y-94126367D01*
X118828465Y-94088674D01*
X118824000Y-94043339D01*
X118824000Y-92956661D01*
X118828465Y-92911326D01*
X118839899Y-92873633D01*
X118858466Y-92838897D01*
X118883452Y-92808452D01*
X118913897Y-92783466D01*
X118948633Y-92764899D01*
X118986326Y-92753465D01*
X119031661Y-92749000D01*
X119868339Y-92749000D01*
X119913674Y-92753465D01*
X119913674Y-92753465D01*
G37*
G36*
X117863674Y-92753465D02*
G01*
X117901367Y-92764899D01*
X117936103Y-92783466D01*
X117966548Y-92808452D01*
X117991534Y-92838897D01*
X118010101Y-92873633D01*
X118021535Y-92911326D01*
X118026000Y-92956661D01*
X118026000Y-94043339D01*
X118021535Y-94088674D01*
X118010101Y-94126367D01*
X117991534Y-94161103D01*
X117966548Y-94191548D01*
X117936103Y-94216534D01*
X117901367Y-94235101D01*
X117863674Y-94246535D01*
X117818339Y-94251000D01*
X116981661Y-94251000D01*
X116936326Y-94246535D01*
X116898633Y-94235101D01*
X116863897Y-94216534D01*
X116833452Y-94191548D01*
X116808466Y-94161103D01*
X116789899Y-94126367D01*
X116778465Y-94088674D01*
X116774000Y-94043339D01*
X116774000Y-92956661D01*
X116778465Y-92911326D01*
X116789899Y-92873633D01*
X116808466Y-92838897D01*
X116833452Y-92808452D01*
X116863897Y-92783466D01*
X116898633Y-92764899D01*
X116936326Y-92753465D01*
X116981661Y-92749000D01*
X117818339Y-92749000D01*
X117863674Y-92753465D01*
X117863674Y-92753465D01*
G37*
G36*
X127378674Y-92768465D02*
G01*
X127416367Y-92779899D01*
X127451103Y-92798466D01*
X127481548Y-92823452D01*
X127506534Y-92853897D01*
X127525101Y-92888633D01*
X127536535Y-92926326D01*
X127541000Y-92971661D01*
X127541000Y-93808339D01*
X127536535Y-93853674D01*
X127525101Y-93891367D01*
X127506534Y-93926103D01*
X127481548Y-93956548D01*
X127451103Y-93981534D01*
X127416367Y-94000101D01*
X127378674Y-94011535D01*
X127333339Y-94016000D01*
X126246661Y-94016000D01*
X126201326Y-94011535D01*
X126163633Y-94000101D01*
X126128897Y-93981534D01*
X126098452Y-93956548D01*
X126073466Y-93926103D01*
X126054899Y-93891367D01*
X126043465Y-93853674D01*
X126039000Y-93808339D01*
X126039000Y-92971661D01*
X126043465Y-92926326D01*
X126054899Y-92888633D01*
X126073466Y-92853897D01*
X126098452Y-92823452D01*
X126128897Y-92798466D01*
X126163633Y-92779899D01*
X126201326Y-92768465D01*
X126246661Y-92764000D01*
X127333339Y-92764000D01*
X127378674Y-92768465D01*
X127378674Y-92768465D01*
G37*
G36*
X143313674Y-92678465D02*
G01*
X143351367Y-92689899D01*
X143386103Y-92708466D01*
X143416548Y-92733452D01*
X143441534Y-92763897D01*
X143460101Y-92798633D01*
X143471535Y-92836326D01*
X143476000Y-92881661D01*
X143476000Y-93718339D01*
X143471535Y-93763674D01*
X143460101Y-93801367D01*
X143441534Y-93836103D01*
X143416548Y-93866548D01*
X143386103Y-93891534D01*
X143351367Y-93910101D01*
X143313674Y-93921535D01*
X143268339Y-93926000D01*
X142181661Y-93926000D01*
X142136326Y-93921535D01*
X142098633Y-93910101D01*
X142063897Y-93891534D01*
X142033452Y-93866548D01*
X142008466Y-93836103D01*
X141989899Y-93801367D01*
X141978465Y-93763674D01*
X141974000Y-93718339D01*
X141974000Y-92881661D01*
X141978465Y-92836326D01*
X141989899Y-92798633D01*
X142008466Y-92763897D01*
X142033452Y-92733452D01*
X142063897Y-92708466D01*
X142098633Y-92689899D01*
X142136326Y-92678465D01*
X142181661Y-92674000D01*
X143268339Y-92674000D01*
X143313674Y-92678465D01*
X143313674Y-92678465D01*
G37*
G36*
X140113674Y-92628465D02*
G01*
X140151367Y-92639899D01*
X140186103Y-92658466D01*
X140216548Y-92683452D01*
X140241534Y-92713897D01*
X140260101Y-92748633D01*
X140271535Y-92786326D01*
X140276000Y-92831661D01*
X140276000Y-93668339D01*
X140271535Y-93713674D01*
X140260101Y-93751367D01*
X140241534Y-93786103D01*
X140216548Y-93816548D01*
X140186103Y-93841534D01*
X140151367Y-93860101D01*
X140113674Y-93871535D01*
X140068339Y-93876000D01*
X138981661Y-93876000D01*
X138936326Y-93871535D01*
X138898633Y-93860101D01*
X138863897Y-93841534D01*
X138833452Y-93816548D01*
X138808466Y-93786103D01*
X138789899Y-93751367D01*
X138778465Y-93713674D01*
X138774000Y-93668339D01*
X138774000Y-92831661D01*
X138778465Y-92786326D01*
X138789899Y-92748633D01*
X138808466Y-92713897D01*
X138833452Y-92683452D01*
X138863897Y-92658466D01*
X138898633Y-92639899D01*
X138936326Y-92628465D01*
X138981661Y-92624000D01*
X140068339Y-92624000D01*
X140113674Y-92628465D01*
X140113674Y-92628465D01*
G37*
G36*
X149863674Y-91253465D02*
G01*
X149901367Y-91264899D01*
X149936103Y-91283466D01*
X149966548Y-91308452D01*
X149991534Y-91338897D01*
X150010101Y-91373633D01*
X150021535Y-91411326D01*
X150026000Y-91456661D01*
X150026000Y-92543339D01*
X150021535Y-92588674D01*
X150010101Y-92626367D01*
X149991534Y-92661103D01*
X149966548Y-92691548D01*
X149936103Y-92716534D01*
X149901367Y-92735101D01*
X149863674Y-92746535D01*
X149818339Y-92751000D01*
X148981661Y-92751000D01*
X148936326Y-92746535D01*
X148898633Y-92735101D01*
X148863897Y-92716534D01*
X148833452Y-92691548D01*
X148808466Y-92661103D01*
X148789899Y-92626367D01*
X148778465Y-92588674D01*
X148774000Y-92543339D01*
X148774000Y-91456661D01*
X148778465Y-91411326D01*
X148789899Y-91373633D01*
X148808466Y-91338897D01*
X148833452Y-91308452D01*
X148863897Y-91283466D01*
X148898633Y-91264899D01*
X148936326Y-91253465D01*
X148981661Y-91249000D01*
X149818339Y-91249000D01*
X149863674Y-91253465D01*
X149863674Y-91253465D01*
G37*
G36*
X147813674Y-91253465D02*
G01*
X147851367Y-91264899D01*
X147886103Y-91283466D01*
X147916548Y-91308452D01*
X147941534Y-91338897D01*
X147960101Y-91373633D01*
X147971535Y-91411326D01*
X147976000Y-91456661D01*
X147976000Y-92543339D01*
X147971535Y-92588674D01*
X147960101Y-92626367D01*
X147941534Y-92661103D01*
X147916548Y-92691548D01*
X147886103Y-92716534D01*
X147851367Y-92735101D01*
X147813674Y-92746535D01*
X147768339Y-92751000D01*
X146931661Y-92751000D01*
X146886326Y-92746535D01*
X146848633Y-92735101D01*
X146813897Y-92716534D01*
X146783452Y-92691548D01*
X146758466Y-92661103D01*
X146739899Y-92626367D01*
X146728465Y-92588674D01*
X146724000Y-92543339D01*
X146724000Y-91456661D01*
X146728465Y-91411326D01*
X146739899Y-91373633D01*
X146758466Y-91338897D01*
X146783452Y-91308452D01*
X146813897Y-91283466D01*
X146848633Y-91264899D01*
X146886326Y-91253465D01*
X146931661Y-91249000D01*
X147768339Y-91249000D01*
X147813674Y-91253465D01*
X147813674Y-91253465D01*
G37*
G36*
X88610443Y-90485519D02*
G01*
X88676627Y-90492037D01*
X88846466Y-90543557D01*
X89002991Y-90627222D01*
X89035276Y-90653718D01*
X89140186Y-90739814D01*
X89215562Y-90831661D01*
X89252778Y-90877009D01*
X89336443Y-91033534D01*
X89387963Y-91203373D01*
X89405359Y-91380000D01*
X89387963Y-91556627D01*
X89340323Y-91713674D01*
X89336442Y-91726468D01*
X89331292Y-91736103D01*
X89252778Y-91882991D01*
X89250077Y-91886282D01*
X89140186Y-92020186D01*
X89038729Y-92103448D01*
X89002991Y-92132778D01*
X88846466Y-92216443D01*
X88676627Y-92267963D01*
X88610443Y-92274481D01*
X88544260Y-92281000D01*
X88455740Y-92281000D01*
X88389557Y-92274481D01*
X88323373Y-92267963D01*
X88153534Y-92216443D01*
X87997009Y-92132778D01*
X87961271Y-92103448D01*
X87859814Y-92020186D01*
X87749923Y-91886282D01*
X87747222Y-91882991D01*
X87668708Y-91736103D01*
X87663558Y-91726468D01*
X87659677Y-91713674D01*
X87612037Y-91556627D01*
X87594641Y-91380000D01*
X87612037Y-91203373D01*
X87663557Y-91033534D01*
X87747222Y-90877009D01*
X87784438Y-90831661D01*
X87859814Y-90739814D01*
X87964724Y-90653718D01*
X87997009Y-90627222D01*
X88153534Y-90543557D01*
X88323373Y-90492037D01*
X88389557Y-90485519D01*
X88455740Y-90479000D01*
X88544260Y-90479000D01*
X88610443Y-90485519D01*
X88610443Y-90485519D01*
G37*
G36*
X127378674Y-90718465D02*
G01*
X127416367Y-90729899D01*
X127451103Y-90748466D01*
X127481548Y-90773452D01*
X127506534Y-90803897D01*
X127525101Y-90838633D01*
X127536535Y-90876326D01*
X127541000Y-90921661D01*
X127541000Y-91758339D01*
X127536535Y-91803674D01*
X127525101Y-91841367D01*
X127506534Y-91876103D01*
X127481548Y-91906548D01*
X127451103Y-91931534D01*
X127416367Y-91950101D01*
X127378674Y-91961535D01*
X127333339Y-91966000D01*
X126246661Y-91966000D01*
X126201326Y-91961535D01*
X126163633Y-91950101D01*
X126128897Y-91931534D01*
X126098452Y-91906548D01*
X126073466Y-91876103D01*
X126054899Y-91841367D01*
X126043465Y-91803674D01*
X126039000Y-91758339D01*
X126039000Y-90921661D01*
X126043465Y-90876326D01*
X126054899Y-90838633D01*
X126073466Y-90803897D01*
X126098452Y-90773452D01*
X126128897Y-90748466D01*
X126163633Y-90729899D01*
X126201326Y-90718465D01*
X126246661Y-90714000D01*
X127333339Y-90714000D01*
X127378674Y-90718465D01*
X127378674Y-90718465D01*
G37*
G36*
X143313674Y-90628465D02*
G01*
X143351367Y-90639899D01*
X143386103Y-90658466D01*
X143416548Y-90683452D01*
X143441534Y-90713897D01*
X143460101Y-90748633D01*
X143471535Y-90786326D01*
X143476000Y-90831661D01*
X143476000Y-91668339D01*
X143471535Y-91713674D01*
X143460101Y-91751367D01*
X143441534Y-91786103D01*
X143416548Y-91816548D01*
X143386103Y-91841534D01*
X143351367Y-91860101D01*
X143313674Y-91871535D01*
X143268339Y-91876000D01*
X142181661Y-91876000D01*
X142136326Y-91871535D01*
X142098633Y-91860101D01*
X142063897Y-91841534D01*
X142033452Y-91816548D01*
X142008466Y-91786103D01*
X141989899Y-91751367D01*
X141978465Y-91713674D01*
X141974000Y-91668339D01*
X141974000Y-90831661D01*
X141978465Y-90786326D01*
X141989899Y-90748633D01*
X142008466Y-90713897D01*
X142033452Y-90683452D01*
X142063897Y-90658466D01*
X142098633Y-90639899D01*
X142136326Y-90628465D01*
X142181661Y-90624000D01*
X143268339Y-90624000D01*
X143313674Y-90628465D01*
X143313674Y-90628465D01*
G37*
G36*
X140113674Y-90578465D02*
G01*
X140151367Y-90589899D01*
X140186103Y-90608466D01*
X140216548Y-90633452D01*
X140241534Y-90663897D01*
X140260101Y-90698633D01*
X140271535Y-90736326D01*
X140276000Y-90781661D01*
X140276000Y-91618339D01*
X140271535Y-91663674D01*
X140260101Y-91701367D01*
X140241534Y-91736103D01*
X140216548Y-91766548D01*
X140186103Y-91791534D01*
X140151367Y-91810101D01*
X140113674Y-91821535D01*
X140068339Y-91826000D01*
X138981661Y-91826000D01*
X138936326Y-91821535D01*
X138898633Y-91810101D01*
X138863897Y-91791534D01*
X138833452Y-91766548D01*
X138808466Y-91736103D01*
X138789899Y-91701367D01*
X138778465Y-91663674D01*
X138774000Y-91618339D01*
X138774000Y-90781661D01*
X138778465Y-90736326D01*
X138789899Y-90698633D01*
X138808466Y-90663897D01*
X138833452Y-90633452D01*
X138863897Y-90608466D01*
X138898633Y-90589899D01*
X138936326Y-90578465D01*
X138981661Y-90574000D01*
X140068339Y-90574000D01*
X140113674Y-90578465D01*
X140113674Y-90578465D01*
G37*
G36*
X133353674Y-90323465D02*
G01*
X133391367Y-90334899D01*
X133426103Y-90353466D01*
X133456548Y-90378452D01*
X133481534Y-90408897D01*
X133500101Y-90443633D01*
X133511535Y-90481326D01*
X133516000Y-90526661D01*
X133516000Y-91613339D01*
X133511535Y-91658674D01*
X133500101Y-91696367D01*
X133481534Y-91731103D01*
X133456548Y-91761548D01*
X133426103Y-91786534D01*
X133391367Y-91805101D01*
X133353674Y-91816535D01*
X133308339Y-91821000D01*
X132471661Y-91821000D01*
X132426326Y-91816535D01*
X132388633Y-91805101D01*
X132353897Y-91786534D01*
X132323452Y-91761548D01*
X132298466Y-91731103D01*
X132279899Y-91696367D01*
X132268465Y-91658674D01*
X132264000Y-91613339D01*
X132264000Y-90526661D01*
X132268465Y-90481326D01*
X132279899Y-90443633D01*
X132298466Y-90408897D01*
X132323452Y-90378452D01*
X132353897Y-90353466D01*
X132388633Y-90334899D01*
X132426326Y-90323465D01*
X132471661Y-90319000D01*
X133308339Y-90319000D01*
X133353674Y-90323465D01*
X133353674Y-90323465D01*
G37*
G36*
X135403674Y-90323465D02*
G01*
X135441367Y-90334899D01*
X135476103Y-90353466D01*
X135506548Y-90378452D01*
X135531534Y-90408897D01*
X135550101Y-90443633D01*
X135561535Y-90481326D01*
X135566000Y-90526661D01*
X135566000Y-91613339D01*
X135561535Y-91658674D01*
X135550101Y-91696367D01*
X135531534Y-91731103D01*
X135506548Y-91761548D01*
X135476103Y-91786534D01*
X135441367Y-91805101D01*
X135403674Y-91816535D01*
X135358339Y-91821000D01*
X134521661Y-91821000D01*
X134476326Y-91816535D01*
X134438633Y-91805101D01*
X134403897Y-91786534D01*
X134373452Y-91761548D01*
X134348466Y-91731103D01*
X134329899Y-91696367D01*
X134318465Y-91658674D01*
X134314000Y-91613339D01*
X134314000Y-90526661D01*
X134318465Y-90481326D01*
X134329899Y-90443633D01*
X134348466Y-90408897D01*
X134373452Y-90378452D01*
X134403897Y-90353466D01*
X134438633Y-90334899D01*
X134476326Y-90323465D01*
X134521661Y-90319000D01*
X135358339Y-90319000D01*
X135403674Y-90323465D01*
X135403674Y-90323465D01*
G37*
G36*
X119863674Y-90153465D02*
G01*
X119901367Y-90164899D01*
X119936103Y-90183466D01*
X119966548Y-90208452D01*
X119991534Y-90238897D01*
X120010101Y-90273633D01*
X120021535Y-90311326D01*
X120026000Y-90356661D01*
X120026000Y-91443339D01*
X120021535Y-91488674D01*
X120010101Y-91526367D01*
X119991534Y-91561103D01*
X119966548Y-91591548D01*
X119936103Y-91616534D01*
X119901367Y-91635101D01*
X119863674Y-91646535D01*
X119818339Y-91651000D01*
X118981661Y-91651000D01*
X118936326Y-91646535D01*
X118898633Y-91635101D01*
X118863897Y-91616534D01*
X118833452Y-91591548D01*
X118808466Y-91561103D01*
X118789899Y-91526367D01*
X118778465Y-91488674D01*
X118774000Y-91443339D01*
X118774000Y-90356661D01*
X118778465Y-90311326D01*
X118789899Y-90273633D01*
X118808466Y-90238897D01*
X118833452Y-90208452D01*
X118863897Y-90183466D01*
X118898633Y-90164899D01*
X118936326Y-90153465D01*
X118981661Y-90149000D01*
X119818339Y-90149000D01*
X119863674Y-90153465D01*
X119863674Y-90153465D01*
G37*
G36*
X117813674Y-90153465D02*
G01*
X117851367Y-90164899D01*
X117886103Y-90183466D01*
X117916548Y-90208452D01*
X117941534Y-90238897D01*
X117960101Y-90273633D01*
X117971535Y-90311326D01*
X117976000Y-90356661D01*
X117976000Y-91443339D01*
X117971535Y-91488674D01*
X117960101Y-91526367D01*
X117941534Y-91561103D01*
X117916548Y-91591548D01*
X117886103Y-91616534D01*
X117851367Y-91635101D01*
X117813674Y-91646535D01*
X117768339Y-91651000D01*
X116931661Y-91651000D01*
X116886326Y-91646535D01*
X116848633Y-91635101D01*
X116813897Y-91616534D01*
X116783452Y-91591548D01*
X116758466Y-91561103D01*
X116739899Y-91526367D01*
X116728465Y-91488674D01*
X116724000Y-91443339D01*
X116724000Y-90356661D01*
X116728465Y-90311326D01*
X116739899Y-90273633D01*
X116758466Y-90238897D01*
X116783452Y-90208452D01*
X116813897Y-90183466D01*
X116848633Y-90164899D01*
X116886326Y-90153465D01*
X116931661Y-90149000D01*
X117768339Y-90149000D01*
X117813674Y-90153465D01*
X117813674Y-90153465D01*
G37*
G36*
X148413674Y-88303465D02*
G01*
X148451367Y-88314899D01*
X148486103Y-88333466D01*
X148516548Y-88358452D01*
X148541534Y-88388897D01*
X148560101Y-88423633D01*
X148571535Y-88461326D01*
X148576000Y-88506661D01*
X148576000Y-89593339D01*
X148571535Y-89638674D01*
X148560101Y-89676367D01*
X148541534Y-89711103D01*
X148516548Y-89741548D01*
X148486103Y-89766534D01*
X148451367Y-89785101D01*
X148413674Y-89796535D01*
X148368339Y-89801000D01*
X147531661Y-89801000D01*
X147486326Y-89796535D01*
X147448633Y-89785101D01*
X147413897Y-89766534D01*
X147383452Y-89741548D01*
X147358466Y-89711103D01*
X147339899Y-89676367D01*
X147328465Y-89638674D01*
X147324000Y-89593339D01*
X147324000Y-88506661D01*
X147328465Y-88461326D01*
X147339899Y-88423633D01*
X147358466Y-88388897D01*
X147383452Y-88358452D01*
X147413897Y-88333466D01*
X147448633Y-88314899D01*
X147486326Y-88303465D01*
X147531661Y-88299000D01*
X148368339Y-88299000D01*
X148413674Y-88303465D01*
X148413674Y-88303465D01*
G37*
G36*
X146363674Y-88303465D02*
G01*
X146401367Y-88314899D01*
X146436103Y-88333466D01*
X146466548Y-88358452D01*
X146491534Y-88388897D01*
X146510101Y-88423633D01*
X146521535Y-88461326D01*
X146526000Y-88506661D01*
X146526000Y-89593339D01*
X146521535Y-89638674D01*
X146510101Y-89676367D01*
X146491534Y-89711103D01*
X146466548Y-89741548D01*
X146436103Y-89766534D01*
X146401367Y-89785101D01*
X146363674Y-89796535D01*
X146318339Y-89801000D01*
X145481661Y-89801000D01*
X145436326Y-89796535D01*
X145398633Y-89785101D01*
X145363897Y-89766534D01*
X145333452Y-89741548D01*
X145308466Y-89711103D01*
X145289899Y-89676367D01*
X145278465Y-89638674D01*
X145274000Y-89593339D01*
X145274000Y-88506661D01*
X145278465Y-88461326D01*
X145289899Y-88423633D01*
X145308466Y-88388897D01*
X145333452Y-88358452D01*
X145363897Y-88333466D01*
X145398633Y-88314899D01*
X145436326Y-88303465D01*
X145481661Y-88299000D01*
X146318339Y-88299000D01*
X146363674Y-88303465D01*
X146363674Y-88303465D01*
G37*
G36*
X88610442Y-87945518D02*
G01*
X88676627Y-87952037D01*
X88846466Y-88003557D01*
X89002991Y-88087222D01*
X89038729Y-88116552D01*
X89140186Y-88199814D01*
X89215829Y-88291987D01*
X89252778Y-88337009D01*
X89336443Y-88493534D01*
X89387963Y-88663373D01*
X89405359Y-88840000D01*
X89387963Y-89016627D01*
X89336443Y-89186466D01*
X89252778Y-89342991D01*
X89223448Y-89378729D01*
X89140186Y-89480186D01*
X89038729Y-89563448D01*
X89002991Y-89592778D01*
X88846466Y-89676443D01*
X88676627Y-89727963D01*
X88610443Y-89734481D01*
X88544260Y-89741000D01*
X88455740Y-89741000D01*
X88389557Y-89734481D01*
X88323373Y-89727963D01*
X88153534Y-89676443D01*
X87997009Y-89592778D01*
X87961271Y-89563448D01*
X87859814Y-89480186D01*
X87776552Y-89378729D01*
X87747222Y-89342991D01*
X87663557Y-89186466D01*
X87612037Y-89016627D01*
X87594641Y-88840000D01*
X87612037Y-88663373D01*
X87663557Y-88493534D01*
X87747222Y-88337009D01*
X87784171Y-88291987D01*
X87859814Y-88199814D01*
X87961271Y-88116552D01*
X87997009Y-88087222D01*
X88153534Y-88003557D01*
X88323373Y-87952037D01*
X88389558Y-87945518D01*
X88455740Y-87939000D01*
X88544260Y-87939000D01*
X88610442Y-87945518D01*
X88610442Y-87945518D01*
G37*
G36*
X111778571Y-87802863D02*
G01*
X111857023Y-87810590D01*
X111957682Y-87841125D01*
X112008013Y-87856392D01*
X112147165Y-87930771D01*
X112269133Y-88030867D01*
X112369229Y-88152835D01*
X112443608Y-88291987D01*
X112443608Y-88291988D01*
X112489410Y-88442977D01*
X112504875Y-88600000D01*
X112489410Y-88757023D01*
X112462489Y-88845770D01*
X112443608Y-88908013D01*
X112369229Y-89047165D01*
X112269133Y-89169133D01*
X112147165Y-89269229D01*
X112008013Y-89343608D01*
X111957682Y-89358875D01*
X111857023Y-89389410D01*
X111778571Y-89397137D01*
X111739346Y-89401000D01*
X111060654Y-89401000D01*
X111021429Y-89397137D01*
X110942977Y-89389410D01*
X110842318Y-89358875D01*
X110791987Y-89343608D01*
X110652835Y-89269229D01*
X110530867Y-89169133D01*
X110430771Y-89047165D01*
X110356392Y-88908013D01*
X110337511Y-88845770D01*
X110310590Y-88757023D01*
X110295125Y-88600000D01*
X110310590Y-88442977D01*
X110356392Y-88291988D01*
X110356392Y-88291987D01*
X110430771Y-88152835D01*
X110530867Y-88030867D01*
X110652835Y-87930771D01*
X110791987Y-87856392D01*
X110842318Y-87841125D01*
X110942977Y-87810590D01*
X111021429Y-87802863D01*
X111060654Y-87799000D01*
X111739346Y-87799000D01*
X111778571Y-87802863D01*
X111778571Y-87802863D01*
G37*
G36*
X97678571Y-87802863D02*
G01*
X97757023Y-87810590D01*
X97857682Y-87841125D01*
X97908013Y-87856392D01*
X98047165Y-87930771D01*
X98169133Y-88030867D01*
X98269229Y-88152835D01*
X98343608Y-88291987D01*
X98343608Y-88291988D01*
X98389410Y-88442977D01*
X98404875Y-88600000D01*
X98389410Y-88757023D01*
X98362489Y-88845770D01*
X98343608Y-88908013D01*
X98269229Y-89047165D01*
X98169133Y-89169133D01*
X98047165Y-89269229D01*
X97908013Y-89343608D01*
X97857682Y-89358875D01*
X97757023Y-89389410D01*
X97678571Y-89397137D01*
X97639346Y-89401000D01*
X96960654Y-89401000D01*
X96921429Y-89397137D01*
X96842977Y-89389410D01*
X96742318Y-89358875D01*
X96691987Y-89343608D01*
X96552835Y-89269229D01*
X96430867Y-89169133D01*
X96330771Y-89047165D01*
X96256392Y-88908013D01*
X96237511Y-88845770D01*
X96210590Y-88757023D01*
X96195125Y-88600000D01*
X96210590Y-88442977D01*
X96256392Y-88291988D01*
X96256392Y-88291987D01*
X96330771Y-88152835D01*
X96430867Y-88030867D01*
X96552835Y-87930771D01*
X96691987Y-87856392D01*
X96742318Y-87841125D01*
X96842977Y-87810590D01*
X96921429Y-87802863D01*
X96960654Y-87799000D01*
X97639346Y-87799000D01*
X97678571Y-87802863D01*
X97678571Y-87802863D01*
G37*
G36*
X123239928Y-86821764D02*
G01*
X123261009Y-86828160D01*
X123280445Y-86838548D01*
X123297476Y-86852524D01*
X123311452Y-86869555D01*
X123321840Y-86888991D01*
X123328236Y-86910072D01*
X123331000Y-86938140D01*
X123331000Y-88751860D01*
X123328236Y-88779928D01*
X123321840Y-88801009D01*
X123311452Y-88820445D01*
X123297476Y-88837476D01*
X123280445Y-88851452D01*
X123261009Y-88861840D01*
X123239928Y-88868236D01*
X123211860Y-88871000D01*
X122748140Y-88871000D01*
X122720072Y-88868236D01*
X122698991Y-88861840D01*
X122679555Y-88851452D01*
X122662524Y-88837476D01*
X122648548Y-88820445D01*
X122638160Y-88801009D01*
X122631764Y-88779928D01*
X122629000Y-88751860D01*
X122629000Y-86938140D01*
X122631764Y-86910072D01*
X122638160Y-86888991D01*
X122648548Y-86869555D01*
X122662524Y-86852524D01*
X122679555Y-86838548D01*
X122698991Y-86828160D01*
X122720072Y-86821764D01*
X122748140Y-86819000D01*
X123211860Y-86819000D01*
X123239928Y-86821764D01*
X123239928Y-86821764D01*
G37*
G36*
X127049928Y-86821764D02*
G01*
X127071009Y-86828160D01*
X127090445Y-86838548D01*
X127107476Y-86852524D01*
X127121452Y-86869555D01*
X127131840Y-86888991D01*
X127138236Y-86910072D01*
X127141000Y-86938140D01*
X127141000Y-88751860D01*
X127138236Y-88779928D01*
X127131840Y-88801009D01*
X127121452Y-88820445D01*
X127107476Y-88837476D01*
X127090445Y-88851452D01*
X127071009Y-88861840D01*
X127049928Y-88868236D01*
X127021860Y-88871000D01*
X126558140Y-88871000D01*
X126530072Y-88868236D01*
X126508991Y-88861840D01*
X126489555Y-88851452D01*
X126472524Y-88837476D01*
X126458548Y-88820445D01*
X126448160Y-88801009D01*
X126441764Y-88779928D01*
X126439000Y-88751860D01*
X126439000Y-86938140D01*
X126441764Y-86910072D01*
X126448160Y-86888991D01*
X126458548Y-86869555D01*
X126472524Y-86852524D01*
X126489555Y-86838548D01*
X126508991Y-86828160D01*
X126530072Y-86821764D01*
X126558140Y-86819000D01*
X127021860Y-86819000D01*
X127049928Y-86821764D01*
X127049928Y-86821764D01*
G37*
G36*
X124509928Y-86821764D02*
G01*
X124531009Y-86828160D01*
X124550445Y-86838548D01*
X124567476Y-86852524D01*
X124581452Y-86869555D01*
X124591840Y-86888991D01*
X124598236Y-86910072D01*
X124601000Y-86938140D01*
X124601000Y-88751860D01*
X124598236Y-88779928D01*
X124591840Y-88801009D01*
X124581452Y-88820445D01*
X124567476Y-88837476D01*
X124550445Y-88851452D01*
X124531009Y-88861840D01*
X124509928Y-88868236D01*
X124481860Y-88871000D01*
X124018140Y-88871000D01*
X123990072Y-88868236D01*
X123968991Y-88861840D01*
X123949555Y-88851452D01*
X123932524Y-88837476D01*
X123918548Y-88820445D01*
X123908160Y-88801009D01*
X123901764Y-88779928D01*
X123899000Y-88751860D01*
X123899000Y-86938140D01*
X123901764Y-86910072D01*
X123908160Y-86888991D01*
X123918548Y-86869555D01*
X123932524Y-86852524D01*
X123949555Y-86838548D01*
X123968991Y-86828160D01*
X123990072Y-86821764D01*
X124018140Y-86819000D01*
X124481860Y-86819000D01*
X124509928Y-86821764D01*
X124509928Y-86821764D01*
G37*
G36*
X125779928Y-86821764D02*
G01*
X125801009Y-86828160D01*
X125820445Y-86838548D01*
X125837476Y-86852524D01*
X125851452Y-86869555D01*
X125861840Y-86888991D01*
X125868236Y-86910072D01*
X125871000Y-86938140D01*
X125871000Y-88751860D01*
X125868236Y-88779928D01*
X125861840Y-88801009D01*
X125851452Y-88820445D01*
X125837476Y-88837476D01*
X125820445Y-88851452D01*
X125801009Y-88861840D01*
X125779928Y-88868236D01*
X125751860Y-88871000D01*
X125288140Y-88871000D01*
X125260072Y-88868236D01*
X125238991Y-88861840D01*
X125219555Y-88851452D01*
X125202524Y-88837476D01*
X125188548Y-88820445D01*
X125178160Y-88801009D01*
X125171764Y-88779928D01*
X125169000Y-88751860D01*
X125169000Y-86938140D01*
X125171764Y-86910072D01*
X125178160Y-86888991D01*
X125188548Y-86869555D01*
X125202524Y-86852524D01*
X125219555Y-86838548D01*
X125238991Y-86828160D01*
X125260072Y-86821764D01*
X125288140Y-86819000D01*
X125751860Y-86819000D01*
X125779928Y-86821764D01*
X125779928Y-86821764D01*
G37*
G36*
X128319928Y-86821764D02*
G01*
X128341009Y-86828160D01*
X128360445Y-86838548D01*
X128377476Y-86852524D01*
X128391452Y-86869555D01*
X128401840Y-86888991D01*
X128408236Y-86910072D01*
X128411000Y-86938140D01*
X128411000Y-88751860D01*
X128408236Y-88779928D01*
X128401840Y-88801009D01*
X128391452Y-88820445D01*
X128377476Y-88837476D01*
X128360445Y-88851452D01*
X128341009Y-88861840D01*
X128319928Y-88868236D01*
X128291860Y-88871000D01*
X127828140Y-88871000D01*
X127800072Y-88868236D01*
X127778991Y-88861840D01*
X127759555Y-88851452D01*
X127742524Y-88837476D01*
X127728548Y-88820445D01*
X127718160Y-88801009D01*
X127711764Y-88779928D01*
X127709000Y-88751860D01*
X127709000Y-86938140D01*
X127711764Y-86910072D01*
X127718160Y-86888991D01*
X127728548Y-86869555D01*
X127742524Y-86852524D01*
X127759555Y-86838548D01*
X127778991Y-86828160D01*
X127800072Y-86821764D01*
X127828140Y-86819000D01*
X128291860Y-86819000D01*
X128319928Y-86821764D01*
X128319928Y-86821764D01*
G37*
G36*
X129589928Y-86821764D02*
G01*
X129611009Y-86828160D01*
X129630445Y-86838548D01*
X129647476Y-86852524D01*
X129661452Y-86869555D01*
X129671840Y-86888991D01*
X129678236Y-86910072D01*
X129681000Y-86938140D01*
X129681000Y-88751860D01*
X129678236Y-88779928D01*
X129671840Y-88801009D01*
X129661452Y-88820445D01*
X129647476Y-88837476D01*
X129630445Y-88851452D01*
X129611009Y-88861840D01*
X129589928Y-88868236D01*
X129561860Y-88871000D01*
X129098140Y-88871000D01*
X129070072Y-88868236D01*
X129048991Y-88861840D01*
X129029555Y-88851452D01*
X129012524Y-88837476D01*
X128998548Y-88820445D01*
X128988160Y-88801009D01*
X128981764Y-88779928D01*
X128979000Y-88751860D01*
X128979000Y-86938140D01*
X128981764Y-86910072D01*
X128988160Y-86888991D01*
X128998548Y-86869555D01*
X129012524Y-86852524D01*
X129029555Y-86838548D01*
X129048991Y-86828160D01*
X129070072Y-86821764D01*
X129098140Y-86819000D01*
X129561860Y-86819000D01*
X129589928Y-86821764D01*
X129589928Y-86821764D01*
G37*
G36*
X130859928Y-86821764D02*
G01*
X130881009Y-86828160D01*
X130900445Y-86838548D01*
X130917476Y-86852524D01*
X130931452Y-86869555D01*
X130941840Y-86888991D01*
X130948236Y-86910072D01*
X130951000Y-86938140D01*
X130951000Y-88751860D01*
X130948236Y-88779928D01*
X130941840Y-88801009D01*
X130931452Y-88820445D01*
X130917476Y-88837476D01*
X130900445Y-88851452D01*
X130881009Y-88861840D01*
X130859928Y-88868236D01*
X130831860Y-88871000D01*
X130368140Y-88871000D01*
X130340072Y-88868236D01*
X130318991Y-88861840D01*
X130299555Y-88851452D01*
X130282524Y-88837476D01*
X130268548Y-88820445D01*
X130258160Y-88801009D01*
X130251764Y-88779928D01*
X130249000Y-88751860D01*
X130249000Y-86938140D01*
X130251764Y-86910072D01*
X130258160Y-86888991D01*
X130268548Y-86869555D01*
X130282524Y-86852524D01*
X130299555Y-86838548D01*
X130318991Y-86828160D01*
X130340072Y-86821764D01*
X130368140Y-86819000D01*
X130831860Y-86819000D01*
X130859928Y-86821764D01*
X130859928Y-86821764D01*
G37*
G36*
X107413674Y-87353465D02*
G01*
X107451367Y-87364899D01*
X107486103Y-87383466D01*
X107516548Y-87408452D01*
X107541534Y-87438897D01*
X107560101Y-87473633D01*
X107571535Y-87511326D01*
X107576000Y-87556661D01*
X107576000Y-88643339D01*
X107571535Y-88688674D01*
X107560101Y-88726367D01*
X107541534Y-88761103D01*
X107516548Y-88791548D01*
X107486103Y-88816534D01*
X107451367Y-88835101D01*
X107413674Y-88846535D01*
X107368339Y-88851000D01*
X106531661Y-88851000D01*
X106486326Y-88846535D01*
X106448633Y-88835101D01*
X106413897Y-88816534D01*
X106383452Y-88791548D01*
X106358466Y-88761103D01*
X106339899Y-88726367D01*
X106328465Y-88688674D01*
X106324000Y-88643339D01*
X106324000Y-87556661D01*
X106328465Y-87511326D01*
X106339899Y-87473633D01*
X106358466Y-87438897D01*
X106383452Y-87408452D01*
X106413897Y-87383466D01*
X106448633Y-87364899D01*
X106486326Y-87353465D01*
X106531661Y-87349000D01*
X107368339Y-87349000D01*
X107413674Y-87353465D01*
X107413674Y-87353465D01*
G37*
G36*
X105363674Y-87353465D02*
G01*
X105401367Y-87364899D01*
X105436103Y-87383466D01*
X105466548Y-87408452D01*
X105491534Y-87438897D01*
X105510101Y-87473633D01*
X105521535Y-87511326D01*
X105526000Y-87556661D01*
X105526000Y-88643339D01*
X105521535Y-88688674D01*
X105510101Y-88726367D01*
X105491534Y-88761103D01*
X105466548Y-88791548D01*
X105436103Y-88816534D01*
X105401367Y-88835101D01*
X105363674Y-88846535D01*
X105318339Y-88851000D01*
X104481661Y-88851000D01*
X104436326Y-88846535D01*
X104398633Y-88835101D01*
X104363897Y-88816534D01*
X104333452Y-88791548D01*
X104308466Y-88761103D01*
X104289899Y-88726367D01*
X104278465Y-88688674D01*
X104274000Y-88643339D01*
X104274000Y-87556661D01*
X104278465Y-87511326D01*
X104289899Y-87473633D01*
X104308466Y-87438897D01*
X104333452Y-87408452D01*
X104363897Y-87383466D01*
X104398633Y-87364899D01*
X104436326Y-87353465D01*
X104481661Y-87349000D01*
X105318339Y-87349000D01*
X105363674Y-87353465D01*
X105363674Y-87353465D01*
G37*
G36*
X135354928Y-86751764D02*
G01*
X135376009Y-86758160D01*
X135395445Y-86768548D01*
X135412476Y-86782524D01*
X135426452Y-86799555D01*
X135436840Y-86818991D01*
X135443236Y-86840072D01*
X135446000Y-86868140D01*
X135446000Y-88681860D01*
X135443236Y-88709928D01*
X135436840Y-88731009D01*
X135426452Y-88750445D01*
X135412476Y-88767476D01*
X135395445Y-88781452D01*
X135376009Y-88791840D01*
X135354928Y-88798236D01*
X135326860Y-88801000D01*
X134863140Y-88801000D01*
X134835072Y-88798236D01*
X134813991Y-88791840D01*
X134794555Y-88781452D01*
X134777524Y-88767476D01*
X134763548Y-88750445D01*
X134753160Y-88731009D01*
X134746764Y-88709928D01*
X134744000Y-88681860D01*
X134744000Y-86868140D01*
X134746764Y-86840072D01*
X134753160Y-86818991D01*
X134763548Y-86799555D01*
X134777524Y-86782524D01*
X134794555Y-86768548D01*
X134813991Y-86758160D01*
X134835072Y-86751764D01*
X134863140Y-86749000D01*
X135326860Y-86749000D01*
X135354928Y-86751764D01*
X135354928Y-86751764D01*
G37*
G36*
X137894928Y-86751764D02*
G01*
X137916009Y-86758160D01*
X137935445Y-86768548D01*
X137952476Y-86782524D01*
X137966452Y-86799555D01*
X137976840Y-86818991D01*
X137983236Y-86840072D01*
X137986000Y-86868140D01*
X137986000Y-88681860D01*
X137983236Y-88709928D01*
X137976840Y-88731009D01*
X137966452Y-88750445D01*
X137952476Y-88767476D01*
X137935445Y-88781452D01*
X137916009Y-88791840D01*
X137894928Y-88798236D01*
X137866860Y-88801000D01*
X137403140Y-88801000D01*
X137375072Y-88798236D01*
X137353991Y-88791840D01*
X137334555Y-88781452D01*
X137317524Y-88767476D01*
X137303548Y-88750445D01*
X137293160Y-88731009D01*
X137286764Y-88709928D01*
X137284000Y-88681860D01*
X137284000Y-86868140D01*
X137286764Y-86840072D01*
X137293160Y-86818991D01*
X137303548Y-86799555D01*
X137317524Y-86782524D01*
X137334555Y-86768548D01*
X137353991Y-86758160D01*
X137375072Y-86751764D01*
X137403140Y-86749000D01*
X137866860Y-86749000D01*
X137894928Y-86751764D01*
X137894928Y-86751764D01*
G37*
G36*
X136624928Y-86751764D02*
G01*
X136646009Y-86758160D01*
X136665445Y-86768548D01*
X136682476Y-86782524D01*
X136696452Y-86799555D01*
X136706840Y-86818991D01*
X136713236Y-86840072D01*
X136716000Y-86868140D01*
X136716000Y-88681860D01*
X136713236Y-88709928D01*
X136706840Y-88731009D01*
X136696452Y-88750445D01*
X136682476Y-88767476D01*
X136665445Y-88781452D01*
X136646009Y-88791840D01*
X136624928Y-88798236D01*
X136596860Y-88801000D01*
X136133140Y-88801000D01*
X136105072Y-88798236D01*
X136083991Y-88791840D01*
X136064555Y-88781452D01*
X136047524Y-88767476D01*
X136033548Y-88750445D01*
X136023160Y-88731009D01*
X136016764Y-88709928D01*
X136014000Y-88681860D01*
X136014000Y-86868140D01*
X136016764Y-86840072D01*
X136023160Y-86818991D01*
X136033548Y-86799555D01*
X136047524Y-86782524D01*
X136064555Y-86768548D01*
X136083991Y-86758160D01*
X136105072Y-86751764D01*
X136133140Y-86749000D01*
X136596860Y-86749000D01*
X136624928Y-86751764D01*
X136624928Y-86751764D01*
G37*
G36*
X139164928Y-86751764D02*
G01*
X139186009Y-86758160D01*
X139205445Y-86768548D01*
X139222476Y-86782524D01*
X139236452Y-86799555D01*
X139246840Y-86818991D01*
X139253236Y-86840072D01*
X139256000Y-86868140D01*
X139256000Y-88681860D01*
X139253236Y-88709928D01*
X139246840Y-88731009D01*
X139236452Y-88750445D01*
X139222476Y-88767476D01*
X139205445Y-88781452D01*
X139186009Y-88791840D01*
X139164928Y-88798236D01*
X139136860Y-88801000D01*
X138673140Y-88801000D01*
X138645072Y-88798236D01*
X138623991Y-88791840D01*
X138604555Y-88781452D01*
X138587524Y-88767476D01*
X138573548Y-88750445D01*
X138563160Y-88731009D01*
X138556764Y-88709928D01*
X138554000Y-88681860D01*
X138554000Y-86868140D01*
X138556764Y-86840072D01*
X138563160Y-86818991D01*
X138573548Y-86799555D01*
X138587524Y-86782524D01*
X138604555Y-86768548D01*
X138623991Y-86758160D01*
X138645072Y-86751764D01*
X138673140Y-86749000D01*
X139136860Y-86749000D01*
X139164928Y-86751764D01*
X139164928Y-86751764D01*
G37*
G36*
X89401000Y-87201000D02*
G01*
X87599000Y-87201000D01*
X87599000Y-85399000D01*
X89401000Y-85399000D01*
X89401000Y-87201000D01*
X89401000Y-87201000D01*
G37*
G36*
X120788674Y-85328465D02*
G01*
X120826367Y-85339899D01*
X120861103Y-85358466D01*
X120891548Y-85383452D01*
X120916534Y-85413897D01*
X120935101Y-85448633D01*
X120946535Y-85486326D01*
X120951000Y-85531661D01*
X120951000Y-86368339D01*
X120946535Y-86413674D01*
X120935101Y-86451367D01*
X120916534Y-86486103D01*
X120891548Y-86516548D01*
X120861103Y-86541534D01*
X120826367Y-86560101D01*
X120788674Y-86571535D01*
X120743339Y-86576000D01*
X119656661Y-86576000D01*
X119611326Y-86571535D01*
X119573633Y-86560101D01*
X119538897Y-86541534D01*
X119508452Y-86516548D01*
X119483466Y-86486103D01*
X119464899Y-86451367D01*
X119453465Y-86413674D01*
X119449000Y-86368339D01*
X119449000Y-85531661D01*
X119453465Y-85486326D01*
X119464899Y-85448633D01*
X119483466Y-85413897D01*
X119508452Y-85383452D01*
X119538897Y-85358466D01*
X119573633Y-85339899D01*
X119611326Y-85328465D01*
X119656661Y-85324000D01*
X120743339Y-85324000D01*
X120788674Y-85328465D01*
X120788674Y-85328465D01*
G37*
G36*
X144543026Y-81717685D02*
G01*
X144633637Y-81745172D01*
X144717136Y-81789803D01*
X144790329Y-81849871D01*
X144850397Y-81923064D01*
X144895028Y-82006563D01*
X144922515Y-82097174D01*
X144932400Y-82197540D01*
X144932400Y-85402460D01*
X144922515Y-85502826D01*
X144895028Y-85593437D01*
X144850397Y-85676936D01*
X144790329Y-85750129D01*
X144717136Y-85810197D01*
X144633637Y-85854828D01*
X144543026Y-85882315D01*
X144442660Y-85892200D01*
X143237740Y-85892200D01*
X143137374Y-85882315D01*
X143046763Y-85854828D01*
X142963264Y-85810197D01*
X142890071Y-85750129D01*
X142830003Y-85676936D01*
X142785372Y-85593437D01*
X142757885Y-85502826D01*
X142748000Y-85402460D01*
X142748000Y-82197540D01*
X142757885Y-82097174D01*
X142785372Y-82006563D01*
X142830003Y-81923064D01*
X142890071Y-81849871D01*
X142963264Y-81789803D01*
X143046763Y-81745172D01*
X143137374Y-81717685D01*
X143237740Y-81707800D01*
X144442660Y-81707800D01*
X144543026Y-81717685D01*
X144543026Y-81717685D01*
G37*
G36*
X153102826Y-81717685D02*
G01*
X153193437Y-81745172D01*
X153276936Y-81789803D01*
X153350129Y-81849871D01*
X153410197Y-81923064D01*
X153454828Y-82006563D01*
X153482315Y-82097174D01*
X153492200Y-82197540D01*
X153492200Y-83572540D01*
X153494602Y-83596926D01*
X153501715Y-83620375D01*
X153513266Y-83641986D01*
X153528811Y-83660928D01*
X153547753Y-83676473D01*
X153569364Y-83688024D01*
X153592813Y-83695137D01*
X153617199Y-83697539D01*
X153641585Y-83695137D01*
X153665034Y-83688024D01*
X153686645Y-83676473D01*
X153705587Y-83660928D01*
X153721132Y-83641986D01*
X153732683Y-83620375D01*
X153739796Y-83596926D01*
X153760453Y-83493075D01*
X153762772Y-83481417D01*
X153845105Y-83282649D01*
X153964633Y-83103763D01*
X154116763Y-82951633D01*
X154295649Y-82832105D01*
X154494417Y-82749772D01*
X154564754Y-82735781D01*
X154705426Y-82707800D01*
X154920574Y-82707800D01*
X155061246Y-82735781D01*
X155131583Y-82749772D01*
X155330351Y-82832105D01*
X155509237Y-82951633D01*
X155661367Y-83103763D01*
X155780895Y-83282649D01*
X155863228Y-83481417D01*
X155865547Y-83493075D01*
X155905200Y-83692426D01*
X155905200Y-83907574D01*
X155895167Y-83958014D01*
X155863228Y-84118583D01*
X155780895Y-84317351D01*
X155749943Y-84363674D01*
X155664510Y-84491534D01*
X155661367Y-84496237D01*
X155509237Y-84648367D01*
X155330351Y-84767895D01*
X155131583Y-84850228D01*
X155061246Y-84864219D01*
X154920574Y-84892200D01*
X154705426Y-84892200D01*
X154564754Y-84864219D01*
X154494417Y-84850228D01*
X154295649Y-84767895D01*
X154116763Y-84648367D01*
X153964633Y-84496237D01*
X153961491Y-84491534D01*
X153876057Y-84363674D01*
X153845105Y-84317351D01*
X153762772Y-84118583D01*
X153739796Y-84003074D01*
X153732683Y-83979625D01*
X153721132Y-83958014D01*
X153705587Y-83939072D01*
X153686645Y-83923527D01*
X153665034Y-83911976D01*
X153641585Y-83904863D01*
X153617199Y-83902461D01*
X153592813Y-83904863D01*
X153569364Y-83911976D01*
X153547753Y-83923527D01*
X153528811Y-83939072D01*
X153513266Y-83958014D01*
X153501715Y-83979625D01*
X153494602Y-84003074D01*
X153492200Y-84027460D01*
X153492200Y-85402460D01*
X153482315Y-85502826D01*
X153454828Y-85593437D01*
X153410197Y-85676936D01*
X153350129Y-85750129D01*
X153276936Y-85810197D01*
X153193437Y-85854828D01*
X153102826Y-85882315D01*
X153002460Y-85892200D01*
X151797540Y-85892200D01*
X151697174Y-85882315D01*
X151606563Y-85854828D01*
X151523064Y-85810197D01*
X151449871Y-85750129D01*
X151389803Y-85676936D01*
X151345172Y-85593437D01*
X151317685Y-85502826D01*
X151307800Y-85402460D01*
X151307800Y-82197540D01*
X151317685Y-82097174D01*
X151345172Y-82006563D01*
X151389803Y-81923064D01*
X151449871Y-81849871D01*
X151523064Y-81789803D01*
X151606563Y-81745172D01*
X151697174Y-81717685D01*
X151797540Y-81707800D01*
X153002460Y-81707800D01*
X153102826Y-81717685D01*
X153102826Y-81717685D01*
G37*
G36*
X103208015Y-82356973D02*
G01*
X103311879Y-82388479D01*
X103339055Y-82403005D01*
X103407600Y-82439643D01*
X103491501Y-82508499D01*
X103560357Y-82592400D01*
X103596995Y-82660945D01*
X103611521Y-82688121D01*
X103643027Y-82791985D01*
X103651000Y-82872933D01*
X103651000Y-84927067D01*
X103643027Y-85008015D01*
X103611521Y-85111879D01*
X103560356Y-85207600D01*
X103491501Y-85291501D01*
X103432527Y-85339899D01*
X103407599Y-85360357D01*
X103389803Y-85369869D01*
X103311878Y-85411521D01*
X103208014Y-85443027D01*
X103100000Y-85453666D01*
X102991985Y-85443027D01*
X102888121Y-85411521D01*
X102810197Y-85369869D01*
X102792401Y-85360357D01*
X102767473Y-85339899D01*
X102708499Y-85291501D01*
X102639644Y-85207600D01*
X102588479Y-85111878D01*
X102556973Y-85008014D01*
X102549000Y-84927066D01*
X102549001Y-82872933D01*
X102556974Y-82791985D01*
X102588480Y-82688121D01*
X102603006Y-82660945D01*
X102639644Y-82592400D01*
X102708500Y-82508499D01*
X102792401Y-82439643D01*
X102860946Y-82403005D01*
X102888122Y-82388479D01*
X102991986Y-82356973D01*
X103100000Y-82346334D01*
X103208015Y-82356973D01*
X103208015Y-82356973D01*
G37*
G36*
X95108015Y-82356973D02*
G01*
X95211879Y-82388479D01*
X95239055Y-82403005D01*
X95307600Y-82439643D01*
X95391501Y-82508499D01*
X95460357Y-82592400D01*
X95496995Y-82660945D01*
X95511521Y-82688121D01*
X95543027Y-82791985D01*
X95551000Y-82872933D01*
X95551000Y-84927067D01*
X95543027Y-85008015D01*
X95511521Y-85111879D01*
X95460356Y-85207600D01*
X95391501Y-85291501D01*
X95332527Y-85339899D01*
X95307599Y-85360357D01*
X95289803Y-85369869D01*
X95211878Y-85411521D01*
X95108014Y-85443027D01*
X95000000Y-85453666D01*
X94891985Y-85443027D01*
X94788121Y-85411521D01*
X94710197Y-85369869D01*
X94692401Y-85360357D01*
X94667473Y-85339899D01*
X94608499Y-85291501D01*
X94539644Y-85207600D01*
X94488479Y-85111878D01*
X94456973Y-85008014D01*
X94449000Y-84927066D01*
X94449001Y-82872933D01*
X94456974Y-82791985D01*
X94488480Y-82688121D01*
X94503006Y-82660945D01*
X94539644Y-82592400D01*
X94608500Y-82508499D01*
X94692401Y-82439643D01*
X94760946Y-82403005D01*
X94788122Y-82388479D01*
X94891986Y-82356973D01*
X95000000Y-82346334D01*
X95108015Y-82356973D01*
X95108015Y-82356973D01*
G37*
G36*
X117308015Y-82356973D02*
G01*
X117411879Y-82388479D01*
X117439055Y-82403005D01*
X117507600Y-82439643D01*
X117591501Y-82508499D01*
X117660357Y-82592400D01*
X117696995Y-82660945D01*
X117711521Y-82688121D01*
X117743027Y-82791985D01*
X117751000Y-82872933D01*
X117751000Y-84927067D01*
X117743027Y-85008015D01*
X117711521Y-85111879D01*
X117660356Y-85207600D01*
X117591501Y-85291501D01*
X117532527Y-85339899D01*
X117507599Y-85360357D01*
X117489803Y-85369869D01*
X117411878Y-85411521D01*
X117308014Y-85443027D01*
X117200000Y-85453666D01*
X117091985Y-85443027D01*
X116988121Y-85411521D01*
X116910197Y-85369869D01*
X116892401Y-85360357D01*
X116867473Y-85339899D01*
X116808499Y-85291501D01*
X116739644Y-85207600D01*
X116688479Y-85111878D01*
X116656973Y-85008014D01*
X116649000Y-84927066D01*
X116649001Y-82872933D01*
X116656974Y-82791985D01*
X116688480Y-82688121D01*
X116703006Y-82660945D01*
X116739644Y-82592400D01*
X116808500Y-82508499D01*
X116892401Y-82439643D01*
X116960946Y-82403005D01*
X116988122Y-82388479D01*
X117091986Y-82356973D01*
X117200000Y-82346334D01*
X117308015Y-82356973D01*
X117308015Y-82356973D01*
G37*
G36*
X109208015Y-82356973D02*
G01*
X109311879Y-82388479D01*
X109339055Y-82403005D01*
X109407600Y-82439643D01*
X109491501Y-82508499D01*
X109560357Y-82592400D01*
X109596995Y-82660945D01*
X109611521Y-82688121D01*
X109643027Y-82791985D01*
X109651000Y-82872933D01*
X109651000Y-84927067D01*
X109643027Y-85008015D01*
X109611521Y-85111879D01*
X109560356Y-85207600D01*
X109491501Y-85291501D01*
X109432527Y-85339899D01*
X109407599Y-85360357D01*
X109389803Y-85369869D01*
X109311878Y-85411521D01*
X109208014Y-85443027D01*
X109100000Y-85453666D01*
X108991985Y-85443027D01*
X108888121Y-85411521D01*
X108810197Y-85369869D01*
X108792401Y-85360357D01*
X108767473Y-85339899D01*
X108708499Y-85291501D01*
X108639644Y-85207600D01*
X108588479Y-85111878D01*
X108556973Y-85008014D01*
X108549000Y-84927066D01*
X108549001Y-82872933D01*
X108556974Y-82791985D01*
X108588480Y-82688121D01*
X108603006Y-82660945D01*
X108639644Y-82592400D01*
X108708500Y-82508499D01*
X108792401Y-82439643D01*
X108860946Y-82403005D01*
X108888122Y-82388479D01*
X108991986Y-82356973D01*
X109100000Y-82346334D01*
X109208015Y-82356973D01*
X109208015Y-82356973D01*
G37*
G36*
X120788674Y-83278465D02*
G01*
X120826367Y-83289899D01*
X120861103Y-83308466D01*
X120891548Y-83333452D01*
X120916534Y-83363897D01*
X120935101Y-83398633D01*
X120946535Y-83436326D01*
X120951000Y-83481661D01*
X120951000Y-84318339D01*
X120946535Y-84363674D01*
X120935101Y-84401367D01*
X120916534Y-84436103D01*
X120891548Y-84466548D01*
X120861103Y-84491534D01*
X120826367Y-84510101D01*
X120788674Y-84521535D01*
X120743339Y-84526000D01*
X119656661Y-84526000D01*
X119611326Y-84521535D01*
X119573633Y-84510101D01*
X119538897Y-84491534D01*
X119508452Y-84466548D01*
X119483466Y-84436103D01*
X119464899Y-84401367D01*
X119453465Y-84363674D01*
X119449000Y-84318339D01*
X119449000Y-83481661D01*
X119453465Y-83436326D01*
X119464899Y-83398633D01*
X119483466Y-83363897D01*
X119508452Y-83333452D01*
X119538897Y-83308466D01*
X119573633Y-83289899D01*
X119611326Y-83278465D01*
X119656661Y-83274000D01*
X120743339Y-83274000D01*
X120788674Y-83278465D01*
X120788674Y-83278465D01*
G37*
G36*
X128319928Y-81871764D02*
G01*
X128341009Y-81878160D01*
X128360445Y-81888548D01*
X128377476Y-81902524D01*
X128391452Y-81919555D01*
X128401840Y-81938991D01*
X128408236Y-81960072D01*
X128411000Y-81988140D01*
X128411000Y-83801860D01*
X128408236Y-83829928D01*
X128401840Y-83851009D01*
X128391452Y-83870445D01*
X128377476Y-83887476D01*
X128360445Y-83901452D01*
X128341009Y-83911840D01*
X128319928Y-83918236D01*
X128291860Y-83921000D01*
X127828140Y-83921000D01*
X127800072Y-83918236D01*
X127778991Y-83911840D01*
X127759555Y-83901452D01*
X127742524Y-83887476D01*
X127728548Y-83870445D01*
X127718160Y-83851009D01*
X127711764Y-83829928D01*
X127709000Y-83801860D01*
X127709000Y-81988140D01*
X127711764Y-81960072D01*
X127718160Y-81938991D01*
X127728548Y-81919555D01*
X127742524Y-81902524D01*
X127759555Y-81888548D01*
X127778991Y-81878160D01*
X127800072Y-81871764D01*
X127828140Y-81869000D01*
X128291860Y-81869000D01*
X128319928Y-81871764D01*
X128319928Y-81871764D01*
G37*
G36*
X125779928Y-81871764D02*
G01*
X125801009Y-81878160D01*
X125820445Y-81888548D01*
X125837476Y-81902524D01*
X125851452Y-81919555D01*
X125861840Y-81938991D01*
X125868236Y-81960072D01*
X125871000Y-81988140D01*
X125871000Y-83801860D01*
X125868236Y-83829928D01*
X125861840Y-83851009D01*
X125851452Y-83870445D01*
X125837476Y-83887476D01*
X125820445Y-83901452D01*
X125801009Y-83911840D01*
X125779928Y-83918236D01*
X125751860Y-83921000D01*
X125288140Y-83921000D01*
X125260072Y-83918236D01*
X125238991Y-83911840D01*
X125219555Y-83901452D01*
X125202524Y-83887476D01*
X125188548Y-83870445D01*
X125178160Y-83851009D01*
X125171764Y-83829928D01*
X125169000Y-83801860D01*
X125169000Y-81988140D01*
X125171764Y-81960072D01*
X125178160Y-81938991D01*
X125188548Y-81919555D01*
X125202524Y-81902524D01*
X125219555Y-81888548D01*
X125238991Y-81878160D01*
X125260072Y-81871764D01*
X125288140Y-81869000D01*
X125751860Y-81869000D01*
X125779928Y-81871764D01*
X125779928Y-81871764D01*
G37*
G36*
X124509928Y-81871764D02*
G01*
X124531009Y-81878160D01*
X124550445Y-81888548D01*
X124567476Y-81902524D01*
X124581452Y-81919555D01*
X124591840Y-81938991D01*
X124598236Y-81960072D01*
X124601000Y-81988140D01*
X124601000Y-83801860D01*
X124598236Y-83829928D01*
X124591840Y-83851009D01*
X124581452Y-83870445D01*
X124567476Y-83887476D01*
X124550445Y-83901452D01*
X124531009Y-83911840D01*
X124509928Y-83918236D01*
X124481860Y-83921000D01*
X124018140Y-83921000D01*
X123990072Y-83918236D01*
X123968991Y-83911840D01*
X123949555Y-83901452D01*
X123932524Y-83887476D01*
X123918548Y-83870445D01*
X123908160Y-83851009D01*
X123901764Y-83829928D01*
X123899000Y-83801860D01*
X123899000Y-81988140D01*
X123901764Y-81960072D01*
X123908160Y-81938991D01*
X123918548Y-81919555D01*
X123932524Y-81902524D01*
X123949555Y-81888548D01*
X123968991Y-81878160D01*
X123990072Y-81871764D01*
X124018140Y-81869000D01*
X124481860Y-81869000D01*
X124509928Y-81871764D01*
X124509928Y-81871764D01*
G37*
G36*
X123239928Y-81871764D02*
G01*
X123261009Y-81878160D01*
X123280445Y-81888548D01*
X123297476Y-81902524D01*
X123311452Y-81919555D01*
X123321840Y-81938991D01*
X123328236Y-81960072D01*
X123331000Y-81988140D01*
X123331000Y-83801860D01*
X123328236Y-83829928D01*
X123321840Y-83851009D01*
X123311452Y-83870445D01*
X123297476Y-83887476D01*
X123280445Y-83901452D01*
X123261009Y-83911840D01*
X123239928Y-83918236D01*
X123211860Y-83921000D01*
X122748140Y-83921000D01*
X122720072Y-83918236D01*
X122698991Y-83911840D01*
X122679555Y-83901452D01*
X122662524Y-83887476D01*
X122648548Y-83870445D01*
X122638160Y-83851009D01*
X122631764Y-83829928D01*
X122629000Y-83801860D01*
X122629000Y-81988140D01*
X122631764Y-81960072D01*
X122638160Y-81938991D01*
X122648548Y-81919555D01*
X122662524Y-81902524D01*
X122679555Y-81888548D01*
X122698991Y-81878160D01*
X122720072Y-81871764D01*
X122748140Y-81869000D01*
X123211860Y-81869000D01*
X123239928Y-81871764D01*
X123239928Y-81871764D01*
G37*
G36*
X130859928Y-81871764D02*
G01*
X130881009Y-81878160D01*
X130900445Y-81888548D01*
X130917476Y-81902524D01*
X130931452Y-81919555D01*
X130941840Y-81938991D01*
X130948236Y-81960072D01*
X130951000Y-81988140D01*
X130951000Y-83801860D01*
X130948236Y-83829928D01*
X130941840Y-83851009D01*
X130931452Y-83870445D01*
X130917476Y-83887476D01*
X130900445Y-83901452D01*
X130881009Y-83911840D01*
X130859928Y-83918236D01*
X130831860Y-83921000D01*
X130368140Y-83921000D01*
X130340072Y-83918236D01*
X130318991Y-83911840D01*
X130299555Y-83901452D01*
X130282524Y-83887476D01*
X130268548Y-83870445D01*
X130258160Y-83851009D01*
X130251764Y-83829928D01*
X130249000Y-83801860D01*
X130249000Y-81988140D01*
X130251764Y-81960072D01*
X130258160Y-81938991D01*
X130268548Y-81919555D01*
X130282524Y-81902524D01*
X130299555Y-81888548D01*
X130318991Y-81878160D01*
X130340072Y-81871764D01*
X130368140Y-81869000D01*
X130831860Y-81869000D01*
X130859928Y-81871764D01*
X130859928Y-81871764D01*
G37*
G36*
X129589928Y-81871764D02*
G01*
X129611009Y-81878160D01*
X129630445Y-81888548D01*
X129647476Y-81902524D01*
X129661452Y-81919555D01*
X129671840Y-81938991D01*
X129678236Y-81960072D01*
X129681000Y-81988140D01*
X129681000Y-83801860D01*
X129678236Y-83829928D01*
X129671840Y-83851009D01*
X129661452Y-83870445D01*
X129647476Y-83887476D01*
X129630445Y-83901452D01*
X129611009Y-83911840D01*
X129589928Y-83918236D01*
X129561860Y-83921000D01*
X129098140Y-83921000D01*
X129070072Y-83918236D01*
X129048991Y-83911840D01*
X129029555Y-83901452D01*
X129012524Y-83887476D01*
X128998548Y-83870445D01*
X128988160Y-83851009D01*
X128981764Y-83829928D01*
X128979000Y-83801860D01*
X128979000Y-81988140D01*
X128981764Y-81960072D01*
X128988160Y-81938991D01*
X128998548Y-81919555D01*
X129012524Y-81902524D01*
X129029555Y-81888548D01*
X129048991Y-81878160D01*
X129070072Y-81871764D01*
X129098140Y-81869000D01*
X129561860Y-81869000D01*
X129589928Y-81871764D01*
X129589928Y-81871764D01*
G37*
G36*
X127049928Y-81871764D02*
G01*
X127071009Y-81878160D01*
X127090445Y-81888548D01*
X127107476Y-81902524D01*
X127121452Y-81919555D01*
X127131840Y-81938991D01*
X127138236Y-81960072D01*
X127141000Y-81988140D01*
X127141000Y-83801860D01*
X127138236Y-83829928D01*
X127131840Y-83851009D01*
X127121452Y-83870445D01*
X127107476Y-83887476D01*
X127090445Y-83901452D01*
X127071009Y-83911840D01*
X127049928Y-83918236D01*
X127021860Y-83921000D01*
X126558140Y-83921000D01*
X126530072Y-83918236D01*
X126508991Y-83911840D01*
X126489555Y-83901452D01*
X126472524Y-83887476D01*
X126458548Y-83870445D01*
X126448160Y-83851009D01*
X126441764Y-83829928D01*
X126439000Y-83801860D01*
X126439000Y-81988140D01*
X126441764Y-81960072D01*
X126448160Y-81938991D01*
X126458548Y-81919555D01*
X126472524Y-81902524D01*
X126489555Y-81888548D01*
X126508991Y-81878160D01*
X126530072Y-81871764D01*
X126558140Y-81869000D01*
X127021860Y-81869000D01*
X127049928Y-81871764D01*
X127049928Y-81871764D01*
G37*
G36*
X139164928Y-81801764D02*
G01*
X139186009Y-81808160D01*
X139205445Y-81818548D01*
X139222476Y-81832524D01*
X139236452Y-81849555D01*
X139246840Y-81868991D01*
X139253236Y-81890072D01*
X139256000Y-81918140D01*
X139256000Y-83731860D01*
X139253236Y-83759928D01*
X139246840Y-83781009D01*
X139236452Y-83800445D01*
X139222476Y-83817476D01*
X139205445Y-83831452D01*
X139186009Y-83841840D01*
X139164928Y-83848236D01*
X139136860Y-83851000D01*
X138673140Y-83851000D01*
X138645072Y-83848236D01*
X138623991Y-83841840D01*
X138604555Y-83831452D01*
X138587524Y-83817476D01*
X138573548Y-83800445D01*
X138563160Y-83781009D01*
X138556764Y-83759928D01*
X138554000Y-83731860D01*
X138554000Y-81918140D01*
X138556764Y-81890072D01*
X138563160Y-81868991D01*
X138573548Y-81849555D01*
X138587524Y-81832524D01*
X138604555Y-81818548D01*
X138623991Y-81808160D01*
X138645072Y-81801764D01*
X138673140Y-81799000D01*
X139136860Y-81799000D01*
X139164928Y-81801764D01*
X139164928Y-81801764D01*
G37*
G36*
X137894928Y-81801764D02*
G01*
X137916009Y-81808160D01*
X137935445Y-81818548D01*
X137952476Y-81832524D01*
X137966452Y-81849555D01*
X137976840Y-81868991D01*
X137983236Y-81890072D01*
X137986000Y-81918140D01*
X137986000Y-83731860D01*
X137983236Y-83759928D01*
X137976840Y-83781009D01*
X137966452Y-83800445D01*
X137952476Y-83817476D01*
X137935445Y-83831452D01*
X137916009Y-83841840D01*
X137894928Y-83848236D01*
X137866860Y-83851000D01*
X137403140Y-83851000D01*
X137375072Y-83848236D01*
X137353991Y-83841840D01*
X137334555Y-83831452D01*
X137317524Y-83817476D01*
X137303548Y-83800445D01*
X137293160Y-83781009D01*
X137286764Y-83759928D01*
X137284000Y-83731860D01*
X137284000Y-81918140D01*
X137286764Y-81890072D01*
X137293160Y-81868991D01*
X137303548Y-81849555D01*
X137317524Y-81832524D01*
X137334555Y-81818548D01*
X137353991Y-81808160D01*
X137375072Y-81801764D01*
X137403140Y-81799000D01*
X137866860Y-81799000D01*
X137894928Y-81801764D01*
X137894928Y-81801764D01*
G37*
G36*
X136624928Y-81801764D02*
G01*
X136646009Y-81808160D01*
X136665445Y-81818548D01*
X136682476Y-81832524D01*
X136696452Y-81849555D01*
X136706840Y-81868991D01*
X136713236Y-81890072D01*
X136716000Y-81918140D01*
X136716000Y-83731860D01*
X136713236Y-83759928D01*
X136706840Y-83781009D01*
X136696452Y-83800445D01*
X136682476Y-83817476D01*
X136665445Y-83831452D01*
X136646009Y-83841840D01*
X136624928Y-83848236D01*
X136596860Y-83851000D01*
X136133140Y-83851000D01*
X136105072Y-83848236D01*
X136083991Y-83841840D01*
X136064555Y-83831452D01*
X136047524Y-83817476D01*
X136033548Y-83800445D01*
X136023160Y-83781009D01*
X136016764Y-83759928D01*
X136014000Y-83731860D01*
X136014000Y-81918140D01*
X136016764Y-81890072D01*
X136023160Y-81868991D01*
X136033548Y-81849555D01*
X136047524Y-81832524D01*
X136064555Y-81818548D01*
X136083991Y-81808160D01*
X136105072Y-81801764D01*
X136133140Y-81799000D01*
X136596860Y-81799000D01*
X136624928Y-81801764D01*
X136624928Y-81801764D01*
G37*
G36*
X135354928Y-81801764D02*
G01*
X135376009Y-81808160D01*
X135395445Y-81818548D01*
X135412476Y-81832524D01*
X135426452Y-81849555D01*
X135436840Y-81868991D01*
X135443236Y-81890072D01*
X135446000Y-81918140D01*
X135446000Y-83731860D01*
X135443236Y-83759928D01*
X135436840Y-83781009D01*
X135426452Y-83800445D01*
X135412476Y-83817476D01*
X135395445Y-83831452D01*
X135376009Y-83841840D01*
X135354928Y-83848236D01*
X135326860Y-83851000D01*
X134863140Y-83851000D01*
X134835072Y-83848236D01*
X134813991Y-83841840D01*
X134794555Y-83831452D01*
X134777524Y-83817476D01*
X134763548Y-83800445D01*
X134753160Y-83781009D01*
X134746764Y-83759928D01*
X134744000Y-83731860D01*
X134744000Y-81918140D01*
X134746764Y-81890072D01*
X134753160Y-81868991D01*
X134763548Y-81849555D01*
X134777524Y-81832524D01*
X134794555Y-81818548D01*
X134813991Y-81808160D01*
X134835072Y-81801764D01*
X134863140Y-81799000D01*
X135326860Y-81799000D01*
X135354928Y-81801764D01*
X135354928Y-81801764D01*
G37*
G36*
X89963674Y-81973465D02*
G01*
X90001367Y-81984899D01*
X90036103Y-82003466D01*
X90066548Y-82028452D01*
X90091534Y-82058897D01*
X90110101Y-82093633D01*
X90121535Y-82131326D01*
X90126000Y-82176661D01*
X90126000Y-83263339D01*
X90121535Y-83308674D01*
X90110101Y-83346367D01*
X90091534Y-83381103D01*
X90066548Y-83411548D01*
X90036103Y-83436534D01*
X90001367Y-83455101D01*
X89963674Y-83466535D01*
X89918339Y-83471000D01*
X89081661Y-83471000D01*
X89036326Y-83466535D01*
X88998633Y-83455101D01*
X88963897Y-83436534D01*
X88933452Y-83411548D01*
X88908466Y-83381103D01*
X88889899Y-83346367D01*
X88878465Y-83308674D01*
X88874000Y-83263339D01*
X88874000Y-82176661D01*
X88878465Y-82131326D01*
X88889899Y-82093633D01*
X88908466Y-82058897D01*
X88933452Y-82028452D01*
X88963897Y-82003466D01*
X88998633Y-81984899D01*
X89036326Y-81973465D01*
X89081661Y-81969000D01*
X89918339Y-81969000D01*
X89963674Y-81973465D01*
X89963674Y-81973465D01*
G37*
G36*
X87913674Y-81973465D02*
G01*
X87951367Y-81984899D01*
X87986103Y-82003466D01*
X88016548Y-82028452D01*
X88041534Y-82058897D01*
X88060101Y-82093633D01*
X88071535Y-82131326D01*
X88076000Y-82176661D01*
X88076000Y-83263339D01*
X88071535Y-83308674D01*
X88060101Y-83346367D01*
X88041534Y-83381103D01*
X88016548Y-83411548D01*
X87986103Y-83436534D01*
X87951367Y-83455101D01*
X87913674Y-83466535D01*
X87868339Y-83471000D01*
X87031661Y-83471000D01*
X86986326Y-83466535D01*
X86948633Y-83455101D01*
X86913897Y-83436534D01*
X86883452Y-83411548D01*
X86858466Y-83381103D01*
X86839899Y-83346367D01*
X86828465Y-83308674D01*
X86824000Y-83263339D01*
X86824000Y-82176661D01*
X86828465Y-82131326D01*
X86839899Y-82093633D01*
X86858466Y-82058897D01*
X86883452Y-82028452D01*
X86913897Y-82003466D01*
X86948633Y-81984899D01*
X86986326Y-81973465D01*
X87031661Y-81969000D01*
X87868339Y-81969000D01*
X87913674Y-81973465D01*
X87913674Y-81973465D01*
G37*
G36*
X107708674Y-80828465D02*
G01*
X107746367Y-80839899D01*
X107781103Y-80858466D01*
X107811548Y-80883452D01*
X107836534Y-80913897D01*
X107855101Y-80948633D01*
X107866535Y-80986326D01*
X107871000Y-81031661D01*
X107871000Y-82118339D01*
X107866535Y-82163674D01*
X107855101Y-82201367D01*
X107836534Y-82236103D01*
X107811548Y-82266548D01*
X107781103Y-82291534D01*
X107746367Y-82310101D01*
X107708674Y-82321535D01*
X107663339Y-82326000D01*
X106826661Y-82326000D01*
X106781326Y-82321535D01*
X106743633Y-82310101D01*
X106708897Y-82291534D01*
X106678452Y-82266548D01*
X106653466Y-82236103D01*
X106634899Y-82201367D01*
X106623465Y-82163674D01*
X106619000Y-82118339D01*
X106619000Y-81031661D01*
X106623465Y-80986326D01*
X106634899Y-80948633D01*
X106653466Y-80913897D01*
X106678452Y-80883452D01*
X106708897Y-80858466D01*
X106743633Y-80839899D01*
X106781326Y-80828465D01*
X106826661Y-80824000D01*
X107663339Y-80824000D01*
X107708674Y-80828465D01*
X107708674Y-80828465D01*
G37*
G36*
X105658674Y-80828465D02*
G01*
X105696367Y-80839899D01*
X105731103Y-80858466D01*
X105761548Y-80883452D01*
X105786534Y-80913897D01*
X105805101Y-80948633D01*
X105816535Y-80986326D01*
X105821000Y-81031661D01*
X105821000Y-82118339D01*
X105816535Y-82163674D01*
X105805101Y-82201367D01*
X105786534Y-82236103D01*
X105761548Y-82266548D01*
X105731103Y-82291534D01*
X105696367Y-82310101D01*
X105658674Y-82321535D01*
X105613339Y-82326000D01*
X104776661Y-82326000D01*
X104731326Y-82321535D01*
X104693633Y-82310101D01*
X104658897Y-82291534D01*
X104628452Y-82266548D01*
X104603466Y-82236103D01*
X104584899Y-82201367D01*
X104573465Y-82163674D01*
X104569000Y-82118339D01*
X104569000Y-81031661D01*
X104573465Y-80986326D01*
X104584899Y-80948633D01*
X104603466Y-80913897D01*
X104628452Y-80883452D01*
X104658897Y-80858466D01*
X104693633Y-80839899D01*
X104731326Y-80828465D01*
X104776661Y-80824000D01*
X105613339Y-80824000D01*
X105658674Y-80828465D01*
X105658674Y-80828465D01*
G37*
G36*
X117663674Y-79653465D02*
G01*
X117701367Y-79664899D01*
X117736103Y-79683466D01*
X117766548Y-79708452D01*
X117791534Y-79738897D01*
X117810101Y-79773633D01*
X117821535Y-79811326D01*
X117826000Y-79856661D01*
X117826000Y-80943339D01*
X117821535Y-80988674D01*
X117810101Y-81026367D01*
X117791534Y-81061103D01*
X117766548Y-81091548D01*
X117736103Y-81116534D01*
X117701367Y-81135101D01*
X117663674Y-81146535D01*
X117618339Y-81151000D01*
X116781661Y-81151000D01*
X116736326Y-81146535D01*
X116698633Y-81135101D01*
X116663897Y-81116534D01*
X116633452Y-81091548D01*
X116608466Y-81061103D01*
X116589899Y-81026367D01*
X116578465Y-80988674D01*
X116574000Y-80943339D01*
X116574000Y-79856661D01*
X116578465Y-79811326D01*
X116589899Y-79773633D01*
X116608466Y-79738897D01*
X116633452Y-79708452D01*
X116663897Y-79683466D01*
X116698633Y-79664899D01*
X116736326Y-79653465D01*
X116781661Y-79649000D01*
X117618339Y-79649000D01*
X117663674Y-79653465D01*
X117663674Y-79653465D01*
G37*
G36*
X115613674Y-79653465D02*
G01*
X115651367Y-79664899D01*
X115686103Y-79683466D01*
X115716548Y-79708452D01*
X115741534Y-79738897D01*
X115760101Y-79773633D01*
X115771535Y-79811326D01*
X115776000Y-79856661D01*
X115776000Y-80943339D01*
X115771535Y-80988674D01*
X115760101Y-81026367D01*
X115741534Y-81061103D01*
X115716548Y-81091548D01*
X115686103Y-81116534D01*
X115651367Y-81135101D01*
X115613674Y-81146535D01*
X115568339Y-81151000D01*
X114731661Y-81151000D01*
X114686326Y-81146535D01*
X114648633Y-81135101D01*
X114613897Y-81116534D01*
X114583452Y-81091548D01*
X114558466Y-81061103D01*
X114539899Y-81026367D01*
X114528465Y-80988674D01*
X114524000Y-80943339D01*
X114524000Y-79856661D01*
X114528465Y-79811326D01*
X114539899Y-79773633D01*
X114558466Y-79738897D01*
X114583452Y-79708452D01*
X114613897Y-79683466D01*
X114648633Y-79664899D01*
X114686326Y-79653465D01*
X114731661Y-79649000D01*
X115568339Y-79649000D01*
X115613674Y-79653465D01*
X115613674Y-79653465D01*
G37*
G36*
X90316000Y-80809600D02*
G01*
X89314000Y-80809600D01*
X89314000Y-79507600D01*
X90316000Y-79507600D01*
X90316000Y-80809600D01*
X90316000Y-80809600D01*
G37*
G36*
X87016000Y-80809600D02*
G01*
X86014000Y-80809600D01*
X86014000Y-79507600D01*
X87016000Y-79507600D01*
X87016000Y-80809600D01*
X87016000Y-80809600D01*
G37*
G36*
X98128571Y-78402863D02*
G01*
X98207023Y-78410590D01*
X98291863Y-78436326D01*
X98358013Y-78456392D01*
X98497165Y-78530771D01*
X98619133Y-78630867D01*
X98719229Y-78752835D01*
X98793608Y-78891987D01*
X98793608Y-78891988D01*
X98839410Y-79042977D01*
X98854875Y-79200000D01*
X98839410Y-79357023D01*
X98819917Y-79421282D01*
X98793608Y-79508013D01*
X98719229Y-79647165D01*
X98619133Y-79769133D01*
X98497165Y-79869229D01*
X98358013Y-79943608D01*
X98307682Y-79958875D01*
X98207023Y-79989410D01*
X98128571Y-79997137D01*
X98089346Y-80001000D01*
X96510654Y-80001000D01*
X96471429Y-79997137D01*
X96392977Y-79989410D01*
X96292318Y-79958875D01*
X96241987Y-79943608D01*
X96102835Y-79869229D01*
X95980867Y-79769133D01*
X95880771Y-79647165D01*
X95806392Y-79508013D01*
X95780083Y-79421282D01*
X95760590Y-79357023D01*
X95745125Y-79200000D01*
X95760590Y-79042977D01*
X95806392Y-78891988D01*
X95806392Y-78891987D01*
X95880771Y-78752835D01*
X95980867Y-78630867D01*
X96102835Y-78530771D01*
X96241987Y-78456392D01*
X96308137Y-78436326D01*
X96392977Y-78410590D01*
X96471429Y-78402863D01*
X96510654Y-78399000D01*
X98089346Y-78399000D01*
X98128571Y-78402863D01*
X98128571Y-78402863D01*
G37*
G36*
X112228571Y-78402863D02*
G01*
X112307023Y-78410590D01*
X112391863Y-78436326D01*
X112458013Y-78456392D01*
X112597165Y-78530771D01*
X112719133Y-78630867D01*
X112819229Y-78752835D01*
X112893608Y-78891987D01*
X112893608Y-78891988D01*
X112939410Y-79042977D01*
X112954875Y-79200000D01*
X112939410Y-79357023D01*
X112919917Y-79421282D01*
X112893608Y-79508013D01*
X112819229Y-79647165D01*
X112719133Y-79769133D01*
X112597165Y-79869229D01*
X112458013Y-79943608D01*
X112407682Y-79958875D01*
X112307023Y-79989410D01*
X112228571Y-79997137D01*
X112189346Y-80001000D01*
X110610654Y-80001000D01*
X110571429Y-79997137D01*
X110492977Y-79989410D01*
X110392318Y-79958875D01*
X110341987Y-79943608D01*
X110202835Y-79869229D01*
X110080867Y-79769133D01*
X109980771Y-79647165D01*
X109906392Y-79508013D01*
X109880083Y-79421282D01*
X109860590Y-79357023D01*
X109845125Y-79200000D01*
X109860590Y-79042977D01*
X109906392Y-78891988D01*
X109906392Y-78891987D01*
X109980771Y-78752835D01*
X110080867Y-78630867D01*
X110202835Y-78530771D01*
X110341987Y-78456392D01*
X110408137Y-78436326D01*
X110492977Y-78410590D01*
X110571429Y-78402863D01*
X110610654Y-78399000D01*
X112189346Y-78399000D01*
X112228571Y-78402863D01*
X112228571Y-78402863D01*
G37*
G36*
X102478674Y-78498465D02*
G01*
X102516367Y-78509899D01*
X102551103Y-78528466D01*
X102581548Y-78553452D01*
X102606534Y-78583897D01*
X102625101Y-78618633D01*
X102636535Y-78656326D01*
X102641000Y-78701661D01*
X102641000Y-79538339D01*
X102636535Y-79583674D01*
X102625101Y-79621367D01*
X102606534Y-79656103D01*
X102581548Y-79686548D01*
X102551103Y-79711534D01*
X102516367Y-79730101D01*
X102478674Y-79741535D01*
X102433339Y-79746000D01*
X101346661Y-79746000D01*
X101301326Y-79741535D01*
X101263633Y-79730101D01*
X101228897Y-79711534D01*
X101198452Y-79686548D01*
X101173466Y-79656103D01*
X101154899Y-79621367D01*
X101143465Y-79583674D01*
X101139000Y-79538339D01*
X101139000Y-78701661D01*
X101143465Y-78656326D01*
X101154899Y-78618633D01*
X101173466Y-78583897D01*
X101198452Y-78553452D01*
X101228897Y-78528466D01*
X101263633Y-78509899D01*
X101301326Y-78498465D01*
X101346661Y-78494000D01*
X102433339Y-78494000D01*
X102478674Y-78498465D01*
X102478674Y-78498465D01*
G37*
G36*
X107713674Y-78078465D02*
G01*
X107751367Y-78089899D01*
X107786103Y-78108466D01*
X107816548Y-78133452D01*
X107841534Y-78163897D01*
X107860101Y-78198633D01*
X107871535Y-78236326D01*
X107876000Y-78281661D01*
X107876000Y-79368339D01*
X107871535Y-79413674D01*
X107860101Y-79451367D01*
X107841534Y-79486103D01*
X107816548Y-79516548D01*
X107786103Y-79541534D01*
X107751367Y-79560101D01*
X107713674Y-79571535D01*
X107668339Y-79576000D01*
X106831661Y-79576000D01*
X106786326Y-79571535D01*
X106748633Y-79560101D01*
X106713897Y-79541534D01*
X106683452Y-79516548D01*
X106658466Y-79486103D01*
X106639899Y-79451367D01*
X106628465Y-79413674D01*
X106624000Y-79368339D01*
X106624000Y-78281661D01*
X106628465Y-78236326D01*
X106639899Y-78198633D01*
X106658466Y-78163897D01*
X106683452Y-78133452D01*
X106713897Y-78108466D01*
X106748633Y-78089899D01*
X106786326Y-78078465D01*
X106831661Y-78074000D01*
X107668339Y-78074000D01*
X107713674Y-78078465D01*
X107713674Y-78078465D01*
G37*
G36*
X105663674Y-78078465D02*
G01*
X105701367Y-78089899D01*
X105736103Y-78108466D01*
X105766548Y-78133452D01*
X105791534Y-78163897D01*
X105810101Y-78198633D01*
X105821535Y-78236326D01*
X105826000Y-78281661D01*
X105826000Y-79368339D01*
X105821535Y-79413674D01*
X105810101Y-79451367D01*
X105791534Y-79486103D01*
X105766548Y-79516548D01*
X105736103Y-79541534D01*
X105701367Y-79560101D01*
X105663674Y-79571535D01*
X105618339Y-79576000D01*
X104781661Y-79576000D01*
X104736326Y-79571535D01*
X104698633Y-79560101D01*
X104663897Y-79541534D01*
X104633452Y-79516548D01*
X104608466Y-79486103D01*
X104589899Y-79451367D01*
X104578465Y-79413674D01*
X104574000Y-79368339D01*
X104574000Y-78281661D01*
X104578465Y-78236326D01*
X104589899Y-78198633D01*
X104608466Y-78163897D01*
X104633452Y-78133452D01*
X104663897Y-78108466D01*
X104698633Y-78089899D01*
X104736326Y-78078465D01*
X104781661Y-78074000D01*
X105618339Y-78074000D01*
X105663674Y-78078465D01*
X105663674Y-78078465D01*
G37*
G36*
X121788674Y-78328465D02*
G01*
X121826367Y-78339899D01*
X121861103Y-78358466D01*
X121891548Y-78383452D01*
X121916534Y-78413897D01*
X121935101Y-78448633D01*
X121946535Y-78486326D01*
X121951000Y-78531661D01*
X121951000Y-79368339D01*
X121946535Y-79413674D01*
X121935101Y-79451367D01*
X121916534Y-79486103D01*
X121891548Y-79516548D01*
X121861103Y-79541534D01*
X121826367Y-79560101D01*
X121788674Y-79571535D01*
X121743339Y-79576000D01*
X120656661Y-79576000D01*
X120611326Y-79571535D01*
X120573633Y-79560101D01*
X120538897Y-79541534D01*
X120508452Y-79516548D01*
X120483466Y-79486103D01*
X120464899Y-79451367D01*
X120453465Y-79413674D01*
X120449000Y-79368339D01*
X120449000Y-78531661D01*
X120453465Y-78486326D01*
X120464899Y-78448633D01*
X120483466Y-78413897D01*
X120508452Y-78383452D01*
X120538897Y-78358466D01*
X120573633Y-78339899D01*
X120611326Y-78328465D01*
X120656661Y-78324000D01*
X121743339Y-78324000D01*
X121788674Y-78328465D01*
X121788674Y-78328465D01*
G37*
G36*
X94278674Y-78303465D02*
G01*
X94316367Y-78314899D01*
X94351103Y-78333466D01*
X94381548Y-78358452D01*
X94406534Y-78388897D01*
X94425101Y-78423633D01*
X94436535Y-78461326D01*
X94441000Y-78506661D01*
X94441000Y-79343339D01*
X94436535Y-79388674D01*
X94425101Y-79426367D01*
X94406534Y-79461103D01*
X94381548Y-79491548D01*
X94351103Y-79516534D01*
X94316367Y-79535101D01*
X94278674Y-79546535D01*
X94233339Y-79551000D01*
X93146661Y-79551000D01*
X93101326Y-79546535D01*
X93063633Y-79535101D01*
X93028897Y-79516534D01*
X92998452Y-79491548D01*
X92973466Y-79461103D01*
X92954899Y-79426367D01*
X92943465Y-79388674D01*
X92939000Y-79343339D01*
X92939000Y-78506661D01*
X92943465Y-78461326D01*
X92954899Y-78423633D01*
X92973466Y-78388897D01*
X92998452Y-78358452D01*
X93028897Y-78333466D01*
X93063633Y-78314899D01*
X93101326Y-78303465D01*
X93146661Y-78299000D01*
X94233339Y-78299000D01*
X94278674Y-78303465D01*
X94278674Y-78303465D01*
G37*
G36*
X124588674Y-78303465D02*
G01*
X124626367Y-78314899D01*
X124661103Y-78333466D01*
X124691548Y-78358452D01*
X124716534Y-78388897D01*
X124735101Y-78423633D01*
X124746535Y-78461326D01*
X124751000Y-78506661D01*
X124751000Y-79343339D01*
X124746535Y-79388674D01*
X124735101Y-79426367D01*
X124716534Y-79461103D01*
X124691548Y-79491548D01*
X124661103Y-79516534D01*
X124626367Y-79535101D01*
X124588674Y-79546535D01*
X124543339Y-79551000D01*
X123456661Y-79551000D01*
X123411326Y-79546535D01*
X123373633Y-79535101D01*
X123338897Y-79516534D01*
X123308452Y-79491548D01*
X123283466Y-79461103D01*
X123264899Y-79426367D01*
X123253465Y-79388674D01*
X123249000Y-79343339D01*
X123249000Y-78506661D01*
X123253465Y-78461326D01*
X123264899Y-78423633D01*
X123283466Y-78388897D01*
X123308452Y-78358452D01*
X123338897Y-78333466D01*
X123373633Y-78314899D01*
X123411326Y-78303465D01*
X123456661Y-78299000D01*
X124543339Y-78299000D01*
X124588674Y-78303465D01*
X124588674Y-78303465D01*
G37*
G36*
X127388674Y-78278465D02*
G01*
X127426367Y-78289899D01*
X127461103Y-78308466D01*
X127491548Y-78333452D01*
X127516534Y-78363897D01*
X127535101Y-78398633D01*
X127546535Y-78436326D01*
X127551000Y-78481661D01*
X127551000Y-79318339D01*
X127546535Y-79363674D01*
X127535101Y-79401367D01*
X127516534Y-79436103D01*
X127491548Y-79466548D01*
X127461103Y-79491534D01*
X127426367Y-79510101D01*
X127388674Y-79521535D01*
X127343339Y-79526000D01*
X126256661Y-79526000D01*
X126211326Y-79521535D01*
X126173633Y-79510101D01*
X126138897Y-79491534D01*
X126108452Y-79466548D01*
X126083466Y-79436103D01*
X126064899Y-79401367D01*
X126053465Y-79363674D01*
X126049000Y-79318339D01*
X126049000Y-78481661D01*
X126053465Y-78436326D01*
X126064899Y-78398633D01*
X126083466Y-78363897D01*
X126108452Y-78333452D01*
X126138897Y-78308466D01*
X126173633Y-78289899D01*
X126211326Y-78278465D01*
X126256661Y-78274000D01*
X127343339Y-78274000D01*
X127388674Y-78278465D01*
X127388674Y-78278465D01*
G37*
G36*
X147213674Y-78003465D02*
G01*
X147251367Y-78014899D01*
X147286103Y-78033466D01*
X147316548Y-78058452D01*
X147341534Y-78088897D01*
X147360101Y-78123633D01*
X147371535Y-78161326D01*
X147376000Y-78206661D01*
X147376000Y-79293339D01*
X147371535Y-79338674D01*
X147360101Y-79376367D01*
X147341534Y-79411103D01*
X147316548Y-79441548D01*
X147286103Y-79466534D01*
X147251367Y-79485101D01*
X147213674Y-79496535D01*
X147168339Y-79501000D01*
X146331661Y-79501000D01*
X146286326Y-79496535D01*
X146248633Y-79485101D01*
X146213897Y-79466534D01*
X146183452Y-79441548D01*
X146158466Y-79411103D01*
X146139899Y-79376367D01*
X146128465Y-79338674D01*
X146124000Y-79293339D01*
X146124000Y-78206661D01*
X146128465Y-78161326D01*
X146139899Y-78123633D01*
X146158466Y-78088897D01*
X146183452Y-78058452D01*
X146213897Y-78033466D01*
X146248633Y-78014899D01*
X146286326Y-78003465D01*
X146331661Y-77999000D01*
X147168339Y-77999000D01*
X147213674Y-78003465D01*
X147213674Y-78003465D01*
G37*
G36*
X145163674Y-78003465D02*
G01*
X145201367Y-78014899D01*
X145236103Y-78033466D01*
X145266548Y-78058452D01*
X145291534Y-78088897D01*
X145310101Y-78123633D01*
X145321535Y-78161326D01*
X145326000Y-78206661D01*
X145326000Y-79293339D01*
X145321535Y-79338674D01*
X145310101Y-79376367D01*
X145291534Y-79411103D01*
X145266548Y-79441548D01*
X145236103Y-79466534D01*
X145201367Y-79485101D01*
X145163674Y-79496535D01*
X145118339Y-79501000D01*
X144281661Y-79501000D01*
X144236326Y-79496535D01*
X144198633Y-79485101D01*
X144163897Y-79466534D01*
X144133452Y-79441548D01*
X144108466Y-79411103D01*
X144089899Y-79376367D01*
X144078465Y-79338674D01*
X144074000Y-79293339D01*
X144074000Y-78206661D01*
X144078465Y-78161326D01*
X144089899Y-78123633D01*
X144108466Y-78088897D01*
X144133452Y-78058452D01*
X144163897Y-78033466D01*
X144198633Y-78014899D01*
X144236326Y-78003465D01*
X144281661Y-77999000D01*
X145118339Y-77999000D01*
X145163674Y-78003465D01*
X145163674Y-78003465D01*
G37*
G36*
X141488674Y-77953465D02*
G01*
X141526367Y-77964899D01*
X141561103Y-77983466D01*
X141591548Y-78008452D01*
X141616534Y-78038897D01*
X141635101Y-78073633D01*
X141646535Y-78111326D01*
X141651000Y-78156661D01*
X141651000Y-79243339D01*
X141646535Y-79288674D01*
X141635101Y-79326367D01*
X141616534Y-79361103D01*
X141591548Y-79391548D01*
X141561103Y-79416534D01*
X141526367Y-79435101D01*
X141488674Y-79446535D01*
X141443339Y-79451000D01*
X140606661Y-79451000D01*
X140561326Y-79446535D01*
X140523633Y-79435101D01*
X140488897Y-79416534D01*
X140458452Y-79391548D01*
X140433466Y-79361103D01*
X140414899Y-79326367D01*
X140403465Y-79288674D01*
X140399000Y-79243339D01*
X140399000Y-78156661D01*
X140403465Y-78111326D01*
X140414899Y-78073633D01*
X140433466Y-78038897D01*
X140458452Y-78008452D01*
X140488897Y-77983466D01*
X140523633Y-77964899D01*
X140561326Y-77953465D01*
X140606661Y-77949000D01*
X141443339Y-77949000D01*
X141488674Y-77953465D01*
X141488674Y-77953465D01*
G37*
G36*
X139438674Y-77953465D02*
G01*
X139476367Y-77964899D01*
X139511103Y-77983466D01*
X139541548Y-78008452D01*
X139566534Y-78038897D01*
X139585101Y-78073633D01*
X139596535Y-78111326D01*
X139601000Y-78156661D01*
X139601000Y-79243339D01*
X139596535Y-79288674D01*
X139585101Y-79326367D01*
X139566534Y-79361103D01*
X139541548Y-79391548D01*
X139511103Y-79416534D01*
X139476367Y-79435101D01*
X139438674Y-79446535D01*
X139393339Y-79451000D01*
X138556661Y-79451000D01*
X138511326Y-79446535D01*
X138473633Y-79435101D01*
X138438897Y-79416534D01*
X138408452Y-79391548D01*
X138383466Y-79361103D01*
X138364899Y-79326367D01*
X138353465Y-79288674D01*
X138349000Y-79243339D01*
X138349000Y-78156661D01*
X138353465Y-78111326D01*
X138364899Y-78073633D01*
X138383466Y-78038897D01*
X138408452Y-78008452D01*
X138438897Y-77983466D01*
X138473633Y-77964899D01*
X138511326Y-77953465D01*
X138556661Y-77949000D01*
X139393339Y-77949000D01*
X139438674Y-77953465D01*
X139438674Y-77953465D01*
G37*
G36*
X102478674Y-76448465D02*
G01*
X102516367Y-76459899D01*
X102551103Y-76478466D01*
X102581548Y-76503452D01*
X102606534Y-76533897D01*
X102625101Y-76568633D01*
X102636535Y-76606326D01*
X102641000Y-76651661D01*
X102641000Y-77488339D01*
X102636535Y-77533674D01*
X102625101Y-77571367D01*
X102606534Y-77606103D01*
X102581548Y-77636548D01*
X102551103Y-77661534D01*
X102516367Y-77680101D01*
X102478674Y-77691535D01*
X102433339Y-77696000D01*
X101346661Y-77696000D01*
X101301326Y-77691535D01*
X101263633Y-77680101D01*
X101228897Y-77661534D01*
X101198452Y-77636548D01*
X101173466Y-77606103D01*
X101154899Y-77571367D01*
X101143465Y-77533674D01*
X101139000Y-77488339D01*
X101139000Y-76651661D01*
X101143465Y-76606326D01*
X101154899Y-76568633D01*
X101173466Y-76533897D01*
X101198452Y-76503452D01*
X101228897Y-76478466D01*
X101263633Y-76459899D01*
X101301326Y-76448465D01*
X101346661Y-76444000D01*
X102433339Y-76444000D01*
X102478674Y-76448465D01*
X102478674Y-76448465D01*
G37*
G36*
X87001000Y-77551000D02*
G01*
X85999000Y-77551000D01*
X85999000Y-76249000D01*
X87001000Y-76249000D01*
X87001000Y-77551000D01*
X87001000Y-77551000D01*
G37*
G36*
X90301000Y-77551000D02*
G01*
X89299000Y-77551000D01*
X89299000Y-76249000D01*
X90301000Y-76249000D01*
X90301000Y-77551000D01*
X90301000Y-77551000D01*
G37*
G36*
X121788674Y-76278465D02*
G01*
X121826367Y-76289899D01*
X121861103Y-76308466D01*
X121891548Y-76333452D01*
X121916534Y-76363897D01*
X121935101Y-76398633D01*
X121946535Y-76436326D01*
X121951000Y-76481661D01*
X121951000Y-77318339D01*
X121946535Y-77363674D01*
X121935101Y-77401367D01*
X121916534Y-77436103D01*
X121891548Y-77466548D01*
X121861103Y-77491534D01*
X121826367Y-77510101D01*
X121788674Y-77521535D01*
X121743339Y-77526000D01*
X120656661Y-77526000D01*
X120611326Y-77521535D01*
X120573633Y-77510101D01*
X120538897Y-77491534D01*
X120508452Y-77466548D01*
X120483466Y-77436103D01*
X120464899Y-77401367D01*
X120453465Y-77363674D01*
X120449000Y-77318339D01*
X120449000Y-76481661D01*
X120453465Y-76436326D01*
X120464899Y-76398633D01*
X120483466Y-76363897D01*
X120508452Y-76333452D01*
X120538897Y-76308466D01*
X120573633Y-76289899D01*
X120611326Y-76278465D01*
X120656661Y-76274000D01*
X121743339Y-76274000D01*
X121788674Y-76278465D01*
X121788674Y-76278465D01*
G37*
G36*
X124588674Y-76253465D02*
G01*
X124626367Y-76264899D01*
X124661103Y-76283466D01*
X124691548Y-76308452D01*
X124716534Y-76338897D01*
X124735101Y-76373633D01*
X124746535Y-76411326D01*
X124751000Y-76456661D01*
X124751000Y-77293339D01*
X124746535Y-77338674D01*
X124735101Y-77376367D01*
X124716534Y-77411103D01*
X124691548Y-77441548D01*
X124661103Y-77466534D01*
X124626367Y-77485101D01*
X124588674Y-77496535D01*
X124543339Y-77501000D01*
X123456661Y-77501000D01*
X123411326Y-77496535D01*
X123373633Y-77485101D01*
X123338897Y-77466534D01*
X123308452Y-77441548D01*
X123283466Y-77411103D01*
X123264899Y-77376367D01*
X123253465Y-77338674D01*
X123249000Y-77293339D01*
X123249000Y-76456661D01*
X123253465Y-76411326D01*
X123264899Y-76373633D01*
X123283466Y-76338897D01*
X123308452Y-76308452D01*
X123338897Y-76283466D01*
X123373633Y-76264899D01*
X123411326Y-76253465D01*
X123456661Y-76249000D01*
X124543339Y-76249000D01*
X124588674Y-76253465D01*
X124588674Y-76253465D01*
G37*
G36*
X94278674Y-76253465D02*
G01*
X94316367Y-76264899D01*
X94351103Y-76283466D01*
X94381548Y-76308452D01*
X94406534Y-76338897D01*
X94425101Y-76373633D01*
X94436535Y-76411326D01*
X94441000Y-76456661D01*
X94441000Y-77293339D01*
X94436535Y-77338674D01*
X94425101Y-77376367D01*
X94406534Y-77411103D01*
X94381548Y-77441548D01*
X94351103Y-77466534D01*
X94316367Y-77485101D01*
X94278674Y-77496535D01*
X94233339Y-77501000D01*
X93146661Y-77501000D01*
X93101326Y-77496535D01*
X93063633Y-77485101D01*
X93028897Y-77466534D01*
X92998452Y-77441548D01*
X92973466Y-77411103D01*
X92954899Y-77376367D01*
X92943465Y-77338674D01*
X92939000Y-77293339D01*
X92939000Y-76456661D01*
X92943465Y-76411326D01*
X92954899Y-76373633D01*
X92973466Y-76338897D01*
X92998452Y-76308452D01*
X93028897Y-76283466D01*
X93063633Y-76264899D01*
X93101326Y-76253465D01*
X93146661Y-76249000D01*
X94233339Y-76249000D01*
X94278674Y-76253465D01*
X94278674Y-76253465D01*
G37*
G36*
X127388674Y-76228465D02*
G01*
X127426367Y-76239899D01*
X127461103Y-76258466D01*
X127491548Y-76283452D01*
X127516534Y-76313897D01*
X127535101Y-76348633D01*
X127546535Y-76386326D01*
X127551000Y-76431661D01*
X127551000Y-77268339D01*
X127546535Y-77313674D01*
X127535101Y-77351367D01*
X127516534Y-77386103D01*
X127491548Y-77416548D01*
X127461103Y-77441534D01*
X127426367Y-77460101D01*
X127388674Y-77471535D01*
X127343339Y-77476000D01*
X126256661Y-77476000D01*
X126211326Y-77471535D01*
X126173633Y-77460101D01*
X126138897Y-77441534D01*
X126108452Y-77416548D01*
X126083466Y-77386103D01*
X126064899Y-77351367D01*
X126053465Y-77313674D01*
X126049000Y-77268339D01*
X126049000Y-76431661D01*
X126053465Y-76386326D01*
X126064899Y-76348633D01*
X126083466Y-76313897D01*
X126108452Y-76283452D01*
X126138897Y-76258466D01*
X126173633Y-76239899D01*
X126211326Y-76228465D01*
X126256661Y-76224000D01*
X127343339Y-76224000D01*
X127388674Y-76228465D01*
X127388674Y-76228465D01*
G37*
M02*
